<?xml version="1.0"?>
<svg width="1280" height="1024" xmlns="http://www.w3.org/2000/svg" xmlns:svg="http://www.w3.org/2000/svg">
 <defs>
  <linearGradient id="a" x1="0.527295" x2="0.497509" y1="-0.148929" y2="1.474501">
   <stop offset="0%" stop-color="#c69919"/>
   <stop offset="100%" stop-color="#eac40c"/>
  </linearGradient>
  <linearGradient id="b" x1="0" x2="0" y1="0.000016" y2="0.17636">
   <stop offset="0%" stop-color="#b4ec51"/>
   <stop offset="100%" stop-color="#429321"/>
  </linearGradient>
  <linearGradient id="c" x1="-0.009868" x2="-0.009868" y1="-0.002663" y2="1.133629">
   <stop offset="0%" stop-color="#b4ec51"/>
   <stop offset="100%" stop-color="#429321"/>
  </linearGradient>
  <linearGradient id="d" x1="-0.003006" x2="-0.003006" y1="-0.000056" y2="1.21423">
   <stop offset="0%" stop-color="#b4ec51"/>
   <stop offset="100%" stop-color="#429321"/>
  </linearGradient>
  <linearGradient id="e" x1="0.003892" x2="0.003892" y1="0.00005" y2="1.102939">
   <stop offset="0%" stop-color="#b4ec51"/>
   <stop offset="100%" stop-color="#429321"/>
  </linearGradient>
  <linearGradient id="f" x1="-0.000146" x2="-0.000146" y1="0.000761" y2="1.036459">
   <stop offset="0%" stop-color="#b4ec51"/>
   <stop offset="100%" stop-color="#429321"/>
  </linearGradient>
  <linearGradient id="g" x1="0" x2="0" y1="0.001085" y2="1.390169">
   <stop offset="0%" stop-color="#b4ec51"/>
   <stop offset="100%" stop-color="#429321"/>
  </linearGradient>
  <linearGradient id="h" x1="-0.004124" x2="-0.004124" y1="0.00013" y2="1.422352">
   <stop offset="0%" stop-color="#b4ec51"/>
   <stop offset="100%" stop-color="#429321"/>
  </linearGradient>
  <linearGradient id="i" x1="-0.002703" x2="-0.002703" y1="-0.00777" y2="1.682984">
   <stop offset="0%" stop-color="#b4ec51"/>
   <stop offset="100%" stop-color="#429321"/>
  </linearGradient>
  <linearGradient id="j" x1="0.000102" x2="0.000102" y1="0.003405" y2="1.06177">
   <stop offset="0%" stop-color="#b4ec51"/>
   <stop offset="100%" stop-color="#429321"/>
  </linearGradient>
  <linearGradient id="k" x1="0" x2="0" y1="0.00102" y2="1.110941">
   <stop offset="0%" stop-color="#b4ec51"/>
   <stop offset="100%" stop-color="#429321"/>
  </linearGradient>
  <linearGradient id="l" x1="0.006395" x2="0.006395" y1="0.004689" y2="2.919625">
   <stop offset="0%" stop-color="#b4ec51"/>
   <stop offset="100%" stop-color="#429321"/>
  </linearGradient>
  <linearGradient id="m" x1="0.000048" x2="0.000048" y1="0.006489" y2="2.146116">
   <stop offset="0%" stop-color="#b4ec51"/>
   <stop offset="100%" stop-color="#429321"/>
  </linearGradient>
  <linearGradient id="n" x1="0" x2="0" y1="-0.00001" y2="0.217102">
   <stop offset="0%" stop-color="#b4ec51"/>
   <stop offset="100%" stop-color="#429321"/>
  </linearGradient>
  <linearGradient id="o" x1="0.000051" x2="0.000051" y1="-0.005898" y2="3.768604">
   <stop offset="0%" stop-color="#b4ec51"/>
   <stop offset="100%" stop-color="#429321"/>
  </linearGradient>
  <linearGradient id="p" x1="-0.000111" x2="-0.000111" y1="-0.008453" y2="4.172142">
   <stop offset="0%" stop-color="#b4ec51"/>
   <stop offset="100%" stop-color="#429321"/>
  </linearGradient>
  <linearGradient id="q" x1="-0.004102" x2="-0.004102" y1="0.005539" y2="2.570065">
   <stop offset="0%" stop-color="#b4ec51"/>
   <stop offset="100%" stop-color="#429321"/>
  </linearGradient>
  <linearGradient id="r" x1="0.000487" x2="0.000487" y1="0.014293" y2="2.444221">
   <stop offset="0%" stop-color="#b4ec51"/>
   <stop offset="100%" stop-color="#429321"/>
  </linearGradient>
  <linearGradient id="s" x1="0.003369" x2="0.003369" y1="0.00175" y2="1.270924">
   <stop offset="0%" stop-color="#b4ec51"/>
   <stop offset="100%" stop-color="#429321"/>
  </linearGradient>
  <linearGradient id="t" x1="-0.003348" x2="-0.003348" y1="0.006343" y2="0.971524">
   <stop offset="0%" stop-color="#b4ec51"/>
   <stop offset="100%" stop-color="#429321"/>
  </linearGradient>
  <linearGradient id="u" x1="0.005664" x2="0.005664" y1="0.012333" y2="1.107727">
   <stop offset="0%" stop-color="#b4ec51"/>
   <stop offset="100%" stop-color="#429321"/>
  </linearGradient>
  <linearGradient id="v" x1="-0.002084" x2="-0.002084" y1="0.011236" y2="1.891962">
   <stop offset="0%" stop-color="#b4ec51"/>
   <stop offset="100%" stop-color="#429321"/>
  </linearGradient>
  <linearGradient id="w" x1="0" x2="0" y1="-0.005191" y2="2.048608">
   <stop offset="0%" stop-color="#b4ec51"/>
   <stop offset="100%" stop-color="#429321"/>
  </linearGradient>
  <linearGradient id="x" x1="0.00883" x2="0.00883" y1="0.0001" y2="1.081879">
   <stop offset="0%" stop-color="#b4ec51"/>
   <stop offset="100%" stop-color="#429321"/>
  </linearGradient>
  <linearGradient id="y" x1="-0.004359" x2="-0.004359" y1="0.000936" y2="1.018947">
   <stop offset="0%" stop-color="#b4ec51"/>
   <stop offset="100%" stop-color="#429321"/>
  </linearGradient>
  <linearGradient id="z" x1="-0.000011" x2="-0.000011" y1="-0.000017" y2="0.183573">
   <stop offset="0%" stop-color="#b4ec51"/>
   <stop offset="100%" stop-color="#429321"/>
  </linearGradient>
  <linearGradient id="A" x1="-0.004829" x2="-0.004829" y1="-0.000051" y2="1.121887">
   <stop offset="0%" stop-color="#b4ec51"/>
   <stop offset="100%" stop-color="#429321"/>
  </linearGradient>
  <linearGradient id="B" x1="-0.015947" x2="-0.015947" y1="-0.000112" y2="1.214174">
   <stop offset="0%" stop-color="#b4ec51"/>
   <stop offset="100%" stop-color="#429321"/>
  </linearGradient>
  <linearGradient id="C" x1="0.006183" x2="0.006183" y1="-0.005047" y2="1.104308">
   <stop offset="0%" stop-color="#b4ec51"/>
   <stop offset="100%" stop-color="#429321"/>
  </linearGradient>
  <linearGradient id="D" x1="0.002003" x2="0.002003" y1="0.000433" y2="1.046838">
   <stop offset="0%" stop-color="#b4ec51"/>
   <stop offset="100%" stop-color="#429321"/>
  </linearGradient>
  <linearGradient id="E" x1="-0.005738" x2="-0.005738" y1="0.003953" y2="1.437418">
   <stop offset="0%" stop-color="#b4ec51"/>
   <stop offset="100%" stop-color="#429321"/>
  </linearGradient>
  <linearGradient id="F" x1="0.000634" x2="0.000634" y1="-0.005229" y2="1.491847">
   <stop offset="0%" stop-color="#b4ec51"/>
   <stop offset="100%" stop-color="#429321"/>
  </linearGradient>
  <linearGradient id="G" x1="-0.001562" x2="-0.001562" y1="0.000244" y2="1.770789">
   <stop offset="0%" stop-color="#b4ec51"/>
   <stop offset="100%" stop-color="#429321"/>
  </linearGradient>
  <linearGradient id="H" x1="0.003126" x2="0.003126" y1="-0.004962" y2="1.074671">
   <stop offset="0%" stop-color="#b4ec51"/>
   <stop offset="100%" stop-color="#429321"/>
  </linearGradient>
  <linearGradient id="I" x1="-0.002116" x2="-0.002116" y1="-0.000104" y2="1.13205">
   <stop offset="0%" stop-color="#b4ec51"/>
   <stop offset="100%" stop-color="#429321"/>
  </linearGradient>
  <linearGradient id="J" x1="-0.004147" x2="-0.004147" y1="-0.008905" y2="3.066714">
   <stop offset="0%" stop-color="#b4ec51"/>
   <stop offset="100%" stop-color="#429321"/>
  </linearGradient>
  <linearGradient id="K" x1="-0.001898" x2="-0.001898" y1="0.001985" y2="2.401103">
   <stop offset="0%" stop-color="#b4ec51"/>
   <stop offset="100%" stop-color="#429321"/>
  </linearGradient>
  <linearGradient id="L" x1="0" x2="0" y1="-0.001224" y2="0.203596">
   <stop offset="0%" stop-color="#b4ec51"/>
   <stop offset="100%" stop-color="#429321"/>
  </linearGradient>
  <linearGradient id="M" x1="0.001409" x2="0.001409" y1="0.000371" y2="4.056289">
   <stop offset="0%" stop-color="#b4ec51"/>
   <stop offset="100%" stop-color="#429321"/>
  </linearGradient>
  <linearGradient id="N" x1="0.000892" x2="0.000892" y1="-0.001697" y2="4.100094">
   <stop offset="0%" stop-color="#b4ec51"/>
   <stop offset="100%" stop-color="#429321"/>
  </linearGradient>
  <linearGradient id="O" x1="0" x2="0" y1="-0.002716" y2="2.361217">
   <stop offset="0%" stop-color="#b4ec51"/>
   <stop offset="100%" stop-color="#429321"/>
  </linearGradient>
  <linearGradient id="P" x1="-0.002668" x2="-0.002668" y1="-0.00427" y2="2.262396">
   <stop offset="0%" stop-color="#b4ec51"/>
   <stop offset="100%" stop-color="#429321"/>
  </linearGradient>
  <linearGradient id="Q" x1="0.007158" x2="0.007158" y1="-0.001923" y2="1.228499">
   <stop offset="0%" stop-color="#b4ec51"/>
   <stop offset="100%" stop-color="#429321"/>
  </linearGradient>
  <linearGradient id="R" x1="0.004729" x2="0.004729" y1="-0.005492" y2="0.943069">
   <stop offset="0%" stop-color="#b4ec51"/>
   <stop offset="100%" stop-color="#429321"/>
  </linearGradient>
  <linearGradient id="S" x1="0.001762" x2="0.001762" y1="0.005091" y2="1.09119">
   <stop offset="0%" stop-color="#b4ec51"/>
   <stop offset="100%" stop-color="#429321"/>
  </linearGradient>
  <linearGradient id="T" x1="-0.006648" x2="-0.006648" y1="-0.00285" y2="1.769137">
   <stop offset="0%" stop-color="#b4ec51"/>
   <stop offset="100%" stop-color="#429321"/>
  </linearGradient>
  <linearGradient id="U" x1="0.005417" x2="0.005417" y1="-0.002022" y2="1.910105">
   <stop offset="0%" stop-color="#b4ec51"/>
   <stop offset="100%" stop-color="#429321"/>
  </linearGradient>
  <linearGradient id="V" x1="-0.015873" x2="-0.015873" y1="0.00085" y2="1.089667">
   <stop offset="0%" stop-color="#b4ec51"/>
   <stop offset="100%" stop-color="#429321"/>
  </linearGradient>
  <linearGradient id="W" x1="0.006447" x2="0.006447" y1="-0.000092" y2="1.009652">
   <stop offset="0%" stop-color="#b4ec51"/>
   <stop offset="100%" stop-color="#429321"/>
  </linearGradient>
 </defs>
 <g class="layer">
  <title>Layer 1</title>
  <g id="svg_5" transform="translate(366 728.4) scale(4.96823)">
   <path d="m10.4,103.1c0,-2.2 0.1,-4.3 0.3,-6.5l-0.9,-1.2c-0.2,2.5 -0.3,5 -0.3,7.7a92.3,92.3 0 0 0 67.2,88.7l-0.6,-1.2a91.3,91.3 0 0 1 -65.7,-87.6l0,0.1z" fill="url(#b)" id="svg_6" transform="translate(-43.1 -143.6)"/>
  </g>
  <g id="svg_7" transform="translate(214.7 533.4) scale(4.96823)">
   <path d="m12.4,98.3c0.4,-0.8 1.2,-1.7 2.2,-1.4a1.4,1.4 0 0 1 0.8,1.1a3.8,3.8 0 0 1 0,1.5c-0.8,4 -2.2,9 -4.8,12.3c-1.8,-3.8 0,-10 1.8,-13.5z" fill="url(#c)" id="svg_8" transform="translate(-12.7 -104.3)"/>
  </g>
  <g id="svg_9" transform="translate(225.5 612.8) scale(4.96823)">
   <path d="m13.7,115.2c0.2,-0.9 0.7,-1.9 1.6,-1.9a1.5,1.5 0 0 1 1.3,0.9a3.8,3.8 0 0 1 0.4,1.5c0.2,3.4 -0.5,9.3 -3.4,11.6c-1.6,-3.5 -1,-8.6 0,-12.1l0.1,0z" fill="url(#d)" id="svg_10" transform="translate(-14.8 -120.3)"/>
  </g>
  <g id="svg_11" transform="translate(265.5 727.9) scale(4.96823)">
   <path d="m20.1,138.7a4.5,4.5 0 0 1 0.5,-2a1.8,1.8 0 0 1 1.6,-1c1,0 1.5,1 2,2a18.8,18.8 0 0 1 1.5,6.8c0,1 0,6.3 -1.2,6.6s-3,-4.4 -3.4,-5.4a18.3,18.3 0 0 1 -1,-7z" fill="url(#e)" id="svg_12" transform="translate(-22.9 -143.4)"/>
  </g>
  <g id="svg_13" transform="translate(310.8 792.3) scale(4.96823)">
   <path d="m29.4,150.6c0.1,-1 0.5,-2.2 1.5,-2.4a1.7,1.7 0 0 1 1.6,0.7a4.5,4.5 0 0 1 0.7,1.6a35.5,35.5 0 0 1 1.4,8a34.1,34.1 0 0 1 0,4.2c0,1.2 0.1,2.5 -1.2,1.6c-1.7,-1 -2.8,-4.6 -3.3,-6.4a18.7,18.7 0 0 1 -0.7,-7.3z" fill="url(#f)" id="svg_14" transform="translate(-32 -156.4)"/>
  </g>
  <g id="svg_15" transform="translate(182.9 619) scale(4.96823)">
   <path d="m7,117.9a8.7,8.7 0 0 0 -2,-2a3.5,3.5 0 0 0 -2.7,-0.4a3.4,3.4 0 0 0 -2.3,3.1a6.4,6.4 0 0 0 1.4,3.9c2,2.8 6.1,5.4 9.8,5.1c2.7,-0.1 0.6,-2.7 -0.3,-4.1a39.5,39.5 0 0 0 -3.9,-5.6z" fill="url(#g)" id="svg_16" transform="translate(-6.3 -121.5)"/>
  </g>
  <g id="svg_17" transform="translate(219.7 732.5) scale(4.96823)">
   <path d="m14.4,139.9a9,9 0 0 0 -5,-1.5a4.4,4.4 0 0 0 -4,3a4.4,4.4 0 0 0 1,4a10.2,10.2 0 0 0 3.5,2.3c1.8,0.8 11.6,4.4 12.2,1.6c0.3,-1.5 -2,-4.1 -2.8,-5.2a18.7,18.7 0 0 0 -5,-4.2l0.1,0z" fill="url(#h)" id="svg_18" transform="translate(-13.7 -144.4)"/>
  </g>
  <g id="svg_19" transform="translate(277 808.1) scale(4.96823)">
   <path d="m24.2,155.6a7.4,7.4 0 0 0 -3,-1a3,3 0 0 0 -3,4.4a6.8,6.8 0 0 0 2.3,2.4a16,16 0 0 0 5.6,2.6c1,0.3 5.5,1.2 6.3,0.1c1.5,-2.1 -6.7,-7.7 -8.2,-8.5z" fill="url(#i)" id="svg_20" transform="translate(-25.2 -159.6)"/>
  </g>
  <g id="svg_21" transform="translate(447.5 897) scale(4.96823)">
   <path d="m55.8,172.2a4.2,4.2 0 0 1 0.6,-2a1.8,1.8 0 0 1 1.9,-0.7a2.6,2.6 0 0 1 1.3,1.5a33.7,33.7 0 0 1 3,8.6c0.4,1.5 2,7.3 -1.1,5.6c-4.2,-2.2 -6.3,-8.6 -5.7,-13z" fill="url(#j)" id="svg_22" transform="translate(-59.5 -177.5)"/>
  </g>
  <g id="svg_23" transform="translate(385 865.5) scale(4.96823)">
   <path d="m43.6,166.7a4.6,4.6 0 0 1 0,-1.9a1.8,1.8 0 0 1 1.4,-1.3a1.9,1.9 0 0 1 1.8,0.8a5.3,5.3 0 0 1 0.7,1.9l1.7,6.6c0.3,1.4 1.7,4.8 0.9,6c-3.7,-2.5 -6,-7.8 -6.5,-12.1z" fill="url(#k)" id="svg_24" transform="translate(-47 -171.2)"/>
  </g>
  <g id="svg_25" transform="translate(382.2 911.4) scale(4.96823)">
   <path d="m43.5,177.7a6.5,6.5 0 0 0 -3,-0.1a2.5,2.5 0 0 0 -2,2a2.5,2.5 0 0 0 1.2,2a6.1,6.1 0 0 0 2.1,1a24.2,24.2 0 0 0 6.2,0.7c1,0 5.7,0 6.1,-1c0.7,-1.8 -9.3,-4.3 -10.6,-4.6z" fill="url(#l)" id="svg_26" transform="translate(-46.4 -180.4)"/>
  </g>
  <g id="svg_27" transform="translate(339.6 870.4) scale(4.96823)">
   <path d="m34,168.4a5,5 0 0 0 -2.8,-0.1a2,2 0 0 0 -1.5,2c0.1,0.9 1,1.5 1.7,1.9c1.6,0.9 16.1,5.2 14.3,3.5a56,56 0 0 0 -11.8,-7.3l0.1,0z" fill="url(#m)" id="svg_28" transform="translate(-37.8 -172.1)"/>
  </g>
  <g id="svg_29" transform="translate(428.7 243.5) scale(4.96823)">
   <path d="m91.8,8.3a71,71 0 0 1 6.5,-0.5c0.3,-0.4 0.7,-0.8 1.1,-1c-2.5,0 -5.1,0.3 -7.7,0.6a92.4,92.4 0 0 0 -79.7,77.7l1.1,-0.8a91.5,91.5 0 0 1 78.7,-76z" fill="url(#n)" id="svg_30" transform="translate(-55.7 -46)"/>
  </g>
  <g id="svg_31" transform="translate(603.2 67.2) scale(4.96823)">
   <path d="m96.8,9.6c0.9,0.4 1.9,1 1.7,2a1.4,1.4 0 0 1 -1,1a4,4 0 0 1 -1.5,0.1c-4,-0.2 -9.3,-1 -12.8,-3.1c3.5,-2.3 10,-1.3 13.6,0z" fill="url(#o)" id="svg_32" transform="translate(-90.9 -10.5)"/>
  </g>
  <g id="svg_33" transform="translate(525.4 88.6) scale(4.96823)">
   <path d="m80.2,13c0.9,0.2 2,0.6 2,1.5a1.5,1.5 0 0 1 -0.6,1.4a4,4 0 0 1 -1.5,0.5c-3.3,0.7 -9.4,0.7 -12,-1.8c3.3,-2 8.4,-2.2 12,-1.5l0.1,-0.1z" fill="url(#p)" id="svg_34" transform="translate(-75.2 -14.8)"/>
  </g>
  <g id="svg_35" transform="translate(416.5 143) scale(4.96823)">
   <path d="m57.6,22.4a4.5,4.5 0 0 1 2,0.2a1.8,1.8 0 0 1 1.2,1.5c0.1,1 -0.8,1.7 -1.6,2.1a19,19 0 0 1 -6.6,2.5c-1,0.1 -6.3,0.8 -6.8,-0.4s4,-3.6 5,-4a18.7,18.7 0 0 1 6.8,-1.9z" fill="url(#q)" id="svg_36" transform="translate(-53.3 -25.7)"/>
  </g>
  <g id="svg_37" transform="translate(358 197) scale(4.96823)">
   <path d="m47,33.1c1,0 2.2,0.2 2.5,1.2a1.7,1.7 0 0 1 -0.5,1.6a4.8,4.8 0 0 1 -1.5,1a36.4,36.4 0 0 1 -12,3c-1.3,0.1 -2.5,0.4 -1.8,-1c0.8,-1.7 4.2,-3.3 6,-4a19,19 0 0 1 7.3,-1.9l0,0.1z" fill="url(#r)" id="svg_38" transform="translate(-41.5 -36.6)"/>
  </g>
  <g id="svg_39" transform="translate(514.3 48.4) scale(4.96823)">
   <path d="m76.6,6.8a9,9 0 0 0 1.7,-2.3a3.5,3.5 0 0 0 0.1,-2.7a3.4,3.4 0 0 0 -3.4,-1.8a6.5,6.5 0 0 0 -3.6,1.9c-2.6,2.3 -4.7,6.7 -4,10.3c0.6,2.6 2.8,0.2 4.2,-0.8a40,40 0 0 0 5,-4.6z" fill="url(#s)" id="svg_40" transform="translate(-73 -6.7)"/>
  </g>
  <g id="svg_41" transform="translate(406.2 99.2) scale(4.96823)">
   <path d="m55.6,17a9,9 0 0 0 0.9,-5.2a4.4,4.4 0 0 0 -3.5,-3.8a4.5,4.5 0 0 0 -3.8,1.6a9.8,9.8 0 0 0 -2,3.8c-0.5,1.8 -2.8,12 0,12.2c1.6,0 3.9,-2.4 4.8,-3.4a18.6,18.6 0 0 0 3.6,-5.4l0,0.2z" fill="url(#t)" id="svg_42" transform="translate(-51.2 -16.9)"/>
  </g>
  <g id="svg_43" transform="translate(337.9 165.3) scale(4.96823)">
   <path d="m41.3,28.6a7.5,7.5 0 0 0 0.6,-3a3,3 0 0 0 -4.9,-2.6a6.8,6.8 0 0 0 -2.1,2.6a15.6,15.6 0 0 0 -1.8,5.9c-0.1,1 -0.5,5.6 0.6,6.2c2.3,1.3 6.9,-7.6 7.5,-9.1l0.1,0z" fill="url(#u)" id="svg_44" transform="translate(-37.5 -30.2)"/>
  </g>
  <g id="svg_45" transform="translate(271.1 345.3) scale(4.96823)">
   <path d="m28.7,62a4.3,4.3 0 0 1 2,0.3a1.8,1.8 0 0 1 1,1.7a2.6,2.6 0 0 1 -1.3,1.6a34,34 0 0 1 -8.1,4c-1.5,0.6 -7,2.9 -5.8,-0.4c1.7,-4.4 7.8,-7.2 12.2,-7.3l0,0.1z" fill="url(#v)" id="svg_46" transform="translate(-24 -66.4)"/>
  </g>
  <g id="svg_47" transform="translate(294.7 279.3) scale(4.96823)">
   <path d="m32.7,49.2a4.5,4.5 0 0 1 1.9,-0.1a1.8,1.8 0 0 1 1.4,1a1.9,1.9 0 0 1 -0.5,1.9a5.3,5.3 0 0 1 -1.8,1l-6.4,2.5c-1.3,0.5 -4.6,2.3 -5.8,1.7c2,-4 7,-7 11.2,-8z" fill="url(#w)" id="svg_48" transform="translate(-28.8 -53.1)"/>
  </g>
  <g id="svg_49" transform="translate(246.8 282.2) scale(4.96823)">
   <path d="m21.7,50.5a6.4,6.4 0 0 0 -0.3,-3a2.5,2.5 0 0 0 -2.3,-1.6a2.4,2.4 0 0 0 -1.8,1.3a6,6 0 0 0 -0.7,2.3a24.1,24.1 0 0 0 0.1,6.1c0.1,1 0.7,5.7 1.7,6c2,0.4 3.2,-9.7 3.3,-11l0,-0.1z" fill="url(#x)" id="svg_50" transform="translate(-19.1 -53.7)"/>
  </g>
  <g id="svg_51" transform="translate(284.3 235.3) scale(4.96823)">
   <path d="m29.7,39.9a5,5 0 0 0 -0.2,-2.7a2,2 0 0 0 -2.1,-1.2c-0.9,0.2 -1.4,1.1 -1.7,2c-0.7,1.5 -3.2,16.5 -1.7,14.5c1.8,-2.5 5.5,-11 5.7,-12.6z" fill="url(#y)" id="svg_52" transform="translate(-26.7 -44.3)"/>
  </g>
  <g id="svg_53" transform="translate(924 288) scale(4.96823)">
   <path d="m190.4,93.5c0.2,2.1 0.2,4.3 0.1,6.4l1,1.3l0,-7.8a92.3,92.3 0 0 0 -72.2,-84.8l0.7,1.2a91.3,91.3 0 0 1 70.4,83.7z" fill="url(#z)" id="svg_54" transform="translate(-155.4 -54.9)"/>
  </g>
  <g id="svg_55" transform="translate(1086.9 474.2) scale(4.96823)">
   <path d="m188.8,98.3c-0.4,0.9 -1.2,1.9 -2.1,1.6a1.5,1.5 0 0 1 -1,-1a4.2,4.2 0 0 1 0,-1.6c0.5,-4 1.6,-9.1 4,-12.5c2.2,3.6 0.7,10 -1,13.5l0.1,0z" fill="url(#A)" id="svg_56" transform="translate(-188.2 -92.4)"/>
  </g>
  <g id="svg_57" transform="translate(1071.7 395.8) scale(4.96823)">
   <path d="m186.6,81.6c-0.3,0.9 -0.7,1.9 -1.6,2a1.5,1.5 0 0 1 -1.3,-0.8a3.7,3.7 0 0 1 -0.5,-1.5c-0.4,-3.4 0,-9.3 2.7,-11.7c1.8,3.3 1.5,8.4 0.7,12z" fill="url(#B)" id="svg_58" transform="translate(-185.2 -76.6)"/>
  </g>
  <g id="svg_59" transform="translate(1025.4 283.1) scale(4.96823)">
   <path d="m178.8,58.5a4.5,4.5 0 0 1 -0.4,2a1.9,1.9 0 0 1 -1.5,1.1c-1,0 -1.6,-1 -2,-1.8a18.7,18.7 0 0 1 -1.9,-6.8c-0.1,-1 -0.5,-6.3 0.8,-6.7s3.3,4.2 3.7,5.2a18.5,18.5 0 0 1 1.3,7z" fill="url(#C)" id="svg_60" transform="translate(-175.8 -54)"/>
  </g>
  <g id="svg_61" transform="translate(976.2 221.1) scale(4.96823)">
   <path d="m168.8,47.1c0,1 -0.3,2.2 -1.3,2.4a1.7,1.7 0 0 1 -1.6,-0.5a4.6,4.6 0 0 1 -0.8,-1.6a35.9,35.9 0 0 1 -2.1,-12.1c0,-1.3 -0.2,-2.5 1.2,-1.8c1.7,1 3,4.5 3.6,6.3a18.8,18.8 0 0 1 1,7.4l0,-0.1z" fill="url(#D)" id="svg_62" transform="translate(-166 -41.4)"/>
  </g>
  <g id="svg_63" transform="translate(1113.3 387.2) scale(4.96823)">
   <path d="m193.1,78.5a8.9,8.9 0 0 0 2.1,1.8a3.5,3.5 0 0 0 2.7,0.4a3.3,3.3 0 0 0 2.1,-3.3a6.4,6.4 0 0 0 -1.6,-3.8c-2.2,-2.7 -6.5,-5 -10.1,-4.6c-2.6,0.4 -0.4,2.8 0.6,4.2a40.5,40.5 0 0 0 4.2,5.3z" fill="url(#E)" id="svg_64" transform="translate(-193.5 -74.9)"/>
  </g>
  <g id="svg_65" transform="translate(1070.4 276.2) scale(4.96823)">
   <path d="m184.5,57a8.9,8.9 0 0 0 5,1.2a4.4,4.4 0 0 0 4,-3.2a4.5,4.5 0 0 0 -1.3,-3.9a10,10 0 0 0 -3.7,-2.2c-1.8,-0.7 -11.8,-3.7 -12.2,-0.8c-0.2,1.5 2.2,4 3,5a18.6,18.6 0 0 0 5.2,3.9z" fill="url(#F)" id="svg_66" transform="translate(-184.9 -52.5)"/>
  </g>
  <g id="svg_67" transform="translate(1009 203.6) scale(4.96823)">
   <path d="m173.8,41.8a7.5,7.5 0 0 0 3,0.9a3.3,3.3 0 0 0 2.8,-1.4a3.2,3.2 0 0 0 0,-3.2a6.8,6.8 0 0 0 -2.4,-2.3a16,16 0 0 0 -5.7,-2.3c-1.1,-0.2 -5.6,-0.9 -6.3,0.2c-1.5,2.3 7,7.4 8.6,8.1z" fill="url(#G)" id="svg_68" transform="translate(-172.5 -38)"/>
  </g>
  <g id="svg_69" transform="translate(833.6 124.2) scale(4.96823)">
   <path d="m141.3,27a4,4 0 0 1 -0.5,2a1.8,1.8 0 0 1 -1.8,0.8a2.6,2.6 0 0 1 -1.4,-1.4a34,34 0 0 1 -3.6,-8.4c-0.4,-1.5 -2.3,-7.1 0.9,-5.7c4.3,2 6.7,8.3 6.4,12.6l0,0.1z" fill="url(#H)" id="svg_70" transform="translate(-137.2 -22)"/>
  </g>
  <g id="svg_71" transform="translate(898 152.3) scale(4.96823)">
   <path d="m153.8,31.8a4.6,4.6 0 0 1 0,1.9a1.8,1.8 0 0 1 -1.2,1.4a2,2 0 0 1 -1.8,-0.7a5.7,5.7 0 0 1 -1,-1.9l-2,-6.5c-0.3,-1.3 -1.8,-4.7 -1.1,-5.9c3.8,2.3 6.4,7.4 7.1,11.7z" fill="url(#I)" id="svg_72" transform="translate(-150.2 -27.6)"/>
  </g>
  <g id="svg_73" transform="translate(898.3 105.6) scale(4.96823)">
   <path d="m153.3,20.8a6.5,6.5 0 0 0 3,0a2.5,2.5 0 0 0 1.8,-2.2a2.4,2.4 0 0 0 -1.2,-2a6.1,6.1 0 0 0 -2.2,-0.7a23.9,23.9 0 0 0 -6.2,-0.4c-1,0 -5.7,0.3 -6,1.3c-0.7,1.9 9.4,3.8 10.8,4z" fill="url(#J)" id="svg_74" transform="translate(-150.2 -18.2)"/>
  </g>
  <g id="svg_75" transform="translate(943 145.2) scale(4.96823)">
   <path d="m163.4,29.5a5,5 0 0 0 2.6,0a2,2 0 0 0 1.5,-2c-0.2,-0.8 -1,-1.4 -1.9,-1.8c-1.6,-0.8 -16.3,-4.3 -14.4,-2.7c2.3,2 10.6,6.2 12.2,6.5z" fill="url(#K)" id="svg_76" transform="translate(-159.2 -26.2)"/>
  </g>
  <g id="svg_77" transform="translate(889.3 775.8) scale(4.96823)">
   <path d="m114.5,192.6l-6.5,1l-1,1c2.5,-0.2 5,-0.6 7.6,-1a92.4,92.4 0 0 0 75.3,-82l-1,0.8a91.4,91.4 0 0 1 -74.4,80.2z" fill="url(#L)" id="svg_78" transform="translate(-148.4 -153)"/>
  </g>
  <g id="svg_79" transform="translate(724.7 961.6) scale(4.96823)">
   <path d="m109.4,191.6c-0.9,-0.3 -2,-1 -1.8,-1.9a1.5,1.5 0 0 1 1,-1a4,4 0 0 1 1.5,-0.3c4,0 9.3,0.4 13,2.4c-3.4,2.5 -10,2 -13.7,0.8z" fill="url(#M)" id="svg_80" transform="translate(-115.3 -190.5)"/>
  </g>
  <g id="svg_81" transform="translate(801.1 935.8) scale(4.96823)">
   <path d="m125.8,187.2c-0.9,0 -2,-0.4 -2.1,-1.3a1.5,1.5 0 0 1 0.6,-1.4a3.9,3.9 0 0 1 1.4,-0.6c3.3,-0.9 9.3,-1.3 12,1.2c-3,2.2 -8.2,2.5 -11.9,2.1z" fill="url(#N)" id="svg_82" transform="translate(-130.7 -185.3)"/>
  </g>
  <g id="svg_83" transform="translate(906.7 875.2) scale(4.96823)">
   <path d="m147.8,176.6a4.5,4.5 0 0 1 -2,0a1.8,1.8 0 0 1 -1.3,-1.5c0,-0.9 0.7,-1.7 1.5,-2.2a19.2,19.2 0 0 1 6.5,-2.8c1,-0.2 6.3,-1.2 6.8,0s-3.8,3.8 -4.7,4.3a18.7,18.7 0 0 1 -6.8,2.2z" fill="url(#O)" id="svg_84" transform="translate(-152 -173)"/>
  </g>
  <g id="svg_85" transform="translate(962.2 818) scale(4.96823)">
   <path d="m157.9,165.3c-1,0.1 -2.2,0 -2.6,-1a1.7,1.7 0 0 1 0.4,-1.6a4.4,4.4 0 0 1 1.5,-1a35.8,35.8 0 0 1 7.6,-2.9a34.3,34.3 0 0 1 4.2,-0.8c1.3,-0.2 2.5,-0.5 1.9,1c-0.8,1.7 -4.1,3.5 -5.8,4.3a19,19 0 0 1 -7.2,2z" fill="url(#P)" id="svg_86" transform="translate(-163.1 -161.6)"/>
  </g>
  <g id="svg_87" transform="translate(814.5 974.7) scale(4.96823)">
   <path d="m129.7,193.3a8.9,8.9 0 0 0 -1.5,2.3a3.4,3.4 0 0 0 0,2.7a3.4,3.4 0 0 0 3.5,1.7a6.5,6.5 0 0 0 3.6,-2.1c2.4,-2.5 4.2,-7 3.3,-10.6c-0.7,-2.5 -2.8,0 -4.1,1.1a40,40 0 0 0 -4.8,4.9z" fill="url(#Q)" id="svg_88" transform="translate(-133.4 -193.1)"/>
  </g>
  <g id="svg_89" transform="translate(919.3 918.3) scale(4.96823)">
   <path d="m150.1,182a8.9,8.9 0 0 0 -0.6,5.2a4,4 0 0 0 7.4,1.7a9.9,9.9 0 0 0 1.7,-4c0.5,-1.8 2.3,-12 -0.7,-12c-1.5,0 -3.7,2.5 -4.5,3.6a18.6,18.6 0 0 0 -3.3,5.5z" fill="url(#R)" id="svg_90" transform="translate(-154.5 -181.8)"/>
  </g>
  <g id="svg_91" transform="translate(984.2 848.3) scale(4.96823)">
   <path d="m163.8,169.5a7.4,7.4 0 0 0 -0.5,3.2a3,3 0 0 0 5,2a6.8,6.8 0 0 0 2,-2.6a15.7,15.7 0 0 0 1.4,-6c0,-1 0.2,-5.6 -1,-6.2c-2.3,-1 -6.4,8 -6.9,9.6z" fill="url(#S)" id="svg_92" transform="translate(-167.5 -167.7)"/>
  </g>
  <g id="svg_93" transform="translate(1041 665) scale(4.96823)">
   <path d="m174.5,135.6a4.2,4.2 0 0 1 -2,-0.3a1.8,1.8 0 0 1 -1,-1.6a2.6,2.6 0 0 1 1,-1.6a34,34 0 0 1 8,-4.6c1.5,-0.6 7,-3.1 5.9,0.2c-1.5,4.5 -7.5,7.6 -12,7.9l0.1,0z" fill="url(#T)" id="svg_94" transform="translate(-179 -130.8)"/>
  </g>
  <g id="svg_95" transform="translate(1020.6 732.3) scale(4.96823)">
   <path d="m171.2,148.5a4.5,4.5 0 0 1 -1.9,0.3a1.8,1.8 0 0 1 -1.5,-1a1.9,1.9 0 0 1 0.5,-1.9a5.4,5.4 0 0 1 1.7,-1.1c2,-1 4.1,-2 6.2,-2.8c1.3,-0.6 4.5,-2.5 5.8,-2c-1.8,4 -6.6,7.3 -10.8,8.5z" fill="url(#U)" id="svg_96" transform="translate(-174.9 -144.3)"/>
  </g>
  <g id="svg_97" transform="translate(1069.3 727) scale(4.96823)">
   <path d="m182.1,146.6a6.3,6.3 0 0 0 0.5,3a2.2,2.2 0 0 0 4.1,0a6,6 0 0 0 0.5,-2.2a24,24 0 0 0 -0.4,-6.2c-0.2,-0.9 -1,-5.6 -2,-5.8c-2,-0.4 -2.7,9.8 -2.7,11.2z" fill="url(#V)" id="svg_98" transform="translate(-184.7 -143.3)"/>
  </g>
  <g id="svg_99" transform="translate(1033.4 775.6) scale(4.96823)">
   <path d="m174.7,157.7a4.9,4.9 0 0 0 0.4,2.6a2,2 0 0 0 2.2,1.1c0.8,-0.2 1.3,-1.1 1.5,-2c0.6,-1.6 2.3,-16.7 0.9,-14.6a55.1,55.1 0 0 0 -5,12.9z" fill="url(#W)" id="svg_100" transform="translate(-177.4 -153)"/>
  </g>
  <g id="svg_101">
   <path d="m280.249219,605.660938q-12.5,0 -18.8,-4.6q-6.3,-4.7 -6.3,-12q0,-6.5 6.2,-6.5l2,0.1q-0.5,1.7 -0.3,4.7q0.4,6.5 5.1,10.3q4.8,3.9 13,3.9q7.4,0 11.8,-3.5q4.5,-3.5 4.5,-10.2q0,-4.4 -2,-7.6q-2,-3.1 -5.6,-5.8q-3.6,-2.7 -10.4,-6.4q-7.6,-4.3 -12,-7.4q-4.4,-3.3 -7,-7.4q-2.5,-4.2 -2.5,-9.9q0,-9.2 6.7,-13.8q6.7,-4.6 17,-4.6q10.2,0 16.3,3.7q6.1,3.7 6.1,10.2q0,4.7 -4.5,5.2l-1.4,0.2l-2,-0.2q0.3,-1.3 0.3,-2.3q0,-1.3 -0.4,-2.4q-0.4,-4.9 -4.6,-7.6q-4.1,-2.6 -10.6,-2.6q-6,0 -10.2,2.6q-4.2,2.7 -4.2,8.8q0,4.3 2.1,7.5q2.2,3.2 5.7,5.6q3.7,2.5 10.3,6.2q7,3.8 11.6,7.2q4.7,3.4 7.5,7.8q2.8,4.5 2.8,10.5q0,5.4 -2.7,10q-2.6,4.6 -8.5,7.5q-5.8,2.8 -15,2.8zm90.8,-9q1.4,1.8 1.4,3.5q0,2.4 -1.8,3.8t-5,1.4q-8.7,0 -8.7,-11.5l0,-2.2q-2.4,6.6 -7.3,10.3q-5,3.7 -11.6,3.7q-9.2,0 -13.3,-5.4q-4.2,-5.4 -4.3,-18.2l0,-22.1q0,-7.7 -1.5,-12.1q2.5,-2 5.3,-2q2.3,0 3.7,1.3q1.4,1.4 1.4,3.7l0,30.1q0,7.3 1.1,11.6q1.1,4.2 3.5,6.2t6.7,2q3.8,0 7.3,-2.8q3.6,-2.7 5.9,-8.7q2.3,-6 2.3,-15.2q0,-14.5 -0.2,-18.9q-0.3,-4.4 -1.4,-7.4q2.4,-2 5.2,-2q2.2,0 3.7,1.4q1.4,1.5 1.4,4l0.2,41.5q0,3.1 0.7,4.4q0.7,1.3 2.4,1.3q2,0 3,-1.7l-0.1,0zm60,-5.3q0.2,8.6 1.4,12q-2.2,2 -5.2,2q-2.3,0 -3.8,-1.3q-1.4,-1.3 -1.4,-3.6l0,-30.3q-0.1,-9.7 -2.8,-14.4q-2.6,-4.8 -8.9,-4.8q-4,0 -7.6,2.7q-3.6,2.7 -6,8.6q-2.3,5.8 -2.3,14.9q0,14.5 0.2,18.9q0.2,4.3 1.3,7.4q-2.3,2 -5.1,2q-2.4,0 -3.8,-1.5q-1.5,-1.4 -1.5,-4l0,-41.3q-0.1,-3.2 -0.9,-4.5q-0.7,-1.4 -2.2,-1.4q-2.2,0 -3,1.8q-1.3,-1.9 -1.3,-3.6q0,-2.3 1.8,-3.7q1.8,-1.4 5,-1.4q4.2,0 6.4,2.9q2.3,3 2.3,8.6l0,2.3q2.3,-6.6 7.4,-10.3q5,-3.6 11.9,-3.6q18,0 18,23.3l0,22.3l0.1,0zm73.5,5.4q0.6,1.4 0.6,3q0,2.7 -2.2,4.2t-4.5,1.5q-4.1,0 -6.5,-2.6q-2.5,-2.7 -4.8,-8.5l-5.2,-13.4q-1.5,-3.8 -2.8,-6q-1.3,-2 -4,-3.6q-2.7,-1.5 -7.3,-1.5l-8.3,0l0,21.8q0,2.7 0.3,6.2q0.3,3.4 1.1,5.5q-0.8,0.8 -2.1,1.4q-1.3,0.6 -3,0.6q-2.4,0 -3.8,-1.4q-1.5,-1.3 -1.6,-3.6l0,-61q0,-2.7 -0.4,-6.2q-0.3,-3.6 -1,-5.8q4.6,-2.5 16.4,-2.5q16,0 23.7,5q7.6,5 7.6,16.2q0,8 -4.6,13.7q-4.7,5.6 -12.5,7.6q3.9,1.2 6.3,4q2.4,2.9 4.4,7.4l5.6,13.2q1.4,3.3 2.6,4.7q1.3,1.4 2.7,1.5q2,0 3.3,-1.5l0,0.1zm-45,-31l8.7,0.2q8.2,-0.2 13.4,-5.4q5.3,-5.2 5.3,-13.6q0,-9.2 -5,-13.6t-16,-4.4q-4.4,0 -6.4,0.4l0,36.5l0,-0.1zm106.7,30.3q1.3,1.6 1.3,3.4q0,2.5 -2.3,4.2q-2.4,1.7 -5.6,1.7q-4.8,0 -7.3,-3.4t-2.5,-10.6l0,-3.2q-3.7,8 -10,12.6q-6.4,4.7 -13.9,4.7q-6.5,0 -10.3,-3.6q-3.7,-3.5 -3.7,-9.4q0,-6.7 5,-11.3q5,-4.6 13.6,-7q7.5,-2 15.6,-2q2.3,0 3.3,0.2l0,-3q0,-10 -3.3,-14.8q-3.3,-4.8 -11,-4.8q-5,0 -8.3,2.1q-3.4,2.2 -3.4,7q0,2.6 1.2,4.8q1.2,2.3 3.7,3.2q-1.8,2.2 -5.4,2.2q-3.7,0 -6,-3q-2.4,-3 -2.4,-6.9q0,-6.5 5.7,-10q5.7,-3.4 15.7,-3.4q11.6,0 17,6q5.6,5.9 5.6,18.2l0,22.5q0,6 4,6q1,0 2,-0.7q1.2,-0.6 1.7,-1.7zm-36.7,3.1q4.5,0 9.2,-3.3q4.6,-3.3 7.7,-8.7q3,-5.4 3.2,-11.2l-2.6,-0.1q-4,0 -8,0.6t-6.8,1.7q-5,1.8 -7.7,5q-2.9,3 -2.9,7.4q0,3.7 2,6.1q1.9,2.5 6,2.5l-0.1,0zm92.3,-48l0,47.6q0,31.6 -26.3,31.6q-8,0 -13.6,-3q-5.6,-2.8 -5.6,-9.1q0,-3.2 1.9,-5.3q1.8,-2.1 4.9,-2.1q3,0 4.3,1.7q-1.4,0.8 -2.1,2.4q-0.7,1.5 -0.7,2.8q0,4.4 3.2,6.6q3.2,2.2 7.7,2.2q9.2,0 13.6,-7t4.4,-20.7q0,-3.7 0.3,-8.1q-2.4,6.8 -7.3,10.6q-5,3.9 -12.1,3.9q-8.7,0 -12.8,-5.5q-4.2,-5.4 -4.3,-18.1l0,-21.8q0,-7.7 -1.4,-12.1q2.4,-2 5.2,-2q2.3,0 3.7,1.3q1.4,1.4 1.4,3.7l0.1,29.8q0,10.3 2.4,15q2.4,4.6 8,4.6q6.9,0 11.6,-6.6q4.7,-6.5 4.7,-20.1q0,-14.1 -0.2,-18.4q-0.2,-4.3 -1.4,-7.3q2.4,-2 5.2,-2q2.3,0 3.7,1.4q1.5,1.5 1.5,4zm58.4,38.6q1.6,0.5 1.6,2.6q0,1 -0.6,3q-2.2,5 -7.5,7.6q-5.3,2.7 -12.5,2.7q-12.4,0 -19.3,-7.7q-7,-7.7 -7,-22q0,-14 7,-22.1q6.8,-8.1 19.7,-8.1q9.3,0 15,4.2q5.6,4.2 5.6,12q0,8.2 -6.8,12.6q-6.7,4.4 -18.7,4.4q-6.6,0 -12.1,-0.8q0.6,11.3 5.6,16.3t13.1,5q6.2,0 10.7,-2.5q4.5,-2.5 6.2,-7.2zm-19,-40q-7.6,0 -12,6.4q-4.6,6.3 -4.7,18.2l8.7,0.5q9,0 14.2,-3.1q5.2,-3.3 5.2,-11q0,-6 -3.2,-8.5q-3.3,-2.5 -8.1,-2.5l-0.1,0zm116.3,41.6q0,8.2 1.4,12q-2.3,2 -5.2,2q-2.3,0 -3.7,-1.3q-1.5,-1.3 -1.5,-3.6l-0.1,-34.6l-36.6,0l0,25.5q0,8.2 1.4,12q-2.3,2 -5.2,2q-2.3,0 -3.7,-1.3q-1.5,-1.3 -1.5,-3.6l-0.1,-61q0,-7.8 -1.5,-12q2.4,-2 5.3,-2q2.4,0 3.8,1.2q1.5,1.3 1.5,3.7l0,30l36.6,0l0,-21q0,-7.7 -1.5,-12q2.4,-2 5.3,-2q2.3,0 3.8,1.3t1.5,3.7l0,61zm41.4,14.3q-12.1,0 -19,-8q-6.7,-7.8 -6.7,-22q0,-14.1 6.8,-22q6.8,-8 18.9,-8q12.2,0 19,8q6.8,7.9 6.8,22q0,14.2 -6.8,22q-6.8,8 -19,8zm0,-4q7.8,0 12,-6.7t4.2,-19.3q0,-12.5 -4.2,-19.2q-4.2,-6.6 -12,-6.6q-7.9,0 -12,6.6q-4.2,6.7 -4.2,19.2q0,12.6 4.2,19.3q4.1,6.7 12,6.7zm86.5,-10.3q0.3,8.6 1.5,12q-2.2,2 -5.2,2q-2.3,0 -3.8,-1.3q-1.4,-1.3 -1.4,-3.6l0,-30.3q-0.2,-9.7 -2.8,-14.4q-2.6,-4.8 -9,-4.8q-3.9,0 -7.5,2.7t-6,8.6q-2.4,5.8 -2.4,14.9q0,14.5 0.3,18.9q0.2,4.3 1.3,7.4q-2.4,2 -5.2,2q-2.3,0 -3.8,-1.5q-1.4,-1.4 -1.4,-4l0,-41.3q-0.1,-3.2 -0.9,-4.5q-0.7,-1.4 -2.3,-1.4q-2.1,0 -2.9,1.8q-1.3,-1.9 -1.3,-3.6q0,-2.3 1.8,-3.7q1.8,-1.4 4.9,-1.4q4.3,0 6.5,2.9q2.2,3 2.2,8.6l0,2.3q2.4,-6.6 7.5,-10.3q5,-3.6 11.9,-3.6q18,0 18,23.3l0,22.3zm58.8,-1.6q1.7,0.5 1.7,2.6q0,1 -0.6,3q-2.2,5 -7.5,7.6q-5.3,2.7 -12.5,2.7q-12.4,0 -19.3,-7.7q-7,-7.7 -7,-22q0,-14 7,-22.1q6.8,-8.1 19.7,-8.1q9.3,0 15,4.2q5.6,4.2 5.6,12q0,8.2 -6.8,12.6q-6.6,4.4 -18.6,4.4q-6.6,0 -12.1,-0.8q0.6,11.3 5.6,16.3t13.1,5q6.2,0 10.7,-2.5q4.5,-2.5 6.1,-7.2l-0.1,0zm-18.8,-40q-7.6,0 -12.2,6.4q-4.5,6.3 -4.6,18.2l8.7,0.5q9,0 14.2,-3.1q5.2,-3.3 5.2,-11q0,-6 -3.2,-8.5q-3.3,-2.5 -8.1,-2.5zm79.2,1.4l0.2,47.6q0,31.6 -26.4,31.6q-8.1,0 -13.7,-3q-5.5,-2.8 -5.5,-9.1q0,-3.2 1.8,-5.3q1.9,-2.1 5,-2.1q3,0 4.3,1.7q-1.5,0.8 -2.1,2.4q-0.7,1.5 -0.7,2.8q0,4.4 3.2,6.6q3.2,2.2 7.7,2.2q9.2,0 13.6,-7q4.3,-7 4.3,-20.7q0,-3.7 0.4,-8.1q-2.4,6.8 -7.3,10.6q-5,3.9 -12.2,3.9q-8.6,0 -12.8,-5.5q-4.1,-5.4 -4.2,-18.1l0,-21.8q0,-7.7 -1.5,-12.1q2.5,-2 5.3,-2q2.3,0 3.7,1.3q1.4,1.4 1.4,3.7l0,29.8q0,10.3 2.5,15q2.4,4.6 8,4.6q6.9,0 11.6,-6.6q4.7,-6.5 4.7,-20.1q0,-14.1 -0.2,-18.4q-0.3,-4.3 -1.4,-7.3q2.4,-2 5.2,-2q2.2,0 3.7,1.4q1.4,1.5 1.4,4z" fill="#cc9c15" id="svg_1"/>
   <path d="m329.099609,652.961719q0,-12.3 7.5,-19.9q7.3,-7.5 19.2,-7.5q9.6,0 15.5,6.1q5.9,6 5.9,15.6q0,5.6 -2,10.6q-2.2,5.1 -5.6,8.9q-3.5,3.7 -8,6.2t-9.4,3.4l0,11.7q0,2 -2.5,2q-1.5,0 -3,-0.7q-1.4,-0.8 -1.4,-1.8l0,-46.3q0,-1 -0.2,-1.9l-0.2,-1q0,-0.6 0.7,-1q0.7,-0.5 1.7,-0.5q2.1,0 3.5,1.1q1.4,1.2 1.4,2.8l0,29q2,-0.2 4.2,-1.1q2.3,-1 4.8,-2.8q2.5,-1.9 4.5,-4.3q2,-2.5 3.3,-6.2q1.4,-3.7 1.4,-8q0,-2 -0.5,-4.1q-0.5,-2 -1.7,-4q-1,-2.1 -2.7,-3.6q-1.6,-1.5 -4.1,-2.5q-2.5,-0.9 -5.5,-0.9q-5.2,0 -9.1,1.6q-4,1.6 -6.3,4.5q-2.3,2.8 -3.4,6.4q-1.2,3.5 -1.2,7.7l0.1,2.4l0.3,2l0.5,1.8l0.4,1.4l0.6,1.2l0.5,0.9l0.5,0.5l0.3,0.5l0.2,0.1q1.3,-0.3 1.3,1.2q0,1 -0.7,2.6q-0.7,1.7 -1.9,2.7q-1.2,1.1 -2.4,0.2q-0.8,-0.7 -1.6,-1.8q-0.9,-1.1 -2,-3.2q-1.3,-2 -2,-5.2q-0.8,-3.1 -0.8,-6.8l-0.1,0zm48.9,24.5q0,-4.2 0.8,-9.1q0.8,-5 1.6,-8l0.8,-2.8l0.3,-0.9q0,-0.6 0.3,-1l0.5,-0.7q0.5,-0.4 1.3,-0.5q1,-0.2 2.3,-0.2q1.2,0 1.8,0.4q0.6,0.3 0.6,1l-0.1,1.2l-0.5,1.3l-0.4,1l-1.4,6q-0.5,2 -0.8,5.2q-0.4,3.1 -0.4,6.6q0,3.6 1,5.5q1.2,2 3.1,2q2.5,0 4.5,-3.6q1.9,-3.4 2.8,-8.4l0,-14.3q0,-1.5 -0.5,-2.4l-0.4,-1q0,-0.4 0.9,-0.7q0.9,-0.2 2,-0.2q2,0 3.4,1q1.3,1.2 1.3,2.8l0,22.6q0,4 2.3,4q4,0 6,-9.5q0.2,-1.3 0.8,-2q0.6,-0.7 1.3,-0.7q1,0 2,1.2t1,2.5l0,0.6q-0.7,2.5 -1.6,4.6q-1,2.2 -2.4,4.4q-1.5,2.2 -3.8,3.5q-2.2,1.3 -4.9,1.3q-2.9,0 -4.8,-1.8q-2,-1.7 -2.5,-4.5q-3.6,6.4 -8.8,6.4q-4.4,0 -7,-3.5q-2.4,-3.5 -2.4,-9.3zm30.7,-24.3q0,-1.8 1.4,-3q1.3,-1 3,-1q1.9,0 3.4,1q1.5,1.1 2.3,3.7q2.9,0.3 4.6,0.3l4.6,0q1,0 2.8,1.8q1.5,1.6 1.5,2.9l0,0.3l-1,3.5q-1,3.3 -2,8.1q-1,4.9 -1,8.8q0,2 1,3.3q0.9,1.4 2.6,1.4q4.4,0 6.3,-9.5q0.3,-1.3 0.9,-2q0.5,-0.7 1.2,-0.7q1.1,0 2.1,1.2t1,2.5l0,0.6q-0.7,2.5 -1.7,4.6q-0.9,2.2 -2.4,4.4t-3.7,3.5q-2.2,1.3 -5,1.3q-1.6,0 -3.1,-0.5t-3,-1.6q-1.3,-1.1 -2.1,-3.2q-0.8,-2 -0.8,-4.8q0,-7.7 4.4,-19.6l-7.7,0q-0.3,10 -2.2,16.3q-0.6,1.7 -1.9,1.7l-0.6,-0.1q-1.4,-0.4 -2.2,-2q-0.5,-1 -0.3,-2q1.2,-4.2 1.4,-15.5q-3.8,-2.2 -3.8,-5.7zm28.7,19.4q0,-8.2 4.1,-14q4.2,-5.6 9.4,-5.6q3.7,0 5.9,2.4q2.1,2.5 2.1,6.5q0,3.4 -1.4,6.7q-1.4,3.3 -4.5,6.2q-3,2.8 -7.2,4q2.3,5.5 8.3,5.5q2.4,0 4.4,-1q2,-0.9 3.2,-2.6q1.2,-1.7 2,-3.5q0.7,-1.8 1.2,-4q0.3,-2 1.7,-2.3l0.8,0q1,0 1.9,0.6q1,1 1,2.2l0,0.4q-0.2,1.8 -0.8,3.7q-0.5,2 -1.8,4.2q-1.3,2.4 -3,4.1q-2,1.7 -4.9,2.9q-3,1.2 -6.7,1.2q-3,0 -5.8,-1.2q-2.8,-1.3 -5,-3.4q-2.3,-2.2 -3.6,-5.6q-1.3,-3.3 -1.3,-7.4zm7.3,-0.2l0,1.6q3.4,-1.5 5.3,-4.8q2,-3.2 2,-7.2q0,-1.5 -0.5,-2.3q-0.5,-0.8 -1.3,-0.8q-1.6,0 -2.7,1.5q-1.2,1.6 -1.7,3.8q-0.7,2.3 -1,4.5l-0.1,3l0,0.7zm38.1,-21.4q0,-12.4 7.4,-19.9q7.4,-7.5 19.3,-7.5q10.1,0 16.1,5.4q6,5.4 6,14.7q0,13 -11.4,19.1q4.2,1.2 6.7,4.7q2.6,3.5 2.6,8.9q0,6.6 -4.4,11q-4.5,4.3 -11,4.3q-4.3,0 -7.3,-1.3t-4.7,-3.8q-1.7,-2.5 -2.4,-5.7t-0.7,-7.5l0,-32.1q0,-1 -0.2,-1.9l-0.2,-1q0,-0.6 0.7,-1q0.7,-0.5 1.6,-0.5q2.2,0 3.6,1.1q1.4,1.2 1.4,2.8l0,33q0,6.2 2,9q2,2.9 6,2.9q3.8,0 6.2,-2.6q2.5,-2.6 2.5,-6.5q0,-2.8 -1,-5q-1,-2 -2.8,-3.2q-1.7,-1.1 -3.7,-1.6t-4.2,-0.5q-0.8,0 -1.4,-1.7q-0.5,-1.2 -0.5,-2.5l0.1,-0.8q0.2,-1.6 1.4,-1.7q1.1,0 2.5,-0.3q1.4,-0.2 3,-0.9q1.7,-0.6 3.2,-1.8q1.5,-1.2 2.8,-2.8q1.3,-1.7 2,-4.2q0.8,-2.5 0.8,-5.6q0,-2.6 -0.8,-5q-1,-2.3 -2.7,-4.3q-1.7,-2 -4.8,-3.1q-3,-1.2 -7,-1.2q-5.1,0 -9,1.6q-4,1.6 -6.3,4.5q-2.3,2.8 -3.5,6.3q-1.1,3.6 -1.1,7.8l0,2.4l0.4,2l0.4,1.8l0.5,1.4l0.5,1.1l0.6,0.9l0.4,0.6l0.3,0.4l0.2,0.2q1.4,-0.3 1.4,1.2q0,1 -0.7,2.6t-2,2.7q-1.1,1 -2.3,0.2q-0.9,-0.8 -1.7,-1.8l-2,-3.2q-1.2,-2 -2,-5.2t-0.8,-6.8l0,-0.1zm51.2,2.2q0,-1.8 1.3,-3q1.4,-1 3.1,-1q1.9,0 3.4,1q1.5,1.1 2.2,3.7q3,0.3 4.7,0.3l4.6,0q1,0 2.8,1.8q1.5,1.6 1.5,2.9l0,0.3l-1,3.5q-1,3.3 -2,8.1q-1,4.9 -1,8.8q0,2 1,3.3q0.8,1.4 2.5,1.4q4.5,0 6.4,-9.5q0.3,-1.3 0.8,-2q0.6,-0.7 1.3,-0.7q1,0 2.1,1.2q1,1.2 1,2.5l0,0.6q-0.8,2.5 -1.7,4.6q-1,2.2 -2.4,4.4q-1.5,2.2 -3.7,3.5q-2.3,1.3 -5,1.3q-1.6,0 -3.1,-0.5q-1.6,-0.5 -3,-1.6q-1.3,-1.1 -2.2,-3.2q-0.8,-2 -0.8,-4.8q0,-7.7 4.5,-19.6l-7.8,0q-0.2,10 -2.2,16.3q-0.5,1.7 -1.8,1.7l-0.6,-0.1q-1.5,-0.4 -2.2,-2q-0.6,-1 -0.3,-2q1.2,-4.2 1.4,-15.5q-3.8,-2.2 -3.8,-5.7zm28.7,20.5q0,-3.7 0.7,-7.2q0.8,-3.4 2,-5.8q1,-2.4 2.3,-4.3q1.2,-1.8 2.3,-2.7q1.1,-1 1.7,-1q0.8,0 1.6,0.8q0.7,0.8 1,1.8q0.3,1 0.2,2q-0.2,1.2 -1,1.7q-1.9,2.7 -2.6,4.6q-1.5,3.9 -1.5,9.6q0,5.3 1.8,8.2q1.8,3 4.6,3q3.3,0 5.2,-3.5q-3,-2.6 -4.7,-6.7q-1.7,-4.2 -1.7,-9q0,-4.5 2,-7.4q1.8,-3 5.2,-3q3.1,0 5.3,4.3q2.3,4.2 2.3,10.6q0,5.2 -1.3,9.6q0.8,0.2 1.8,0.2q2.7,0 4.3,-1.8q1.6,-1.8 2,-4.6q0.2,-1 1.8,-1.4l0.8,0q1.3,0 2.1,1q0.5,0.6 0.5,1.7l0,1.2q-1,3.9 -3.8,6.3q-2.7,2.5 -7,2.5q-2.5,0 -4.4,-0.6q-3.6,6.4 -10.6,6.4q-6.4,0 -9.6,-4.7q-3.3,-4.7 -3.3,-11.8zm16.6,-8.8q0,6 3.4,10.3q0.3,-2.1 0.3,-4q0,-5.3 -0.5,-8q-0.4,-2.5 -1.7,-2.5q-1.5,0 -1.5,4.2zm16.6,-9.6q0,-0.6 0.6,-1q0.7,-0.4 1.7,-0.4q2.2,0 3.4,1q1.3,1.2 1.3,2.8l0,4q4.3,-8.7 10,-8.7q2.1,0 3.6,0.7q1.5,0.9 2.3,2.2q0.8,1.4 1.1,2.9q0.4,1.4 0.4,3.1l0,18.4q0,4 2.3,4q4,0 5.9,-9.5q0.2,-1.3 0.8,-2q0.6,-0.7 1.3,-0.7q1,0 2.1,1.2q1,1.2 1,2.5l0,0.6l-1.2,3.7q-0.7,1.7 -1.8,3.6q-1,2 -2.4,3.3q-1.3,1.4 -3.2,2.3q-2,0.9 -4.2,0.9q-3.4,0 -5.4,-2.4q-2,-2.4 -2,-6l0,-20l-0.3,-1.5q-0.2,-0.7 -0.6,-1.1q-0.3,-0.4 -1,-0.4q-1.3,0 -3.2,2.1q-1.9,2.2 -3.5,5.7t-2,6.8l0,15l-0.5,1l-0.7,0.5q-0.5,0.3 -1.2,0.3q-4.3,0 -4.3,-4l0,-28q0,-1 -0.2,-1.9l-0.1,-1zm32,19q0.8,-2.7 1.5,-8.3q0.9,-5.7 0.9,-8.8q0,-2.4 1.2,-3.3q1.2,-1 4,-1q3.1,0 4.7,2.4q2.7,4.6 6,11.7q3.6,-5.4 7,-11.8q1.2,-2.3 2.5,-2.3t2.5,1.5q1.2,1.5 1.2,3q0,0.9 -0.4,1.4l-10,14.3q3,6.2 4.8,8.9q2,2.7 4.3,2.7q3.8,0 5.8,-10q0.3,-1.2 0.9,-2q0.5,-0.6 1.2,-0.6q1.1,0 2.1,1.2t1,2.5l0,0.6q-3.6,13.8 -11.8,13.8q-4,0 -6.8,-2.5q-2.8,-2.6 -5.6,-8.6l-6,8.4q-1.7,2.7 -4,2.7q-1.6,0 -3,-0.9q-1.6,-0.8 -1.6,-2q0,-0.4 0.3,-0.7l0.6,-0.5q0.4,-0.2 1.2,-1l1.8,-1.7q4.3,-5.2 8,-10.3q-3,-6.5 -6.4,-12.4q0,3 -1,8t-2,8q-0.4,1.8 -1.7,1.8l-0.6,-0.1q-1.5,-0.4 -2.3,-2q-0.5,-1 -0.2,-2l-0.1,-0.1zm55.2,-25.3q0,-4.3 2.2,-8.7q2.2,-4.4 5.7,-7.8q3.4,-3.4 8,-5.5q4.5,-2.1 9,-2.1q5,0 8,3q3,3.2 3,8.4q0,3.5 -1.8,7.1q-1.8,3.6 -4.5,6.2q-2.6,2.6 -5.5,4.2q-3,1.7 -5,1.7t-3.5,-1.8q-1.4,-1.7 -1.4,-3.4q0,-0.7 0.2,-0.8q0.2,-0.2 0.9,0l1.2,0.2q2.4,0 5.3,-2.1q3,-2 5.2,-5.3q2.2,-3.1 2.2,-6q0,-4.8 -4.8,-4.8q-2.5,0 -5.5,1.4t-5.7,3.7q-2.7,2.3 -4.5,5.6q-1.8,3.3 -1.8,6.8q0,2.7 1.2,5q1.2,2.4 3.1,4.1q2,1.7 4.2,3.3q2.4,1.5 4.7,3.2q2.3,1.6 4.2,3.4q2,1.8 3.1,4.3q1.2,2.5 1.2,5.5q0,5.4 -3.8,9.2q-3.8,3.9 -9.4,3.9q-2.1,0 -3.8,-0.4q-1.8,-0.4 -2.8,-1q-1,-0.6 -1.7,-1.3q-0.7,-0.6 -1,-1.1l-0.2,-0.7q0,-1.5 1.2,-3.3q1.2,-1.8 2.2,-1.8q0.6,0 1,0.8q2.1,2.1 5.1,2.1q2.8,0 4.5,-1.6q1.7,-1.7 1.7,-4.6q0,-2 -1.2,-4q-1.1,-1.7 -3,-3.2l-4.3,-3q-2.3,-1.4 -4.6,-3.1q-2.3,-1.8 -4.2,-3.9q-2,-2 -3.1,-5.1q-1.2,-3 -1.2,-6.7zm35.1,6.3q0,-0.6 0.7,-1t1.7,-0.4q2.1,0 3.4,1q1.3,1.2 1.3,2.8l0,20.3q0,1.4 0.2,2.4q0.1,1 0.6,2q0.4,1 1.3,1.4q1,0.5 2.3,0.5q4.4,0 4.4,-6.3l0,-19.8q0,-1 -0.2,-1.9l-0.1,-1q0,-0.6 0.6,-1q0.7,-0.4 1.6,-0.4q2.2,0 3.5,1q1.3,1.2 1.3,2.8l0,20.3q0.1,3.2 1,4.7q1,1.6 3.4,1.6q4.4,0 4.4,-6.3l0,-19.8q0,-1 -0.2,-1.9l-0.2,-1q0,-0.6 0.7,-1t1.7,-0.4q2.1,0 3.4,1q1.3,1.2 1.3,2.8l0,20.3q0,12.2 -10.8,12.2q-2.7,0 -4.9,-1.2q-2.1,-1.3 -3.1,-3q-1,1.7 -3.2,3q-2.4,1.2 -4.9,1.2q-10.8,0 -10.8,-12.2l0,-19.8q0,-1 -0.2,-1.9l-0.2,-1zm43.3,17.3q0,-8.2 4.2,-14q4.1,-5.6 9.4,-5.6q3.7,0 5.8,2.4q2.2,2.5 2.2,6.5q0,3.4 -1.4,6.7q-1.5,3.3 -4.5,6.2q-3.1,2.8 -7.2,4q2.3,5.5 8.2,5.5q2.5,0 4.4,-1q2,-0.9 3.2,-2.6q1.3,-1.7 2,-3.5q0.8,-1.8 1.2,-4q0.4,-2 1.8,-2.3l0.7,0q1,0 2,0.6q1,1 1,2.2l0,0.4l-0.8,3.7q-0.6,2 -1.8,4.2q-1.3,2.4 -3.2,4.1q-1.8,1.7 -4.7,2.9q-3,1.2 -6.8,1.2q-3,0 -5.8,-1.2q-2.8,-1.3 -5,-3.4q-2.2,-2.2 -3.6,-5.6q-1.3,-3.3 -1.3,-7.4zm7.3,-0.2l0,1.6q3.4,-1.5 5.4,-4.8q2,-3.2 2,-7.2q0,-1.5 -0.5,-2.3q-0.5,-0.8 -1.4,-0.8q-1.5,0 -2.7,1.5q-1.2,1.6 -1.7,3.8q-0.6,2.3 -0.9,4.5l-0.2,3l0,0.7zm19,0.2q0,-8.2 4.2,-14q4.1,-5.6 9.4,-5.6q3.7,0 5.8,2.4q2.2,2.5 2.2,6.5q0,3.4 -1.4,6.7q-1.5,3.3 -4.5,6.2q-3.1,2.8 -7.2,4q2.3,5.5 8.2,5.5q2.5,0 4.4,-1q2,-0.9 3.2,-2.6q1.3,-1.7 2,-3.5q0.8,-1.8 1.2,-4q0.4,-2 1.8,-2.3l0.7,0q1,0 2,0.6q1,1 1,2.2l0,0.4l-0.8,3.7q-0.6,2 -1.9,4.2q-1.2,2.4 -3,4.1q-1.9,1.7 -4.9,2.9q-3,1.2 -6.6,1.2q-3,0 -5.9,-1.2q-2.8,-1.3 -5,-3.4q-2.2,-2.2 -3.5,-5.6q-1.4,-3.3 -1.4,-7.4zm7.3,-0.2l0,0.8l0.1,0.8q3.3,-1.5 5.3,-4.8q2,-3.2 2,-7.2q0,-1.5 -0.5,-2.3q-0.5,-0.8 -1.4,-0.8q-1.5,0 -2.7,1.5q-1.1,1.6 -1.7,3.8q-0.6,2.3 -0.9,4.5l-0.2,3l0,0.7zm11.2,-25.8q0.3,-0.6 1,-0.6l8,0.3l0,-15q0,-1.5 -0.4,-2.4l-0.5,-1q0,-0.3 1,-0.6q0.8,-0.3 1.9,-0.3q2.1,0 3.4,1.1q1.3,1.1 1.3,2.8l0,15.5q8.6,0 17.7,-0.4q1.1,-1.2 1.4,0.5l0.1,1q0,1.4 -0.6,3q-0.7,1.4 -1.5,1.5q-7.1,0.2 -17,0.2l0,28q0,4.1 3,4.1q4,0 5.9,-9.5q0.2,-1.3 0.8,-2q0.6,-0.7 1.3,-0.7q1,0 2.1,1.2q1,1.2 1,2.5l0,0.6l-1.2,3.7q-0.7,1.7 -1.8,3.6q-1,2 -2.4,3.3q-1.3,1.4 -3.2,2.3q-2,0.9 -4.1,0.9q-3.9,0 -6,-2.4q-2.2,-2.4 -2.2,-7.5l0,-28.1l-6.1,-0.2q-1.7,0 -2.7,-2.2q-0.5,-1.1 -0.5,-2q0,-0.7 0.3,-1.2zm24.6,8.7q0,-0.6 0.7,-1t1.7,-0.4q2.1,0 3.4,1q1.3,1.2 1.3,2.8l0,4q4.2,-8.7 10,-8.7q2.1,0 3.6,0.7q1.5,0.9 2.3,2.2q0.8,1.4 1.1,2.9q0.3,1.4 0.3,3.1l0,18.4q0,4 2.3,4q4,0 6,-9.5q0.2,-1.3 0.8,-2q0.6,-0.7 1.3,-0.7q1,0 2,1.2t1,2.5l0,0.6l-1.1,3.7q-0.7,1.7 -1.8,3.6q-1.1,2 -2.4,3.3q-1.3,1.4 -3.3,2.3q-1.9,0.9 -4,0.9q-3.5,0 -5.5,-2.4t-2,-6l0,-20l-0.3,-1.5q-0.2,-0.7 -0.6,-1.1q-0.4,-0.4 -1,-0.4q-1.3,0 -3.2,2.1q-2,2.2 -3.5,5.7q-1.7,3.5 -2,6.8l0,15l-0.5,1l-0.7,0.5q-0.5,0.3 -1.2,0.3q-4.3,0 -4.3,-4l0,-28q0,-1 -0.2,-1.9l-0.2,-1zm31.2,17.3q0,-8.2 4.2,-14q4.1,-5.6 9.4,-5.6q3.7,0 5.8,2.4q2.2,2.5 2.2,6.5q0,3.4 -1.4,6.7q-1.5,3.3 -4.5,6.2q-3.1,2.8 -7.2,4q2.3,5.5 8.2,5.5q2.5,0 4.4,-1q2,-0.9 3.2,-2.6q1.3,-1.7 2,-3.5q0.8,-1.8 1.2,-4q0.4,-2 1.8,-2.3l0.7,0q1,0 2,0.6q1,1 1,2.2l0,0.4l-0.8,3.7q-0.6,2 -1.9,4.2q-1.2,2.4 -3,4.1q-1.9,1.7 -4.9,2.9q-3,1.2 -6.6,1.2q-3,0 -5.9,-1.2q-2.8,-1.3 -5,-3.4q-2.2,-2.2 -3.5,-5.6q-1.4,-3.3 -1.4,-7.4zm7.3,-0.2l0,0.8l0.1,0.8q3.3,-1.5 5.3,-4.8q2,-3.2 2,-7.2q0,-1.5 -0.5,-2.3q-0.5,-0.8 -1.4,-0.8q-1.5,0 -2.7,1.5q-1.1,1.6 -1.7,3.8q-0.6,2.3 -0.9,4.5l-0.2,3l0,0.7zm17,11.6q-0.6,-1.4 -0.6,-2.5q0,-1 0.4,-2q0.3,-0.9 1,-1.4q0.5,-0.5 1,-0.5q0.7,0 3.4,1.3t5.9,2.5q3.2,1.3 5,1.3q2,-2.3 2,-5.4q0,-2 -0.5,-3.8q-0.5,-1.8 -1.6,-3.4q-1,-1.6 -2,-2.7l-2.3,-2.5q-1.6,3.7 -3.5,10.6q-0.5,1.7 -1.9,1.9l-0.3,0q-1.2,0 -2.1,-1q-0.9,-0.9 -0.9,-2l0.1,-0.6l0.9,-3.3q0.5,-1.9 1,-3.1l1.3,-3.8l1.2,-3.5q-1.5,-2.2 -1.5,-4.1q0,-2.2 2.8,-4.6q2.9,-2.4 4.7,-2.4q1.6,0 2.4,1q0.9,1.1 0.9,3q0,1 -0.5,2.4t-1.1,2.4l-0.6,1.2l3.2,4.8l3.2,4.3q1.3,1.7 2.2,4.3q1,2.6 1,5.6q0,1.5 -0.4,3.1q5.4,-1.1 7.2,-6.3q0.9,-2.4 2,-2.4t2.2,1.3q1,1.2 1,2.2q0,1.3 -1.2,3.4q-1.3,2.1 -2.8,3.4q-4.7,3.9 -11.9,4.3q-3.6,3.2 -8.7,3.2q-2.6,0 -5.4,-1.2q-2.9,-1.2 -4.3,-2.6q-1.2,-1.1 -1.9,-2.4zm28.3,0q-0.6,-1.4 -0.6,-2.5q0,-1 0.4,-2q0.3,-0.9 0.9,-1.4q0.5,-0.5 1.1,-0.5q0.7,0 3.4,1.3q2.6,1.3 5.8,2.5q3.2,1.3 5.1,1.3q2,-2.3 2,-5.4q0,-2 -0.6,-3.8q-0.5,-1.8 -1.5,-3.4q-1,-1.6 -2,-2.7l-2.3,-2.5q-1.6,3.7 -3.5,10.6q-0.5,1.7 -2,1.9l-0.2,0q-1.2,0 -2.2,-1q-0.8,-0.9 -0.8,-2l0,-0.6l1,-3.3q0.5,-1.9 1,-3.1l1.2,-3.8q1,-2.6 1.2,-3.5q-1.4,-2.2 -1.4,-4.1q0,-2.2 2.8,-4.6q2.8,-2.4 4.7,-2.4q1.6,0 2.4,1q0.8,1.1 0.8,3q0,1 -0.5,2.4l-1,2.4l-0.6,1.2q1.2,2.1 3.2,4.8l3.2,4.3q1.2,1.7 2.2,4.3q1,2.6 1,5.6q0,1.5 -0.5,3.1q5.5,-1.1 7.3,-6.3q0.9,-2.4 2,-2.4t2.2,1.3q1,1.2 1,2.2q0,1.3 -1.2,3.4q-1.3,2.1 -2.9,3.4q-4.7,3.9 -11.8,4.3q-3.6,3.2 -8.7,3.2q-2.6,0 -5.5,-1.2q-2.8,-1.2 -4.3,-2.6q-1.2,-1.1 -1.8,-2.4z" fill="#cb9f17" id="svg_2"/>
   <g id="svg_3" transform="matrix(0.24204, 0, 0, -0.24204, 640, 316.7)">
    <path d="m365,-202.078333l0,1l-10,0l0,1l-10,0l0,1l-7,0l0,1l-6,0l0,1l-6,0l0,1l-6,0l0,1l-5,0l0,1l-5,0l0,1l-4,0l0,1l-4,0l0,1l-4,0l0,1l-4,0l0,1l-4,0l0,1l-3,0l0,1l-3,0l0,1l-4,0l0,1l-3,0l0,1l-3,0l0,1l-3,0l0,1l-3,0l0,1l-3,0l0,1l-3,0l0,1l-2,0l0,1l-3,0l0,1l-2,0l0,1l-3,0l0,1l-3,0l0,1l-2,0l0,1l-3,0l0,1l-2,0l0,1l-2,0l0,1l-2,0l0,1l-2,0l0,1l-2,0l0,1l-3,0l0,1l-2,0l0,1l-2,0l0,1l-2,0l0,1l-2,0l0,1l-2,0l0,1l-2,0l0,1l-2,0l0,1l-2,0l0,1l-2,0l0,1l-1,0l0,1l-2,0l0,1l-2,0l0,1l-2,0l0,1l-2,0l0,1l-1,0l0,1l-2,0l0,1l-2,0l0,1l-1,0l0,1l-2,0l0,1l-2,0l0,1l-1,0l0,1l-2,0l0,1l-1,0l0,1l-2,0l0,1l-1,0l0,1l-2,0l0,1l-1,0l0,1l-2,0l0,1l-1,0l0,1l-2,0l0,1l-1,0l0,1l-1,0l0,1l-2,0l0,1l-1,0l0,1l-1,0l0,1l-2,0l0,1l-1,0l0,1l-1,0l0,1l-2,0l0,1l-1,0l0,1l-1,0l0,1l-1,0l0,1l-2,0l0,1l-1,0l0,1l-1,0l0,1l-1,0l0,1l-2,0l0,1l-1,0l0,1l-1,0l0,1l-1,0l0,1l-1,0l0,1l-2,0l0,1l-1,0l0,1l-1,0l0,1l-1,0l0,1l-1,0l0,1l-1,0l0,1l-1,0l0,1l-1,0l0,1l-1,0l0,1l-1,0l0,1l-1,0l0,1l-1,0l0,1l-2,0l0,1l-1,0l0,1l-1,0l0,1l-1,0l0,1l-1,0l0,1l-1,0l0,1l-1,0l0,2l-1,0l0,1l-1,0l0,1l-1,0l0,1l-1,0l0,1l-1,0l0,1l-1,0l0,1l-1,0l0,1l-1,0l0,1l-1,0l0,1l-1,0l0,1l-1,0l0,2l-1,0l0,1l-1,0l0,1l-1,0l0,1l-1,0l0,1l-1,0l0,2l-1,0l0,1l-1,0l0,1l-1,0l0,1l-1,0l0,2l-1,0l0,1l-1,0l0,1l-1,0l0,2l-1,0l0,1l-1,0l0,1l-1,0l0,1l-1,0l0,2l-1,0l0,1l-1,0l0,1l-1,0l0,2l-1,0l0,1l-1,0l0,2l-1,0l0,1l-1,0l0,2l-1,0l0,2l-1,0l0,1l-1,0l0,2l-1,0l0,1l-1,0l0,2l-1,0l0,1l-1,0l0,2l-1,0l0,1l-1,0l0,2l-1,0l0,2l-1,0l0,2l-1,0l0,2l-1,0l0,1l-1,0l0,2l-1,0l0,2l-1,0l0,2l-1,0l0,2l-1,0l0,2l-1,0l0,2l-1,0l0,1l-1,0l0,2l-1,0l0,3l-1,0l0,2l-1,0l0,2l-1,0l0,3l-1,0l0,2l-1,0l0,2l-1,0l0,3l-1,0l0,2l-1,0l0,2l-1,0l0,3l-1,0l0,3l-1,0l0,3l-1,0l0,2l-1,0l0,3l-1,0l0,3l-1,0l0,3l-1,0l0,3l-1,0l0,3l-1,0l0,4l-1,0l0,4l-1,0l0,4l-1,0l0,4l-1,0l0,4l-1,0l0,4l-1,0l0,5l-1,0l0,5l-1,0l0,6l-1,0l0,6l-1,0l0,6l-1,0l0,10l-1,0l0,10l-1,0l0,24l-1,0l0,16l1,0l0,23l1,0l0,9l1,0l0,9l1,0l0,9l1,0l0,7l1,0l0,6l1,0l0,6l1,0l0,6l1,0l0,5l1,0l0,5l1,0l0,4l1,0l0,4l1,0l0,1l-1,0l0,2l-1,0l0,2l-1,0l0,1l-1,0l0,2l-1,0l0,2l-1,0l0,1l-1,0l0,2l-1,0l0,2l-1,0l0,2l-1,0l0,1l-1,0l0,2l-1,0l0,2l-1,0l0,2l-1,0l0,1l-1,0l0,2l-1,0l0,2l-1,0l0,2l-1,0l0,2l-1,0l0,2l-1,0l0,2l-1,0l0,2l-1,0l0,2l-1,0l0,2l-1,0l0,2l-1,0l0,2l-1,0l0,2l-1,0l0,3l-1,0l0,2l-1,0l0,2l-1,0l0,3l-1,0l0,2l-1,0l0,2l-1,0l0,3l-1,0l0,2l-1,0l0,2l-1,0l0,3l-1,0l0,3l-1,0l0,3l-1,0l0,3l-1,0l0,3l-1,0l0,2l-1,0l0,3l-1,0l0,3l-1,0l0,4l-1,0l0,4l-1,0l0,3l-1,0l0,4l-1,0l0,4l-1,0l0,4l-1,0l0,5l-1,0l0,5l-1,0l0,5l-1,0l0,5l-1,0l0,7l-1,0l0,8l-1,0l0,8l-1,0l0,47l1,0l0,9l1,0l0,8l1,0l0,6l1,0l0,5l1,0l0,5l1,0l0,5l1,0l0,4l1,0l0,4l1,0l0,3l1,0l0,3l1,0l0,4l1,0l0,3l1,0l0,3l1,0l0,3l1,0l0,2l1,0l0,3l1,0l0,3l1,0l0,2l1,0l0,3l1,0l0,2l1,0l0,3l1,0l0,2l1,0l0,2l1,0l0,2l1,0l0,2l1,0l0,2l1,0l0,2l1,0l0,2l1,0l0,2l1,0l0,2l1,0l0,2l1,0l0,1l1,0l0,2l1,0l0,2l1,0l0,1l1,0l0,2l1,0l0,2l1,0l0,1l1,0l0,2l1,0l0,2l1,0l0,1l1,0l0,2l1,0l0,1l1,0l0,2l1,0l0,1l1,0l0,1l1,0l0,2l1,0l0,1l1,0l0,2l1,0l0,1l1,0l0,1l1,0l0,2l1,0l0,1l1,0l0,1l1,0l0,2l1,0l0,1l1,0l0,1l1,0l0,1l1,0l0,2l1,0l0,1l1,0l0,1l1,0l0,1l1,0l0,1l1,0l0,2l1,0l0,1l1,0l0,1l1,0l0,1l1,0l0,1l1,0l0,1l1,0l0,1l1,0l0,1l1,0l0,1l1,0l0,1l1,0l0,1l1,0l0,1l1,0l0,1l1,0l0,1l1,0l0,1l1,0l0,1l1,0l0,1l1,0l0,1l1,0l0,1l1,0l0,1l1,0l0,1l1,0l0,1l1,0l0,1l1,0l0,1l1,0l0,1l1,0l0,1l2,0l0,1l1,0l0,1l1,0l0,1l1,0l0,1l1,0l0,1l2,0l0,1l1,0l0,1l1,0l0,1l1,0l0,1l1,0l0,1l1,0l0,1l2,0l0,1l1,0l0,1l1,0l0,1l2,0l0,1l1,0l0,1l1,0l0,1l2,0l0,1l1,0l0,1l2,0l0,1l1,0l0,1l1,0l0,1l2,0l0,1l1,0l0,1l1,0l0,1l2,0l0,1l2,0l0,1l1,0l0,1l2,0l0,1l1,0l0,1l2,0l0,1l2,0l0,1l1,0l0,1l2,0l0,1l2,0l0,1l1,0l0,1l2,0l0,1l2,0l0,1l2,0l0,1l1,0l0,1l2,0l0,1l2,0l0,1l2,0l0,1l2,0l0,1l2,0l0,1l2,0l0,1l2,0l0,1l2,0l0,1l2,0l0,1l2,0l0,1l3,0l0,1l2,0l0,1l2,0l0,1l3,0l0,1l2,0l0,1l2,0l0,1l3,0l0,1l3,0l0,1l3,0l0,1l2,0l0,1l3,0l0,1l3,0l0,1l3,0l0,1l3,0l0,1l3,0l0,1l4,0l0,1l4,0l0,1l4,0l0,1l3,0l0,1l4,0l0,1l5,0l0,1l5,0l0,1l5,0l0,1l6,0l0,1l6,0l0,1l9,0l0,1l9,0l0,1l22,0l0,1l6,0l0,-1l22,0l0,-1l8,0l0,-1l8,0l0,-1l7,0l0,-1l5,0l0,-1l5,0l0,-1l5,0l0,-1l4,0l0,-1l4,0l0,-1l3,0l0,-1l4,0l0,-1l3,0l0,-1l3,0l0,-1l4,0l0,-1l3,0l0,-1l2,0l0,-1l3,0l0,-1l3,0l0,-1l2,0l0,-1l3,0l0,-1l2,0l0,-1l3,0l0,-1l2,0l0,-1l2,0l0,-1l2,0l0,-1l2,0l0,-1l2,0l0,-1l2,0l0,-1l2,0l0,-1l2,0l0,-1l2,0l0,-1l2,0l0,-1l2,0l0,-1l1,0l0,-1l2,0l0,-1l2,0l0,-1l1,0l0,-1l2,0l0,-1l1,0l0,-1l2,0l0,-1l2,0l0,-1l1,0l0,-1l2,0l0,-1l2,0l0,-1l1,0l0,-1l1,0l0,-1l2,0l0,-1l1,0l0,-1l1,0l0,-1l2,0l0,-1l1,0l0,-1l1,0l0,-1l2,0l0,-1l1,0l0,-1l1,0l0,-1l2,0l0,-1l1,0l0,-1l1,0l0,-1l2,0l0,-1l1,0l0,-1l1,0l0,-1l1,0l0,-1l1,0l0,-1l1,0l0,-1l1,0l0,-1l1,0l0,-1l1,0l0,-1l1,0l0,-1l1,0l0,-1l2,0l0,-1l1,0l0,-1l1,0l0,-1l1,0l0,-1l1,0l0,-1l1,0l0,-1l1,0l0,-1l1,0l0,-1l1,0l0,-1l1,0l0,-2l1,0l0,-1l1,0l0,-1l1,0l0,-1l1,0l0,-1l1,0l0,-1l1,0l0,-1l1,0l0,-1l1,0l0,-1l1,0l0,-1l1,0l0,-2l1,0l0,-1l1,0l0,-1l1,0l0,-1l1,0l0,-2l1,0l0,-1l1,0l0,-1l1,0l0,-2l1,0l0,-1l1,0l0,-1l1,0l0,-2l1,0l0,-1l1,0l0,-1l1,0l0,-2l1,0l0,-1l1,0l0,-1l1,0l0,-2l1,0l0,-2l1,0l0,-1l1,0l0,-2l1,0l0,-1l1,0l0,-2l1,0l0,-1l1,0l0,-2l1,0l0,-2l1,0l0,-1l1,0l0,-2l1,0l0,-1l1,0l0,-2l1,0l0,-2l1,0l0,-2l1,0l0,-2l1,0l0,-2l1,0l0,-2l1,0l0,-2l1,0l0,-1l1,0l0,-2l1,0l0,-2l1,0l0,-2l1,0l0,-2l1,0l0,-3l1,0l0,-2l1,0l0,-2l1,0l0,-3l1,0l0,-2l1,0l0,-2l1,0l0,-2l1,0l0,-3l1,0l0,-2l1,0l0,-3l1,0l0,-3l1,0l0,-3l1,0l0,-2l1,0l0,-3l1,0l0,-3l1,0l0,-3l1,0l0,-3l1,0l0,-3l1,0l0,-4l1,0l0,-3l1,0l0,-4l1,0l0,-4l1,0l0,-3l1,0l0,-4l1,0l0,-4l1,0l0,-5l1,0l0,-5l1,0l0,-4l1,0l0,-5l1,0l0,-5l1,0l0,-7l1,0l0,-6l1,0l0,-7l1,0l0,-7l1,0l0,-11l1,0l0,-11l1,0l0,-15l1,0l0,-60l-1,0l0,-5l-1,0l0,-3l-1,0l0,-3l-1,0l0,-2l-1,0l0,-1l-1,0l0,-2l-1,0l0,-1l-1,0l0,-2l-1,0l0,-1l-1,0l0,-1l-1,0l0,-1l-1,0l0,-1l-1,0l0,-1l-2,0l0,-1l-1,0l0,-1l-1,0l0,-1l-2,0l0,-1l-2,0l0,-1l-2,0l0,-1l-3,0l0,-1l-4,0l0,-1l-17,0l0,1l-3,0l0,1l-3,0l0,1l-2,0l0,1l-2,0l0,1l-2,0l0,1l-1,0l0,1l-2,0l0,1l-1,0l0,1l-1,0l0,1l-1,0l0,1l-1,0l0,1l-1,0l0,1l-1,0l0,2l-1,0l0,1l-1,0l0,2l-1,0l0,2l-1,0l0,2l-1,0l0,2l-1,0l0,4l-1,0l0,4l-1,0l0,51l-2,0l0,1l-2,0l0,1l-3,0l0,1l-3,0l0,1l-3,0l0,1l-3,0l0,1l-3,0l0,1l-3,0l0,1l-3,0l0,1l-3,0l0,1l-4,0l0,1l-3,0l0,1l-4,0l0,1l-3,0l0,1l-4,0l0,1l-4,0l0,1l-4,0l0,1l-4,0l0,1l-4,0l0,1l-4,0l0,1l-5,0l0,1l-5,0l0,1l-5,0l0,1l-5,0l0,1l-6,0l0,1l-7,0l0,1l-7,0l0,1l-9,0l0,1l-10,0l0,1l-19,0l0,1l-11,0l0,-1l-21,0l0,-1l-10,0l0,-1l-7,0l0,-1l-7,0l0,-1l-5,0l0,-1l-4,0l0,-1l-5,0l0,-1l-4,0l0,-1l-4,0l0,-1l-3,0l0,-1l-3,0l0,-1l-3,0l0,-1l-3,0l0,-1l-3,0l0,-1l-3,0l0,-1l-2,0l0,-1l-2,0l0,-1l-3,0l0,-1l-2,0l0,-1l-3,0l0,-1l-2,0l0,-1l-2,0l0,-1l-2,0l0,-1l-2,0l0,-1l-2,0l0,-1l-1,0l0,-1l-2,0l0,-1l-2,0l0,-1l-1,0l0,-1l-2,0l0,-1l-1,0l0,-1l-2,0l0,-1l-1,0l0,-1l-2,0l0,-1l-1,0l0,-1l-2,0l0,-1l-1,0l0,-1l-2,0l0,-1l-1,0l0,-1l-1,0l0,-1l-1,0l0,-1l-1,0l0,-1l-1,0l0,-1l-1,0l0,-1l-2,0l0,-1l-1,0l0,-1l-1,0l0,-1l-1,0l0,-1l-1,0l0,-1l-1,0l0,-1l-1,0l0,-1l-1,0l0,-1l-2,0l0,-1l-1,0l0,-1l-1,0l0,-1l-1,0l0,-1l-1,0l0,-1l-1,0l0,-1l-1,0l0,-1l-1,0l0,-2l-1,0l0,-1l-1,0l0,-1l-1,0l0,-1l-1,0l0,-1l-1,0l0,-2l-1,0l0,-1l-1,0l0,-1l-1,0l0,-1l-1,0l0,-1l-1,0l0,-2l-1,0l0,-1l-1,0l0,-1l-1,0l0,-1l-1,0l0,-2l-1,0l0,-1l-1,0l0,-1l-1,0l0,-2l-1,0l0,-1l-1,0l0,-2l-1,0l0,-1l-1,0l0,-2l-1,0l0,-1l-1,0l0,-2l-1,0l0,-2l-1,0l0,-1l-1,0l0,-2l-1,0l0,-1l-1,0l0,-2l-1,0l0,-2l-1,0l0,-2l-1,0l0,-2l-1,0l0,-1l-2,0l0,1l-1,0l0,1l-1,0l0,1l-1,0l0,1l-1,0l0,1l-1,0l0,1l-1,0l0,1l-1,0l0,1l-1,0l0,1l-1,0l0,2l-1,0l0,1l-1,0l0,2l-1,0l0,1l-1,0l0,1l-1,0l0,2l-1,0l0,1l-1,0l0,2l-1,0l0,2l-1,0l0,2l-1,0l0,1l-1,0l0,2l-1,0l0,2l-1,0l0,2l-1,0l0,2l-1,0l0,3l-1,0l0,2l-1,0l0,2l-1,0l0,3l-1,0l0,2l-1,0l0,3l-1,0l0,3l-1,0l0,3l-1,0l0,3l-1,0l0,3l-1,0l0,3l-1,0l0,3l-1,0l0,4l-1,0l0,3l-1,0l0,3l-1,0l0,2l1,0l0,1l1,0l0,2l1,0l0,1l1,0l0,1l1,0l0,1l1,0l0,2l1,0l0,1l1,0l0,1l1,0l0,1l1,0l0,1l1,0l0,1l1,0l0,1l1,0l0,2l1,0l0,1l1,0l0,1l1,0l0,1l1,0l0,1l1,0l0,1l1,0l0,1l1,0l0,1l1,0l0,1l1,0l0,1l1,0l0,1l1,0l0,1l1,0l0,1l1,0l0,1l1,0l0,1l1,0l0,1l1,0l0,1l1,0l0,1l1,0l0,1l1,0l0,1l2,0l0,1l1,0l0,1l1,0l0,1l1,0l0,1l1,0l0,1l1,0l0,1l1,0l0,1l1,0l0,1l2,0l0,1l1,0l0,1l1,0l0,1l2,0l0,1l1,0l0,1l1,0l0,1l2,0l0,1l1,0l0,1l1,0l0,1l2,0l0,1l1,0l0,1l1,0l0,1l2,0l0,1l1,0l0,1l1,0l0,1l2,0l0,1l2,0l0,1l1,0l0,1l2,0l0,1l1,0l0,1l2,0l0,1l2,0l0,1l1,0l0,1l2,0l0,1l2,0l0,1l1,0l0,1l2,0l0,1l2,0l0,1l2,0l0,1l2,0l0,1l2,0l0,1l2,0l0,1l2,0l0,1l2,0l0,1l2,0l0,1l3,0l0,1l2,0l0,1l2,0l0,1l3,0l0,1l2,0l0,1l3,0l0,1l3,0l0,1l2,0l0,1l3,0l0,1l3,0l0,1l3,0l0,1l3,0l0,1l4,0l0,1l3,0l0,1l4,0l0,1l3,0l0,1l4,0l0,1l5,0l0,1l4,0l0,1l5,0l0,1l6,0l0,1l6,0l0,1l7,0l0,1l9,0l0,1l10,0l0,1l22,0l0,1l1,0l0,-1l35,0l0,-1l11,0l0,-1l10,0l0,-1l8,0l0,-1l8,0l0,-1l6,0l0,-1l6,0l0,-1l6,0l0,-1l5,0l0,-1l5,0l0,-1l5,0l0,-1l4,0l0,-1l4,0l0,-1l5,0l0,-1l4,0l0,-1l4,0l0,-1l3,0l0,-1l4,0l0,-1l4,0l0,-1l4,0l0,-1l3,0l0,-1l2,0l0,2l-1,0l0,4l-1,0l0,3l-1,0l0,3l-1,0l0,3l-1,0l0,4l-1,0l0,3l-1,0l0,3l-1,0l0,3l-1,0l0,2l-1,0l0,3l-1,0l0,2l-1,0l0,3l-1,0l0,2l-1,0l0,3l-1,0l0,2l-1,0l0,3l-1,0l0,2l-1,0l0,2l-1,0l0,2l-1,0l0,2l-1,0l0,2l-1,0l0,2l-1,0l0,2l-1,0l0,2l-1,0l0,2l-1,0l0,2l-1,0l0,1l-1,0l0,2l-1,0l0,2l-1,0l0,1l-1,0l0,2l-1,0l0,1l-1,0l0,2l-1,0l0,1l-1,0l0,2l-1,0l0,1l-1,0l0,2l-1,0l0,1l-1,0l0,2l-1,0l0,1l-1,0l0,2l-1,0l0,1l-1,0l0,1l-1,0l0,1l-1,0l0,1l-1,0l0,1l-1,0l0,2l-1,0l0,1l-1,0l0,1l-1,0l0,1l-1,0l0,1l-1,0l0,2l-1,0l0,1l-1,0l0,1l-1,0l0,1l-1,0l0,1l-1,0l0,1l-1,0l0,1l-1,0l0,1l-1,0l0,1l-1,0l0,1l-1,0l0,1l-1,0l0,1l-2,0l0,1l-1,0l0,1l-1,0l0,1l-1,0l0,1l-1,0l0,1l-1,0l0,1l-1,0l0,1l-1,0l0,1l-2,0l0,1l-1,0l0,1l-1,0l0,1l-2,0l0,1l-1,0l0,1l-2,0l0,1l-1,0l0,1l-2,0l0,1l-1,0l0,1l-1,0l0,1l-2,0l0,1l-1,0l0,1l-2,0l0,1l-1,0l0,1l-2,0l0,1l-2,0l0,1l-2,0l0,1l-2,0l0,1l-1,0l0,1l-2,0l0,1l-2,0l0,1l-2,0l0,1l-2,0l0,1l-2,0l0,1l-3,0l0,1l-2,0l0,1l-3,0l0,1l-2,0l0,1l-3,0l0,1l-3,0l0,1l-3,0l0,1l-4,0l0,1l-3,0l0,1l-4,0l0,1l-4,0l0,1l-5,0l0,1l-5,0l0,1l-7,0l0,1l-9,0l0,1l-20,0l0,1l-1,0l0,-1l-18,0l0,-1l-9,0l0,-1l-7,0l0,-1l-5,0l0,-1l-5,0l0,-1l-6,0l0,-1l-3,0l0,-1l-4,0l0,-1l-4,0l0,-1l-3,0l0,-1l-4,0l0,-1l-3,0l0,-1l-2,0l0,-1l-3,0l0,-1l-3,0l0,-1l-3,0l0,-1l-2,0l0,-1l-3,0l0,-1l-2,0l0,-1l-2,0l0,-1l-3,0l0,-1l-2,0l0,-1l-2,0l0,-1l-2,0l0,-1l-2,0l0,-1l-2,0l0,-1l-2,0l0,-1l-2,0l0,-1l-2,0l0,-1l-2,0l0,-1l-2,0l0,-1l-1,0l0,-1l-2,0l0,-1l-2,0l0,-1l-1,0l0,-1l-2,0l0,-1l-2,0l0,-1l-1,0l0,-1l-2,0l0,-1l-1,0l0,-1l-2,0l0,-1l-1,0l0,-1l-2,0l0,-1l-1,0l0,-1l-1,0l0,-1l-2,0l0,-1l-1,0l0,-1l-1,0l0,-1l-2,0l0,-1l-1,0l0,-1l-1,0l0,-1l-2,0l0,-1l-1,0l0,-1l-1,0l0,-1l-1,0l0,-1l-1,0l0,-1l-1,0l0,-1l-2,0l0,-1l-1,0l0,-1l-1,0l0,-1l-1,0l0,-1l-1,0l0,-1l-1,0l0,-1l-1,0l0,-1l-1,0l0,-1l-1,0l0,-1l-1,0l0,-1l-1,0l0,-1l-1,0l0,-1l-1,0l0,-1l-1,0l0,-1l-1,0l0,-1l-1,0l0,-1l-1,0l0,-1l-1,0l0,-1l-1,0l0,-1l-1,0l0,-1l-1,0l0,-1l-1,0l0,-2l-1,0l0,-1l-1,0l0,-1l-1,0l0,-1l-1,0l0,-2l-1,0l0,-1l-1,0l0,-1l-1,0l0,-1l-1,0l0,-2l-1,0l0,-1l-1,0l0,-1l-1,0l0,-2l-1,0l0,-1l-1,0l0,-2l-1,0l0,-1l-1,0l0,-2l-1,0l0,-1l-1,0l0,-2l-1,0l0,-2l-1,0l0,-1l-1,0l0,-2l-1,0l0,-2l-1,0l0,-1l-1,0l0,-2l-1,0l0,-2l-1,0l0,-2l-1,0l0,-2l-1,0l0,-2l-1,0l0,-2l-1,0l0,-3l-1,0l0,-2l-1,0l0,-2l-1,0l0,-3l-1,0l0,-2l-1,0l0,-3l-1,0l0,-3l-1,0l0,-3l-1,0l0,-3l-1,0l0,-3l-1,0l0,-4l-1,0l0,-5l-1,0l0,-4l-1,0l0,-5l-1,0l0,-7l-1,0l0,-8l-1,0l0,-33l1,0l0,-8l1,0l0,-7l1,0l0,-6l1,0l0,-5l1,0l0,-4l1,0l0,-4l1,0l0,-5l1,0l0,-3l1,0l0,-3l1,0l0,-3l1,0l0,-3l1,0l0,-4l1,0l0,-3l1,0l0,-3l1,0l0,-2l1,0l0,-2l1,0l0,-3l1,0l0,-2l1,0l0,-3l1,0l0,-2l1,0l0,-3l1,0l0,-2l1,0l0,-2l1,0l0,-2l1,0l0,-2l1,0l0,-3l1,0l0,-2l1,0l0,-2l1,0l0,-2l1,0l0,-2l1,0l0,-2l1,0l0,-2l1,0l0,-1l1,0l0,-2l1,0l0,-2l1,0l0,-2l1,0l0,-2l1,0l0,-1l1,0l0,-2l1,0l0,-2l1,0l0,-1l1,0l0,-2l1,0l0,-2l1,0l0,-1l1,0l0,-2l1,0l0,-2l1,0l0,-1l1,0l0,-2l1,0l0,-1l1,0l0,-2l1,0l0,-2l1,0l0,-1l1,0l0,-2l1,0l0,-1l1,0l0,-2l1,0l0,-1l1,0l0,-1l1,0l0,-2l1,0l0,-1l1,0l0,-1l1,0l0,-2l1,0l0,-1l1,0l0,-2l1,0l0,-1l1,0l0,-1l1,0l0,-2l1,0l0,-1l1,0l0,-1l1,0l0,-2l1,0l0,-1l1,0l0,-2l1,0l0,-1l1,0l0,-1l1,0l0,-2l1,0l0,-1l1,0l0,-1l1,0l0,-1l1,0l0,-1l1,0l0,-1l1,0l0,-1l1,0l0,-1l1,0l0,-2l1,0l0,-1l1,0l0,-1l1,0l0,-1l1,0l0,-1l1,0l0,-1l1,0l0,-1l1,0l0,-1l1,0l0,-2l1,0l0,-1l1,0l0,-1l1,0l0,-1l1,0l0,-1l1,0l0,-1l1,0l0,-1l1,0l0,-1l1,0l0,-1l1,0l0,-1l1,0l0,-1l1,0l0,-1l2,0l0,-1l1,0l0,-1l1,0l0,-1l1,0l0,-1l1,0l0,-1l1,0l0,-1l1,0l0,-1l1,0l0,-1l1,0l0,-1l2,0l0,-1l1,0l0,-1l1,0l0,-1l1,0l0,-1l1,0l0,-1l1,0l0,-1l1,0l0,-1l2,0l0,-1l1,0l0,-1l2,0l0,-1l1,0l0,-1l2,0l0,-1l1,0l0,-1l1,0l0,-1l2,0l0,-1l1,0l0,-1l2,0l0,-1l1,0l0,-1l2,0l0,-1l1,0l0,-1l1,0l0,-1l2,0l0,-1l1,0l0,-1l2,0l0,-1l2,0l0,-1l2,0l0,-1l2,0l0,-1l2,0l0,-1l2,0l0,-1l2,0l0,-1l2,0l0,-1l1,0l0,-1l2,0l0,-1l2,0l0,-1l2,0l0,-1l2,0l0,-1l3,0l0,-1l3,0l0,-1l2,0l0,-1l3,0l0,-1l3,0l0,-1l3,0l0,-1l3,0l0,-1l2,0l0,-1l3,0l0,-1l4,0l0,-1l4,0l0,-1l4,0l0,-1l5,0l0,-1l4,0l0,-1l7,0l0,-1l7,0l0,-1l19,0l0,-1l9,0l0,1l18,0l0,1l11,0l0,1l6,0l0,1l6,0l0,1l6,0l0,1l6,0l0,1l5,0l0,1l4,0l0,1l4,0l0,1l3,0l0,1l4,0l0,1l4,0l0,1l4,0l0,1l3,0l0,1l4,0l0,1l3,0l0,1l2,0l0,1l3,0l0,1l3,0l0,1l3,0l0,1l3,0l0,1l3,0l0,1l2,0l0,1l3,0l0,1l3,0l0,1l2,0l0,1l3,0l0,1l2,0l0,1l2,0l0,1l3,0l0,1l2,0l0,1l2,0l0,1l3,0l0,1l2,0l0,1l2,0l0,1l3,0l0,1l2,0l0,1l2,0l0,1l2,0l0,1l2,0l0,1l2,0l0,1l2,0l0,1l2,0l0,1l2,0l0,1l2,0l0,1l2,0l0,1l2,0l0,1l2,0l0,1l2,0l0,1l2,0l0,1l2,0l0,1l2,0l0,1l2,0l0,1l1,0l0,1l2,0l0,1l2,0l0,1l2,0l0,1l1,0l0,1l2,0l0,1l2,0l0,1l2,0l0,1l1,0l0,1l2,0l0,1l2,0l0,1l2,0l0,1l2,0l0,1l1,0l0,1l2,0l0,1l1,0l0,1l2,0l0,1l2,0l0,1l1,0l0,1l2,0l0,1l1,0l0,1l2,0l0,1l2,0l0,1l1,0l0,1l2,0l0,1l1,0l0,1l2,0l0,1l2,0l0,1l1,0l0,1l2,0l0,1l1,0l0,1l2,0l0,1l1,0l0,1l2,0l0,1l1,0l0,1l2,0l0,1l1,0l0,1l1,0l0,1l2,0l0,1l1,0l0,1l2,0l0,1l1,0l0,1l2,0l0,1l1,0l0,1l2,0l0,1l1,0l0,1l2,0l0,1l1,0l0,1l1,0l0,1l2,0l0,1l1,0l0,1l1,0l0,1l2,0l0,1l1,0l0,1l1,0l0,1l2,0l0,1l1,0l0,1l2,0l0,1l1,0l0,1l1,0l0,1l2,0l0,1l1,0l0,1l1,0l0,1l2,0l0,1l1,0l0,1l1,0l0,1l1,0l0,1l2,0l0,1l1,0l0,1l1,0l0,1l2,0l0,1l1,0l0,1l1,0l0,1l2,0l0,1l1,0l0,1l1,0l0,1l1,0l0,1l2,0l0,1l1,0l0,1l1,0l0,1l1,0l0,1l2,0l0,1l1,0l0,1l1,0l0,1l1,0l0,1l1,0l0,1l2,0l0,1l1,0l0,1l1,0l0,1l1,0l0,1l1,0l0,1l2,0l0,1l1,0l0,1l1,0l0,1l1,0l0,1l1,0l0,1l2,0l0,1l1,0l0,1l1,0l0,1l1,0l0,1l1,0l0,1l1,0l0,1l1,0l0,1l2,0l0,1l1,0l0,1l1,0l0,1l1,0l0,1l1,0l0,1l1,0l0,1l1,0l0,1l2,0l0,1l1,0l0,1l1,0l0,1l1,0l0,1l1,0l0,1l1,0l0,1l1,0l0,1l1,0l0,1l1,0l0,1l1,0l0,1l2,0l0,1l1,0l0,1l1,0l0,1l1,0l0,1l1,0l0,1l1,0l0,2l-1,0l0,1l-1,0l0,1l-1,0l0,1l-1,0l0,1l-1,0l0,1l-1,0l0,2l-1,0l0,1l-1,0l0,1l-1,0l0,1l-1,0l0,1l-1,0l0,1l-1,0l0,1l-1,0l0,2l-1,0l0,1l-1,0l0,1l-1,0l0,1l-1,0l0,1l-1,0l0,1l-1,0l0,1l-1,0l0,2l-1,0l0,1l-1,0l0,1l-1,0l0,2l-1,0l0,1l-1,0l0,1l-1,0l0,2l-1,0l0,1l-1,0l0,1l-1,0l0,2l-1,0l0,1l-1,0l0,1l-1,0l0,2l-1,0l0,1l-1,0l0,2l-1,0l0,1l-1,0l0,1l-1,0l0,2l-1,0l0,1l-1,0l0,2l-1,0l0,1l-1,0l0,2l-1,0l0,2l-1,0l0,1l-1,0l0,2l-1,0l0,2l-1,0l0,2l-1,0l0,1l-1,0l0,2l-1,0l0,2l-1,0l0,1l-1,0l0,2l-1,0l0,2l-1,0l0,2l-1,0l0,2l-1,0l0,2l-1,0l0,3l-1,0l0,2l-1,0l0,2l-1,0l0,2l-1,0l0,3l-1,0l0,2l-1,0l0,2l-1,0l0,2l-1,0l0,3l-1,0l0,3l-1,0l0,4l-1,0l0,3l-1,0l0,3l-1,0l0,3l-1,0l0,3l-1,0l0,3l-1,0l0,5l-1,0l0,5l-1,0l0,5l-1,0l0,5l-1,0l0,7l-1,0l0,11l-1,0l0,24l-1,0l0,5l1,0l0,12l1,0l0,8l1,0l0,4l1,0l0,5l1,0l0,4l1,0l0,3l1,0l0,3l1,0l0,2l1,0l0,3l1,0l0,3l1,0l0,2l1,0l0,2l1,0l0,2l1,0l0,2l1,0l0,2l1,0l0,1l1,0l0,2l1,0l0,1l1,0l0,2l1,0l0,1l1,0l0,2l1,0l0,1l1,0l0,1l1,0l0,1l1,0l0,2l1,0l0,1l1,0l0,1l1,0l0,1l1,0l0,1l1,0l0,1l1,0l0,1l1,0l0,1l1,0l0,1l1,0l0,1l1,0l0,1l1,0l0,1l1,0l0,1l1,0l0,1l1,0l0,1l2,0l0,1l1,0l0,1l1,0l0,1l2,0l0,1l1,0l0,1l1,0l0,4l-1,0l0,2l-1,0l0,3l-1,0l0,2l-1,0l0,3l-1,0l0,2l-1,0l0,2l-1,0l0,2l-1,0l0,2l-1,0l0,2l-1,0l0,1l-1,0l0,2l-1,0l0,2l-1,0l0,2l-1,0l0,2l-1,0l0,1l-1,0l0,1l-1,0l0,1l-1,0l0,2l-1,0l0,1l-1,0l0,1l-1,0l0,2l-1,0l0,1l-1,0l0,1l-1,0l0,2l-1,0l0,1l-1,0l0,1l-1,0l0,1l-1,0l0,1l-1,0l0,1l-1,0l0,1l-1,0l0,1l-1,0l0,1l-1,0l0,1l-1,0l0,1l-1,0l0,1l-1,0l0,1l-1,0l0,1l-1,0l0,1l-1,0l0,1l-1,0l0,1l-2,0l0,1l-1,0l0,1l-1,0l0,1l-1,0l0,1l-1,0l0,1l-2,0l0,1l-1,0l0,1l-1,0l0,1l-2,0l0,1l-1,0l0,1l-1,0l0,1l-2,0l0,1l-1,0l0,1l-2,0l0,1l-1,0l0,1l-1,0l0,1l-2,0l0,1l-2,0l0,1l-1,0l0,1l-2,0l0,1l-2,0l0,1l-1,0l0,1l-2,0l0,1l-2,0l0,1l-1,0l0,1l-2,0l0,1l-2,0l0,1l-2,0l0,1l-2,0l0,1l-2,0l0,1l-1,0l0,1l-1,0l0,1l-1,0l0,1l-1,0l0,1l-1,0l0,2l-1,0l0,1l-1,0l0,2l-1,0l0,4l-1,0l0,11l1,0l0,3l1,0l0,2l1,0l0,1l1,0l0,1l1,0l0,2l1,0l0,1l2,0l0,1l1,0l0,1l2,0l0,1l1,0l0,1l3,0l0,1l15,0l0,-1l2,0l0,-1l2,0l0,-1l2,0l0,-1l2,0l0,-1l1,0l0,-1l2,0l0,-1l2,0l0,-1l2,0l0,-1l2,0l0,-1l1,0l0,-1l2,0l0,-1l1,0l0,-1l2,0l0,-1l2,0l0,-1l1,0l0,-1l2,0l0,-1l1,0l0,-1l2,0l0,-1l1,0l0,-1l2,0l0,-1l1,0l0,-1l1,0l0,-1l2,0l0,-1l1,0l0,-1l2,0l0,-1l1,0l0,-1l1,0l0,-1l2,0l0,-1l1,0l0,-1l1,0l0,-1l1,0l0,-1l1,0l0,-1l2,0l0,-1l1,0l0,-1l1,0l0,-1l1,0l0,-1l1,0l0,-1l1,0l0,-1l2,0l0,-1l1,0l0,-1l1,0l0,-1l1,0l0,-1l1,0l0,-1l1,0l0,-1l1,0l0,-1l1,0l0,-1l1,0l0,-1l1,0l0,-1l1,0l0,-2l1,0l0,-1l1,0l0,-1l1,0l0,-1l1,0l0,-1l1,0l0,-1l1,0l0,-1l1,0l0,-1l1,0l0,-2l1,0l0,-1l1,0l0,-1l1,0l0,-2l1,0l0,-1l1,0l0,-1l1,0l0,-1l1,0l0,-2l1,0l0,-1l1,0l0,-1l1,0l0,-2l1,0l0,-1l1,0l0,-2l1,0l0,-2l1,0l0,-2l1,0l0,-1l1,0l0,-2l1,0l0,-2l1,0l0,-2l1,0l0,-1l1,0l0,-2l1,0l0,-2l1,0l0,-2l1,0l0,-2l1,0l0,-3l1,0l0,-2l1,0l0,-2l1,0l0,-3l1,0l0,-2l1,0l0,-3l1,0l0,-3l2,0l0,1l9,0l0,1l13,0l0,1l5,0l0,-1l11,0l0,-1l10,0l0,-1l3,0l0,2l1,0l0,4l1,0l0,2l1,0l0,2l1,0l0,3l1,0l0,2l1,0l0,3l1,0l0,2l1,0l0,2l1,0l0,2l1,0l0,2l1,0l0,1l1,0l0,2l1,0l0,2l1,0l0,2l1,0l0,1l1,0l0,2l1,0l0,2l1,0l0,1l1,0l0,2l1,0l0,2l1,0l0,1l1,0l0,1l1,0l0,1l1,0l0,2l1,0l0,1l1,0l0,1l1,0l0,2l1,0l0,1l1,0l0,1l1,0l0,2l1,0l0,1l1,0l0,1l1,0l0,1l1,0l0,1l1,0l0,1l1,0l0,1l1,0l0,1l1,0l0,1l1,0l0,1l1,0l0,2l1,0l0,1l1,0l0,1l1,0l0,1l1,0l0,1l1,0l0,1l1,0l0,1l1,0l0,1l1,0l0,1l2,0l0,1l1,0l0,1l1,0l0,1l1,0l0,1l1,0l0,1l2,0l0,1l1,0l0,1l1,0l0,1l1,0l0,1l1,0l0,1l1,0l0,1l2,0l0,1l1,0l0,1l1,0l0,1l2,0l0,1l1,0l0,1l2,0l0,1l1,0l0,1l1,0l0,1l2,0l0,1l1,0l0,1l2,0l0,1l1,0l0,1l2,0l0,1l1,0l0,1l2,0l0,1l2,0l0,1l1,0l0,1l2,0l0,1l2,0l0,1l1,0l0,1l2,0l0,1l2,0l0,1l2,0l0,1l1,0l0,1l2,0l0,1l2,0l0,1l2,0l0,1l2,0l0,1l15,0l0,-1l3,0l0,-1l1,0l0,-1l2,0l0,-1l1,0l0,-1l2,0l0,-1l1,0l0,-1l1,0l0,-2l1,0l0,-1l1,0l0,-2l1,0l0,-3l1,0l0,-11l-1,0l0,-4l-1,0l0,-2l-1,0l0,-1l-1,0l0,-2l-1,0l0,-1l-1,0l0,-1l-1,0l0,-1l-1,0l0,-1l-1,0l0,-1l-2,0l0,-1l-2,0l0,-1l-2,0l0,-1l-2,0l0,-1l-1,0l0,-1l-2,0l0,-1l-2,0l0,-1l-2,0l0,-1l-1,0l0,-1l-2,0l0,-1l-2,0l0,-1l-1,0l0,-1l-2,0l0,-1l-2,0l0,-1l-1,0l0,-1l-1,0l0,-1l-2,0l0,-1l-1,0l0,-1l-2,0l0,-1l-1,0l0,-1l-1,0l0,-1l-2,0l0,-1l-1,0l0,-1l-1,0l0,-1l-2,0l0,-1l-1,0l0,-1l-1,0l0,-1l-1,0l0,-1l-1,0l0,-1l-1,0l0,-1l-2,0l0,-1l-1,0l0,-1l-1,0l0,-1l-1,0l0,-1l-1,0l0,-1l-1,0l0,-1l-1,0l0,-1l-1,0l0,-1l-1,0l0,-1l-1,0l0,-1l-1,0l0,-1l-1,0l0,-1l-1,0l0,-1l-1,0l0,-1l-1,0l0,-1l-1,0l0,-2l-1,0l0,-1l-1,0l0,-1l-1,0l0,-2l-1,0l0,-1l-1,0l0,-1l-1,0l0,-2l-1,0l0,-1l-1,0l0,-1l-1,0l0,-2l-1,0l0,-1l-1,0l0,-2l-1,0l0,-2l-1,0l0,-2l-1,0l0,-1l-1,0l0,-2l-1,0l0,-2l-1,0l0,-2l-1,0l0,-2l-1,0l0,-2l-1,0l0,-3l-1,0l0,-2l-1,0l0,-3l-1,0l0,-3l-1,0l0,-3l1,0l0,-1l1,0l0,-1l1,0l0,-1l2,0l0,-1l1,0l0,-1l1,0l0,-1l2,0l0,-1l1,0l0,-1l1,0l0,-1l1,0l0,-1l1,0l0,-1l1,0l0,-1l1,0l0,-1l1,0l0,-1l1,0l0,-1l1,0l0,-1l1,0l0,-1l1,0l0,-1l1,0l0,-1l1,0l0,-2l1,0l0,-1l1,0l0,-1l1,0l0,-1l1,0l0,-1l1,0l0,-2l1,0l0,-1l1,0l0,-2l1,0l0,-2l1,0l0,-1l1,0l0,-2l1,0l0,-1l1,0l0,-2l1,0l0,-3l1,0l0,-2l1,0l0,-2l1,0l0,-2l1,0l0,-3l1,0l0,-3l1,0l0,-3l1,0l0,-3l1,0l0,-4l1,0l0,-5l1,0l0,-6l1,0l0,-11l1,0l0,-18l-1,0l0,-10l-1,0l0,-11l-1,0l0,-5l-1,0l0,-5l-1,0l0,-5l-1,0l0,-5l-1,0l0,-5l-1,0l0,-5l-1,0l0,-3l-1,0l0,-3l-1,0l0,-3l-1,0l0,-3l-1,0l0,-3l-1,0l0,-3l-1,0l0,-3l-1,0l0,-4l-1,0l0,-2l-1,0l0,-2l-1,0l0,-3l-1,0l0,-2l-1,0l0,-2l-1,0l0,-3l-1,0l0,-2l-1,0l0,-2l-1,0l0,-2l-1,0l0,-3l-1,0l0,-2l-1,0l0,-2l-1,0l0,-2l-1,0l0,-1l-1,0l0,-2l-1,0l0,-2l-1,0l0,-2l-1,0l0,-2l-1,0l0,-2l-1,0l0,-1l-1,0l0,-2l-1,0l0,-2l-1,0l0,-2l-1,0l0,-1l-1,0l0,-2l-1,0l0,-1l-1,0l0,-2l-1,0l0,-1l-1,0l0,-2l-1,0l0,-1l-1,0l0,-2l-1,0l0,-2l-1,0l0,-1l-1,0l0,-2l-1,0l0,-1l-1,0l0,-2l-1,0l0,-1l-1,0l0,-1l-1,0l0,-2l-1,0l0,-1l-1,0l0,-1l-1,0l0,-2l-1,0l0,-1l-1,0l0,-1l-1,0l0,-1l-1,0l0,-2l-1,0l0,-1l-1,0l0,-1l-1,0l0,-2l-1,0l0,-1l-1,0l0,-1l-1,0l0,-1l-1,0l0,-1l-1,0l0,-2l-1,0l0,-1l-1,0l0,-1l-1,0l0,-1l-1,0l0,-1l-1,0l0,-2l-1,0l0,-1l-1,0l0,-1l1,0l0,-2l1,0l0,-1l1,0l0,-1l1,0l0,-1l1,0l0,-2l1,0l0,-1l1,0l0,-1l1,0l0,-1l1,0l0,-2l1,0l0,-1l1,0l0,-1l1,0l0,-1l1,0l0,-1l1,0l0,-1l2,0l0,-1l1,0l0,-1l1,0l0,-1l1,0l0,-1l1,0l0,-1l1,0l0,-1l1,0l0,-1l2,0l0,-1l1,0l0,-1l1,0l0,-1l1,0l0,-1l1,0l0,-1l1,0l0,-1l2,0l0,-1l1,0l0,-1l1,0l0,-1l1,0l0,-1l1,0l0,-1l1,0l0,-1l2,0l0,-1l1,0l0,-1l1,0l0,-1l1,0l0,-1l1,0l0,-1l2,0l0,-1l1,0l0,-1l1,0l0,-1l1,0l0,-1l2,0l0,-1l1,0l0,-1l1,0l0,-1l1,0l0,-1l1,0l0,-1l2,0l0,-1l1,0l0,-1l1,0l0,-1l2,0l0,-1l1,0l0,-1l1,0l0,-1l1,0l0,-1l2,0l0,-1l1,0l0,-1l1,0l0,-1l2,0l0,-1l1,0l0,-1l1,0l0,-1l1,0l0,-1l2,0l0,-1l1,0l0,-1l1,0l0,-1l2,0l0,-1l1,0l0,-1l1,0l0,-1l2,0l0,-1l1,0l0,-1l2,0l0,-1l1,0l0,-1l1,0l0,-1l2,0l0,-1l1,0l0,-1l1,0l0,-1l2,0l0,-1l1,0l0,-1l2,0l0,-1l1,0l0,-1l1,0l0,-1l2,0l0,-1l1,0l0,-1l2,0l0,-1l1,0l0,-1l2,0l0,-1l1,0l0,-1l2,0l0,-1l1,0l0,-1l1,0l0,-1l2,0l0,-1l1,0l0,-1l2,0l0,-1l1,0l0,-1l2,0l0,-1l1,0l0,-1l2,0l0,-1l2,0l0,-1l1,0l0,-1l2,0l0,-1l1,0l0,-1l2,0l0,-1l1,0l0,-1l2,0l0,-1l1,0l0,-1l2,0l0,-1l2,0l0,-1l1,0l0,-1l2,0l0,-1l2,0l0,-1l1,0l0,-1l2,0l0,-1l2,0l0,-1l1,0l0,-1l2,0l0,-1l2,0l0,-1l2,0l0,-1l1,0l0,-1l2,0l0,-1l2,0l0,-1l1,0l0,-1l2,0l0,-1l2,0l0,-1l2,0l0,-1l2,0l0,-1l2,0l0,-1l2,0l0,-1l1,0l0,-1l2,0l0,-1l2,0l0,-1l2,0l0,-1l2,0l0,-1l2,0l0,-1l2,0l0,-1l2,0l0,-1l2,0l0,-1l2,0l0,-1l2,0l0,-1l2,0l0,-1l2,0l0,-1l2,0l0,-1l2,0l0,-1l3,0l0,-1l2,0l0,-1l2,0l0,-1l2,0l0,-1l2,0l0,-1l2,0l0,-1l3,0l0,-1l2,0l0,-1l3,0l0,-1l2,0l0,-1l3,0l0,-1l3,0l0,-1l2,0l0,-1l3,0l0,-1l2,0l0,-1l3,0l0,-1l2,0l0,-1l4,0l0,-1l3,0l0,-1l3,0l0,-1l3,0l0,-1l3,0l0,-1l3,0l0,-1l3,0l0,-1l3,0l0,-1l4,0l0,-1l4,0l0,-1l4,0l0,-1l5,0l0,-1l4,0l0,-1l4,0l0,-1l4,0l0,-1l7,0l0,-1l7,0l0,-1l7,0l0,-1l7,0l0,-1l22,0l0,-1l10,0l0,1l17,0l0,1l8,0l0,1l6,0l0,1l4,0l0,1l5,0l0,1l4,0l0,1l4,0l0,1l4,0l0,1l3,0l0,1l2,0l0,1l3,0l0,1l3,0l0,1l3,0l0,1l3,0l0,1l2,0l0,1l3,0l0,1l3,0l0,1l2,0l0,1l2,0l0,1l2,0l0,1l2,0l0,1l2,0l0,1l1,0l0,1l2,0l0,1l2,0l0,1l2,0l0,1l2,0l0,1l2,0l0,1l2,0l0,1l2,0l0,1l1,0l0,1l2,0l0,1l1,0l0,1l2,0l0,1l1,0l0,1l1,0l0,1l2,0l0,1l1,0l0,1l2,0l0,1l1,0l0,1l2,0l0,1l1,0l0,1l1,0l0,1l2,0l0,1l1,0l0,1l2,0l0,1l1,0l0,1l1,0l0,1l1,0l0,1l1,0l0,1l1,0l0,1l2,0l0,1l1,0l0,1l1,0l0,1l1,0l0,1l1,0l0,1l1,0l0,1l1,0l0,1l1,0l0,1l1,0l0,1l2,0l0,1l1,0l0,1l1,0l0,1l1,0l0,1l1,0l0,1l1,0l0,1l1,0l0,1l1,0l0,1l1,0l0,1l1,0l0,1l1,0l0,1l1,0l0,1l1,0l0,2l1,0l0,1l1,0l0,1l1,0l0,1l1,0l0,1l1,0l0,1l1,0l0,1l1,0l0,1l1,0l0,1l1,0l0,2l1,0l0,1l1,0l0,1l1,0l0,1l1,0l0,1l1,0l0,1l1,0l0,1l1,0l0,2l1,0l0,1l1,0l0,1l1,0l0,2l1,0l0,1l1,0l0,1l1,0l0,2l1,0l0,1l1,0l0,2l1,0l0,1l1,0l0,1l1,0l0,2l1,0l0,1l1,0l0,1l1,0l0,2l1,0l0,1l1,0l0,2l1,0l0,1l1,0l0,1l1,0l0,2l1,0l0,1l1,0l0,2l1,0l0,1l1,0l0,2l1,0l0,2l1,0l0,1l1,0l0,2l1,0l0,1l1,0l0,2l1,0l0,2l1,0l0,1l1,0l0,2l1,0l0,1l1,0l0,2l1,0l0,2l1,0l0,1l1,0l0,2l1,0l0,2l1,0l0,2l1,0l0,2l1,0l0,1l1,0l0,2l1,0l0,2l1,0l0,2l1,0l0,2l1,0l0,2l1,0l0,2l1,0l0,2l1,0l0,2l1,0l0,2l1,0l0,2l1,0l0,3l1,0l0,2l1,0l0,3l1,0l0,2l1,0l0,3l1,0l0,2l1,0l0,2l1,0l0,3l1,0l0,2l1,0l0,3l1,0l0,3l1,0l0,3l1,0l0,4l1,0l0,3l1,0l0,3l1,0l0,3l1,0l0,4l1,0l0,5l1,0l0,4l1,0l0,5l1,0l0,5l1,0l0,8l1,0l0,8l1,0l0,34l-1,0l0,7l-1,0l0,7l-1,0l0,6l-1,0l0,4l-1,0l0,4l-1,0l0,4l-1,0l0,3l-1,0l0,3l-1,0l0,3l-1,0l0,3l-1,0l0,3l-1,0l0,2l-1,0l0,3l-1,0l0,2l-1,0l0,3l-1,0l0,2l-1,0l0,2l-1,0l0,2l-1,0l0,2l-1,0l0,2l-1,0l0,2l-1,0l0,2l-1,0l0,1l-1,0l0,2l-1,0l0,2l-1,0l0,1l-1,0l0,2l-1,0l0,2l-1,0l0,1l-1,0l0,2l-1,0l0,1l-1,0l0,2l-1,0l0,1l-1,0l0,2l-1,0l0,1l-1,0l0,1l-1,0l0,2l-1,0l0,1l-1,0l0,1l-1,0l0,2l-1,0l0,1l-1,0l0,1l-1,0l0,1l-1,0l0,2l-1,0l0,1l-1,0l0,1l-1,0l0,1l-1,0l0,1l-1,0l0,1l-1,0l0,1l-1,0l0,1l-1,0l0,2l-1,0l0,1l-2,0l0,1l-1,0l0,1l-1,0l0,1l-1,0l0,1l-1,0l0,1l-1,0l0,1l-1,0l0,1l-1,0l0,1l-1,0l0,1l-1,0l0,1l-1,0l0,1l-1,0l0,1l-1,0l0,1l-2,0l0,1l-1,0l0,1l-1,0l0,1l-1,0l0,1l-1,0l0,1l-2,0l0,1l-1,0l0,1l-1,0l0,1l-2,0l0,1l-1,0l0,1l-1,0l0,1l-2,0l0,1l-1,0l0,1l-1,0l0,1l-2,0l0,1l-1,0l0,1l-2,0l0,1l-1,0l0,1l-2,0l0,1l-1,0l0,1l-2,0l0,1l-2,0l0,1l-1,0l0,1l-2,0l0,1l-2,0l0,1l-1,0l0,1l-2,0l0,1l-2,0l0,1l-2,0l0,1l-2,0l0,1l-2,0l0,1l-2,0l0,1l-2,0l0,1l-2,0l0,1l-2,0l0,1l-2,0l0,1l-3,0l0,1l-2,0l0,1l-2,0l0,1l-3,0l0,1l-2,0l0,1l-3,0l0,1l-3,0l0,1l-3,0l0,1l-2,0l0,1l-3,0l0,1l-4,0l0,1l-3,0l0,1l-4,0l0,1l-4,0l0,1l-3,0l0,1l-6,0l0,1l-5,0l0,1l-5,0l0,1l-7,0l0,1l-9,0l0,1l-18,0l0,1l-1,0l0,-1l-20,0l0,-1l-9,0l0,-1l-7,0l0,-1l-5,0l0,-1l-5,0l0,-1l-4,0l0,-1l-4,0l0,-1l-3,0l0,-1l-4,0l0,-1l-3,0l0,-1l-3,0l0,-1l-2,0l0,-1l-3,0l0,-1l-3,0l0,-1l-2,0l0,-1l-2,0l0,-1l-3,0l0,-1l-2,0l0,-1l-2,0l0,-1l-2,0l0,-1l-2,0l0,-1l-1,0l0,-1l-2,0l0,-1l-2,0l0,-1l-2,0l0,-1l-2,0l0,-1l-1,0l0,-1l-2,0l0,-1l-1,0l0,-1l-2,0l0,-1l-1,0l0,-1l-1,0l0,-1l-2,0l0,-1l-1,0l0,-1l-2,0l0,-1l-1,0l0,-1l-2,0l0,-1l-1,0l0,-1l-1,0l0,-1l-2,0l0,-1l-1,0l0,-1l-1,0l0,-1l-1,0l0,-1l-1,0l0,-1l-1,0l0,-1l-1,0l0,-1l-1,0l0,-1l-1,0l0,-1l-2,0l0,-1l-1,0l0,-1l-1,0l0,-1l-1,0l0,-1l-1,0l0,-1l-1,0l0,-1l-1,0l0,-1l-1,0l0,-1l-1,0l0,-1l-1,0l0,-2l-1,0l0,-1l-1,0l0,-1l-1,0l0,-1l-1,0l0,-1l-1,0l0,-1l-1,0l0,-2l-1,0l0,-1l-1,0l0,-1l-1,0l0,-1l-1,0l0,-1l-1,0l0,-1l-1,0l0,-2l-1,0l0,-1l-1,0l0,-2l-1,0l0,-1l-1,0l0,-2l-1,0l0,-1l-1,0l0,-2l-1,0l0,-1l-1,0l0,-2l-1,0l0,-1l-1,0l0,-2l-1,0l0,-1l-1,0l0,-2l-1,0l0,-2l-1,0l0,-2l-1,0l0,-2l-1,0l0,-1l-1,0l0,-2l-1,0l0,-2l-1,0l0,-2l-1,0l0,-2l-1,0l0,-2l-1,0l0,-2l-1,0l0,-2l-1,0l0,-2l-1,0l0,-3l-1,0l0,-2l-1,0l0,-3l-1,0l0,-2l-1,0l0,-3l-1,0l0,-2l-1,0l0,-3l-1,0l0,-3l-1,0l0,-2l-1,0l0,-3l-1,0l0,-3l-1,0l0,-4l-1,0l0,-3l-1,0l0,-3l-1,0l0,-4l-1,0l0,-4l-1,0l0,-1l2,0l0,1l4,0l0,1l3,0l0,1l4,0l0,1l4,0l0,1l3,0l0,1l4,0l0,1l4,0l0,1l5,0l0,1l4,0l0,1l5,0l0,1l5,0l0,1l5,0l0,1l5,0l0,1l5,0l0,1l6,0l0,1l7,0l0,1l7,0l0,1l8,0l0,1l10,0l0,1l11,0l0,1l35,0l0,1l2,0l0,-1l21,0l0,-1l10,0l0,-1l9,0l0,-1l7,0l0,-1l6,0l0,-1l6,0l0,-1l5,0l0,-1l4,0l0,-1l5,0l0,-1l4,0l0,-1l4,0l0,-1l3,0l0,-1l3,0l0,-1l4,0l0,-1l3,0l0,-1l3,0l0,-1l3,0l0,-1l3,0l0,-1l2,0l0,-1l3,0l0,-1l3,0l0,-1l2,0l0,-1l3,0l0,-1l2,0l0,-1l2,0l0,-1l3,0l0,-1l2,0l0,-1l2,0l0,-1l2,0l0,-1l2,0l0,-1l2,0l0,-1l2,0l0,-1l2,0l0,-1l2,0l0,-1l2,0l0,-1l1,0l0,-1l2,0l0,-1l2,0l0,-1l1,0l0,-1l2,0l0,-1l2,0l0,-1l1,0l0,-1l2,0l0,-1l2,0l0,-1l1,0l0,-1l2,0l0,-1l1,0l0,-1l1,0l0,-1l2,0l0,-1l1,0l0,-1l1,0l0,-1l2,0l0,-1l1,0l0,-1l1,0l0,-1l2,0l0,-1l1,0l0,-1l1,0l0,-1l2,0l0,-1l1,0l0,-1l1,0l0,-1l2,0l0,-1l1,0l0,-1l1,0l0,-1l1,0l0,-1l1,0l0,-1l1,0l0,-1l1,0l0,-1l2,0l0,-1l1,0l0,-1l1,0l0,-1l1,0l0,-1l1,0l0,-1l1,0l0,-1l1,0l0,-1l1,0l0,-1l1,0l0,-1l1,0l0,-1l1,0l0,-1l1,0l0,-1l1,0l0,-1l1,0l0,-1l1,0l0,-1l1,0l0,-1l1,0l0,-1l1,0l0,-1l1,0l0,-1l1,0l0,-1l1,0l0,-2l1,0l0,-1l1,0l0,-1l1,0l0,-1l1,0l0,-1l1,0l0,-1l1,0l0,-1l1,0l0,-1l1,0l0,-2l1,0l0,-1l1,0l0,-1l1,0l0,-2l1,0l0,-1l1,0l0,-2l-1,0l0,-3l-1,0l0,-3l-1,0l0,-3l-1,0l0,-4l-1,0l0,-3l-1,0l0,-2l-1,0l0,-3l-1,0l0,-3l-1,0l0,-3l-1,0l0,-2l-1,0l0,-3l-1,0l0,-3l-1,0l0,-2l-1,0l0,-2l-1,0l0,-2l-1,0l0,-2l-1,0l0,-3l-1,0l0,-1l-1,0l0,-2l-1,0l0,-2l-1,0l0,-2l-1,0l0,-2l-1,0l0,-1l-1,0l0,-2l-1,0l0,-1l-1,0l0,-2l-1,0l0,-1l-1,0l0,-2l-1,0l0,-1l-1,0l0,-2l-1,0l0,-1l-1,0l0,-1l-1,0l0,-2l-1,0l0,-1l-1,0l0,-1l-1,0l0,-1l-1,0l0,-1l-1,0l0,-1l-1,0l0,-1l-2,0l0,2l-1,0l0,1l-1,0l0,2l-1,0l0,2l-1,0l0,2l-1,0l0,1l-1,0l0,2l-1,0l0,1l-1,0l0,2l-1,0l0,2l-1,0l0,1l-1,0l0,2l-1,0l0,1l-1,0l0,2l-1,0l0,1l-1,0l0,2l-1,0l0,1l-1,0l0,2l-1,0l0,1l-1,0l0,1l-1,0l0,1l-1,0l0,1l-1,0l0,2l-1,0l0,1l-1,0l0,1l-1,0l0,1l-1,0l0,1l-1,0l0,2l-1,0l0,1l-1,0l0,1l-1,0l0,1l-1,0l0,2l-1,0l0,1l-1,0l0,1l-1,0l0,1l-1,0l0,1l-1,0l0,1l-1,0l0,1l-1,0l0,1l-1,0l0,1l-1,0l0,1l-2,0l0,1l-1,0l0,1l-1,0l0,1l-1,0l0,1l-1,0l0,1l-1,0l0,1l-1,0l0,1l-2,0l0,1l-1,0l0,1l-1,0l0,1l-1,0l0,1l-1,0l0,1l-1,0l0,1l-1,0l0,1l-2,0l0,1l-1,0l0,1l-2,0l0,1l-1,0l0,1l-2,0l0,1l-1,0l0,1l-2,0l0,1l-1,0l0,1l-2,0l0,1l-1,0l0,1l-2,0l0,1l-1,0l0,1l-2,0l0,1l-2,0l0,1l-2,0l0,1l-2,0l0,1l-2,0l0,1l-2,0l0,1l-3,0l0,1l-2,0l0,1l-2,0l0,1l-3,0l0,1l-2,0l0,1l-3,0l0,1l-3,0l0,1l-3,0l0,1l-3,0l0,1l-3,0l0,1l-3,0l0,1l-4,0l0,1l-4,0l0,1l-5,0l0,1l-4,0l0,1l-5,0l0,1l-7,0l0,1l-7,0l0,1l-10,0l0,1l-21,0l0,1l-11,0l0,-1l-19,0l0,-1l-10,0l0,-1l-9,0l0,-1l-7,0l0,-1l-7,0l0,-1l-5,0l0,-1l-6,0l0,-1l-5,0l0,-1l-5,0l0,-1l-5,0l0,-1l-4,0l0,-1l-4,0l0,-1l-4,0l0,-1l-4,0l0,-1l-4,0l0,-1l-4,0l0,-1l-3,0l0,-1l-4,0l0,-1l-3,0l0,-1l-3,0l0,-1l-4,0l0,-1l-3,0l0,-1l-3,0l0,-1l-3,0l0,-1l-3,0l0,-1l-3,0l0,-1l-3,0l0,-1l-2,0l0,-1l-3,0l0,-1l-2,0l0,-52l-1,0l0,-4l-1,0l0,-3l-1,0l0,-2l-1,0l0,-2l-1,0l0,-2l-1,0l0,-2l-1,0l0,-1l-1,0l0,-2l-1,0l0,-1l-1,0l0,-1l-1,0l0,-1l-1,0l0,-1l-1,0l0,-1l-1,0l0,-1l-2,0l0,-1l-1,0l0,-1l-2,0l0,-1l-2,0l0,-1l-2,0l0,-1l-3,0l0,-1l-3,0l0,-1l-17,0l0,1l-4,0l0,1l-3,0l0,1l-2,0l0,1l-2,0l0,1l-2,0l0,1l-1,0l0,1l-1,0l0,1l-2,0l0,1l-1,0l0,1l-1,0l0,1l-1,0l0,1l-1,0l0,1l-1,0l0,2l-1,0l0,1l-1,0l0,2l-1,0l0,1l-1,0l0,2l-1,0l0,3l-1,0l0,3l-1,0l0,5l-1,0l0,59l1,0l0,15l1,0l0,12l1,0l0,10l1,0l0,7l1,0l0,7l1,0l0,7l1,0l0,7l1,0l0,5l1,0l0,4l1,0l0,5l1,0l0,5l1,0l0,5l1,0l0,4l1,0l0,4l1,0l0,3l1,0l0,4l1,0l0,4l1,0l0,3l1,0l0,4l1,0l0,3l1,0l0,3l1,0l0,3l1,0l0,3l1,0l0,2l1,0l0,3l1,0l0,3l1,0l0,3l1,0l0,3l1,0l0,2l1,0l0,2l1,0l0,3l1,0l0,2l1,0l0,2l1,0l0,3l1,0l0,2l1,0l0,2l1,0l0,3l1,0l0,2l1,0l0,2l1,0l0,2l1,0l0,1l1,0l0,2l1,0l0,2l1,0l0,2l1,0l0,2l1,0l0,2l1,0l0,2l1,0l0,2l1,0l0,2l1,0l0,1l1,0l0,2l1,0l0,1l1,0l0,2l1,0l0,2l1,0l0,1l1,0l0,2l1,0l0,1l1,0l0,2l1,0l0,1l1,0l0,2l1,0l0,2l1,0l0,1l1,0l0,1l1,0l0,2l1,0l0,1l1,0l0,1l1,0l0,2l1,0l0,1l1,0l0,1l1,0l0,2l1,0l0,1l1,0l0,1l1,0l0,1l1,0l0,2l1,0l0,1l1,0l0,1l1,0l0,2l1,0l0,1l1,0l0,1l1,0l0,1l1,0l0,1l1,0l0,1l1,0l0,1l1,0l0,1l1,0l0,1l1,0l0,1l1,0l0,1l1,0l0,2l1,0l0,1l1,0l0,1l1,0l0,1l1,0l0,1l1,0l0,1l1,0l0,1l1,0l0,1l1,0l0,1l2,0l0,1l1,0l0,1l1,0l0,1l1,0l0,1l1,0l0,1l1,0l0,1l1,0l0,1l1,0l0,1l1,0l0,1l1,0l0,1l2,0l0,1l1,0l0,1l1,0l0,1l1,0l0,1l2,0l0,1l1,0l0,1l1,0l0,1l2,0l0,1l1,0l0,1l1,0l0,1l2,0l0,1l1,0l0,1l1,0l0,1l2,0l0,1l1,0l0,1l2,0l0,1l1,0l0,1l2,0l0,1l1,0l0,1l2,0l0,1l2,0l0,1l1,0l0,1l2,0l0,1l1,0l0,1l2,0l0,1l2,0l0,1l1,0l0,1l2,0l0,1l2,0l0,1l2,0l0,1l2,0l0,1l2,0l0,1l2,0l0,1l2,0l0,1l2,0l0,1l2,0l0,1l2,0l0,1l2,0l0,1l3,0l0,1l2,0l0,1l3,0l0,1l2,0l0,1l3,0l0,1l3,0l0,1l2,0l0,1l3,0l0,1l4,0l0,1l3,0l0,1l3,0l0,1l4,0l0,1l3,0l0,1l4,0l0,1l4,0l0,1l5,0l0,1l5,0l0,1l5,0l0,1l7,0l0,1l8,0l0,1l8,0l0,1l22,0l0,1l6,0l0,-1l22,0l0,-1l9,0l0,-1l9,0l0,-1l6,0l0,-1l6,0l0,-1l5,0l0,-1l5,0l0,-1l5,0l0,-1l4,0l0,-1l3,0l0,-1l4,0l0,-1l4,0l0,-1l4,0l0,-1l3,0l0,-1l3,0l0,-1l3,0l0,-1l3,0l0,-1l3,0l0,-1l3,0l0,-1l2,0l0,-1l3,0l0,-1l3,0l0,-1l2,0l0,-1l2,0l0,-1l3,0l0,-1l2,0l0,-1l2,0l0,-1l3,0l0,-1l2,0l0,-1l2,0l0,-1l2,0l0,-1l2,0l0,-1l2,0l0,-1l2,0l0,-1l2,0l0,-1l2,0l0,-1l2,0l0,-1l2,0l0,-1l2,0l0,-1l1,0l0,-1l2,0l0,-1l2,0l0,-1l1,0l0,-1l2,0l0,-1l2,0l0,-1l1,0l0,-1l2,0l0,-1l2,0l0,-1l1,0l0,-1l2,0l0,-1l1,0l0,-1l2,0l0,-1l2,0l0,-1l1,0l0,-1l1,0l0,-1l2,0l0,-1l1,0l0,-1l1,0l0,-1l2,0l0,-1l1,0l0,-1l2,0l0,-1l1,0l0,-1l1,0l0,-1l2,0l0,-1l1,0l0,-1l1,0l0,-1l2,0l0,-1l1,0l0,-1l1,0l0,-1l1,0l0,-1l1,0l0,-1l2,0l0,-1l1,0l0,-1l1,0l0,-1l1,0l0,-1l1,0l0,-1l1,0l0,-1l2,0l0,-1l1,0l0,-1l1,0l0,-1l1,0l0,-1l1,0l0,-1l1,0l0,-1l1,0l0,-1l1,0l0,-1l1,0l0,-1l1,0l0,-1l1,0l0,-1l1,0l0,-1l1,0l0,-1l1,0l0,-1l1,0l0,-1l1,0l0,-1l1,0l0,-1l1,0l0,-1l1,0l0,-1l1,0l0,-1l1,0l0,-1l1,0l0,-1l1,0l0,-1l1,0l0,-1l1,0l0,-1l1,0l0,-2l1,0l0,-1l1,0l0,-1l1,0l0,-1l1,0l0,-1l1,0l0,-2l1,0l0,-1l1,0l0,-1l1,0l0,-1l1,0l0,-1l1,0l0,-2l1,0l0,-1l1,0l0,-2l1,0l0,-1l1,0l0,-1l1,0l0,-2l1,0l0,-1l1,0l0,-2l1,0l0,-1l1,0l0,-1l1,0l0,-2l1,0l0,-1l1,0l0,-2l1,0l0,-1l1,0l0,-2l1,0l0,-2l1,0l0,-1l1,0l0,-2l1,0l0,-2l1,0l0,-1l1,0l0,-2l1,0l0,-2l1,0l0,-1l1,0l0,-2l1,0l0,-2l1,0l0,-2l1,0l0,-2l1,0l0,-2l1,0l0,-2l1,0l0,-2l1,0l0,-2l1,0l0,-2l1,0l0,-2l1,0l0,-2l1,0l0,-3l1,0l0,-3l1,0l0,-2l1,0l0,-3l1,0l0,-2l1,0l0,-3l1,0l0,-3l1,0l0,-3l1,0l0,-3l1,0l0,-3l1,0l0,-4l1,0l0,-3l1,0l0,-4l1,0l0,-4l1,0l0,-5l1,0l0,-5l1,0l0,-5l1,0l0,-5l1,0l0,-9l1,0l0,-9l1,0l0,-47l-1,0l0,-8l-1,0l0,-9l-1,0l0,-7l-1,0l0,-5l-1,0l0,-5l-1,0l0,-5l-1,0l0,-5l-1,0l0,-4l-1,0l0,-3l-1,0l0,-4l-1,0l0,-3l-1,0l0,-4l-1,0l0,-4l-1,0l0,-3l-1,0l0,-3l-1,0l0,-3l-1,0l0,-2l-1,0l0,-3l-1,0l0,-3l-1,0l0,-3l-1,0l0,-3l-1,0l0,-2l-1,0l0,-3l-1,0l0,-2l-1,0l0,-2l-1,0l0,-2l-1,0l0,-3l-1,0l0,-2l-1,0l0,-2l-1,0l0,-3l-1,0l0,-2l-1,0l0,-2l-1,0l0,-2l-1,0l0,-2l-1,0l0,-2l-1,0l0,-2l-1,0l0,-2l-1,0l0,-2l-1,0l0,-2l-1,0l0,-2l-1,0l0,-2l-1,0l0,-2l-1,0l0,-2l-1,0l0,-1l-1,0l0,-2l-1,0l0,-2l-1,0l0,-1l-1,0l0,-2l-1,0l0,-2l-1,0l0,-2l-1,0l0,-1l-1,0l0,-2l-1,0l0,-2l-1,0l0,-1l-1,0l0,-2l-1,0l0,-7l1,0l0,-4l1,0l0,-5l1,0l0,-5l1,0l0,-5l1,0l0,-7l1,0l0,-6l1,0l0,-6l1,0l0,-9l1,0l0,-9l1,0l0,-10l1,0l0,-22l1,0l0,-19l-1,0l0,-22l-1,0l0,-10l-1,0l0,-10l-1,0l0,-6l-1,0l0,-6l-1,0l0,-6l-1,0l0,-6l-1,0l0,-5l-1,0l0,-4l-1,0l0,-3l-1,0l0,-4l-1,0l0,-4l-1,0l0,-4l-1,0l0,-4l-1,0l0,-3l-1,0l0,-3l-1,0l0,-3l-1,0l0,-3l-1,0l0,-3l-1,0l0,-3l-1,0l0,-3l-1,0l0,-3l-1,0l0,-2l-1,0l0,-2l-1,0l0,-3l-1,0l0,-2l-1,0l0,-2l-1,0l0,-2l-1,0l0,-3l-1,0l0,-2l-1,0l0,-2l-1,0l0,-3l-1,0l0,-2l-1,0l0,-2l-1,0l0,-1l-1,0l0,-2l-1,0l0,-2l-1,0l0,-2l-1,0l0,-2l-1,0l0,-2l-1,0l0,-2l-1,0l0,-1l-1,0l0,-2l-1,0l0,-2l-1,0l0,-2l-1,0l0,-1l-1,0l0,-2l-1,0l0,-1l-1,0l0,-2l-1,0l0,-1l-1,0l0,-2l-1,0l0,-2l-1,0l0,-1l-1,0l0,-2l-1,0l0,-1l-1,0l0,-2l-1,0l0,-1l-1,0l0,-2l-1,0l0,-1l-1,0l0,-1l-1,0l0,-2l-1,0l0,-1l-1,0l0,-1l-1,0l0,-2l-1,0l0,-1l-1,0l0,-1l-1,0l0,-1l-1,0l0,-2l-1,0l0,-1l-1,0l0,-1l-1,0l0,-2l-1,0l0,-1l-1,0l0,-1l-1,0l0,-1l-1,0l0,-1l-1,0l0,-2l-1,0l0,-1l-1,0l0,-1l-1,0l0,-1l-1,0l0,-1l-1,0l0,-1l-1,0l0,-1l-1,0l0,-1l-1,0l0,-1l-1,0l0,-1l-1,0l0,-1l-1,0l0,-1l-1,0l0,-2l-1,0l0,-1l-1,0l0,-1l-1,0l0,-1l-1,0l0,-1l-1,0l0,-1l-1,0l0,-1l-1,0l0,-1l-2,0l0,-1l-1,0l0,-1l-1,0l0,-1l-1,0l0,-1l-1,0l0,-1l-1,0l0,-1l-1,0l0,-1l-1,0l0,-1l-1,0l0,-1l-1,0l0,-1l-1,0l0,-1l-1,0l0,-1l-2,0l0,-1l-1,0l0,-1l-1,0l0,-1l-1,0l0,-1l-2,0l0,-1l-1,0l0,-1l-1,0l0,-1l-1,0l0,-1l-2,0l0,-1l-1,0l0,-1l-1,0l0,-1l-1,0l0,-1l-2,0l0,-1l-1,0l0,-1l-1,0l0,-1l-1,0l0,-1l-2,0l0,-1l-1,0l0,-1l-2,0l0,-1l-1,0l0,-1l-1,0l0,-1l-2,0l0,-1l-1,0l0,-1l-2,0l0,-1l-1,0l0,-1l-2,0l0,-1l-1,0l0,-1l-2,0l0,-1l-1,0l0,-1l-2,0l0,-1l-1,0l0,-1l-2,0l0,-1l-2,0l0,-1l-1,0l0,-1l-2,0l0,-1l-1,0l0,-1l-2,0l0,-1l-2,0l0,-1l-2,0l0,-1l-2,0l0,-1l-2,0l0,-1l-1,0l0,-1l-2,0l0,-1l-2,0l0,-1l-2,0l0,-1l-2,0l0,-1l-2,0l0,-1l-2,0l0,-1l-2,0l0,-1l-2,0l0,-1l-2,0l0,-1l-2,0l0,-1l-3,0l0,-1l-2,0l0,-1l-2,0l0,-1l-2,0l0,-1l-2,0l0,-1l-3,0l0,-1l-2,0l0,-1l-3,0l0,-1l-3,0l0,-1l-2,0l0,-1l-3,0l0,-1l-2,0l0,-1l-3,0l0,-1l-2,0l0,-1l-4,0l0,-1l-3,0l0,-1l-3,0l0,-1l-3,0l0,-1l-4,0l0,-1l-3,0l0,-1l-3,0l0,-1l-4,0l0,-1l-4,0l0,-1l-4,0l0,-1l-4,0l0,-1l-4,0l0,-1l-5,0l0,-1l-5,0l0,-1l-6,0l0,-1l-6,0l0,-1l-6,0l0,-1l-7,0l0,-1l-10,0l0,-1l-10,0l0,-1l-56,0l0,1l-13,0l0,1l-9,0l0,1l-8,0l0,1l-6,0l0,1l-6,0l0,1l-5,0l0,1l-6,0l0,1l-4,0l0,1l-4,0l0,1l-5,0l0,1l-4,0l0,1l-3,0l0,1l-4,0l0,1l-3,0l0,1l-4,0l0,1l-3,0l0,1l-3,0l0,1l-3,0l0,1l-3,0l0,1l-3,0l0,1l-3,0l0,1l-2,0l0,1l-3,0l0,1l-2,0l0,1l-3,0l0,1l-2,0l0,1l-3,0l0,1l-2,0l0,1l-2,0l0,1l-2,0l0,1l-2,0l0,1l-3,0l0,1l-2,0l0,1l-2,0l0,1l-2,0l0,1l-2,0l0,1l-2,0l0,1l-2,0l0,1l-2,0l0,1l-2,0l0,1l-1,0l0,1l-2,0l0,1l-2,0l0,1l-2,0l0,1l-2,0l0,1l-1,0l0,1l-2,0l0,1l-2,0l0,1l-1,0l0,1l-2,0l0,1l-2,0l0,1l-1,0l0,1l-2,0l0,1l-2,0l0,1l-1,0l0,1l-2,0l0,1l-1,0l0,1l-2,0l0,1l-1,0l0,1l-2,0l0,1l-1,0l0,1l-2,0l0,1l-1,0l0,1l-2,0l0,1l-1,0l0,1l-2,0l0,1l-1,0l0,1l-1,0l0,1l-2,0l0,1l-1,0l0,1l-2,0l0,1l-1,0l0,1l-1,0l0,1l-2,0l0,1l-1,0l0,1l-1,0l0,1l-2,0l0,1l-1,0l0,1l-2,0l0,1l-1,0l0,1l-1,0l0,1l-1,0l0,1l-2,0l0,1l-1,0l0,1l-1,0l0,1l-2,0l0,-2l-1,0l0,-1l-1,0l0,-1l-1,0l0,-2l-1,0l0,-1l-1,0l0,-1l-1,0l0,-2l-1,0l0,-1l-1,0l0,-1l-1,0l0,-2l-1,0l0,-1l-1,0l0,-1l-1,0l0,-2l-1,0l0,-1l-1,0l0,-1l-1,0l0,-1l-1,0l0,-2l-1,0l0,-1l-1,0l0,-1l-1,0l0,-1l-1,0l0,-2l-1,0l0,-1l-1,0l0,-1l-1,0l0,-1l-1,0l0,-1l-1,0l0,-2l-1,0l0,-1l-1,0l0,-1l-1,0l0,-1l-1,0l0,-1l-1,0l0,-1l-1,0l0,-1l-1,0l0,-2l-1,0l0,-1l-1,0l0,-1l-1,0l0,-1l-1,0l0,-1l-1,0l0,-1l-1,0l0,-1l-1,0l0,-1l-1,0l0,-1l-1,0l0,-1l-1,0l0,-1l-1,0l0,-1l-1,0l0,-1l-1,0l0,-1l-1,0l0,-1l-1,0l0,-1l-1,0l0,-1l-1,0l0,-1l-1,0l0,-1l-1,0l0,-1l-1,0l0,-1l-1,0l0,-1l-1,0l0,-1l-1,0l0,-1l-1,0l0,-1l-1,0l0,-1l-1,0l0,-1l-1,0l0,-1l-1,0l0,-1l-1,0l0,-1l-1,0l0,-1l-1,0l0,-1l-2,0l0,-1l-1,0l0,-1l-1,0l0,-1l-1,0l0,-1l-1,0l0,-1l-1,0l0,-1l-2,0l0,-1l-1,0l0,-1l-1,0l0,-1l-1,0l0,-1l-3,0l0,1l-2,0l0,1l-1,0l0,1l-1,0l0,1l-1,0l0,1l-2,0l0,1l-1,0l0,1l-1,0l0,1l-1,0l0,1l-1,0l0,1l-1,0l0,1l-1,0l0,1l-2,0l0,1l-1,0l0,1l-1,0l0,1l-1,0l0,1l-1,0l0,1l-1,0l0,1l-2,0l0,1l-1,0l0,1l-1,0l0,1l-1,0l0,1l-1,0l0,1l-1,0l0,1l-1,0l0,1l-1,0l0,1l-1,0l0,1l-1,0l0,1l-1,0l0,1l-1,0l0,1l-1,0l0,1l-1,0l0,1l-1,0l0,1l-1,0l0,1l-1,0l0,1l-1,0l0,1l-1,0l0,1l-1,0l0,1l-1,0l0,1l-2,0l0,1l-1,0l0,1l-1,0l0,2l-1,0l0,1l-1,0l0,1l-1,0l0,1l-1,0l0,1l-1,0l0,1l-1,0l0,1l-1,0l0,1l-1,0l0,1l-1,0l0,1l-1,0l0,1l-1,0l0,2l-1,0l0,1l-1,0l0,1l-1,0l0,1l-1,0l0,1l-1,0l0,1l-1,0l0,1l-1,0l0,1l-1,0l0,2l-1,0l0,1l-1,0l0,1l-1,0l0,1l-1,0l0,1l-1,0l0,2l-1,0l0,1l-1,0l0,1l-1,0l0,1l-1,0l0,2l-1,0l0,1l-1,0l0,1l-1,0l0,1l-1,0l0,2l-1,0l0,1l-1,0l0,1l-2,0l0,-1l-1,0l0,-1l-1,0l0,-1l-2,0l0,-1l-1,0l0,-1l-1,0l0,-1l-2,0l0,-1l-1,0l0,-1l-1,0l0,-1l-2,0l0,-1l-1,0l0,-1l-2,0l0,-1l-1,0l0,-1l-1,0l0,-1l-2,0l0,-1l-1,0l0,-1l-1,0l0,-1l-2,0l0,-1l-1,0l0,-1l-2,0l0,-1l-1,0l0,-1l-2,0l0,-1l-1,0l0,-1l-2,0l0,-1l-1,0l0,-1l-2,0l0,-1l-1,0l0,-1l-2,0l0,-1l-1,0l0,-1l-2,0l0,-1l-1,0l0,-1l-2,0l0,-1l-2,0l0,-1l-1,0l0,-1l-2,0l0,-1l-2,0l0,-1l-1,0l0,-1l-2,0l0,-1l-2,0l0,-1l-1,0l0,-1l-2,0l0,-1l-2,0l0,-1l-2,0l0,-1l-2,0l0,-1l-1,0l0,-1l-2,0l0,-1l-2,0l0,-1l-2,0l0,-1l-2,0l0,-1l-2,0l0,-1l-2,0l0,-1l-2,0l0,-1l-2,0l0,-1l-3,0l0,-1l-2,0l0,-1l-2,0l0,-1l-2,0l0,-1l-2,0l0,-1l-3,0l0,-1l-2,0l0,-1l-3,0l0,-1l-2,0l0,-1l-3,0l0,-1l-2,0l0,-1l-3,0l0,-1l-3,0l0,-1l-3,0l0,-1l-3,0l0,-1l-3,0l0,-1l-3,0l0,-1l-4,0l0,-1l-3,0l0,-1l-4,0l0,-1l-3,0l0,-1l-4,0l0,-1l-5,0l0,-1l-4,0l0,-1l-4,0l0,-1l-5,0l0,-1l-6,0l0,-1l-6,0l0,-1l-6,0l0,-1l-8,0l0,-1l-9,0l0,-1l-13,0l0,-1l-56,0zm9,76l0,-1l33,0l0,1l14,0l0,1l8,0l0,1l8,0l0,1l7,0l0,1l5,0l0,1l4,0l0,1l5,0l0,1l5,0l0,1l4,0l0,1l4,0l0,1l3,0l0,1l4,0l0,1l4,0l0,1l3,0l0,1l3,0l0,1l3,0l0,1l3,0l0,1l3,0l0,1l3,0l0,1l2,0l0,1l3,0l0,1l3,0l0,1l2,0l0,1l3,0l0,1l2,0l0,1l2,0l0,1l2,0l0,1l3,0l0,1l2,0l0,1l2,0l0,1l2,0l0,1l2,0l0,1l2,0l0,1l2,0l0,1l2,0l0,1l2,0l0,1l2,0l0,1l2,0l0,1l2,0l0,1l2,0l0,1l2,0l0,1l1,0l0,1l2,0l0,1l1,0l0,1l2,0l0,1l2,0l0,1l1,0l0,1l2,0l0,1l1,0l0,1l2,0l0,1l2,0l0,1l1,0l0,1l2,0l0,1l1,0l0,1l1,0l0,1l2,0l0,1l1,0l0,1l1,0l0,1l2,0l0,1l1,0l0,1l1,0l0,1l2,0l0,1l1,0l0,1l1,0l0,1l2,0l0,1l1,0l0,1l1,0l0,1l1,0l0,1l1,0l0,1l1,0l0,1l2,0l0,1l1,0l0,1l1,0l0,1l1,0l0,1l1,0l0,3l-1,0l0,2l-1,0l0,2l-1,0l0,3l-1,0l0,3l-1,0l0,3l-1,0l0,3l-1,0l0,3l-1,0l0,2l-1,0l0,3l-1,0l0,4l-1,0l0,4l-1,0l0,3l-1,0l0,4l-1,0l0,4l-1,0l0,4l-1,0l0,4l-1,0l0,5l-1,0l0,6l-1,0l0,6l-1,0l0,7l-1,0l0,9l-1,0l0,16l-1,0l0,20l1,0l0,19l1,0l0,8l1,0l0,9l1,0l0,6l1,0l0,6l1,0l0,5l1,0l0,5l1,0l0,5l1,0l0,4l1,0l0,4l1,0l0,4l1,0l0,4l1,0l0,4l1,0l0,2l-2,0l0,-1l-1,0l0,-1l-2,0l0,-1l-1,0l0,-1l-2,0l0,-1l-2,0l0,-1l-2,0l0,-1l-1,0l0,-1l-2,0l0,-1l-2,0l0,-1l-1,0l0,-1l-2,0l0,-1l-2,0l0,-1l-1,0l0,-1l-2,0l0,-1l-2,0l0,-1l-2,0l0,-1l-1,0l0,-1l-2,0l0,-1l-2,0l0,-1l-2,0l0,-1l-2,0l0,-1l-2,0l0,-1l-1,0l0,-1l-2,0l0,-1l-2,0l0,-1l-2,0l0,-1l-2,0l0,-1l-2,0l0,-1l-2,0l0,-1l-1,0l0,-1l-2,0l0,-1l-2,0l0,-1l-2,0l0,-1l-3,0l0,-1l-2,0l0,-1l-2,0l0,-1l-2,0l0,-1l-2,0l0,-1l-2,0l0,-1l-2,0l0,-1l-2,0l0,-1l-2,0l0,-1l-2,0l0,-1l-2,0l0,-1l-3,0l0,-1l-2,0l0,-1l-2,0l0,-1l-3,0l0,-1l-2,0l0,-1l-2,0l0,-1l-3,0l0,-1l-2,0l0,-1l-3,0l0,-1l-2,0l0,-1l-3,0l0,-1l-2,0l0,-1l-3,0l0,-1l-2,0l0,-1l-3,0l0,-1l-2,0l0,-1l-3,0l0,-1l-3,0l0,-1l-3,0l0,-1l-3,0l0,-1l-4,0l0,-1l-3,0l0,-1l-3,0l0,-1l-3,0l0,-1l-3,0l0,-1l-3,0l0,-1l-3,0l0,-1l-4,0l0,-1l-4,0l0,-1l-4,0l0,-1l-5,0l0,-1l-4,0l0,-1l-4,0l0,-1l-4,0l0,-1l-4,0l0,-1l-7,0l0,-1l-6,0l0,-1l-6,0l0,-1l-7,0l0,-1l-6,0l0,-1l-12,0l0,-1l-14,0l0,-1l-23,0l0,1l-13,0l0,1l-13,0l0,1l-7,0l0,1l-6,0l0,1l-5,0l0,1l-6,0l0,1l-4,0l0,1l-4,0l0,1l-4,0l0,1l-4,0l0,1l-4,0l0,1l-3,0l0,1l-4,0l0,1l-2,0l0,1l-3,0l0,1l-3,0l0,1l-3,0l0,1l-3,0l0,1l-3,0l0,1l-2,0l0,1l-3,0l0,1l-2,0l0,1l-2,0l0,1l-2,0l0,1l-3,0l0,1l-2,0l0,1l-2,0l0,1l-2,0l0,1l-2,0l0,1l-2,0l0,1l-2,0l0,1l-2,0l0,1l-2,0l0,1l-2,0l0,1l-1,0l0,1l-2,0l0,1l-2,0l0,1l-2,0l0,1l-2,0l0,1l-1,0l0,1l-2,0l0,1l-2,0l0,1l-1,0l0,1l-2,0l0,1l-1,0l0,1l-2,0l0,1l-1,0l0,1l-2,0l0,1l-1,0l0,1l-2,0l0,1l-1,0l0,1l-2,0l0,1l-1,0l0,1l-2,0l0,1l-1,0l0,1l-1,0l0,1l-2,0l0,1l-1,0l0,1l-1,0l0,1l-1,0l0,1l-2,0l0,1l-1,0l0,1l-1,0l0,1l-1,0l0,1l-2,0l0,1l-1,0l0,1l-1,0l0,1l-2,0l0,1l-1,0l0,1l-1,0l0,1l-1,0l0,1l-1,0l0,1l-1,0l0,1l-1,0l0,1l-2,0l0,1l-1,0l0,1l-1,0l0,1l-1,0l0,1l-1,0l0,1l-1,0l0,1l-1,0l0,1l-1,0l0,1l-1,0l0,1l-1,0l0,1l-1,0l0,-5l-1,0l0,-28l1,0l0,-17l1,0l0,-8l1,0l0,-9l1,0l0,-5l1,0l0,-5l1,0l0,-5l1,0l0,-5l1,0l0,-4l1,0l0,-4l1,0l0,-3l1,0l0,-4l1,0l0,-3l1,0l0,-3l1,0l0,-3l1,0l0,-3l1,0l0,-2l1,0l0,-3l1,0l0,-3l1,0l0,-2l1,0l0,-3l1,0l0,-2l1,0l0,-2l1,0l0,-2l1,0l0,-2l1,0l0,-2l1,0l0,-2l1,0l0,-2l1,0l0,-2l1,0l0,-2l1,0l0,-2l1,0l0,-2l1,0l0,-1l1,0l0,-2l1,0l0,-2l1,0l0,-2l1,0l0,-1l1,0l0,-2l1,0l0,-1l1,0l0,-2l1,0l0,-1l1,0l0,-2l1,0l0,-1l1,0l0,-2l1,0l0,-1l1,0l0,-2l1,0l0,-1l1,0l0,-2l1,0l0,-1l1,0l0,-1l1,0l0,-1l1,0l0,-2l1,0l0,-1l1,0l0,-1l1,0l0,-2l1,0l0,-1l1,0l0,-1l1,0l0,-1l1,0l0,-1l1,0l0,-1l1,0l0,-1l1,0l0,-2l1,0l0,-1l1,0l0,-1l1,0l0,-1l1,0l0,-1l1,0l0,-1l1,0l0,-1l1,0l0,-1l1,0l0,-1l1,0l0,-1l1,0l0,-1l1,0l0,-1l1,0l0,-1l1,0l0,-1l1,0l0,-1l1,0l0,-1l1,0l0,-1l1,0l0,-1l1,0l0,-1l1,0l0,-1l1,0l0,-1l2,0l0,-1l1,0l0,-1l1,0l0,-1l1,0l0,-1l1,0l0,-1l1,0l0,-1l2,0l0,-1l1,0l0,-1l1,0l0,-1l1,0l0,-1l2,0l0,-1l1,0l0,-1l1,0l0,-1l2,0l0,-1l1,0l0,-1l1,0l0,-1l2,0l0,-1l1,0l0,-1l2,0l0,-1l1,0l0,-1l1,0l0,-1l2,0l0,-1l1,0l0,-1l2,0l0,-1l1,0l0,-1l2,0l0,-1l2,0l0,-1l1,0l0,-1l2,0l0,-1l1,0l0,-1l2,0l0,-1l2,0l0,-1l2,0l0,-1l2,0l0,-1l2,0l0,-1l1,0l0,-1l2,0l0,-1l2,0l0,-1l2,0l0,-1l2,0l0,-1l2,0l0,-1l2,0l0,-1l2,0l0,-1l3,0l0,-1l2,0l0,-1l2,0l0,-1l3,0l0,-1l2,0l0,-1l2,0l0,-1l2,0l0,-1l3,0l0,-1l2,0l0,-1l3,0l0,-1l3,0l0,-1l3,0l0,-1l3,0l0,-1l3,0l0,-1l3,0l0,-1l4,0l0,-1l3,0l0,-1l3,0l0,-1l5,0l0,-1l4,0l0,-1l5,0l0,-1l4,0l0,-1l5,0l0,-1l6,0l0,-1l8,0l0,-1l8,0l0,-1l13,0zm644,0l0,-1l34,0l0,1l12,0l0,1l8,0l0,1l8,0l0,1l6,0l0,1l5,0l0,1l4,0l0,1l5,0l0,1l4,0l0,1l5,0l0,1l3,0l0,1l3,0l0,1l4,0l0,1l3,0l0,1l3,0l0,1l3,0l0,1l3,0l0,1l3,0l0,1l3,0l0,1l2,0l0,1l3,0l0,1l2,0l0,1l2,0l0,1l3,0l0,1l2,0l0,1l2,0l0,1l2,0l0,1l3,0l0,1l2,0l0,1l2,0l0,1l2,0l0,1l2,0l0,1l2,0l0,1l2,0l0,1l2,0l0,1l2,0l0,1l1,0l0,1l2,0l0,1l2,0l0,1l2,0l0,1l2,0l0,1l1,0l0,1l2,0l0,1l2,0l0,1l1,0l0,1l2,0l0,1l1,0l0,1l2,0l0,1l1,0l0,1l2,0l0,1l1,0l0,1l2,0l0,1l1,0l0,1l1,0l0,1l2,0l0,1l1,0l0,1l2,0l0,1l1,0l0,1l1,0l0,1l1,0l0,1l2,0l0,1l1,0l0,1l1,0l0,1l1,0l0,1l2,0l0,1l1,0l0,1l1,0l0,1l1,0l0,1l1,0l0,1l1,0l0,1l2,0l0,1l1,0l0,1l1,0l0,1l1,0l0,1l1,0l0,1l1,0l0,1l1,0l0,1l1,0l0,1l1,0l0,1l1,0l0,1l1,0l0,1l1,0l0,1l1,0l0,1l1,0l0,1l1,0l0,1l1,0l0,1l1,0l0,1l1,0l0,1l1,0l0,1l1,0l0,1l1,0l0,1l1,0l0,2l1,0l0,1l1,0l0,1l1,0l0,1l1,0l0,1l1,0l0,1l1,0l0,2l1,0l0,1l1,0l0,1l1,0l0,2l1,0l0,1l1,0l0,1l1,0l0,1l1,0l0,2l1,0l0,1l1,0l0,2l1,0l0,1l1,0l0,1l1,0l0,2l1,0l0,1l1,0l0,2l1,0l0,1l1,0l0,2l1,0l0,1l1,0l0,2l1,0l0,2l1,0l0,2l1,0l0,1l1,0l0,2l1,0l0,2l1,0l0,2l1,0l0,1l1,0l0,2l1,0l0,3l1,0l0,2l1,0l0,2l1,0l0,2l1,0l0,2l1,0l0,2l1,0l0,2l1,0l0,3l1,0l0,2l1,0l0,3l1,0l0,3l1,0l0,2l1,0l0,3l1,0l0,2l1,0l0,4l1,0l0,3l1,0l0,4l1,0l0,3l1,0l0,4l1,0l0,4l1,0l0,5l1,0l0,4l1,0l0,5l1,0l0,6l1,0l0,8l1,0l0,8l1,0l0,17l1,0l0,30l-1,0l0,4l-1,0l0,-1l-1,0l0,-1l-1,0l0,-1l-1,0l0,-1l-1,0l0,-1l-1,0l0,-1l-1,0l0,-1l-1,0l0,-1l-1,0l0,-1l-1,0l0,-1l-2,0l0,-1l-1,0l0,-1l-1,0l0,-1l-1,0l0,-1l-1,0l0,-1l-1,0l0,-1l-1,0l0,-1l-2,0l0,-1l-1,0l0,-1l-1,0l0,-1l-1,0l0,-1l-2,0l0,-1l-1,0l0,-1l-1,0l0,-1l-2,0l0,-1l-1,0l0,-1l-1,0l0,-1l-1,0l0,-1l-2,0l0,-1l-1,0l0,-1l-1,0l0,-1l-2,0l0,-1l-1,0l0,-1l-2,0l0,-1l-1,0l0,-1l-2,0l0,-1l-1,0l0,-1l-2,0l0,-1l-1,0l0,-1l-2,0l0,-1l-1,0l0,-1l-2,0l0,-1l-1,0l0,-1l-2,0l0,-1l-1,0l0,-1l-2,0l0,-1l-2,0l0,-1l-2,0l0,-1l-2,0l0,-1l-1,0l0,-1l-2,0l0,-1l-2,0l0,-1l-2,0l0,-1l-2,0l0,-1l-1,0l0,-1l-3,0l0,-1l-2,0l0,-1l-2,0l0,-1l-2,0l0,-1l-2,0l0,-1l-3,0l0,-1l-2,0l0,-1l-2,0l0,-1l-2,0l0,-1l-3,0l0,-1l-2,0l0,-1l-3,0l0,-1l-3,0l0,-1l-3,0l0,-1l-3,0l0,-1l-3,0l0,-1l-2,0l0,-1l-4,0l0,-1l-3,0l0,-1l-4,0l0,-1l-4,0l0,-1l-4,0l0,-1l-4,0l0,-1l-4,0l0,-1l-6,0l0,-1l-5,0l0,-1l-6,0l0,-1l-7,0l0,-1l-13,0l0,-1l-12,0l0,-1l-23,0l0,1l-15,0l0,1l-11,0l0,1l-7,0l0,1l-7,0l0,1l-6,0l0,1l-7,0l0,1l-6,0l0,1l-4,0l0,1l-4,0l0,1l-4,0l0,1l-4,0l0,1l-5,0l0,1l-4,0l0,1l-4,0l0,1l-4,0l0,1l-3,0l0,1l-3,0l0,1l-3,0l0,1l-3,0l0,1l-3,0l0,1l-3,0l0,1l-4,0l0,1l-3,0l0,1l-3,0l0,1l-3,0l0,1l-3,0l0,1l-2,0l0,1l-3,0l0,1l-2,0l0,1l-3,0l0,1l-2,0l0,1l-3,0l0,1l-2,0l0,1l-3,0l0,1l-2,0l0,1l-3,0l0,1l-2,0l0,1l-3,0l0,1l-2,0l0,1l-2,0l0,1l-2,0l0,1l-2,0l0,1l-3,0l0,1l-2,0l0,1l-2,0l0,1l-2,0l0,1l-2,0l0,1l-2,0l0,1l-2,0l0,1l-2,0l0,1l-2,0l0,1l-3,0l0,1l-2,0l0,1l-2,0l0,1l-2,0l0,1l-1,0l0,1l-2,0l0,1l-2,0l0,1l-2,0l0,1l-2,0l0,1l-2,0l0,1l-2,0l0,1l-1,0l0,1l-2,0l0,1l-2,0l0,1l-2,0l0,1l-2,0l0,1l-2,0l0,1l-2,0l0,1l-1,0l0,1l-2,0l0,1l-2,0l0,1l-2,0l0,1l-1,0l0,1l-2,0l0,1l-2,0l0,1l-1,0l0,1l-2,0l0,1l-2,0l0,1l-1,0l0,1l-2,0l0,1l-2,0l0,1l-1,0l0,1l-2,0l0,1l-1,0l0,-4l1,0l0,-5l1,0l0,-5l1,0l0,-4l1,0l0,-5l1,0l0,-6l1,0l0,-7l1,0l0,-8l1,0l0,-8l1,0l0,-17l1,0l0,-25l-1,0l0,-17l-1,0l0,-8l-1,0l0,-7l-1,0l0,-7l-1,0l0,-5l-1,0l0,-5l-1,0l0,-4l-1,0l0,-5l-1,0l0,-4l-1,0l0,-4l-1,0l0,-4l-1,0l0,-3l-1,0l0,-3l-1,0l0,-3l-1,0l0,-4l-1,0l0,-3l-1,0l0,-3l-1,0l0,-3l-1,0l0,-2l-1,0l0,-3l-1,0l0,-3l-1,0l0,-2l-1,0l0,-3l-1,0l0,-2l-1,0l0,-3l1,0l0,-1l1,0l0,-1l1,0l0,-1l1,0l0,-1l1,0l0,-1l2,0l0,-1l1,0l0,-1l1,0l0,-1l1,0l0,-1l1,0l0,-1l1,0l0,-1l1,0l0,-1l2,0l0,-1l1,0l0,-1l1,0l0,-1l2,0l0,-1l1,0l0,-1l1,0l0,-1l2,0l0,-1l1,0l0,-1l1,0l0,-1l2,0l0,-1l1,0l0,-1l1,0l0,-1l2,0l0,-1l2,0l0,-1l1,0l0,-1l2,0l0,-1l1,0l0,-1l2,0l0,-1l1,0l0,-1l2,0l0,-1l2,0l0,-1l1,0l0,-1l2,0l0,-1l2,0l0,-1l2,0l0,-1l1,0l0,-1l2,0l0,-1l2,0l0,-1l2,0l0,-1l2,0l0,-1l2,0l0,-1l2,0l0,-1l2,0l0,-1l2,0l0,-1l2,0l0,-1l2,0l0,-1l2,0l0,-1l3,0l0,-1l2,0l0,-1l2,0l0,-1l2,0l0,-1l3,0l0,-1l2,0l0,-1l3,0l0,-1l3,0l0,-1l3,0l0,-1l2,0l0,-1l3,0l0,-1l3,0l0,-1l3,0l0,-1l3,0l0,-1l4,0l0,-1l3,0l0,-1l4,0l0,-1l3,0l0,-1l4,0l0,-1l4,0l0,-1l5,0l0,-1l5,0l0,-1l4,0l0,-1l5,0l0,-1l7,0l0,-1l8,0l0,-1l8,0l0,-1l14,0zm-305,49l0,-1l2,0l0,1l1,0l0,1l1,0l0,1l1,0l0,1l1,0l0,1l1,0l0,1l1,0l0,1l1,0l0,1l1,0l0,1l1,0l0,1l1,0l0,1l1,0l0,2l1,0l0,1l1,0l0,1l1,0l0,1l1,0l0,1l1,0l0,1l1,0l0,2l1,0l0,1l1,0l0,1l1,0l0,1l1,0l0,1l1,0l0,2l1,0l0,1l1,0l0,1l1,0l0,2l1,0l0,1l1,0l0,1l1,0l0,2l1,0l0,1l1,0l0,2l1,0l0,1l1,0l0,2l1,0l0,1l1,0l0,2l1,0l0,2l1,0l0,1l1,0l0,2l1,0l0,2l1,0l0,1l1,0l0,2l1,0l0,2l1,0l0,2l1,0l0,1l-1,0l0,-1l-7,0l0,-1l-7,0l0,-1l-11,0l0,-1l-43,0l0,1l-9,0l0,1l-9,0l0,1l-4,0l0,-1l1,0l0,-1l1,0l0,-2l1,0l0,-2l1,0l0,-1l1,0l0,-2l1,0l0,-1l1,0l0,-2l1,0l0,-2l1,0l0,-1l1,0l0,-1l1,0l0,-2l1,0l0,-1l1,0l0,-1l1,0l0,-2l1,0l0,-1l1,0l0,-2l1,0l0,-1l1,0l0,-1l1,0l0,-2l1,0l0,-1l1,0l0,-1l1,0l0,-1l1,0l0,-1l1,0l0,-1l1,0l0,-2l1,0l0,-1l1,0l0,-1l1,0l0,-1l1,0l0,-1l1,0l0,-1l1,0l0,-1l1,0l0,-1l1,0l0,-1l1,0l0,-1l1,0l0,-1l1,0l0,-1l1,0l0,-1l1,0l0,-1l1,0l0,-1l1,0l0,-1l1,0l0,-1l1,0l0,-1l1,0l0,-1l1,0l0,-1l1,0l0,-1l1,0zm-14,123l0,-1l40,0l0,1l9,0l0,1l8,0l0,1l5,0l0,1l6,0l0,1l4,0l0,1l5,0l0,1l3,0l0,1l1,0l0,9l1,0l0,16l-1,0l0,9l-1,0l0,10l-1,0l0,5l-4,0l0,-1l-5,0l0,-1l-5,0l0,-1l-6,0l0,-1l-6,0l0,-1l-9,0l0,-1l-15,0l0,-1l-22,0l0,1l-13,0l0,1l-9,0l0,1l-7,0l0,1l-7,0l0,1l-5,0l0,1l-5,0l0,1l-5,0l0,1l-4,0l0,1l-1,0l0,-2l-1,0l0,-6l-1,0l0,-6l-1,0l0,-7l-1,0l0,-16l-1,0l0,-12l1,0l0,-1l4,0l0,-1l4,0l0,-1l4,0l0,-1l5,0l0,-1l5,0l0,-1l6,0l0,-1l7,0l0,-1l6,0l0,-1l12,0zm10,119l0,-1l32,0l0,1l11,0l0,1l3,0l0,1l-1,0l0,2l-1,0l0,2l-1,0l0,1l-1,0l0,2l-1,0l0,2l-1,0l0,1l-1,0l0,2l-1,0l0,1l-1,0l0,2l-1,0l0,2l-1,0l0,1l-1,0l0,2l-1,0l0,2l-1,0l0,1l-1,0l0,2l-1,0l0,2l-1,0l0,1l-1,0l0,2l-1,0l0,1l-1,0l0,1l-1,0l0,2l-1,0l0,1l-1,0l0,1l-1,0l0,2l-1,0l0,1l-1,0l0,1l-1,0l0,2l-1,0l0,1l-1,0l0,1l-1,0l0,2l-1,0l0,1l-1,0l0,1l-1,0l0,2l-1,0l0,1l-1,0l0,1l-1,0l0,2l-1,0l0,1l-1,0l0,1l-1,0l0,1l-1,0l0,1l-1,0l0,1l-1,0l0,-1l-1,0l0,-1l-1,0l0,-1l-1,0l0,-2l-1,0l0,-1l-1,0l0,-1l-1,0l0,-1l-1,0l0,-2l-1,0l0,-1l-1,0l0,-1l-1,0l0,-1l-1,0l0,-2l-1,0l0,-1l-1,0l0,-1l-1,0l0,-2l-1,0l0,-1l-1,0l0,-2l-1,0l0,-1l-1,0l0,-1l-1,0l0,-2l-1,0l0,-1l-1,0l0,-2l-1,0l0,-1l-1,0l0,-2l-1,0l0,-1l-1,0l0,-2l-1,0l0,-1l-1,0l0,-2l-1,0l0,-2l-1,0l0,-1l-1,0l0,-2l-1,0l0,-2l-1,0l0,-1l-1,0l0,-2l-1,0l0,-2l-1,0l0,-2l-1,0l0,-1l-1,0l0,-2l-1,0l0,-2l-1,0l0,-1l6,0l0,-1l7,0l0,-1l8,0l0,-1l14,0zm3,242l0,-1l3,0l0,1l1,0l0,1l1,0l0,1l1,0l0,1l1,0l0,1l1,0l0,1l1,0l0,1l1,0l0,2l1,0l0,1l1,0l0,1l1,0l0,1l1,0l0,1l1,0l0,1l1,0l0,2l1,0l0,1l1,0l0,1l1,0l0,2l1,0l0,1l1,0l0,1l1,0l0,2l1,0l0,1l1,0l0,2l1,0l0,2l1,0l0,1l1,0l0,2l1,0l0,2l1,0l0,1l1,0l0,2l1,0l0,2l1,0l0,3l1,0l0,2l1,0l0,2l1,0l0,2l1,0l0,2l1,0l0,3l1,0l0,4l1,0l0,3l1,0l0,4l1,0l0,3l1,0l0,5l1,0l0,8l1,0l0,19l-1,0l0,4l-1,0l0,4l-1,0l0,3l-1,0l0,2l-1,0l0,2l-1,0l0,1l-1,0l0,2l-1,0l0,1l-1,0l0,2l-1,0l0,1l-1,0l0,1l-1,0l0,1l-1,0l0,1l-1,0l0,1l-1,0l0,1l-1,0l0,1l-1,0l0,1l-2,0l0,1l-1,0l0,1l-2,0l0,1l-2,0l0,1l-2,0l0,1l-3,0l0,1l-3,0l0,1l-5,0l0,1l-13,0l0,-1l-4,0l0,-1l-4,0l0,-1l-2,0l0,-1l-2,0l0,-1l-3,0l0,-1l-1,0l0,-1l-1,0l0,-1l-2,0l0,-1l-1,0l0,-1l-1,0l0,-1l-1,0l0,-1l-1,0l0,-1l-1,0l0,-1l-1,0l0,-1l-1,0l0,-1l-1,0l0,-1l-1,0l0,-2l-1,0l0,-2l-1,0l0,-1l-1,0l0,-2l-1,0l0,-3l-1,0l0,-3l-1,0l0,-3l-1,0l0,-5l-1,0l0,-22l1,0l0,-8l1,0l0,-4l1,0l0,-4l1,0l0,-4l1,0l0,-2l1,0l0,-3l1,0l0,-3l1,0l0,-2l1,0l0,-2l1,0l0,-2l1,0l0,-2l1,0l0,-2l1,0l0,-2l1,0l0,-2l1,0l0,-2l1,0l0,-1l1,0l0,-2l1,0l0,-1l1,0l0,-2l1,0l0,-1l1,0l0,-2l1,0l0,-1l1,0l0,-1l1,0l0,-1l1,0l0,-2l1,0l0,-1l1,0l0,-1l1,0l0,-1l1,0l0,-1l1,0l0,-2l1,0l0,-1l1,0l0,-1l1,0l0,-1l1,0l0,-1l1,0l0,-1l1,0l0,-1l1,0l0,-1l1,0l0,-1l1,0l0,-1l1,0l0,-1l1,0l0,-1" fill="url(#a)" id="svg_4" transform="translate(-712.5, -468)"/>
   </g>
  </g>
 </g>
</svg>