<svg xmlns="http://www.w3.org/2000/svg" viewBox="0 0 1280 1024"><defs/><defs><linearGradient id="W" x1=".5" x2=".5" y1="-.1" y2="1.5"><stop offset="0%" stop-color="#c69919"/><stop offset="100%" stop-color="#eac40c"/></linearGradient><linearGradient id="a" x1="0" x2="0" y1="0" y2=".2"><stop offset="0%" stop-color="#b4ec51"/><stop offset="100%" stop-color="#429321"/></linearGradient><linearGradient id="b" x1="0" x2="0" y1="0" y2="1.1"><stop offset="0%" stop-color="#b4ec51"/><stop offset="100%" stop-color="#429321"/></linearGradient><linearGradient id="c" x1="0" x2="0" y1="0" y2="1.2"><stop offset="0%" stop-color="#b4ec51"/><stop offset="100%" stop-color="#429321"/></linearGradient><linearGradient id="d" x1="0" x2="0" y1="0" y2="1.1"><stop offset="0%" stop-color="#b4ec51"/><stop offset="100%" stop-color="#429321"/></linearGradient><linearGradient id="e" x1="0" x2="0" y1="0" y2="1"><stop offset="0%" stop-color="#b4ec51"/><stop offset="100%" stop-color="#429321"/></linearGradient><linearGradient id="f" x1="0" x2="0" y1="0" y2="1.4"><stop offset="0%" stop-color="#b4ec51"/><stop offset="100%" stop-color="#429321"/></linearGradient><linearGradient id="g" x1="0" x2="0" y1="0" y2="1.4"><stop offset="0%" stop-color="#b4ec51"/><stop offset="100%" stop-color="#429321"/></linearGradient><linearGradient id="h" x1="0" x2="0" y1="0" y2="1.7"><stop offset="0%" stop-color="#b4ec51"/><stop offset="100%" stop-color="#429321"/></linearGradient><linearGradient id="i" x1="0" x2="0" y1="0" y2="1.1"><stop offset="0%" stop-color="#b4ec51"/><stop offset="100%" stop-color="#429321"/></linearGradient><linearGradient id="j" x1="0" x2="0" y1="0" y2="1.1"><stop offset="0%" stop-color="#b4ec51"/><stop offset="100%" stop-color="#429321"/></linearGradient><linearGradient id="k" x1="0" x2="0" y1="0" y2="2.9"><stop offset="0%" stop-color="#b4ec51"/><stop offset="100%" stop-color="#429321"/></linearGradient><linearGradient id="l" x1="0" x2="0" y1="0" y2="2.1"><stop offset="0%" stop-color="#b4ec51"/><stop offset="100%" stop-color="#429321"/></linearGradient><linearGradient id="m" x1="0" x2="0" y1="0" y2=".2"><stop offset="0%" stop-color="#b4ec51"/><stop offset="100%" stop-color="#429321"/></linearGradient><linearGradient id="n" x1="0" x2="0" y1="0" y2="3.8"><stop offset="0%" stop-color="#b4ec51"/><stop offset="100%" stop-color="#429321"/></linearGradient><linearGradient id="o" x1="0" x2="0" y1="0" y2="4.2"><stop offset="0%" stop-color="#b4ec51"/><stop offset="100%" stop-color="#429321"/></linearGradient><linearGradient id="p" x1="0" x2="0" y1="0" y2="2.6"><stop offset="0%" stop-color="#b4ec51"/><stop offset="100%" stop-color="#429321"/></linearGradient><linearGradient id="q" x1="0" x2="0" y1="0" y2="2.4"><stop offset="0%" stop-color="#b4ec51"/><stop offset="100%" stop-color="#429321"/></linearGradient><linearGradient id="r" x1="0" x2="0" y1="0" y2="1.3"><stop offset="0%" stop-color="#b4ec51"/><stop offset="100%" stop-color="#429321"/></linearGradient><linearGradient id="s" x1="0" x2="0" y1="0" y2="1"><stop offset="0%" stop-color="#b4ec51"/><stop offset="100%" stop-color="#429321"/></linearGradient><linearGradient id="t" x1="0" x2="0" y1="0" y2="1.1"><stop offset="0%" stop-color="#b4ec51"/><stop offset="100%" stop-color="#429321"/></linearGradient><linearGradient id="u" x1="0" x2="0" y1="0" y2="1.9"><stop offset="0%" stop-color="#b4ec51"/><stop offset="100%" stop-color="#429321"/></linearGradient><linearGradient id="v" x1="0" x2="0" y1="0" y2="2"><stop offset="0%" stop-color="#b4ec51"/><stop offset="100%" stop-color="#429321"/></linearGradient><linearGradient id="w" x1="0" x2="0" y1="0" y2="1.1"><stop offset="0%" stop-color="#b4ec51"/><stop offset="100%" stop-color="#429321"/></linearGradient><linearGradient id="x" x1="0" x2="0" y1="0" y2="1"><stop offset="0%" stop-color="#b4ec51"/><stop offset="100%" stop-color="#429321"/></linearGradient><linearGradient id="y" x1="0" x2="0" y1="0" y2=".2"><stop offset="0%" stop-color="#b4ec51"/><stop offset="100%" stop-color="#429321"/></linearGradient><linearGradient id="z" x1="0" x2="0" y1="0" y2="1.1"><stop offset="0%" stop-color="#b4ec51"/><stop offset="100%" stop-color="#429321"/></linearGradient><linearGradient id="A" x1="0" x2="0" y1="0" y2="1.2"><stop offset="0%" stop-color="#b4ec51"/><stop offset="100%" stop-color="#429321"/></linearGradient><linearGradient id="B" x1="0" x2="0" y1="0" y2="1.1"><stop offset="0%" stop-color="#b4ec51"/><stop offset="100%" stop-color="#429321"/></linearGradient><linearGradient id="C" x1="0" x2="0" y1="0" y2="1"><stop offset="0%" stop-color="#b4ec51"/><stop offset="100%" stop-color="#429321"/></linearGradient><linearGradient id="D" x1="0" x2="0" y1="0" y2="1.4"><stop offset="0%" stop-color="#b4ec51"/><stop offset="100%" stop-color="#429321"/></linearGradient><linearGradient id="E" x1="0" x2="0" y1="0" y2="1.5"><stop offset="0%" stop-color="#b4ec51"/><stop offset="100%" stop-color="#429321"/></linearGradient><linearGradient id="F" x1="0" x2="0" y1="0" y2="1.8"><stop offset="0%" stop-color="#b4ec51"/><stop offset="100%" stop-color="#429321"/></linearGradient><linearGradient id="G" x1="0" x2="0" y1="0" y2="1.1"><stop offset="0%" stop-color="#b4ec51"/><stop offset="100%" stop-color="#429321"/></linearGradient><linearGradient id="H" x1="0" x2="0" y1="0" y2="1.1"><stop offset="0%" stop-color="#b4ec51"/><stop offset="100%" stop-color="#429321"/></linearGradient><linearGradient id="I" x1="0" x2="0" y1="0" y2="3.1"><stop offset="0%" stop-color="#b4ec51"/><stop offset="100%" stop-color="#429321"/></linearGradient><linearGradient id="J" x1="0" x2="0" y1="0" y2="2.4"><stop offset="0%" stop-color="#b4ec51"/><stop offset="100%" stop-color="#429321"/></linearGradient><linearGradient id="K" x1="0" x2="0" y1="0" y2=".2"><stop offset="0%" stop-color="#b4ec51"/><stop offset="100%" stop-color="#429321"/></linearGradient><linearGradient id="L" x1="0" x2="0" y1="0" y2="4.1"><stop offset="0%" stop-color="#b4ec51"/><stop offset="100%" stop-color="#429321"/></linearGradient><linearGradient id="M" x1="0" x2="0" y1="0" y2="4.1"><stop offset="0%" stop-color="#b4ec51"/><stop offset="100%" stop-color="#429321"/></linearGradient><linearGradient id="N" x1="0" x2="0" y1="0" y2="2.4"><stop offset="0%" stop-color="#b4ec51"/><stop offset="100%" stop-color="#429321"/></linearGradient><linearGradient id="O" x1="0" x2="0" y1="0" y2="2.3"><stop offset="0%" stop-color="#b4ec51"/><stop offset="100%" stop-color="#429321"/></linearGradient><linearGradient id="P" x1="0" x2="0" y1="0" y2="1.2"><stop offset="0%" stop-color="#b4ec51"/><stop offset="100%" stop-color="#429321"/></linearGradient><linearGradient id="Q" x1="0" x2="0" y1="0" y2=".9"><stop offset="0%" stop-color="#b4ec51"/><stop offset="100%" stop-color="#429321"/></linearGradient><linearGradient id="R" x1="0" x2="0" y1="0" y2="1.1"><stop offset="0%" stop-color="#b4ec51"/><stop offset="100%" stop-color="#429321"/></linearGradient><linearGradient id="S" x1="0" x2="0" y1="0" y2="1.8"><stop offset="0%" stop-color="#b4ec51"/><stop offset="100%" stop-color="#429321"/></linearGradient><linearGradient id="T" x1="0" x2="0" y1="0" y2="1.9"><stop offset="0%" stop-color="#b4ec51"/><stop offset="100%" stop-color="#429321"/></linearGradient><linearGradient id="U" x1="0" x2="0" y1="0" y2="1.1"><stop offset="0%" stop-color="#b4ec51"/><stop offset="100%" stop-color="#429321"/></linearGradient><linearGradient id="V" x1="0" x2="0" y1="0" y2="1"><stop offset="0%" stop-color="#b4ec51"/><stop offset="100%" stop-color="#429321"/></linearGradient></defs><path fill="url(#a)" d="M10 103l1-6-1-2v8c0 41 27 78 67 89l-1-1a91 91 0 01-66-88z" transform="translate(152 15) scale(4.96823)"/><path fill="url(#b)" d="M12 98l3-1a1 1 0 010 1 4 4 0 010 1c0 4-2 9-4 13-2-4 0-10 1-14z" transform="translate(152 15) scale(4.96823)"/><path fill="url(#c)" d="M14 115l1-2a2 2 0 012 1 4 4 0 010 2c0 3-1 9-3 11-2-3-1-8 0-12z" transform="translate(152 15) scale(4.96823)"/><path fill="url(#d)" d="M20 139a5 5 0 011-2 2 2 0 011-1l2 2a19 19 0 012 6l-1 7-4-5a18 18 0 01-1-7z" transform="translate(152 15) scale(4.96823)"/><path fill="url(#e)" d="M29 151l2-3a2 2 0 011 1 5 5 0 011 1 36 36 0 012 8 34 34 0 010 5c0 1 0 2-2 1l-3-6a19 19 0 01-1-7z" transform="translate(152 15) scale(4.96823)"/><path fill="url(#f)" d="M7 118a9 9 0 00-2-2 4 4 0 00-3 0 3 3 0 00-2 3 6 6 0 001 3c2 3 7 6 10 6 3-1 1-3 0-5a40 40 0 00-4-5z" transform="translate(152 15) scale(4.96823)"/><path fill="url(#g)" d="M14 140a9 9 0 00-5-2 4 4 0 00-4 3 4 4 0 001 4 10 10 0 004 3c2 1 12 4 12 1l-3-5a19 19 0 00-5-4z" transform="translate(152 15) scale(4.96823)"/><path fill="url(#h)" d="M24 156a7 7 0 00-3-1 3 3 0 00-3 4 7 7 0 002 2 16 16 0 006 3h6c2-2-6-8-8-8z" transform="translate(152 15) scale(4.96823)"/><path fill="url(#i)" d="M56 172a4 4 0 010-2 2 2 0 012-1 3 3 0 012 2 34 34 0 013 9c0 1 2 7-2 5s-6-8-5-13z" transform="translate(152 15) scale(4.96823)"/><path fill="url(#j)" d="M44 167a5 5 0 010-2 2 2 0 011-2 2 2 0 012 1 5 5 0 010 2l2 7c1 1 2 5 1 6-4-3-6-8-6-12z" transform="translate(151 15) scale(4.96823)"/><path fill="url(#k)" d="M44 178a7 7 0 00-3 0 3 3 0 00-2 2 3 3 0 001 2 6 6 0 002 1 24 24 0 006 0l6-1c1-2-9-4-10-4z" transform="translate(152 15) scale(4.96823)"/><path fill="url(#l)" d="M34 168a5 5 0 00-3 0 2 2 0 00-1 2l1 2 15 4a56 56 0 00-12-8z" transform="translate(152 15) scale(4.96823)"/><path fill="url(#m)" d="M92 8h6l1-1h-7c-41 6-74 37-80 78l1-1c7-40 39-71 79-76z" transform="translate(152 15) scale(4.96823)"/><path fill="url(#n)" d="M97 10c1 0 2 1 1 2a1 1 0 010 1 4 4 0 01-2 0c-4-1-9-1-13-3 4-3 10-2 14 0z" transform="translate(152 15) scale(4.96823)"/><path fill="url(#o)" d="M80 13l2 2a2 2 0 010 1 4 4 0 01-2 0c-3 1-9 1-12-1 3-2 9-3 12-2z" transform="translate(152 15) scale(4.96823)"/><path fill="url(#p)" d="M58 22a5 5 0 012 1 2 2 0 011 1l-2 2a19 19 0 01-6 3l-7-1 5-4a19 19 0 017-2z" transform="translate(152 15) scale(4.96823)"/><path fill="url(#q)" d="M47 33l3 1a2 2 0 01-1 2 5 5 0 01-1 1 36 36 0 01-12 3c-2 0-3 0-2-1 1-2 4-3 6-4a19 19 0 017-2z" transform="translate(152 15) scale(4.96823)"/><path fill="url(#r)" d="M77 7a9 9 0 001-2 4 4 0 000-3 3 3 0 00-3-2 7 7 0 00-4 2c-2 2-4 7-4 10 1 3 3 0 5-1a40 40 0 005-4z" transform="translate(152 15) scale(4.96823)"/><path fill="url(#s)" d="M56 17a9 9 0 001-5 4 4 0 00-4-4 5 5 0 00-4 2 10 10 0 00-2 3c0 2-3 12 0 13 2 0 4-3 5-4a19 19 0 004-5z" transform="translate(152 15) scale(4.96823)"/><path fill="url(#t)" d="M41 29a8 8 0 001-3 3 3 0 00-5-3 7 7 0 00-2 3 16 16 0 00-2 6l1 6c2 1 7-8 7-9z" transform="translate(152 15) scale(4.96823)"/><path fill="url(#u)" d="M29 62a4 4 0 012 0 2 2 0 011 2 3 3 0 01-2 2 34 34 0 01-8 4c-1 0-7 2-6-1 2-4 8-7 13-7z" transform="translate(152 15) scale(4.96823)"/><path fill="url(#v)" d="M33 49a5 5 0 012 0 2 2 0 011 1 2 2 0 010 2 5 5 0 01-2 1l-7 3c-1 0-4 2-5 1 2-4 7-7 11-8z" transform="translate(152 15) scale(4.96823)"/><path fill="url(#w)" d="M22 51a6 6 0 00-1-3 3 3 0 00-2-2 2 2 0 00-2 1 6 6 0 000 2 24 24 0 000 7l1 6c2 0 4-10 4-11v-1z" transform="translate(152 15) scale(4.96823)"/><path fill="url(#x)" d="M30 40a5 5 0 00-1-3 2 2 0 00-2-1l-1 2c-1 1-4 16-2 14l6-12z" transform="translate(152 15) scale(4.96823)"/><path fill="url(#y)" d="M190 94l1 6 1 1v-8a92 92 0 00-73-84l1 1a91 91 0 0170 84z" transform="translate(152 15) scale(4.96823)"/><path fill="url(#z)" d="M189 98l-2 2a2 2 0 01-1-1 4 4 0 010-2c0-4 1-9 4-12 2 3 0 10-1 13z" transform="translate(152 15) scale(4.96823)"/><path fill="url(#A)" d="M187 82l-2 2a2 2 0 01-1-1 4 4 0 01-1-2c0-3 0-9 3-11 2 3 1 8 1 12z" transform="translate(152 15) scale(4.96823)"/><path fill="url(#B)" d="M179 59a5 5 0 01-1 2 2 2 0 01-1 1l-2-2a19 19 0 01-2-7l1-7c1-1 3 4 4 5a19 19 0 011 8z" transform="translate(152 15) scale(4.96823)"/><path fill="url(#C)" d="M169 47l-1 3a2 2 0 01-2-1 5 5 0 01-1-2 36 36 0 01-2-12l1-2 4 7a19 19 0 011 7z" transform="translate(151 15) scale(4.96823)"/><path fill="url(#D)" d="M193 79a9 9 0 002 1 4 4 0 003 1 3 3 0 002-4 6 6 0 00-2-3c-2-3-6-5-10-5-2 0 0 3 1 4a41 41 0 004 6z" transform="translate(152 15) scale(4.96823)"/><path fill="url(#E)" d="M185 57a9 9 0 005 1 4 4 0 004-3 5 5 0 00-2-4 10 10 0 00-4-2c-1-1-11-4-12-1 0 2 3 4 3 5a19 19 0 006 4z" transform="translate(152 15) scale(4.96823)"/><path fill="url(#F)" d="M174 42a8 8 0 003 1 3 3 0 003-2 3 3 0 000-3 7 7 0 00-3-2 16 16 0 00-5-3l-7 1c-1 2 7 7 9 8z" transform="translate(152 15) scale(4.96823)"/><path fill="url(#G)" d="M141 27a4 4 0 010 2 2 2 0 01-2 1 3 3 0 01-1-2 34 34 0 01-4-8c0-1-2-7 1-6 4 2 7 9 6 13z" transform="translate(152 15) scale(4.96823)"/><path fill="url(#H)" d="M154 32a5 5 0 010 2 2 2 0 01-1 1 2 2 0 01-2-1 6 6 0 01-1-2l-2-6c0-1-2-5-1-6 4 2 6 8 7 12z" transform="translate(152 15) scale(4.96823)"/><path fill="url(#I)" d="M153 21a7 7 0 003 0 3 3 0 002-2 2 2 0 00-1-2 6 6 0 00-2-1 24 24 0 00-6 0l-6 1c-1 2 9 4 10 4z" transform="translate(152 15) scale(4.96823)"/><path fill="url(#J)" d="M163 30a5 5 0 003 0 2 2 0 002-2l-2-2c-2-1-17-5-15-3l12 7z" transform="translate(152 15) scale(4.96823)"/><path fill="url(#K)" d="M115 193l-7 1-1 1 8-1a92 92 0 0075-82h-1a91 91 0 01-75 81z" transform="translate(152 16) scale(4.96823)"/><path fill="url(#L)" d="M109 192c0-1-2-1-1-2a2 2 0 011-1 4 4 0 011-1c4 0 9 1 13 3-3 2-10 2-14 1z" transform="translate(152 15) scale(4.96823)"/><path fill="url(#M)" d="M126 187l-2-1a2 2 0 010-2 4 4 0 012 0c3-1 9-1 12 1-3 2-9 3-12 2z" transform="translate(152 15) scale(4.96823)"/><path fill="url(#N)" d="M148 177a5 5 0 01-2 0 2 2 0 01-1-2l1-2a19 19 0 017-3h6l-4 4a19 19 0 01-7 3z" transform="translate(152 16) scale(4.96823)"/><path fill="url(#O)" d="M158 165l-3-1a2 2 0 011-1 4 4 0 011-1 36 36 0 018-3 34 34 0 014-1c1 0 3 0 2 1-1 2-4 4-6 4a19 19 0 01-7 2z" transform="translate(152 15) scale(4.96823)"/><path fill="url(#P)" d="M130 193a9 9 0 00-2 3 3 3 0 000 2 3 3 0 004 2 7 7 0 003-2c3-3 4-7 4-11-1-2-3 0-5 1a40 40 0 00-4 5z" transform="translate(152 15) scale(4.96823)"/><path fill="url(#Q)" d="M150 182a9 9 0 00-1 5 4 4 0 008 2 10 10 0 002-4c0-2 2-12-1-12-2 0-4 2-5 3a19 19 0 00-3 6z" transform="translate(152 15) scale(4.96823)"/><path fill="url(#R)" d="M164 170a7 7 0 00-1 3 3 3 0 005 2 7 7 0 002-3 16 16 0 002-6l-1-6c-3-1-7 8-7 10z" transform="translate(152 15) scale(4.96823)"/><path fill="url(#S)" d="M175 136a4 4 0 01-2-1 2 2 0 01-1-1 3 3 0 011-2 34 34 0 018-5c1 0 7-3 5 1-1 4-7 7-12 8h1z" transform="translate(152 15) scale(4.96823)"/><path fill="url(#T)" d="M171 149a5 5 0 01-2 0 2 2 0 01-1-1 2 2 0 010-2 5 5 0 012-1l6-3 6-2c-2 4-7 7-11 9z" transform="translate(152 15) scale(4.96823)"/><path fill="url(#U)" d="M182 147a6 6 0 001 3 2 2 0 004 0 6 6 0 000-3 24 24 0 000-6l-2-6c-2 0-3 10-3 12z" transform="translate(152 15) scale(4.96823)"/><path fill="url(#V)" d="M175 158a5 5 0 000 2 2 2 0 002 1l2-2 1-14a55 55 0 00-5 13z" transform="translate(152 15) scale(4.96823)"/><path fill="#cc9c15" d="M280 606q-12 0-19-5-6-5-6-12 0-6 6-6h2v4q0 7 5 11t13 4q8 0 12-4 4-3 4-10 0-5-2-8l-5-6-11-6-12-7-7-8q-2-4-2-10 0-9 7-13 6-5 17-5 10 0 16 4 6 3 6 10 0 5-4 5h-4v-5q0-5-5-7-4-3-10-3t-10 3q-5 2-5 9 0 4 3 7l5 6 11 6 11 7q5 3 8 8 2 4 2 10t-2 10q-3 5-9 8t-15 3zm91-9l1 3-1 4-5 1q-9 0-9-11v-2q-2 6-7 10t-12 4q-9 0-13-6-4-5-5-18v-22l-1-12q2-2 5-2l4 1 1 4v30l1 12 4 6q2 2 7 2 3 0 7-3t6-9q2-6 2-15v-19l-1-7q2-2 5-2l3 1 2 4v42l1 4 2 1 3-1zm60-6l1 12q-2 2-5 2l-4-1-1-4v-30q0-10-3-14-2-5-9-5-4 0-7 3-4 2-6 8-3 6-3 15l1 19 1 7q-2 2-5 2l-4-1-1-4v-41l-1-5-3-1q-2 0-3 2l-1-4 2-4 5-1q4 0 6 3 3 3 3 8v3q2-7 7-11 5-3 12-3 18 0 18 23v22zm74 6v3l-2 4-5 1q-4 0-6-2-3-3-5-9l-5-13-3-6-4-4-7-1h-8v28l1 5-2 2h-3l-4-1-2-4v-67l-1-6q5-2 16-2 16 0 24 5t8 16q0 8-5 14-5 5-12 7l6 4 4 8 6 13 3 5 2 1 4-1zm-45-31h8q8 0 14-5 5-6 5-14 0-9-5-14-5-4-16-4h-6v37zm106 30l2 3q0 3-3 5l-5 1q-5 0-8-3-2-3-2-11v-3q-4 8-10 13-7 4-14 4t-10-3q-4-4-4-10t5-11q5-4 14-7 7-2 15-2h3v-3q0-10-3-14-3-5-11-5-5 0-8 2-4 2-4 7l2 5 3 3q-1 2-5 2t-6-3q-2-3-2-7 0-6 5-10 6-3 16-3 12 0 17 6 6 6 6 18v22q0 6 4 6h2l1-2zm-36 3q4 0 9-3 4-3 7-9 3-5 4-11h-11l-7 2q-5 2-7 5-3 3-3 8l2 6q2 2 6 2zm92-48v48q0 31-26 31-8 0-14-3-6-2-6-9 0-3 2-5t5-2q3 0 4 2l-2 2v3q0 4 3 6 3 3 8 3 9 0 13-7 5-7 5-21v-8q-3 7-7 10-5 4-13 4t-12-5q-5-6-5-18v-22l-1-12q2-2 5-2l4 1 1 4v30q0 10 3 15 2 4 8 4 7 0 11-6 5-7 5-21v-18q0-4-2-7l6-2 3 1 2 4zm58 39q2 0 2 2l-1 3q-2 5-7 8-6 3-13 3-12 0-19-8t-7-22q0-14 7-22t20-8q9 0 15 4 5 4 5 12t-7 13q-6 4-18 4l-12-1q0 11 5 16t13 5q7 0 11-2 5-3 6-7zm-19-40q-7 0-12 6-4 6-4 18l8 1q9 0 14-3 6-4 6-11 0-6-4-9-3-2-8-2zm117 41l1 12q-2 2-5 2l-4-1-1-4-1-34h-36v25l1 12q-2 2-5 2l-4-1-1-4v-61q0-7-2-12l6-2q2 0 3 2 2 1 2 3v30h36v-21l-1-12q2-2 5-2t4 2q2 1 2 3v61zm41 15q-12 0-19-8t-7-22q0-14 7-22t19-8q12 0 19 8t7 22q0 14-7 22t-19 8zm0-4q8 0 12-7t4-19q0-13-4-20-4-6-12-6t-12 6q-4 7-4 20 0 12 4 19t12 7zm86-11l2 12q-2 2-5 2l-4-1-1-4v-30q-1-10-3-14-3-5-9-5-4 0-8 3-3 2-6 8-2 6-2 15v19l1 7q-2 2-5 2l-4-1-1-4v-41l-1-5-2-1q-2 0-3 2l-1-4 1-4 5-1q5 0 7 3t2 8v3q2-7 8-11 5-3 11-3 18 0 18 23v22zm59-1q2 0 2 2l-1 3q-2 5-7 8t-13 3q-12 0-19-8t-7-22q0-14 7-22t20-8q9 0 15 4 5 4 5 12t-6 13q-7 4-19 4l-12-1q0 11 5 16t14 5q6 0 10-2 5-3 6-7zm-19-40q-7 0-12 6-4 6-4 18l8 1q9 0 15-3 5-4 5-11 0-6-3-9-4-2-9-2zm80 1v48q0 31-27 31-8 0-13-3-6-2-6-9 0-3 2-5t5-2q3 0 4 2l-2 2v3q0 4 3 6 3 3 7 3 10 0 14-7t4-21l1-8q-3 7-8 10-5 4-12 4-8 0-13-5-4-6-4-18v-22l-1-12q2-2 5-2l4 1 1 4v30q0 10 3 15 2 4 8 4 7 0 11-6 5-7 5-21v-18l-2-7 6-2 3 1 2 4z"/><path fill="#cb9f17" d="M329 653q0-12 8-20 7-7 19-7 9 0 15 6t6 15q0 6-2 11l-5 9-8 6-10 3v12q0 2-2 2l-3-1-2-1v-50l1-1h1l4 1 1 3v29l4-1 5-3 5-4 3-7 1-8v-4l-2-4-3-3-4-3-5-1q-5 0-9 2-4 1-7 4l-3 7-1 7v5l1 2v1l1 1v1l1 1 2 1-1 3-2 3h-2l-2-2-2-3-2-5-1-7zm49 24l1-9 1-8 1-2 1-1v-2l2-1h2l2 1v3l-1 1-1 6-1 5v7l1 5q1 2 3 2t4-3l3-9v-16l-1-1 1-1h2l4 1 1 3v22q0 4 2 4 4 0 6-9l1-2 1-1 2 1 1 3-1 5-3 4q-1 3-4 4l-4 1q-3 0-5-2l-3-4q-3 6-9 6-4 0-7-3-2-4-2-10zm31-24l1-3 3-1 3 1 3 4h9l3 2 1 3-1 4-2 8-1 9 1 3 3 1q4 0 6-9l1-2 1-1 2 1 1 3-1 5-3 4-3 4-5 1h-3l-3-2-3-3v-5q0-8 4-20h-8q0 10-2 17l-2 1q-2 0-3-2v-2l2-15q-4-2-4-6zm28 20q0-9 4-14 5-6 10-6 4 0 6 2 2 3 2 7l-2 7-4 6q-3 3-7 4 2 5 8 5l5-1 3-2 2-4 1-4q0-2 2-2h2l1 3-1 4-1 4-3 4-5 3-7 1-6-1-5-3-3-6q-2-3-2-7zm8-1v2l5-5q2-3 2-7v-2l-2-1-3 1-1 4-1 5v3zm38-21q0-12 7-20 8-7 19-7t17 5q6 5 6 15 0 13-12 19 4 1 7 4 3 4 3 9 0 7-5 11-4 5-11 5-4 0-7-2l-5-3-2-6-1-8v-36h2l4 1 1 3v33q0 6 2 9t6 3q4 0 6-3 3-3 3-6l-1-5-3-4-4-1-4-1-1-1-1-3v-1l2-1 2-1 3-1 3-1 3-3 2-4 1-6-1-5-3-4-4-3q-3-2-7-2-6 0-9 2l-7 4-3 7-1 8v6l1 1v1l1 2h1l1 2v2l-2 3h-3l-1-2-2-3q-2-2-2-5l-1-7zm51 2l1-3 3-1 4 1 2 4h9l3 2 2 3-1 4-2 8-1 9 1 3 2 1q5 0 7-9v-2l2-1 2 1 1 3-2 5-2 4-4 4-5 1h-3l-3-2q-2-1-2-3l-1-5q0-8 4-20h-8q0 10-2 17l-2 1q-2 0-2-2l-1-2q2-4 2-15-4-2-4-6zm29 21v-8l2-5 3-5 2-2 2-1h1l1 2 1 2-1 2-3 5q-2 3-2 9 0 5 2 8t5 3q3 0 5-3l-5-7-1-9q0-4 2-7 1-3 5-3 3 0 5 4t2 11l-1 9h2l4-1q2-2 2-5l2-1h1l2 1v3l-3 6q-3 2-7 2h-5q-3 6-10 6t-10-5q-3-4-3-11zm16-9q0 6 4 10v-12l-2-2q-2 0-2 4zm17-10l1-1h1l4 1 1 3v4q4-9 10-9l4 1 2 2 1 3v21q0 4 3 4 4 0 6-9v-2l2-1 2 1 1 3-2 4-1 4-3 3-3 2-4 1q-4 0-6-2l-2-6v-23h-1l-4 2-3 6-2 6v15l-1 1v1h-2q-4 0-4-4v-31zm32 19l1-8 1-9q0-2 2-3l4-1q3 0 4 2l6 12 7-12q1-2 3-2l2 1 1 3v2l-10 14 5 9q2 3 4 3 4 0 6-10l1-2 1-1 2 1 1 3q-3 14-12 14-4 0-6-2l-6-9-6 8q-2 3-4 3l-3-1-2-2h1v-1l1-1 2-2 8-10-6-12-1 8-2 8-2 1q-2 0-3-2v-2zm55-25l2-9 6-8 8-5 9-2q5 0 8 3t3 8q0 4-2 7l-4 7-6 4-5 1-3-1-2-4 1-1 2 1 5-2q3-2 5-6l2-6q0-5-4-5l-6 2-6 4-4 5q-2 3-2 7l1 5 3 4 5 3 4 4 4 3 4 4 1 6q0 5-4 9t-9 4l-4-1-3-1-2-1-1-1v-1l1-3 2-2 1 1 6 2 4-1q2-2 2-5l-1-4-3-3-5-3-4-3-5-4-3-5-1-7zm35 6l1-1h2l3 1 1 3v20l1 2v2l1 2h3q4 0 4-6v-24h2l4 1 1 3v20l1 5 3 1q5 0 5-6v-20l-1-2v-1l1-1h2l3 1 1 3v20q0 12-11 12l-4-1-3-3-4 3-5 1q-10 0-10-12v-20l-1-2v-1zm44 18q0-9 4-14 4-6 9-6 4 0 6 2 2 3 2 7l-1 7-5 6q-3 3-7 4 2 5 8 5l5-1 3-2 2-4 1-4q0-2 2-2h3l1 3-1 4-2 4-3 4-5 3-7 1-6-1-5-3-3-6-1-7zm7-1v2l5-5q2-3 2-7v-2l-2-1-2 1-2 4-1 5v3zm19 1q0-9 4-14 4-6 9-6 4 0 6 2 2 3 2 7l-1 7-4 6-8 4q3 5 9 5l4-1 3-2 2-4 1-4 2-2h3l1 3-1 4-2 4-3 4-5 3-6 1-6-1-5-3-4-6-1-7zm7-1v2q4-2 6-5t2-7l-1-2-1-1-3 1-2 4-1 5v3zm11-25l1-1h8v-17l-1-1 1-1h2l4 1 1 3v15h19v4l-2 2h-17v28q0 4 3 4 4 0 6-9l1-2 1-1 2 1 1 3-1 4-2 4-2 3-3 2-5 1-6-2q-2-3-2-8v-28h-6q-2 0-3-2v-3zm25 8l1-1h1l4 1 1 3v4q4-9 10-9l4 1 2 2 1 3v21q0 4 3 4 4 0 6-9v-2l2-1 2 1 1 3-1 4-2 4-3 3-3 2-4 1q-3 0-5-2l-2-6v-20l-1-2v-1h-1q-2 0-3 2l-4 6-2 6v16l-1 1h-1q-5 0-5-4v-31zm31 18q0-9 4-14 4-6 10-6l6 2q2 3 2 7l-2 7-4 6q-3 3-7 4 2 5 8 5l4-1 3-2 2-4 2-4 1-2h3l1 3-1 4-2 4-3 4-4 3-7 1-6-1-5-3-3-6q-2-3-2-7zm7-1v1l1 1 5-5q2-3 2-7l-1-2-1-1-3 1-1 4-1 5-1 3zm17 12v-5l1-1h1l4 1 6 2 5 2 2-6-1-4-2-3-2-3-2-2-3 10-2 2h-1l-2-1-1-2h1v-4l1-3 3-7-2-4q0-2 3-5l5-2 2 1 1 3v2l-1 3-1 1 3 5 3 4 3 4 1 6-1 3q6-1 7-6l2-3q2 0 3 2l1 2-2 3-2 4q-5 4-12 4-4 3-9 3l-5-1-5-3-2-2zm29 0l-1-3 1-2v-1h1l4 1 6 2 5 2 2-6-1-4-1-3-2-3-3-2-3 10-2 2-3-1v-2l1-4 1-3 1-3 1-4-1-4q0-2 3-5l4-2 3 1v5l-1 3-1 1 3 5 4 4 2 4 1 6-1 3q6-1 8-6l2-3 2 2 1 2-1 3-3 4q-5 4-12 4-4 3-9 3l-5-1-4-3-2-2z"/><path fill="url(#W)" d="M365-202v1h-10v1h-10v1h-7v1h-6v1h-6v1h-6v1h-5v1h-5v1h-4v1h-4v1h-4v1h-4v1h-4v1h-3v1h-3v1h-4v1h-3v1h-3v1h-3v1h-3v1h-3v1h-3v1h-2v1h-3v1h-2v1h-3v1h-3v1h-2v1h-3v1h-2v1h-2v1h-2v1h-2v1h-2v1h-3v1h-2v1h-2v1h-2v1h-2v1h-2v1h-2v1h-2v1h-2v1h-2v1h-1v1h-2v1h-2v1h-2v1h-2v1h-1v1h-2v1h-2v1h-1v1h-2v1h-2v1h-1v1h-2v1h-1v1h-2v1h-1v1h-2v1h-1v1h-2v1h-1v1h-2v1h-1v1h-1v1h-2v1h-1v1h-1v1h-2v1h-1v1h-1v1h-2v1h-1v1h-1v1h-1v1h-2v1h-1v1h-1v1h-1v1h-2v1h-1v1h-1v1h-1v1h-1v1h-2v1h-1v1h-1v1h-1v1h-1v1h-1v1h-1v1h-1v1h-1v1h-1v1h-1v1h-1v1h-2v1h-1v1h-1v1h-1v1h-1v1h-1v1h-1v2h-1v1h-1v1h-1v1h-1v1h-1v1h-1v1h-1v1h-1v1h-1v1h-1v1h-1v2h-1v1h-1v1h-1v1h-1v1h-1v2h-1v1h-1v1h-1v1h-1v2h-1v1h-1v1h-1v2h-1v1h-1v1h-1v1h-1v2h-1v1h-1v1h-1v2h-1v1h-1v2h-1v1h-1v2h-1v2h-1v1h-1v2h-1v1h-1v2h-1v1h-1v2h-1v1h-1v2h-1v2h-1v2h-1v2h-1v1h-1v2h-1v2h-1v2h-1v2h-1v2h-1v2h-1v1h-1v2h-1v3h-1v2h-1v2h-1v3h-1v2h-1v2h-1v3h-1v2h-1v2h-1v3h-1v3h-1v3h-1v2h-1v3h-1v3h-1v3h-1v3h-1v3h-1v4h-1v4h-1v4h-1v4h-1v4h-1v4h-1v5h-1v5h-1v6h-1v6h-1v6h-1v10h-1v10h-1v24h-1v16h1v23h1v9h1v9h1v9h1v7h1v6h1v6h1v6h1v5h1v5h1v4h1v4h1v1h-1v2h-1v2h-1v1h-1v2h-1v2h-1v1h-1v2h-1v2h-1v2h-1v1h-1v2h-1v2h-1v2h-1v1h-1v2h-1v2h-1v2h-1v2h-1v2h-1v2h-1v2h-1v2h-1v2h-1v2h-1v2h-1v2h-1v3h-1v2h-1v2h-1v3h-1v2h-1v2h-1v3h-1v2h-1v2h-1v3h-1v3h-1v3h-1v3h-1v3h-1v2h-1v3h-1v3h-1v4h-1v4h-1v3h-1v4H9v4H8v4H7v5H6v5H5v5H4v5H3v7H2v8H1v8H0v47h1v9h1v8h1v6h1v5h1v5h1v5h1v4h1v4h1v3h1v3h1v4h1v3h1v3h1v3h1v2h1v3h1v3h1v2h1v3h1v2h1v3h1v2h1v2h1v2h1v2h1v2h1v2h1v2h1v2h1v2h1v2h1v1h1v2h1v2h1v1h1v2h1v2h1v1h1v2h1v2h1v1h1v2h1v1h1v2h1v1h1v1h1v2h1v1h1v2h1v1h1v1h1v2h1v1h1v1h1v2h1v1h1v1h1v1h1v2h1v1h1v1h1v1h1v1h1v2h1v1h1v1h1v1h1v1h1v1h1v1h1v1h1v1h1v1h1v1h1v1h1v1h1v1h1v1h1v1h1v1h1v1h1v1h1v1h1v1h1v1h1v1h1v1h1v1h1v1h2v1h1v1h1v1h1v1h1v1h2v1h1v1h1v1h1v1h1v1h1v1h2v1h1v1h1v1h2v1h1v1h1v1h2v1h1v1h2v1h1v1h1v1h2v1h1v1h1v1h2v1h2v1h1v1h2v1h1v1h2v1h2v1h1v1h2v1h2v1h1v1h2v1h2v1h2v1h1v1h2v1h2v1h2v1h2v1h2v1h2v1h2v1h2v1h2v1h2v1h3v1h2v1h2v1h3v1h2v1h2v1h3v1h3v1h3v1h2v1h3v1h3v1h3v1h3v1h3v1h4v1h4v1h4v1h3v1h4v1h5v1h5v1h5v1h6v1h6v1h9v1h9v1h22v1h6v-1h22v-1h8v-1h8v-1h7v-1h5v-1h5v-1h5v-1h4v-1h4v-1h3v-1h4v-1h3v-1h3v-1h4v-1h3v-1h2v-1h3v-1h3v-1h2v-1h3v-1h2v-1h3v-1h2v-1h2v-1h2v-1h2v-1h2v-1h2v-1h2v-1h2v-1h2v-1h2v-1h2v-1h1v-1h2v-1h2v-1h1v-1h2v-1h1v-1h2v-1h2v-1h1v-1h2v-1h2v-1h1v-1h1v-1h2v-1h1v-1h1v-1h2v-1h1v-1h1v-1h2v-1h1v-1h1v-1h2v-1h1v-1h1v-1h2v-1h1v-1h1v-1h1v-1h1v-1h1v-1h1v-1h1v-1h1v-1h1v-1h1v-1h2v-1h1v-1h1v-1h1v-1h1v-1h1v-1h1v-1h1v-1h1v-1h1v-2h1v-1h1v-1h1v-1h1v-1h1v-1h1v-1h1v-1h1v-1h1v-1h1v-2h1v-1h1v-1h1v-1h1v-2h1v-1h1v-1h1v-2h1v-1h1v-1h1v-2h1v-1h1v-1h1v-2h1v-1h1v-1h1v-2h1v-2h1v-1h1v-2h1v-1h1v-2h1v-1h1v-2h1v-2h1v-1h1v-2h1v-1h1v-2h1v-2h1v-2h1v-2h1v-2h1v-2h1v-2h1v-1h1v-2h1v-2h1v-2h1v-2h1v-3h1v-2h1v-2h1v-3h1v-2h1v-2h1v-2h1v-3h1v-2h1v-3h1v-3h1v-3h1v-2h1v-3h1v-3h1v-3h1v-3h1v-3h1v-4h1v-3h1v-4h1v-4h1v-3h1v-4h1v-4h1v-5h1v-5h1v-4h1v-5h1v-5h1v-7h1v-6h1v-7h1v-7h1v-11h1v-11h1v-15h1v-60h-1v-5h-1v-3h-1v-3h-1v-2h-1v-1h-1v-2h-1v-1h-1v-2h-1v-1h-1v-1h-1v-1h-1v-1h-1v-1h-2v-1h-1v-1h-1v-1h-2v-1h-2v-1h-2v-1h-3v-1h-4v-1h-17v1h-3v1h-3v1h-2v1h-2v1h-2v1h-1v1h-2v1h-1v1h-1v1h-1v1h-1v1h-1v1h-1v2h-1v1h-1v2h-1v2h-1v2h-1v2h-1v4h-1v4h-1v51h-2v1h-2v1h-3v1h-3v1h-3v1h-3v1h-3v1h-3v1h-3v1h-3v1h-4v1h-3v1h-4v1h-3v1h-4v1h-4v1h-4v1h-4v1h-4v1h-4v1h-5v1h-5v1h-5v1h-5v1h-6v1h-7v1h-7v1h-9v1h-10v1h-19v1h-11v-1h-21v-1h-10v-1h-7v-1h-7v-1h-5v-1h-4v-1h-5v-1h-4v-1h-4v-1h-3v-1h-3v-1h-3v-1h-3v-1h-3v-1h-3v-1h-2v-1h-2v-1h-3v-1h-2v-1h-3v-1h-2v-1h-2v-1h-2v-1h-2v-1h-2v-1h-1v-1h-2v-1h-2v-1h-1v-1h-2v-1h-1v-1h-2v-1h-1v-1h-2v-1h-1v-1h-2v-1h-1v-1h-2v-1h-1v-1h-1v-1h-1v-1h-1v-1h-1v-1h-1v-1h-2v-1h-1v-1h-1v-1h-1v-1h-1v-1h-1v-1h-1v-1h-1v-1h-2v-1h-1v-1h-1v-1h-1v-1h-1v-1h-1v-1h-1v-1h-1v-2h-1v-1h-1v-1h-1v-1h-1v-1h-1v-2h-1v-1h-1v-1h-1v-1h-1v-1h-1v-2h-1v-1h-1v-1h-1v-1h-1v-2h-1v-1h-1v-1h-1v-2h-1v-1h-1v-2h-1v-1h-1v-2h-1v-1h-1v-2h-1v-2h-1v-1h-1v-2h-1v-1h-1v-2h-1v-2h-1v-2h-1v-2h-1v-1h-2v1h-1v1h-1v1h-1v1h-1v1h-1v1h-1v1h-1v1h-1v1h-1v2h-1v1h-1v2h-1v1h-1v1h-1v2h-1v1h-1v2h-1v2h-1v2h-1v1h-1v2h-1v2h-1v2h-1v2h-1v3h-1v2h-1v2h-1v3h-1v2h-1v3h-1v3h-1v3h-1v3h-1v3h-1v3h-1v3h-1v4h-1v3h-1v3h-1v2h1v1h1v2h1v1h1v1h1v1h1v2h1v1h1v1h1v1h1v1h1v1h1v1h1v2h1v1h1v1h1v1h1v1h1v1h1v1h1v1h1v1h1v1h1v1h1v1h1v1h1v1h1v1h1v1h1v1h1v1h1v1h1v1h2v1h1v1h1v1h1v1h1v1h1v1h1v1h1v1h2v1h1v1h1v1h2v1h1v1h1v1h2v1h1v1h1v1h2v1h1v1h1v1h2v1h1v1h1v1h2v1h2v1h1v1h2v1h1v1h2v1h2v1h1v1h2v1h2v1h1v1h2v1h2v1h2v1h2v1h2v1h2v1h2v1h2v1h2v1h3v1h2v1h2v1h3v1h2v1h3v1h3v1h2v1h3v1h3v1h3v1h3v1h4v1h3v1h4v1h3v1h4v1h5v1h4v1h5v1h6v1h6v1h7v1h9v1h10v1h22v1h1v-1h35v-1h11v-1h10v-1h8v-1h8v-1h6v-1h6v-1h6v-1h5v-1h5v-1h5v-1h4v-1h4v-1h5v-1h4v-1h4v-1h3v-1h4v-1h4v-1h4v-1h3v-1h2v2h-1v4h-1v3h-1v3h-1v3h-1v4h-1v3h-1v3h-1v3h-1v2h-1v3h-1v2h-1v3h-1v2h-1v3h-1v2h-1v3h-1v2h-1v2h-1v2h-1v2h-1v2h-1v2h-1v2h-1v2h-1v2h-1v2h-1v1h-1v2h-1v2h-1v1h-1v2h-1v1h-1v2h-1v1h-1v2h-1v1h-1v2h-1v1h-1v2h-1v1h-1v2h-1v1h-1v1h-1v1h-1v1h-1v1h-1v2h-1v1h-1v1h-1v1h-1v1h-1v2h-1v1h-1v1h-1v1h-1v1h-1v1h-1v1h-1v1h-1v1h-1v1h-1v1h-1v1h-2v1h-1v1h-1v1h-1v1h-1v1h-1v1h-1v1h-1v1h-2v1h-1v1h-1v1h-2v1h-1v1h-2v1h-1v1h-2v1h-1v1h-1v1h-2v1h-1v1h-2v1h-1v1h-2v1h-2v1h-2v1h-2v1h-1v1h-2v1h-2v1h-2v1h-2v1h-2v1h-3v1h-2v1h-3v1h-2v1h-3v1h-3v1h-3v1h-4v1h-3v1h-4v1h-4v1h-5v1h-5v1h-7v1h-9v1h-20v1h-1v-1h-18v-1h-9v-1h-7v-1h-5v-1h-5v-1h-6v-1h-3v-1h-4v-1h-4v-1h-3v-1h-4v-1h-3v-1h-2v-1h-3v-1h-3v-1h-3v-1h-2v-1h-3v-1h-2v-1h-2v-1h-3v-1h-2v-1h-2v-1h-2v-1h-2v-1h-2v-1h-2v-1h-2v-1h-2v-1h-2v-1h-2v-1h-1v-1h-2v-1h-2v-1h-1v-1h-2v-1h-2v-1h-1v-1h-2v-1h-1v-1h-2v-1h-1v-1h-2v-1h-1v-1h-1v-1h-2v-1h-1v-1h-1v-1h-2v-1h-1v-1h-1v-1h-2v-1h-1v-1h-1v-1h-1v-1h-1v-1h-1v-1h-2v-1h-1v-1h-1v-1h-1v-1h-1v-1h-1v-1h-1v-1h-1v-1h-1v-1h-1v-1h-1v-1h-1v-1h-1v-1h-1v-1h-1v-1h-1v-1h-1v-1h-1v-1h-1v-1h-1v-1h-1v-1h-1v-2h-1v-1h-1v-1h-1v-1h-1v-2h-1v-1h-1v-1h-1v-1h-1v-2h-1v-1h-1v-1h-1v-2h-1v-1h-1v-2h-1v-1h-1v-2h-1v-1h-1v-2h-1v-2h-1v-1h-1v-2h-1v-2h-1v-1h-1v-2h-1v-2h-1v-2h-1v-2h-1v-2h-1v-2h-1v-3h-1v-2h-1v-2h-1v-3h-1v-2h-1v-3h-1v-3h-1v-3h-1v-3h-1v-3h-1v-4h-1v-5h-1v-4h-1v-5h-1v-7h-1v-8h-1v-33h1v-8h1v-7h1v-6h1v-5h1v-4h1v-4h1v-5h1v-3h1v-3h1v-3h1v-3h1v-4h1v-3h1v-3h1v-2h1v-2h1v-3h1v-2h1v-3h1v-2h1v-3h1v-2h1v-2h1v-2h1v-2h1v-3h1v-2h1v-2h1v-2h1v-2h1v-2h1v-2h1v-1h1v-2h1v-2h1v-2h1v-2h1v-1h1v-2h1v-2h1v-1h1v-2h1v-2h1v-1h1v-2h1v-2h1v-1h1v-2h1v-1h1v-2h1v-2h1v-1h1v-2h1v-1h1v-2h1v-1h1v-1h1v-2h1v-1h1v-1h1v-2h1v-1h1v-2h1v-1h1v-1h1v-2h1v-1h1v-1h1v-2h1v-1h1v-2h1v-1h1v-1h1v-2h1v-1h1v-1h1v-1h1v-1h1v-1h1v-1h1v-1h1v-2h1v-1h1v-1h1v-1h1v-1h1v-1h1v-1h1v-1h1v-2h1v-1h1v-1h1v-1h1v-1h1v-1h1v-1h1v-1h1v-1h1v-1h1v-1h1v-1h2v-1h1v-1h1v-1h1v-1h1v-1h1v-1h1v-1h1v-1h1v-1h2v-1h1v-1h1v-1h1v-1h1v-1h1v-1h1v-1h2v-1h1v-1h2v-1h1v-1h2v-1h1v-1h1v-1h2v-1h1v-1h2v-1h1v-1h2v-1h1v-1h1v-1h2v-1h1v-1h2v-1h2v-1h2v-1h2v-1h2v-1h2v-1h2v-1h2v-1h1v-1h2v-1h2v-1h2v-1h2v-1h3v-1h3v-1h2v-1h3v-1h3v-1h3v-1h3v-1h2v-1h3v-1h4v-1h4v-1h4v-1h5v-1h4v-1h7v-1h7v-1h19v-1h9v1h18v1h11v1h6v1h6v1h6v1h6v1h5v1h4v1h4v1h3v1h4v1h4v1h4v1h3v1h4v1h3v1h2v1h3v1h3v1h3v1h3v1h3v1h2v1h3v1h3v1h2v1h3v1h2v1h2v1h3v1h2v1h2v1h3v1h2v1h2v1h3v1h2v1h2v1h2v1h2v1h2v1h2v1h2v1h2v1h2v1h2v1h2v1h2v1h2v1h2v1h2v1h2v1h2v1h1v1h2v1h2v1h2v1h1v1h2v1h2v1h2v1h1v1h2v1h2v1h2v1h2v1h1v1h2v1h1v1h2v1h2v1h1v1h2v1h1v1h2v1h2v1h1v1h2v1h1v1h2v1h2v1h1v1h2v1h1v1h2v1h1v1h2v1h1v1h2v1h1v1h1v1h2v1h1v1h2v1h1v1h2v1h1v1h2v1h1v1h2v1h1v1h1v1h2v1h1v1h1v1h2v1h1v1h1v1h2v1h1v1h2v1h1v1h1v1h2v1h1v1h1v1h2v1h1v1h1v1h1v1h2v1h1v1h1v1h2v1h1v1h1v1h2v1h1v1h1v1h1v1h2v1h1v1h1v1h1v1h2v1h1v1h1v1h1v1h1v1h2v1h1v1h1v1h1v1h1v1h2v1h1v1h1v1h1v1h1v1h2v1h1v1h1v1h1v1h1v1h1v1h1v1h2v1h1v1h1v1h1v1h1v1h1v1h1v1h2v1h1v1h1v1h1v1h1v1h1v1h1v1h1v1h1v1h1v1h2v1h1v1h1v1h1v1h1v1h1v2h-1v1h-1v1h-1v1h-1v1h-1v1h-1v2h-1v1h-1v1h-1v1h-1v1h-1v1h-1v1h-1v2h-1v1h-1v1h-1v1h-1v1h-1v1h-1v1h-1v2h-1v1h-1v1h-1v2h-1v1h-1v1h-1v2h-1v1h-1v1h-1v2h-1v1h-1v1h-1v2h-1v1h-1v2h-1v1h-1v1h-1v2h-1v1h-1v2h-1v1h-1v2h-1v2h-1v1h-1v2h-1v2h-1v2h-1v1h-1v2h-1v2h-1v1h-1v2h-1v2h-1v2h-1v2h-1v2h-1v3h-1v2h-1v2h-1v2h-1v3h-1v2h-1v2h-1v2h-1v3h-1v3h-1v4h-1v3h-1v3h-1v3h-1v3h-1v3h-1v5h-1v5h-1v5h-1v5h-1v7h-1v11h-1v24h-1v5h1v12h1v8h1v4h1v5h1v4h1v3h1v3h1v2h1v3h1v3h1v2h1v2h1v2h1v2h1v2h1v1h1v2h1v1h1v2h1v1h1v2h1v1h1v1h1v1h1v2h1v1h1v1h1v1h1v1h1v1h1v1h1v1h1v1h1v1h1v1h1v1h1v1h1v1h1v1h2v1h1v1h1v1h2v1h1v1h1v4h-1v2h-1v3h-1v2h-1v3h-1v2h-1v2h-1v2h-1v2h-1v2h-1v1h-1v2h-1v2h-1v2h-1v2h-1v1h-1v1h-1v1h-1v2h-1v1h-1v1h-1v2h-1v1h-1v1h-1v2h-1v1h-1v1h-1v1h-1v1h-1v1h-1v1h-1v1h-1v1h-1v1h-1v1h-1v1h-1v1h-1v1h-1v1h-1v1h-1v1h-2v1h-1v1h-1v1h-1v1h-1v1h-2v1h-1v1h-1v1h-2v1h-1v1h-1v1h-2v1h-1v1h-2v1h-1v1h-1v1h-2v1h-2v1h-1v1h-2v1h-2v1h-1v1h-2v1h-2v1h-1v1h-2v1h-2v1h-2v1h-2v1h-2v1h-1v1h-1v1h-1v1h-1v1h-1v2h-1v1h-1v2h-1v4h-1v11h1v3h1v2h1v1h1v1h1v2h1v1h2v1h1v1h2v1h1v1h3v1h15v-1h2v-1h2v-1h2v-1h2v-1h1v-1h2v-1h2v-1h2v-1h2v-1h1v-1h2v-1h1v-1h2v-1h2v-1h1v-1h2v-1h1v-1h2v-1h1v-1h2v-1h1v-1h1v-1h2v-1h1v-1h2v-1h1v-1h1v-1h2v-1h1v-1h1v-1h1v-1h1v-1h2v-1h1v-1h1v-1h1v-1h1v-1h1v-1h2v-1h1v-1h1v-1h1v-1h1v-1h1v-1h1v-1h1v-1h1v-1h1v-1h1v-2h1v-1h1v-1h1v-1h1v-1h1v-1h1v-1h1v-1h1v-2h1v-1h1v-1h1v-2h1v-1h1v-1h1v-1h1v-2h1v-1h1v-1h1v-2h1v-1h1v-2h1v-2h1v-2h1v-1h1v-2h1v-2h1v-2h1v-1h1v-2h1v-2h1v-2h1v-2h1v-3h1v-2h1v-2h1v-3h1v-2h1v-3h1v-3h2v1h9v1h13v1h5v-1h11v-1h10v-1h3v2h1v4h1v2h1v2h1v3h1v2h1v3h1v2h1v2h1v2h1v2h1v1h1v2h1v2h1v2h1v1h1v2h1v2h1v1h1v2h1v2h1v1h1v1h1v1h1v2h1v1h1v1h1v2h1v1h1v1h1v2h1v1h1v1h1v1h1v1h1v1h1v1h1v1h1v1h1v1h1v2h1v1h1v1h1v1h1v1h1v1h1v1h1v1h1v1h2v1h1v1h1v1h1v1h1v1h2v1h1v1h1v1h1v1h1v1h1v1h2v1h1v1h1v1h2v1h1v1h2v1h1v1h1v1h2v1h1v1h2v1h1v1h2v1h1v1h2v1h2v1h1v1h2v1h2v1h1v1h2v1h2v1h2v1h1v1h2v1h2v1h2v1h2v1h15v-1h3v-1h1v-1h2v-1h1v-1h2v-1h1v-1h1v-2h1v-1h1v-2h1v-3h1v-11h-1v-4h-1v-2h-1v-1h-1v-2h-1v-1h-1v-1h-1v-1h-1v-1h-1v-1h-2v-1h-2v-1h-2v-1h-2v-1h-1v-1h-2v-1h-2v-1h-2v-1h-1v-1h-2v-1h-2v-1h-1v-1h-2v-1h-2v-1h-1v-1h-1v-1h-2v-1h-1v-1h-2v-1h-1v-1h-1v-1h-2v-1h-1v-1h-1v-1h-2v-1h-1v-1h-1v-1h-1v-1h-1v-1h-1v-1h-2v-1h-1v-1h-1v-1h-1v-1h-1v-1h-1v-1h-1v-1h-1v-1h-1v-1h-1v-1h-1v-1h-1v-1h-1v-1h-1v-1h-1v-1h-1v-2h-1v-1h-1v-1h-1v-2h-1v-1h-1v-1h-1v-2h-1v-1h-1v-1h-1v-2h-1v-1h-1v-2h-1v-2h-1v-2h-1v-1h-1v-2h-1v-2h-1v-2h-1v-2h-1v-2h-1v-3h-1v-2h-1v-3h-1v-3h-1v-3h1v-1h1v-1h1v-1h2v-1h1v-1h1v-1h2v-1h1v-1h1v-1h1v-1h1v-1h1v-1h1v-1h1v-1h1v-1h1v-1h1v-1h1v-1h1v-1h1v-2h1v-1h1v-1h1v-1h1v-1h1v-2h1v-1h1v-2h1v-2h1v-1h1v-2h1v-1h1v-2h1v-3h1v-2h1v-2h1v-2h1v-3h1v-3h1v-3h1v-3h1v-4h1v-5h1v-6h1v-11h1v-18h-1v-10h-1v-11h-1v-5h-1v-5h-1v-5h-1v-5h-1v-5h-1v-5h-1v-3h-1v-3h-1v-3h-1v-3h-1v-3h-1v-3h-1v-3h-1v-4h-1v-2h-1v-2h-1v-3h-1v-2h-1v-2h-1v-3h-1v-2h-1v-2h-1v-2h-1v-3h-1v-2h-1v-2h-1v-2h-1v-1h-1v-2h-1v-2h-1v-2h-1v-2h-1v-2h-1v-1h-1v-2h-1v-2h-1v-2h-1v-1h-1v-2h-1v-1h-1v-2h-1v-1h-1v-2h-1v-1h-1v-2h-1v-2h-1v-1h-1v-2h-1v-1h-1v-2h-1v-1h-1v-1h-1v-2h-1v-1h-1v-1h-1v-2h-1v-1h-1v-1h-1v-1h-1v-2h-1v-1h-1v-1h-1v-2h-1v-1h-1v-1h-1v-1h-1v-1h-1v-2h-1v-1h-1v-1h-1v-1h-1v-1h-1v-2h-1v-1h-1v-1h1v-2h1v-1h1v-1h1v-1h1v-2h1v-1h1v-1h1v-1h1v-2h1v-1h1v-1h1v-1h1v-1h1v-1h2v-1h1v-1h1v-1h1v-1h1v-1h1v-1h1v-1h2v-1h1v-1h1v-1h1v-1h1v-1h1v-1h2v-1h1v-1h1v-1h1v-1h1v-1h1v-1h2v-1h1v-1h1v-1h1v-1h1v-1h2v-1h1v-1h1v-1h1v-1h2v-1h1v-1h1v-1h1v-1h1v-1h2v-1h1v-1h1v-1h2v-1h1v-1h1v-1h1v-1h2v-1h1v-1h1v-1h2v-1h1v-1h1v-1h1v-1h2v-1h1v-1h1v-1h2v-1h1v-1h1v-1h2v-1h1v-1h2v-1h1v-1h1v-1h2v-1h1v-1h1v-1h2v-1h1v-1h2v-1h1v-1h1v-1h2v-1h1v-1h2v-1h1v-1h2v-1h1v-1h2v-1h1v-1h1v-1h2v-1h1v-1h2v-1h1v-1h2v-1h1v-1h2v-1h2v-1h1v-1h2v-1h1v-1h2v-1h1v-1h2v-1h1v-1h2v-1h2v-1h1v-1h2v-1h2v-1h1v-1h2v-1h2v-1h1v-1h2v-1h2v-1h2v-1h1v-1h2v-1h2v-1h1v-1h2v-1h2v-1h2v-1h2v-1h2v-1h2v-1h1v-1h2v-1h2v-1h2v-1h2v-1h2v-1h2v-1h2v-1h2v-1h2v-1h2v-1h2v-1h2v-1h2v-1h2v-1h3v-1h2v-1h2v-1h2v-1h2v-1h2v-1h3v-1h2v-1h3v-1h2v-1h3v-1h3v-1h2v-1h3v-1h2v-1h3v-1h2v-1h4v-1h3v-1h3v-1h3v-1h3v-1h3v-1h3v-1h3v-1h4v-1h4v-1h4v-1h5v-1h4v-1h4v-1h4v-1h7v-1h7v-1h7v-1h7v-1h22v-1h10v1h17v1h8v1h6v1h4v1h5v1h4v1h4v1h4v1h3v1h2v1h3v1h3v1h3v1h3v1h2v1h3v1h3v1h2v1h2v1h2v1h2v1h2v1h1v1h2v1h2v1h2v1h2v1h2v1h2v1h2v1h1v1h2v1h1v1h2v1h1v1h1v1h2v1h1v1h2v1h1v1h2v1h1v1h1v1h2v1h1v1h2v1h1v1h1v1h1v1h1v1h1v1h2v1h1v1h1v1h1v1h1v1h1v1h1v1h1v1h1v1h2v1h1v1h1v1h1v1h1v1h1v1h1v1h1v1h1v1h1v1h1v1h1v1h1v2h1v1h1v1h1v1h1v1h1v1h1v1h1v1h1v1h1v2h1v1h1v1h1v1h1v1h1v1h1v1h1v2h1v1h1v1h1v2h1v1h1v1h1v2h1v1h1v2h1v1h1v1h1v2h1v1h1v1h1v2h1v1h1v2h1v1h1v1h1v2h1v1h1v2h1v1h1v2h1v2h1v1h1v2h1v1h1v2h1v2h1v1h1v2h1v1h1v2h1v2h1v1h1v2h1v2h1v2h1v2h1v1h1v2h1v2h1v2h1v2h1v2h1v2h1v2h1v2h1v2h1v2h1v3h1v2h1v3h1v2h1v3h1v2h1v2h1v3h1v2h1v3h1v3h1v3h1v4h1v3h1v3h1v3h1v4h1v5h1v4h1v5h1v5h1v8h1v8h1v34h-1v7h-1v7h-1v6h-1v4h-1v4h-1v4h-1v3h-1v3h-1v3h-1v3h-1v3h-1v2h-1v3h-1v2h-1v3h-1v2h-1v2h-1v2h-1v2h-1v2h-1v2h-1v2h-1v1h-1v2h-1v2h-1v1h-1v2h-1v2h-1v1h-1v2h-1v1h-1v2h-1v1h-1v2h-1v1h-1v1h-1v2h-1v1h-1v1h-1v2h-1v1h-1v1h-1v1h-1v2h-1v1h-1v1h-1v1h-1v1h-1v1h-1v1h-1v1h-1v2h-1v1h-2v1h-1v1h-1v1h-1v1h-1v1h-1v1h-1v1h-1v1h-1v1h-1v1h-1v1h-1v1h-1v1h-2v1h-1v1h-1v1h-1v1h-1v1h-2v1h-1v1h-1v1h-2v1h-1v1h-1v1h-2v1h-1v1h-1v1h-2v1h-1v1h-2v1h-1v1h-2v1h-1v1h-2v1h-2v1h-1v1h-2v1h-2v1h-1v1h-2v1h-2v1h-2v1h-2v1h-2v1h-2v1h-2v1h-2v1h-2v1h-2v1h-3v1h-2v1h-2v1h-3v1h-2v1h-3v1h-3v1h-3v1h-2v1h-3v1h-4v1h-3v1h-4v1h-4v1h-3v1h-6v1h-5v1h-5v1h-7v1h-9v1h-18v1h-1v-1h-20v-1h-9v-1h-7v-1h-5v-1h-5v-1h-4v-1h-4v-1h-3v-1h-4v-1h-3v-1h-3v-1h-2v-1h-3v-1h-3v-1h-2v-1h-2v-1h-3v-1h-2v-1h-2v-1h-2v-1h-2v-1h-1v-1h-2v-1h-2v-1h-2v-1h-2v-1h-1v-1h-2v-1h-1v-1h-2v-1h-1v-1h-1v-1h-2v-1h-1v-1h-2v-1h-1v-1h-2v-1h-1v-1h-1v-1h-2v-1h-1v-1h-1v-1h-1v-1h-1v-1h-1v-1h-1v-1h-1v-1h-1v-1h-2v-1h-1v-1h-1v-1h-1v-1h-1v-1h-1v-1h-1v-1h-1v-1h-1v-1h-1v-2h-1v-1h-1v-1h-1v-1h-1v-1h-1v-1h-1v-2h-1v-1h-1v-1h-1v-1h-1v-1h-1v-1h-1v-2h-1v-1h-1v-2h-1v-1h-1v-2h-1v-1h-1v-2h-1v-1h-1v-2h-1v-1h-1v-2h-1v-1h-1v-2h-1v-2h-1v-2h-1v-2h-1v-1h-1v-2h-1v-2h-1v-2h-1v-2h-1v-2h-1v-2h-1v-2h-1v-2h-1v-3h-1v-2h-1v-3h-1v-2h-1v-3h-1v-2h-1v-3h-1v-3h-1v-2h-1v-3h-1v-3h-1v-4h-1v-3h-1v-3h-1v-4h-1v-4h-1v-1h2v1h4v1h3v1h4v1h4v1h3v1h4v1h4v1h5v1h4v1h5v1h5v1h5v1h5v1h5v1h6v1h7v1h7v1h8v1h10v1h11v1h35v1h2v-1h21v-1h10v-1h9v-1h7v-1h6v-1h6v-1h5v-1h4v-1h5v-1h4v-1h4v-1h3v-1h3v-1h4v-1h3v-1h3v-1h3v-1h3v-1h2v-1h3v-1h3v-1h2v-1h3v-1h2v-1h2v-1h3v-1h2v-1h2v-1h2v-1h2v-1h2v-1h2v-1h2v-1h2v-1h2v-1h1v-1h2v-1h2v-1h1v-1h2v-1h2v-1h1v-1h2v-1h2v-1h1v-1h2v-1h1v-1h1v-1h2v-1h1v-1h1v-1h2v-1h1v-1h1v-1h2v-1h1v-1h1v-1h2v-1h1v-1h1v-1h2v-1h1v-1h1v-1h1v-1h1v-1h1v-1h1v-1h2v-1h1v-1h1v-1h1v-1h1v-1h1v-1h1v-1h1v-1h1v-1h1v-1h1v-1h1v-1h1v-1h1v-1h1v-1h1v-1h1v-1h1v-1h1v-1h1v-1h1v-2h1v-1h1v-1h1v-1h1v-1h1v-1h1v-1h1v-1h1v-2h1v-1h1v-1h1v-2h1v-1h1v-2h-1v-3h-1v-3h-1v-3h-1v-4h-1v-3h-1v-2h-1v-3h-1v-3h-1v-3h-1v-2h-1v-3h-1v-3h-1v-2h-1v-2h-1v-2h-1v-2h-1v-3h-1v-1h-1v-2h-1v-2h-1v-2h-1v-2h-1v-1h-1v-2h-1v-1h-1v-2h-1v-1h-1v-2h-1v-1h-1v-2h-1v-1h-1v-1h-1v-2h-1v-1h-1v-1h-1v-1h-1v-1h-1v-1h-1v-1h-2v2h-1v1h-1v2h-1v2h-1v2h-1v1h-1v2h-1v1h-1v2h-1v2h-1v1h-1v2h-1v1h-1v2h-1v1h-1v2h-1v1h-1v2h-1v1h-1v1h-1v1h-1v1h-1v2h-1v1h-1v1h-1v1h-1v1h-1v2h-1v1h-1v1h-1v1h-1v2h-1v1h-1v1h-1v1h-1v1h-1v1h-1v1h-1v1h-1v1h-1v1h-2v1h-1v1h-1v1h-1v1h-1v1h-1v1h-1v1h-2v1h-1v1h-1v1h-1v1h-1v1h-1v1h-1v1h-2v1h-1v1h-2v1h-1v1h-2v1h-1v1h-2v1h-1v1h-2v1h-1v1h-2v1h-1v1h-2v1h-2v1h-2v1h-2v1h-2v1h-2v1h-3v1h-2v1h-2v1h-3v1h-2v1h-3v1h-3v1h-3v1h-3v1h-3v1h-3v1h-4v1h-4v1h-5v1h-4v1h-5v1h-7v1h-7v1h-10v1h-21v1h-11v-1h-19v-1h-10v-1h-9v-1h-7v-1h-7v-1h-5v-1h-6v-1h-5v-1h-5v-1h-5v-1h-4v-1h-4v-1h-4v-1h-4v-1h-4v-1h-4v-1h-3v-1h-4v-1h-3v-1h-3v-1h-4v-1h-3v-1h-3v-1h-3v-1h-3v-1h-3v-1h-3v-1h-2v-1h-3v-1h-2v-52h-1v-4h-1v-3h-1v-2h-1v-2h-1v-2h-1v-2h-1v-1h-1v-2h-1v-1h-1v-1h-1v-1h-1v-1h-1v-1h-1v-1h-2v-1h-1v-1h-2v-1h-2v-1h-2v-1h-3v-1h-3v-1h-17v1h-4v1h-3v1h-2v1h-2v1h-2v1h-1v1h-1v1h-2v1h-1v1h-1v1h-1v1h-1v1h-1v2h-1v1h-1v2h-1v1h-1v2h-1v3h-1v3h-1v5h-1v59h1v15h1v12h1v10h1v7h1v7h1v7h1v7h1v5h1v4h1v5h1v5h1v5h1v4h1v4h1v3h1v4h1v4h1v3h1v4h1v3h1v3h1v3h1v3h1v2h1v3h1v3h1v3h1v3h1v2h1v2h1v3h1v2h1v2h1v3h1v2h1v2h1v3h1v2h1v2h1v2h1v1h1v2h1v2h1v2h1v2h1v2h1v2h1v2h1v2h1v1h1v2h1v1h1v2h1v2h1v1h1v2h1v1h1v2h1v1h1v2h1v2h1v1h1v1h1v2h1v1h1v1h1v2h1v1h1v1h1v2h1v1h1v1h1v1h1v2h1v1h1v1h1v2h1v1h1v1h1v1h1v1h1v1h1v1h1v1h1v1h1v1h1v1h1v2h1v1h1v1h1v1h1v1h1v1h1v1h1v1h1v1h2v1h1v1h1v1h1v1h1v1h1v1h1v1h1v1h1v1h1v1h2v1h1v1h1v1h1v1h2v1h1v1h1v1h2v1h1v1h1v1h2v1h1v1h1v1h2v1h1v1h2v1h1v1h2v1h1v1h2v1h2v1h1v1h2v1h1v1h2v1h2v1h1v1h2v1h2v1h2v1h2v1h2v1h2v1h2v1h2v1h2v1h2v1h2v1h3v1h2v1h3v1h2v1h3v1h3v1h2v1h3v1h4v1h3v1h3v1h4v1h3v1h4v1h4v1h5v1h5v1h5v1h7v1h8v1h8v1h22v1h6v-1h22v-1h9v-1h9v-1h6v-1h6v-1h5v-1h5v-1h5v-1h4v-1h3v-1h4v-1h4v-1h4v-1h3v-1h3v-1h3v-1h3v-1h3v-1h3v-1h2v-1h3v-1h3v-1h2v-1h2v-1h3v-1h2v-1h2v-1h3v-1h2v-1h2v-1h2v-1h2v-1h2v-1h2v-1h2v-1h2v-1h2v-1h2v-1h2v-1h1v-1h2v-1h2v-1h1v-1h2v-1h2v-1h1v-1h2v-1h2v-1h1v-1h2v-1h1v-1h2v-1h2v-1h1v-1h1v-1h2v-1h1v-1h1v-1h2v-1h1v-1h2v-1h1v-1h1v-1h2v-1h1v-1h1v-1h2v-1h1v-1h1v-1h1v-1h1v-1h2v-1h1v-1h1v-1h1v-1h1v-1h1v-1h2v-1h1v-1h1v-1h1v-1h1v-1h1v-1h1v-1h1v-1h1v-1h1v-1h1v-1h1v-1h1v-1h1v-1h1v-1h1v-1h1v-1h1v-1h1v-1h1v-1h1v-1h1v-1h1v-1h1v-1h1v-1h1v-2h1v-1h1v-1h1v-1h1v-1h1v-2h1v-1h1v-1h1v-1h1v-1h1v-2h1v-1h1v-2h1v-1h1v-1h1v-2h1v-1h1v-2h1v-1h1v-1h1v-2h1v-1h1v-2h1v-1h1v-2h1v-2h1v-1h1v-2h1v-2h1v-1h1v-2h1v-2h1v-1h1v-2h1v-2h1v-2h1v-2h1v-2h1v-2h1v-2h1v-2h1v-2h1v-2h1v-2h1v-3h1v-3h1v-2h1v-3h1v-2h1v-3h1v-3h1v-3h1v-3h1v-3h1v-4h1v-3h1v-4h1v-4h1v-5h1v-5h1v-5h1v-5h1v-9h1v-9h1v-47h-1v-8h-1v-9h-1v-7h-1v-5h-1v-5h-1v-5h-1v-5h-1v-4h-1v-3h-1v-4h-1v-3h-1v-4h-1v-4h-1v-3h-1v-3h-1v-3h-1v-2h-1v-3h-1v-3h-1v-3h-1v-3h-1v-2h-1v-3h-1v-2h-1v-2h-1v-2h-1v-3h-1v-2h-1v-2h-1v-3h-1v-2h-1v-2h-1v-2h-1v-2h-1v-2h-1v-2h-1v-2h-1v-2h-1v-2h-1v-2h-1v-2h-1v-2h-1v-2h-1v-1h-1v-2h-1v-2h-1v-1h-1v-2h-1v-2h-1v-2h-1v-1h-1v-2h-1v-2h-1v-1h-1v-2h-1v-7h1v-4h1v-5h1v-5h1v-5h1v-7h1v-6h1v-6h1v-9h1v-9h1v-10h1v-22h1v-19h-1v-22h-1V92h-1V82h-1v-6h-1v-6h-1v-6h-1v-6h-1v-5h-1v-4h-1v-3h-1v-4h-1v-4h-1v-4h-1v-4h-1v-3h-1v-3h-1v-3h-1v-3h-1v-3h-1v-3h-1V9h-1V6h-1V4h-1V2h-1v-3h-1v-2h-1v-2h-1v-2h-1v-3h-1v-2h-1v-2h-1v-3h-1v-2h-1v-2h-1v-1h-1v-2h-1v-2h-1v-2h-1v-2h-1v-2h-1v-2h-1v-1h-1v-2h-1v-2h-1v-2h-1v-1h-1v-2h-1v-1h-1v-2h-1v-1h-1v-2h-1v-2h-1v-1h-1v-2h-1v-1h-1v-2h-1v-1h-1v-2h-1v-1h-1v-1h-1v-2h-1v-1h-1v-1h-1v-2h-1v-1h-1v-1h-1v-1h-1v-2h-1v-1h-1v-1h-1v-2h-1v-1h-1v-1h-1v-1h-1v-1h-1v-2h-1v-1h-1v-1h-1v-1h-1v-1h-1v-1h-1v-1h-1v-1h-1v-1h-1v-1h-1v-1h-1v-1h-1v-2h-1v-1h-1v-1h-1v-1h-1v-1h-1v-1h-1v-1h-1v-1h-2v-1h-1v-1h-1v-1h-1v-1h-1v-1h-1v-1h-1v-1h-1v-1h-1v-1h-1v-1h-1v-1h-1v-1h-2v-1h-1v-1h-1v-1h-1v-1h-2v-1h-1v-1h-1v-1h-1v-1h-2v-1h-1v-1h-1v-1h-1v-1h-2v-1h-1v-1h-1v-1h-1v-1h-2v-1h-1v-1h-2v-1h-1v-1h-1v-1h-2v-1h-1v-1h-2v-1h-1v-1h-2v-1h-1v-1h-2v-1h-1v-1h-2v-1h-1v-1h-2v-1h-2v-1h-1v-1h-2v-1h-1v-1h-2v-1h-2v-1h-2v-1h-2v-1h-2v-1h-1v-1h-2v-1h-2v-1h-2v-1h-2v-1h-2v-1h-2v-1h-2v-1h-2v-1h-2v-1h-2v-1h-3v-1h-2v-1h-2v-1h-2v-1h-2v-1h-3v-1h-2v-1h-3v-1h-3v-1h-2v-1h-3v-1h-2v-1h-3v-1h-2v-1h-4v-1h-3v-1h-3v-1h-3v-1h-4v-1h-3v-1h-3v-1h-4v-1h-4v-1h-4v-1h-4v-1h-4v-1h-5v-1h-5v-1h-6v-1h-6v-1h-6v-1h-7v-1h-10v-1h-10v-1h-56v1h-13v1h-9v1h-8v1h-6v1h-6v1h-5v1h-6v1h-4v1h-4v1h-5v1h-4v1h-3v1h-4v1h-3v1h-4v1h-3v1h-3v1h-3v1h-3v1h-3v1h-3v1h-2v1h-3v1h-2v1h-3v1h-2v1h-3v1h-2v1h-2v1h-2v1h-2v1h-3v1h-2v1h-2v1h-2v1h-2v1h-2v1h-2v1h-2v1h-2v1h-1v1h-2v1h-2v1h-2v1h-2v1h-1v1h-2v1h-2v1h-1v1h-2v1h-2v1h-1v1h-2v1h-2v1h-1v1h-2v1h-1v1h-2v1h-1v1h-2v1h-1v1h-2v1h-1v1h-2v1h-1v1h-2v1h-1v1h-1v1h-2v1h-1v1h-2v1h-1v1h-1v1h-2v1h-1v1h-1v1h-2v1h-1v1h-2v1h-1v1h-1v1h-1v1h-2v1h-1v1h-1v1h-2v-2h-1v-1h-1v-1h-1v-2h-1v-1h-1v-1h-1v-2h-1v-1h-1v-1h-1v-2h-1v-1h-1v-1h-1v-2h-1v-1h-1v-1h-1v-1h-1v-2h-1v-1h-1v-1h-1v-1h-1v-2h-1v-1h-1v-1h-1v-1h-1v-1h-1v-2h-1v-1h-1v-1h-1v-1h-1v-1h-1v-1h-1v-1h-1v-2h-1v-1h-1v-1h-1v-1h-1v-1h-1v-1h-1v-1h-1v-1h-1v-1h-1v-1h-1v-1h-1v-1h-1v-1h-1v-1h-1v-1h-1v-1h-1v-1h-1v-1h-1v-1h-1v-1h-1v-1h-1v-1h-1v-1h-1v-1h-1v-1h-1v-1h-1v-1h-1v-1h-1v-1h-1v-1h-1v-1h-1v-1h-2v-1h-1v-1h-1v-1h-1v-1h-1v-1h-1v-1h-2v-1h-1v-1h-1v-1h-1v-1h-3v1h-2v1h-1v1h-1v1h-1v1h-2v1h-1v1h-1v1h-1v1h-1v1h-1v1h-1v1h-2v1h-1v1h-1v1h-1v1h-1v1h-1v1h-2v1h-1v1h-1v1h-1v1h-1v1h-1v1h-1v1h-1v1h-1v1h-1v1h-1v1h-1v1h-1v1h-1v1h-1v1h-1v1h-1v1h-1v1h-1v1h-1v1h-1v1h-2v1h-1v1h-1v2h-1v1h-1v1h-1v1h-1v1h-1v1h-1v1h-1v1h-1v1h-1v1h-1v1h-1v2h-1v1h-1v1h-1v1h-1v1h-1v1h-1v1h-1v1h-1v2h-1v1h-1v1h-1v1h-1v1h-1v2h-1v1h-1v1h-1v1h-1v2h-1v1h-1v1h-1v1h-1v2h-1v1h-1v1h-2v-1h-1v-1h-1v-1h-2v-1h-1v-1h-1v-1h-2v-1h-1v-1h-1v-1h-2v-1h-1v-1h-2v-1h-1v-1h-1v-1h-2v-1h-1v-1h-1v-1h-2v-1h-1v-1h-2v-1h-1v-1h-2v-1h-1v-1h-2v-1h-1v-1h-2v-1h-1v-1h-2v-1h-1v-1h-2v-1h-1v-1h-2v-1h-2v-1h-1v-1h-2v-1h-2v-1h-1v-1h-2v-1h-2v-1h-1v-1h-2v-1h-2v-1h-2v-1h-2v-1h-1v-1h-2v-1h-2v-1h-2v-1h-2v-1h-2v-1h-2v-1h-2v-1h-2v-1h-3v-1h-2v-1h-2v-1h-2v-1h-2v-1h-3v-1h-2v-1h-3v-1h-2v-1h-3v-1h-2v-1h-3v-1h-3v-1h-3v-1h-3v-1h-3v-1h-3v-1h-4v-1h-3v-1h-4v-1h-3v-1h-4v-1h-5v-1h-4v-1h-4v-1h-5v-1h-6v-1h-6v-1h-6v-1h-8v-1h-9v-1h-13v-1h-56zm9 76v-1h33v1h14v1h8v1h8v1h7v1h5v1h4v1h5v1h5v1h4v1h4v1h3v1h4v1h4v1h3v1h3v1h3v1h3v1h3v1h3v1h2v1h3v1h3v1h2v1h3v1h2v1h2v1h2v1h3v1h2v1h2v1h2v1h2v1h2v1h2v1h2v1h2v1h2v1h2v1h2v1h2v1h2v1h1v1h2v1h1v1h2v1h2v1h1v1h2v1h1v1h2v1h2v1h1v1h2v1h1v1h1v1h2v1h1v1h1v1h2v1h1v1h1v1h2v1h1v1h1v1h2v1h1v1h1v1h1v1h1v1h1v1h2v1h1v1h1v1h1v1h1v3h-1v2h-1v2h-1v3h-1v3h-1v3h-1v3h-1v3h-1v2h-1v3h-1v4h-1v4h-1v3h-1v4h-1v4h-1v4h-1v4h-1v5h-1v6h-1v6h-1v7h-1v9h-1v16h-1v20h1v19h1v8h1v9h1v6h1v6h1v5h1v5h1v5h1v4h1v4h1v4h1v4h1v4h1v2h-2v-1h-1v-1h-2v-1h-1v-1h-2v-1h-2v-1h-2v-1h-1v-1h-2v-1h-2v-1h-1v-1h-2v-1h-2v-1h-1v-1h-2v-1h-2v-1h-2v-1h-1v-1h-2v-1h-2v-1h-2v-1h-2v-1h-2v-1h-1v-1h-2v-1h-2v-1h-2v-1h-2v-1h-2v-1h-2v-1h-1v-1h-2v-1h-2v-1h-2v-1h-3v-1h-2v-1h-2v-1h-2v-1h-2v-1h-2v-1h-2v-1h-2v-1h-2v-1h-2v-1h-2v-1h-3v-1h-2v-1h-2v-1h-3v-1h-2v-1h-2v-1h-3v-1h-2v-1h-3v-1h-2v-1h-3v-1h-2v-1h-3v-1h-2v-1h-3v-1h-2v-1h-3v-1h-3v-1h-3v-1h-3v-1h-4v-1h-3v-1h-3v-1h-3v-1h-3v-1h-3v-1h-3v-1h-4v-1h-4v-1h-4v-1h-5v-1h-4v-1h-4v-1h-4v-1h-4v-1h-7v-1h-6v-1h-6v-1h-7v-1h-6v-1h-12v-1h-14v-1h-23v1h-13v1h-13v1h-7v1h-6v1h-5v1h-6v1h-4v1h-4v1h-4v1h-4v1h-4v1h-3v1h-4v1h-2v1h-3v1h-3v1h-3v1h-3v1h-3v1h-2v1h-3v1h-2v1h-2v1h-2v1h-3v1h-2v1h-2v1h-2v1h-2v1h-2v1h-2v1h-2v1h-2v1h-2v1h-1v1h-2v1h-2v1h-2v1h-2v1h-1v1h-2v1h-2v1h-1v1h-2v1h-1v1h-2v1h-1v1h-2v1h-1v1h-2v1h-1v1h-2v1h-1v1h-2v1h-1v1h-1v1h-2v1h-1v1h-1v1h-1v1h-2v1h-1v1h-1v1h-1v1h-2v1h-1v1h-1v1h-2v1h-1v1h-1v1h-1v1h-1v1h-1v1h-1v1h-2v1h-1v1h-1v1h-1v1h-1v1h-1v1h-1v1h-1v1h-1v1h-1v1h-1v-5h-1v-28h1v-17h1v-8h1v-9h1v-5h1v-5h1v-5h1v-5h1v-4h1v-4h1v-3h1v-4h1v-3h1v-3h1v-3h1v-3h1v-2h1v-3h1v-3h1v-2h1v-3h1v-2h1v-2h1v-2h1v-2h1v-2h1v-2h1v-2h1v-2h1V9h1V7h1V5h1V4h1V2h1V0h1v-2h1v-1h1v-2h1v-1h1v-2h1v-1h1v-2h1v-1h1v-2h1v-1h1v-2h1v-1h1v-2h1v-1h1v-1h1v-1h1v-2h1v-1h1v-1h1v-2h1v-1h1v-1h1v-1h1v-1h1v-1h1v-1h1v-2h1v-1h1v-1h1v-1h1v-1h1v-1h1v-1h1v-1h1v-1h1v-1h1v-1h1v-1h1v-1h1v-1h1v-1h1v-1h1v-1h1v-1h1v-1h1v-1h1v-1h2v-1h1v-1h1v-1h1v-1h1v-1h1v-1h2v-1h1v-1h1v-1h1v-1h2v-1h1v-1h1v-1h2v-1h1v-1h1v-1h2v-1h1v-1h2v-1h1v-1h1v-1h2v-1h1v-1h2v-1h1v-1h2v-1h2v-1h1v-1h2v-1h1v-1h2v-1h2v-1h2v-1h2v-1h2v-1h1v-1h2v-1h2v-1h2v-1h2v-1h2v-1h2v-1h2v-1h3v-1h2v-1h2v-1h3v-1h2v-1h2v-1h2v-1h3v-1h2v-1h3v-1h3v-1h3v-1h3v-1h3v-1h3v-1h4v-1h3v-1h3v-1h5v-1h4v-1h5v-1h4v-1h5v-1h6v-1h8v-1h8v-1h13zm644 0v-1h34v1h12v1h8v1h8v1h6v1h5v1h4v1h5v1h4v1h5v1h3v1h3v1h4v1h3v1h3v1h3v1h3v1h3v1h3v1h2v1h3v1h2v1h2v1h3v1h2v1h2v1h2v1h3v1h2v1h2v1h2v1h2v1h2v1h2v1h2v1h2v1h1v1h2v1h2v1h2v1h2v1h1v1h2v1h2v1h1v1h2v1h1v1h2v1h1v1h2v1h1v1h2v1h1v1h1v1h2v1h1v1h2v1h1v1h1v1h1v1h2v1h1v1h1v1h1v1h2v1h1v1h1v1h1v1h1v1h1v1h2v1h1v1h1v1h1v1h1v1h1v1h1v1h1v1h1v1h1v1h1v1h1v1h1v1h1v1h1v1h1v1h1v1h1v1h1v1h1v1h1v1h1v2h1v1h1v1h1v1h1v1h1v1h1v2h1v1h1v1h1v2h1v1h1v1h1v1h1v2h1v1h1v2h1v1h1v1h1v2h1v1h1v2h1v1h1v2h1v1h1v2h1v2h1v2h1v1h1v2h1v2h1v2h1v1h1v2h1v3h1v2h1v2h1v2h1v2h1v2h1v2h1v3h1v2h1v3h1v3h1v2h1v3h1v2h1v4h1v3h1v4h1v3h1v4h1v4h1v5h1v4h1v5h1v6h1v8h1v8h1v17h1v30h-1v4h-1v-1h-1v-1h-1v-1h-1v-1h-1v-1h-1v-1h-1v-1h-1v-1h-1v-1h-1v-1h-2v-1h-1v-1h-1v-1h-1v-1h-1v-1h-1v-1h-1v-1h-2v-1h-1v-1h-1v-1h-1v-1h-2v-1h-1v-1h-1v-1h-2v-1h-1v-1h-1v-1h-1v-1h-2v-1h-1v-1h-1v-1h-2v-1h-1v-1h-2v-1h-1v-1h-2v-1h-1v-1h-2v-1h-1v-1h-2v-1h-1v-1h-2v-1h-1v-1h-2v-1h-1v-1h-2v-1h-2v-1h-2v-1h-2v-1h-1v-1h-2v-1h-2v-1h-2v-1h-2v-1h-1v-1h-3v-1h-2v-1h-2v-1h-2v-1h-2v-1h-3v-1h-2v-1h-2v-1h-2v-1h-3v-1h-2v-1h-3v-1h-3v-1h-3v-1h-3v-1h-3v-1h-2v-1h-4v-1h-3v-1h-4v-1h-4v-1h-4v-1h-4v-1h-4v-1h-6v-1h-5v-1h-6v-1h-7v-1h-13v-1h-12v-1h-23v1h-15v1h-11v1h-7v1h-7v1h-6v1h-7v1h-6v1h-4v1h-4v1h-4v1h-4v1h-5v1h-4v1h-4v1h-4v1h-3v1h-3v1h-3v1h-3v1h-3v1h-3v1h-4v1h-3v1h-3v1h-3v1h-3v1h-2v1h-3v1h-2v1h-3v1h-2v1h-3v1h-2v1h-3v1h-2v1h-3v1h-2v1h-3v1h-2v1h-2v1h-2v1h-2v1h-3v1h-2v1h-2v1h-2v1h-2v1h-2v1h-2v1h-2v1h-2v1h-3v1h-2v1h-2v1h-2v1h-1v1h-2v1h-2v1h-2v1h-2v1h-2v1h-2v1h-1v1h-2v1h-2v1h-2v1h-2v1h-2v1h-2v1h-1v1h-2v1h-2v1h-2v1h-1v1h-2v1h-2v1h-1v1h-2v1h-2v1h-1v1h-2v1h-2v1h-1v1h-2v1h-1v-4h1v-5h1v-5h1v-4h1v-5h1v-6h1v-7h1v-8h1v-8h1V85h1V60h-1V43h-1v-8h-1v-7h-1v-7h-1v-5h-1v-5h-1V7h-1V2h-1v-4h-1v-4h-1v-4h-1v-3h-1v-3h-1v-3h-1v-4h-1v-3h-1v-3h-1v-3h-1v-2h-1v-3h-1v-3h-1v-2h-1v-3h-1v-2h-1v-3h1v-1h1v-1h1v-1h1v-1h1v-1h2v-1h1v-1h1v-1h1v-1h1v-1h1v-1h1v-1h2v-1h1v-1h1v-1h2v-1h1v-1h1v-1h2v-1h1v-1h1v-1h2v-1h1v-1h1v-1h2v-1h2v-1h1v-1h2v-1h1v-1h2v-1h1v-1h2v-1h2v-1h1v-1h2v-1h2v-1h2v-1h1v-1h2v-1h2v-1h2v-1h2v-1h2v-1h2v-1h2v-1h2v-1h2v-1h2v-1h2v-1h3v-1h2v-1h2v-1h2v-1h3v-1h2v-1h3v-1h3v-1h3v-1h2v-1h3v-1h3v-1h3v-1h3v-1h4v-1h3v-1h4v-1h3v-1h4v-1h4v-1h5v-1h5v-1h4v-1h5v-1h7v-1h8v-1h8v-1h14zM713-77v-1h2v1h1v1h1v1h1v1h1v1h1v1h1v1h1v1h1v1h1v1h1v1h1v2h1v1h1v1h1v1h1v1h1v1h1v2h1v1h1v1h1v1h1v1h1v2h1v1h1v1h1v2h1v1h1v1h1v2h1v1h1v2h1v1h1v2h1v1h1v2h1v2h1v1h1v2h1v2h1v1h1v2h1v2h1v2h1v1h-1v-1h-7v-1h-7v-1h-11v-1h-43v1h-9v1h-9v1h-4v-1h1v-1h1v-2h1v-2h1v-1h1v-2h1v-1h1v-2h1v-2h1v-1h1v-1h1v-2h1v-1h1v-1h1v-2h1v-1h1v-2h1v-1h1v-1h1v-2h1v-1h1v-1h1v-1h1v-1h1v-1h1v-2h1v-1h1v-1h1v-1h1v-1h1v-1h1v-1h1v-1h1v-1h1v-1h1v-1h1v-1h1v-1h1v-1h1v-1h1v-1h1v-1h1v-1h1v-1h1v-1h1v-1h1zM699 46v-1h40v1h9v1h8v1h5v1h6v1h4v1h5v1h3v1h1v9h1v16h-1v9h-1v10h-1v5h-4v-1h-5v-1h-5v-1h-6v-1h-6v-1h-9v-1h-15v-1h-22v1h-13v1h-9v1h-7v1h-7v1h-5v1h-5v1h-5v1h-4v1h-1v-2h-1v-6h-1v-6h-1v-7h-1V67h-1V55h1v-1h4v-1h4v-1h4v-1h5v-1h5v-1h6v-1h7v-1h6v-1h12zm10 119v-1h32v1h11v1h3v1h-1v2h-1v2h-1v1h-1v2h-1v2h-1v1h-1v2h-1v1h-1v2h-1v2h-1v1h-1v2h-1v2h-1v1h-1v2h-1v2h-1v1h-1v2h-1v1h-1v1h-1v2h-1v1h-1v1h-1v2h-1v1h-1v1h-1v2h-1v1h-1v1h-1v2h-1v1h-1v1h-1v2h-1v1h-1v1h-1v2h-1v1h-1v1h-1v1h-1v1h-1v1h-1v-1h-1v-1h-1v-1h-1v-2h-1v-1h-1v-1h-1v-1h-1v-2h-1v-1h-1v-1h-1v-1h-1v-2h-1v-1h-1v-1h-1v-2h-1v-1h-1v-2h-1v-1h-1v-1h-1v-2h-1v-1h-1v-2h-1v-1h-1v-2h-1v-1h-1v-2h-1v-1h-1v-2h-1v-2h-1v-1h-1v-2h-1v-2h-1v-1h-1v-2h-1v-2h-1v-2h-1v-1h-1v-2h-1v-2h-1v-1h6v-1h7v-1h8v-1h14zm3 242v-1h3v1h1v1h1v1h1v1h1v1h1v1h1v1h1v2h1v1h1v1h1v1h1v1h1v1h1v2h1v1h1v1h1v2h1v1h1v1h1v2h1v1h1v2h1v2h1v1h1v2h1v2h1v1h1v2h1v2h1v3h1v2h1v2h1v2h1v2h1v3h1v4h1v3h1v4h1v3h1v5h1v8h1v19h-1v4h-1v4h-1v3h-1v2h-1v2h-1v1h-1v2h-1v1h-1v2h-1v1h-1v1h-1v1h-1v1h-1v1h-1v1h-1v1h-1v1h-2v1h-1v1h-2v1h-2v1h-2v1h-3v1h-3v1h-5v1h-13v-1h-4v-1h-4v-1h-2v-1h-2v-1h-3v-1h-1v-1h-1v-1h-2v-1h-1v-1h-1v-1h-1v-1h-1v-1h-1v-1h-1v-1h-1v-1h-1v-1h-1v-2h-1v-2h-1v-1h-1v-2h-1v-3h-1v-3h-1v-3h-1v-5h-1v-22h1v-8h1v-4h1v-4h1v-4h1v-2h1v-3h1v-3h1v-2h1v-2h1v-2h1v-2h1v-2h1v-2h1v-2h1v-2h1v-1h1v-2h1v-1h1v-2h1v-1h1v-2h1v-1h1v-1h1v-1h1v-2h1v-1h1v-1h1v-1h1v-1h1v-2h1v-1h1v-1h1v-1h1v-1h1v-1h1v-1h1v-1h1v-1h1v-1h1v-1h1v-1" transform="matrix(.24204 0 0 -.24204 468 430)"/></svg>