<svg xmlns="http://www.w3.org/2000/svg" width="1280" height="1024"><defs><linearGradient id="A" x1=".527" x2=".498" y1="-.149" y2="1.475"><stop offset="0%" stop-color="#c69919"/><stop offset="100%" stop-color="#eac40c"/></linearGradient><linearGradient id="B" x1="0" x2="0" y1="0" y2=".176"><stop offset="0%" stop-color="#b4ec51"/><stop offset="100%" stop-color="#429321"/></linearGradient><linearGradient id="C" x1="-.01" x2="-.01" y1="-.003" y2="1.134"><stop offset="0%" stop-color="#b4ec51"/><stop offset="100%" stop-color="#429321"/></linearGradient><linearGradient id="D" x1="-.003" x2="-.003" y1="0" y2="1.214"><stop offset="0%" stop-color="#b4ec51"/><stop offset="100%" stop-color="#429321"/></linearGradient><linearGradient id="E" x1=".004" x2=".004" y1="0" y2="1.103"><stop offset="0%" stop-color="#b4ec51"/><stop offset="100%" stop-color="#429321"/></linearGradient><linearGradient id="F" x1="0" x2="0" y1=".001" y2="1.036"><stop offset="0%" stop-color="#b4ec51"/><stop offset="100%" stop-color="#429321"/></linearGradient><linearGradient id="G" x1="0" x2="0" y1=".001" y2="1.39"><stop offset="0%" stop-color="#b4ec51"/><stop offset="100%" stop-color="#429321"/></linearGradient><linearGradient id="H" x1="-.004" x2="-.004" y1="0" y2="1.422"><stop offset="0%" stop-color="#b4ec51"/><stop offset="100%" stop-color="#429321"/></linearGradient><linearGradient id="I" x1="-.003" x2="-.003" y1="-.008" y2="1.683"><stop offset="0%" stop-color="#b4ec51"/><stop offset="100%" stop-color="#429321"/></linearGradient><linearGradient id="J" x1="0" x2="0" y1=".003" y2="1.062"><stop offset="0%" stop-color="#b4ec51"/><stop offset="100%" stop-color="#429321"/></linearGradient><linearGradient id="K" x1="0" x2="0" y1=".001" y2="1.111"><stop offset="0%" stop-color="#b4ec51"/><stop offset="100%" stop-color="#429321"/></linearGradient><linearGradient id="L" x1=".006" x2=".006" y1=".005" y2="2.92"><stop offset="0%" stop-color="#b4ec51"/><stop offset="100%" stop-color="#429321"/></linearGradient><linearGradient id="M" x1="0" x2="0" y1=".006" y2="2.146"><stop offset="0%" stop-color="#b4ec51"/><stop offset="100%" stop-color="#429321"/></linearGradient><linearGradient id="N" x1="0" x2="0" y1="0" y2=".217"><stop offset="0%" stop-color="#b4ec51"/><stop offset="100%" stop-color="#429321"/></linearGradient><linearGradient id="O" x1="0" x2="0" y1="-.006" y2="3.769"><stop offset="0%" stop-color="#b4ec51"/><stop offset="100%" stop-color="#429321"/></linearGradient><linearGradient id="P" x1="0" x2="0" y1="-.008" y2="4.172"><stop offset="0%" stop-color="#b4ec51"/><stop offset="100%" stop-color="#429321"/></linearGradient><linearGradient id="Q" x1="-.004" x2="-.004" y1=".006" y2="2.57"><stop offset="0%" stop-color="#b4ec51"/><stop offset="100%" stop-color="#429321"/></linearGradient><linearGradient id="R" x1="0" x2="0" y1=".014" y2="2.444"><stop offset="0%" stop-color="#b4ec51"/><stop offset="100%" stop-color="#429321"/></linearGradient><linearGradient id="S" x1=".003" x2=".003" y1=".002" y2="1.271"><stop offset="0%" stop-color="#b4ec51"/><stop offset="100%" stop-color="#429321"/></linearGradient><linearGradient id="T" x1="-.003" x2="-.003" y1=".006" y2=".972"><stop offset="0%" stop-color="#b4ec51"/><stop offset="100%" stop-color="#429321"/></linearGradient><linearGradient id="U" x1=".006" x2=".006" y1=".012" y2="1.108"><stop offset="0%" stop-color="#b4ec51"/><stop offset="100%" stop-color="#429321"/></linearGradient><linearGradient id="V" x1="-.002" x2="-.002" y1=".011" y2="1.892"><stop offset="0%" stop-color="#b4ec51"/><stop offset="100%" stop-color="#429321"/></linearGradient><linearGradient id="W" x1="0" x2="0" y1="-.005" y2="2.049"><stop offset="0%" stop-color="#b4ec51"/><stop offset="100%" stop-color="#429321"/></linearGradient><linearGradient id="X" x1=".009" x2=".009" y1="0" y2="1.082"><stop offset="0%" stop-color="#b4ec51"/><stop offset="100%" stop-color="#429321"/></linearGradient><linearGradient id="Y" x1="-.004" x2="-.004" y1=".001" y2="1.019"><stop offset="0%" stop-color="#b4ec51"/><stop offset="100%" stop-color="#429321"/></linearGradient><linearGradient id="Z" x1="0" x2="0" y1="0" y2=".184"><stop offset="0%" stop-color="#b4ec51"/><stop offset="100%" stop-color="#429321"/></linearGradient><linearGradient id="a" x1="-.005" x2="-.005" y1="0" y2="1.122"><stop offset="0%" stop-color="#b4ec51"/><stop offset="100%" stop-color="#429321"/></linearGradient><linearGradient id="b" x1="-.016" x2="-.016" y1="0" y2="1.214"><stop offset="0%" stop-color="#b4ec51"/><stop offset="100%" stop-color="#429321"/></linearGradient><linearGradient id="c" x1=".006" x2=".006" y1="-.005" y2="1.104"><stop offset="0%" stop-color="#b4ec51"/><stop offset="100%" stop-color="#429321"/></linearGradient><linearGradient id="d" x1=".002" x2=".002" y1="0" y2="1.047"><stop offset="0%" stop-color="#b4ec51"/><stop offset="100%" stop-color="#429321"/></linearGradient><linearGradient id="e" x1="-.006" x2="-.006" y1=".004" y2="1.437"><stop offset="0%" stop-color="#b4ec51"/><stop offset="100%" stop-color="#429321"/></linearGradient><linearGradient id="f" x1=".001" x2=".001" y1="-.005" y2="1.492"><stop offset="0%" stop-color="#b4ec51"/><stop offset="100%" stop-color="#429321"/></linearGradient><linearGradient id="g" x1="-.002" x2="-.002" y1="0" y2="1.771"><stop offset="0%" stop-color="#b4ec51"/><stop offset="100%" stop-color="#429321"/></linearGradient><linearGradient id="h" x1=".003" x2=".003" y1="-.005" y2="1.075"><stop offset="0%" stop-color="#b4ec51"/><stop offset="100%" stop-color="#429321"/></linearGradient><linearGradient id="i" x1="-.002" x2="-.002" y1="0" y2="1.132"><stop offset="0%" stop-color="#b4ec51"/><stop offset="100%" stop-color="#429321"/></linearGradient><linearGradient id="j" x1="-.004" x2="-.004" y1="-.009" y2="3.067"><stop offset="0%" stop-color="#b4ec51"/><stop offset="100%" stop-color="#429321"/></linearGradient><linearGradient id="k" x1="-.002" x2="-.002" y1=".002" y2="2.401"><stop offset="0%" stop-color="#b4ec51"/><stop offset="100%" stop-color="#429321"/></linearGradient><linearGradient id="l" x1="0" x2="0" y1="-.001" y2=".204"><stop offset="0%" stop-color="#b4ec51"/><stop offset="100%" stop-color="#429321"/></linearGradient><linearGradient id="m" x1=".001" x2=".001" y1="0" y2="4.056"><stop offset="0%" stop-color="#b4ec51"/><stop offset="100%" stop-color="#429321"/></linearGradient><linearGradient id="n" x1=".001" x2=".001" y1="-.002" y2="4.1"><stop offset="0%" stop-color="#b4ec51"/><stop offset="100%" stop-color="#429321"/></linearGradient><linearGradient id="o" x1="0" x2="0" y1="-.003" y2="2.361"><stop offset="0%" stop-color="#b4ec51"/><stop offset="100%" stop-color="#429321"/></linearGradient><linearGradient id="p" x1="-.003" x2="-.003" y1="-.004" y2="2.262"><stop offset="0%" stop-color="#b4ec51"/><stop offset="100%" stop-color="#429321"/></linearGradient><linearGradient id="q" x1=".007" x2=".007" y1="-.002" y2="1.228"><stop offset="0%" stop-color="#b4ec51"/><stop offset="100%" stop-color="#429321"/></linearGradient><linearGradient id="r" x1=".005" x2=".005" y1="-.005" y2=".943"><stop offset="0%" stop-color="#b4ec51"/><stop offset="100%" stop-color="#429321"/></linearGradient><linearGradient id="s" x1=".002" x2=".002" y1=".005" y2="1.091"><stop offset="0%" stop-color="#b4ec51"/><stop offset="100%" stop-color="#429321"/></linearGradient><linearGradient id="t" x1="-.007" x2="-.007" y1="-.003" y2="1.769"><stop offset="0%" stop-color="#b4ec51"/><stop offset="100%" stop-color="#429321"/></linearGradient><linearGradient id="u" x1=".005" x2=".005" y1="-.002" y2="1.91"><stop offset="0%" stop-color="#b4ec51"/><stop offset="100%" stop-color="#429321"/></linearGradient><linearGradient id="v" x1="-.016" x2="-.016" y1=".001" y2="1.09"><stop offset="0%" stop-color="#b4ec51"/><stop offset="100%" stop-color="#429321"/></linearGradient><linearGradient id="w" x1=".006" x2=".006" y1="0" y2="1.01"><stop offset="0%" stop-color="#b4ec51"/><stop offset="100%" stop-color="#429321"/></linearGradient></defs><path d="M10.4 103.1l.3-6.5-.9-1.2-.3 7.7c.054 41.264 27.49 77.48 67.2 88.7l-.6-1.2c-38.923-11.37-65.683-47.05-65.7-87.6v.1z" fill="url(#B)" transform="matrix(4.96823 0 0 4.96823 151.869287 14.962172)"/><path d="M12.4 98.3c.4-.8 1.2-1.7 2.2-1.4a1.4 1.4 0 0 1 .8 1.1 3.8 3.8 0 0 1 0 1.5c-.8 4-2.2 9-4.8 12.3-1.8-3.8 0-10 1.8-13.5z" fill="url(#C)" transform="matrix(4.96823 0 0 4.96823 151.603479 15.213611)"/><path d="M13.7 115.2c.2-.9.7-1.9 1.6-1.9a1.5 1.5 0 0 1 1.3.9 3.8 3.8 0 0 1 .4 1.5c.2 3.4-.5 9.3-3.4 11.6-1.6-3.5-1-8.6 0-12.1h.1z" fill="url(#D)" transform="matrix(4.96823 0 0 4.96823 151.970196 15.121931)"/><path d="M20.1 138.7a4.5 4.5 0 0 1 .5-2 1.8 1.8 0 0 1 1.6-1c1 0 1.5 1 2 2a18.8 18.8 0 0 1 1.5 6.8c0 1 0 6.3-1.2 6.6s-3-4.4-3.4-5.4a18.3 18.3 0 0 1-1-7z" fill="url(#E)" transform="matrix(4.96823 0 0 4.96823 151.727533 15.455818)"/><path d="M29.4 150.6c.1-1 .5-2.2 1.5-2.4a1.7 1.7 0 0 1 1.6.7 4.5 4.5 0 0 1 .7 1.6 35.5 35.5 0 0 1 1.4 8 34.1 34.1 0 0 1 0 4.2c0 1.2.1 2.5-1.2 1.6-1.7-1-2.8-4.6-3.3-6.4a18.7 18.7 0 0 1-.7-7.3z" fill="url(#F)" transform="matrix(4.96823 0 0 4.96823 151.81664 15.268828)"/><path d="M7 117.9a8.7 8.7 0 0 0-2-2 3.5 3.5 0 0 0-2.7-.4 3.4 3.4 0 0 0-2.3 3.1 6.4 6.4 0 0 0 1.4 3.9c2 2.8 6.1 5.4 9.8 5.1 2.7-.1.6-2.7-.3-4.1a39.5 39.5 0 0 0-3.9-5.6z" fill="url(#G)" transform="matrix(4.96823 0 0 4.96823 151.600151 15.360055)"/><path d="M14.4 139.9a9 9 0 0 0-5-1.5 4.4 4.4 0 0 0-4 3 4.4 4.4 0 0 0 1 4 10.2 10.2 0 0 0 3.5 2.3c1.8.8 11.6 4.4 12.2 1.6.3-1.5-2-4.1-2.8-5.2a18.7 18.7 0 0 0-5-4.2h.1z" fill="url(#H)" transform="matrix(4.96823 0 0 4.96823 151.635249 15.087588)"/><path d="M24.2 155.6a7.4 7.4 0 0 0-3-1 3 3 0 0 0-3 4.4 6.8 6.8 0 0 0 2.3 2.4 16 16 0 0 0 5.6 2.6c1 .3 5.5 1.2 6.3.1 1.5-2.1-6.7-7.7-8.2-8.5z" fill="url(#I)" transform="matrix(4.96823 0 0 4.96823 151.800604 15.170492)"/><path d="M55.8 172.2a4.2 4.2 0 0 1 .6-2 1.8 1.8 0 0 1 1.9-.7 2.6 2.6 0 0 1 1.3 1.5 33.7 33.7 0 0 1 3 8.6c.4 1.5 2 7.3-1.1 5.6-4.2-2.2-6.3-8.6-5.7-13z" fill="url(#J)" transform="matrix(4.96823 0 0 4.96823 151.890315 15.139175)"/><path d="M43.6 166.7a4.6 4.6 0 0 1 0-1.9 1.8 1.8 0 0 1 1.4-1.3 1.9 1.9 0 0 1 1.8.8 5.3 5.3 0 0 1 .7 1.9l1.7 6.6c.3 1.4 1.7 4.8.9 6-3.7-2.5-6-7.8-6.5-12.1z" fill="url(#K)" transform="matrix(4.96823 0 0 4.96823 151.49319 14.939024)"/><path d="M43.5 177.7a6.5 6.5 0 0 0-3-.1 2.5 2.5 0 0 0-2 2 2.5 2.5 0 0 0 1.2 2 6.1 6.1 0 0 0 2.1 1 24.2 24.2 0 0 0 6.2.7c1 0 5.7 0 6.1-1 .7-1.8-9.3-4.3-10.6-4.6z" fill="url(#L)" transform="matrix(4.96823 0 0 4.96823 151.674128 15.131308)"/><path d="M34 168.4a5 5 0 0 0-2.8-.1 2 2 0 0 0-1.5 2c.1.9 1 1.5 1.7 1.9 1.6.9 16.1 5.2 14.3 3.5a56 56 0 0 0-11.8-7.3h.1z" fill="url(#M)" transform="matrix(4.96823 0 0 4.96823 151.800906 15.367617)"/><path d="M91.8 8.3l6.5-.5c.3-.4.7-.8 1.1-1-2.5 0-5.1.3-7.7.6C50.764 12.598 18.236 44.31 12 85.1l1.1-.8c6.53-39.954 38.542-70.867 78.7-76z" fill="url(#N)" transform="matrix(4.96823 0 0 4.96823 151.969589 14.96142)"/><path d="M96.8 9.6c.9.4 1.9 1 1.7 2a1.4 1.4 0 0 1-1 1 4 4 0 0 1-1.5.1c-4-.2-9.3-1-12.8-3.1 3.5-2.3 10-1.3 13.6 0z" fill="url(#O)" transform="matrix(4.96823 0 0 4.96823 151.587893 15.033585)"/><path d="M80.2 13c.9.2 2 .6 2 1.5a1.5 1.5 0 0 1-.6 1.4 4 4 0 0 1-1.5.5c-3.3.7-9.4.7-12-1.8 3.3-2 8.4-2.2 12-1.5l.1-.1z" fill="url(#P)" transform="matrix(4.96823 0 0 4.96823 151.789104 15.070196)"/><path d="M57.6 22.4a4.5 4.5 0 0 1 2 .2 1.8 1.8 0 0 1 1.2 1.5c.1 1-.8 1.7-1.6 2.1a19 19 0 0 1-6.6 2.5c-1 .1-6.3.8-6.8-.4s4-3.6 5-4a18.7 18.7 0 0 1 6.8-1.9z" fill="url(#Q)" transform="matrix(4.96823 0 0 4.96823 151.693341 15.316489)"/><path d="M47 33.1c1 0 2.2.2 2.5 1.2a1.7 1.7 0 0 1-.5 1.6 4.8 4.8 0 0 1-1.5 1 36.4 36.4 0 0 1-12 3c-1.3.1-2.5.4-1.8-1 .8-1.7 4.2-3.3 6-4A19 19 0 0 1 47 33v.1z" fill="url(#R)" transform="matrix(4.96823 0 0 4.96823 151.818455 15.162782)"/><path d="M76.6 6.8a9 9 0 0 0 1.7-2.3 3.5 3.5 0 0 0 .1-2.7A3.4 3.4 0 0 0 75 0a6.5 6.5 0 0 0-3.6 1.9c-2.6 2.3-4.7 6.7-4 10.3.6 2.6 2.8.2 4.2-.8a40 40 0 0 0 5-4.6z" fill="url(#S)" transform="matrix(4.96823 0 0 4.96823 151.61921 15.112859)"/><path d="M55.6 17a9 9 0 0 0 .9-5.2A4.4 4.4 0 0 0 53 8a4.5 4.5 0 0 0-3.8 1.6 9.8 9.8 0 0 0-2 3.8c-.5 1.8-2.8 12 0 12.2 1.6 0 3.9-2.4 4.8-3.4a18.6 18.6 0 0 0 3.6-5.4v.2z" fill="url(#T)" transform="matrix(4.96823 0 0 4.96823 151.826624 15.236913)"/><path d="M41.3 28.6a7.5 7.5 0 0 0 .6-3A3 3 0 0 0 37 23a6.8 6.8 0 0 0-2.1 2.6 15.6 15.6 0 0 0-1.8 5.9c-.1 1-.5 5.6.6 6.2 2.3 1.3 6.9-7.6 7.5-9.1h.1z" fill="url(#U)" transform="matrix(4.96823 0 0 4.96823 151.591375 15.259454)"/><path d="M28.7 62a4.3 4.3 0 0 1 2 .3 1.8 1.8 0 0 1 1 1.7 2.6 2.6 0 0 1-1.3 1.6 34 34 0 0 1-8.1 4c-1.5.6-7 2.9-5.8-.4 1.7-4.4 7.8-7.2 12.2-7.3v.1z" fill="url(#V)" transform="matrix(4.96823 0 0 4.96823 151.86248 15.409528)"/><path d="M32.7 49.2a4.5 4.5 0 0 1 1.9-.1 1.8 1.8 0 0 1 1.4 1 1.9 1.9 0 0 1-.5 1.9 5.3 5.3 0 0 1-1.8 1l-6.4 2.5c-1.3.5-4.6 2.3-5.8 1.7 2-4 7-7 11.2-8z" fill="url(#W)" transform="matrix(4.96823 0 0 4.96823 151.614976 15.486987)"/><path d="M21.7 50.5a6.4 6.4 0 0 0-.3-3 2.5 2.5 0 0 0-2.3-1.6 2.4 2.4 0 0 0-1.8 1.3 6 6 0 0 0-.7 2.3 24.1 24.1 0 0 0 .1 6.1c.1 1 .7 5.7 1.7 6 2 .4 3.2-9.7 3.3-11v-.1z" fill="url(#X)" transform="matrix(4.96823 0 0 4.96823 151.906807 15.406049)"/><path d="M29.7 39.9a5 5 0 0 0-.2-2.7 2 2 0 0 0-2.1-1.2c-.9.2-1.4 1.1-1.7 2-.7 1.5-3.2 16.5-1.7 14.5 1.8-2.5 5.5-11 5.7-12.6z" fill="url(#Y)" transform="matrix(4.96823 0 0 4.96823 151.648259 15.207411)"/><path d="m190.4,93.5c0.2,2.1 0.2,4.3 0.1,6.4l1,1.3l0,-7.8a92.3,92.3 0 0 0 -72.2,-84.8l0.7,1.2a91.3,91.3 0 0 1 70.4,83.7z" fill="url(#Z)" transform="matrix(4.96823 0 0 4.96823 151.937058 15.244173)"/><path d="M188.8 98.3c-.4.9-1.2 1.9-2.1 1.6a1.5 1.5 0 0 1-1-1 4.2 4.2 0 0 1 0-1.6c.5-4 1.6-9.1 4-12.5 2.2 3.6.7 10-1 13.5h.1z" fill="url(#a)" transform="matrix(4.96823 0 0 4.96823 151.879114 15.135548)"/><path d="M186.6 81.6c-.3.9-.7 1.9-1.6 2a1.5 1.5 0 0 1-1.3-.8 3.7 3.7 0 0 1-.5-1.5c-.4-3.4 0-9.3 2.7-11.7 1.8 3.3 1.5 8.4.7 12z" fill="url(#b)" transform="matrix(4.96823 0 0 4.96823 151.583804 15.233582)"/><path d="M178.8 58.5a4.5 4.5 0 0 1-.4 2 1.9 1.9 0 0 1-1.5 1.1c-1 0-1.6-1-2-1.8A18.7 18.7 0 0 1 173 53c-.1-1-.5-6.3.8-6.7s3.3 4.2 3.7 5.2a18.5 18.5 0 0 1 1.3 7z" fill="url(#c)" transform="matrix(4.96823 0 0 4.96823 151.985166 14.81558)"/><path d="M168.8 47.1c0 1-.3 2.2-1.3 2.4a1.7 1.7 0 0 1-1.6-.5 4.6 4.6 0 0 1-.8-1.6 35.9 35.9 0 0 1-2.1-12.1c0-1.3-.2-2.5 1.2-1.8 1.7 1 3 4.5 3.6 6.3a18.8 18.8 0 0 1 1 7.4v-.1z" fill="url(#d)" transform="matrix(4.96823 0 0 4.96823 151.47382 15.415278)"/><path d="M193.1 78.5a8.9 8.9 0 0 0 2.1 1.8 3.5 3.5 0 0 0 2.7.4 3.3 3.3 0 0 0 2.1-3.3 6.4 6.4 0 0 0-1.6-3.8c-2.2-2.7-6.5-5-10.1-4.6-2.6.4-.4 2.8.6 4.2a40.5 40.5 0 0 0 4.2 5.3z" fill="url(#e)" transform="matrix(4.96823 0 0 4.96823 151.947495 15.079573)"/><path d="M184.5 57a8.9 8.9 0 0 0 5 1.2 4.4 4.4 0 0 0 4-3.2 4.5 4.5 0 0 0-1.3-3.9 10 10 0 0 0-3.7-2.2c-1.8-.7-11.8-3.7-12.2-.8-.2 1.5 2.2 4 3 5a18.6 18.6 0 0 0 5.2 3.9z" fill="url(#f)" transform="matrix(4.96823 0 0 4.96823 151.774273 15.367925)"/><path d="M173.8 41.8a7.5 7.5 0 0 0 3 .9 3.3 3.3 0 0 0 2.8-1.4 3.2 3.2 0 0 0 0-3.2 6.8 6.8 0 0 0-2.4-2.3 16 16 0 0 0-5.7-2.3c-1.1-.2-5.6-.9-6.3.2-1.5 2.3 7 7.4 8.6 8.1z" fill="url(#g)" transform="matrix(4.96823 0 0 4.96823 151.980325 14.80726)"/><path d="M141.3 27a4 4 0 0 1-.5 2 1.8 1.8 0 0 1-1.8.8 2.6 2.6 0 0 1-1.4-1.4A34 34 0 0 1 134 20c-.4-1.5-2.3-7.1.9-5.7 4.3 2 6.7 8.3 6.4 12.6v.1z" fill="url(#h)" transform="matrix(4.96823 0 0 4.96823 151.958844 14.89894)"/><path d="M153.8 31.8a4.6 4.6 0 0 1 0 1.9 1.8 1.8 0 0 1-1.2 1.4 2 2 0 0 1-1.8-.7 5.7 5.7 0 0 1-1-1.9l-2-6.5c-.3-1.3-1.8-4.7-1.1-5.9 3.8 2.3 6.4 7.4 7.1 11.7z" fill="url(#i)" transform="matrix(4.96823 0 0 4.96823 151.771854 15.176852)"/><path d="M153.3 20.8a6.5 6.5 0 0 0 3 0 2.5 2.5 0 0 0 1.8-2.2 2.4 2.4 0 0 0-1.2-2 6.1 6.1 0 0 0-2.2-.7 23.9 23.9 0 0 0-6.2-.4c-1 0-5.7.3-6 1.3-.7 1.9 9.4 3.8 10.8 4z" fill="url(#j)" transform="matrix(4.96823 0 0 4.96823 152.071854 15.178214)"/><path d="M163.4 29.5a5 5 0 0 0 2.6 0 2 2 0 0 0 1.5-2c-.2-.8-1-1.4-1.9-1.8-1.6-.8-16.3-4.3-14.4-2.7 2.3 2 10.6 6.2 12.2 6.5z" fill="url(#k)" transform="matrix(4.96823 0 0 4.96823 152.057784 15.032374)"/><path d="m114.5,192.6l-6.5,1l-1,1c2.5,-0.2 5,-0.6 7.6,-1a92.4,92.4 0 0 0 75.3,-82l-1,0.8a91.4,91.4 0 0 1 -74.4,80.2z" fill="url(#l)" transform="matrix(4.96823 0 0 4.96823 152.014668 15.66081)"/><path d="M109.4 191.6c-.9-.3-2-1-1.8-1.9a1.5 1.5 0 0 1 1-1 4 4 0 0 1 1.5-.3c4 0 9.3.4 13 2.4-3.4 2.5-10 2-13.7.8z" fill="url(#m)" transform="matrix(4.96823 0 0 4.96823 151.863081 15.152185)"/><path d="M125.8 187.2c-.9 0-2-.4-2.1-1.3a1.5 1.5 0 0 1 .6-1.4 3.9 3.9 0 0 1 1.4-.6c3.3-.9 9.3-1.3 12 1.2-3 2.2-8.2 2.5-11.9 2.1z" fill="url(#n)" transform="matrix(4.96823 0 0 4.96823 151.752339 15.186981)"/><path d="M147.8 176.6a4.5 4.5 0 0 1-2 0 1.8 1.8 0 0 1-1.3-1.5c0-.9.7-1.7 1.5-2.2a19.2 19.2 0 0 1 6.5-2.8c1-.2 6.3-1.2 6.8 0s-3.8 3.8-4.7 4.3a18.7 18.7 0 0 1-6.8 2.2z" fill="url(#o)" transform="matrix(4.96823 0 0 4.96823 151.52904 15.69621)"/><path d="M157.9 165.3c-1 .1-2.2 0-2.6-1a1.7 1.7 0 0 1 .4-1.6 4.4 4.4 0 0 1 1.5-1 35.8 35.8 0 0 1 7.6-2.9 34.3 34.3 0 0 1 4.2-.8c1.3-.2 2.5-.5 1.9 1-.8 1.7-4.1 3.5-5.8 4.3a19 19 0 0 1-7.2 2z" fill="url(#p)" transform="matrix(4.96823 0 0 4.96823 151.881687 15.134032)"/><path d="M129.7 193.3a8.9 8.9 0 0 0-1.5 2.3 3.4 3.4 0 0 0 0 2.7 3.4 3.4 0 0 0 3.5 1.7 6.5 6.5 0 0 0 3.6-2.1c2.4-2.5 4.2-7 3.3-10.6-.7-2.5-2.8 0-4.1 1.1a40 40 0 0 0-4.8 4.9z" fill="url(#q)" transform="matrix(4.96823 0 0 4.96823 151.738118 15.334787)"/><path d="M150.1 182a8.9 8.9 0 0 0-.6 5.2 4 4 0 0 0 7.4 1.7 9.9 9.9 0 0 0 1.7-4c.5-1.8 2.3-12-.7-12-1.5 0-3.7 2.5-4.5 3.6a18.6 18.6 0 0 0-3.3 5.5z" fill="url(#r)" transform="matrix(4.96823 0 0 4.96823 151.708465 15.075786)"/><path d="M163.8 169.5a7.4 7.4 0 0 0-.5 3.2 3 3 0 0 0 5 2 6.8 6.8 0 0 0 2-2.6 15.7 15.7 0 0 0 1.4-6c0-1 .2-5.6-1-6.2-2.3-1-6.4 8-6.9 9.6z" fill="url(#s)" transform="matrix(4.96823 0 0 4.96823 152.021475 15.127829)"/><path d="M174.5 135.6a4.2 4.2 0 0 1-2-.3 1.8 1.8 0 0 1-1-1.6 2.6 2.6 0 0 1 1-1.6 34 34 0 0 1 8-4.6c1.5-.6 7-3.1 5.9.2-1.5 4.5-7.5 7.6-12 7.9h.1z" fill="url(#t)" transform="matrix(4.96823 0 0 4.96823 151.68683 15.155516)"/><path d="M171.2 148.5a4.5 4.5 0 0 1-1.9.3 1.8 1.8 0 0 1-1.5-1 1.9 1.9 0 0 1 .5-1.9 5.4 5.4 0 0 1 1.7-1.1l6.2-2.8c1.3-.6 4.5-2.5 5.8-2-1.8 4-6.6 7.3-10.8 8.5z" fill="url(#u)" transform="matrix(4.96823 0 0 4.96823 151.656573 15.384411)"/><path d="M182.1 146.6a6.3 6.3 0 0 0 .5 3 2.2 2.2 0 0 0 4.1 0 6 6 0 0 0 .5-2.2 24 24 0 0 0-.4-6.2c-.2-.9-1-5.6-2-5.8-2-.4-2.7 9.8-2.7 11.2z" fill="url(#v)" transform="matrix(4.96823 0 0 4.96823 151.667919 15.052641)"/><path d="M174.7 157.7a4.9 4.9 0 0 0 .4 2.6 2 2 0 0 0 2.2 1.1c.8-.2 1.3-1.1 1.5-2 .6-1.6 2.3-16.7.9-14.6a55.1 55.1 0 0 0-5 12.9z" fill="url(#w)" transform="matrix(4.96823 0 0 4.96823 152.035998 15.46081)"/><path d="M280.25 605.66q-12.5 0-18.8-4.6-6.3-4.7-6.3-12 0-6.5 6.2-6.5l2 .1q-.5 1.7-.3 4.7.4 6.5 5.1 10.3 4.8 3.9 13 3.9 7.4 0 11.8-3.5 4.5-3.5 4.5-10.2 0-4.4-2-7.6-2-3.1-5.6-5.8-3.6-2.7-10.4-6.4-7.6-4.3-12-7.4-4.4-3.3-7-7.4-2.5-4.2-2.5-9.9 0-9.2 6.7-13.8 6.7-4.6 17-4.6 10.2 0 16.3 3.7 6.1 3.7 6.1 10.2 0 4.7-4.5 5.2l-1.4.2-2-.2q.3-1.3.3-2.3 0-1.3-.4-2.4-.4-4.9-4.6-7.6-4.1-2.6-10.6-2.6-6 0-10.2 2.6-4.2 2.7-4.2 8.8 0 4.3 2.1 7.5 2.2 3.2 5.7 5.6 3.7 2.5 10.3 6.2 7 3.8 11.6 7.2 4.7 3.4 7.5 7.8 2.8 4.5 2.8 10.5 0 5.4-2.7 10-2.6 4.6-8.5 7.5-5.8 2.8-15 2.8zm90.8-9q1.4 1.8 1.4 3.5 0 2.4-1.8 3.8-1.8 1.4-5 1.4-8.7 0-8.7-11.5v-2.2q-2.4 6.6-7.3 10.3-5 3.7-11.6 3.7-9.2 0-13.3-5.4-4.2-5.4-4.3-18.2v-22.1q0-7.7-1.5-12.1 2.5-2 5.3-2 2.3 0 3.7 1.3 1.4 1.4 1.4 3.7v30.1q0 7.3 1.1 11.6 1.1 4.2 3.5 6.2 2.4 2 6.7 2 3.8 0 7.3-2.8 3.6-2.7 5.9-8.7 2.3-6 2.3-15.2 0-14.5-.2-18.9-.3-4.4-1.4-7.4 2.4-2 5.2-2 2.2 0 3.7 1.4 1.4 1.5 1.4 4l.2 41.5q0 3.1.7 4.4.7 1.3 2.4 1.3 2 0 3-1.7h-.1zm60-5.3q.2 8.6 1.4 12-2.2 2-5.2 2-2.3 0-3.8-1.3-1.4-1.3-1.4-3.6v-30.3q-.1-9.7-2.8-14.4-2.6-4.8-8.9-4.8-4 0-7.6 2.7-3.6 2.7-6 8.6-2.3 5.8-2.3 14.9 0 14.5.2 18.9.2 4.3 1.3 7.4-2.3 2-5.1 2-2.4 0-3.8-1.5-1.5-1.4-1.5-4v-41.3q-.1-3.2-.9-4.5-.7-1.4-2.2-1.4-2.2 0-3 1.8-1.3-1.9-1.3-3.6 0-2.3 1.8-3.7 1.8-1.4 5-1.4 4.2 0 6.4 2.9 2.3 3 2.3 8.6v2.3q2.3-6.6 7.4-10.3 5-3.6 11.9-3.6 18 0 18 23.3v22.3h.1zm73.5 5.4q.6 1.4.6 3 0 2.7-2.2 4.2-2.2 1.5-4.5 1.5-4.1 0-6.5-2.6-2.5-2.7-4.8-8.5l-5.2-13.4q-1.5-3.8-2.8-6-1.3-2-4-3.6-2.7-1.5-7.3-1.5h-8.3v21.8q0 2.7.3 6.2.3 3.4 1.1 5.5-.8.8-2.1 1.4-1.3.6-3 .6-2.4 0-3.8-1.4-1.5-1.3-1.6-3.6v-61q0-2.7-.4-6.2-.3-3.6-1-5.8 4.6-2.5 16.4-2.5 16 0 23.7 5 7.6 5 7.6 16.2 0 8-4.6 13.7-4.7 5.6-12.5 7.6 3.9 1.2 6.3 4 2.4 2.9 4.4 7.4l5.6 13.2q1.4 3.3 2.6 4.7 1.3 1.4 2.7 1.5 2 0 3.3-1.5v.1zm-45-31l8.7.2q8.2-.2 13.4-5.4 5.3-5.2 5.3-13.6 0-9.2-5-13.6-5-4.4-16-4.4-4.4 0-6.4.4v36.4zm106.7 30.3q1.3 1.6 1.3 3.4 0 2.5-2.3 4.2-2.4 1.7-5.6 1.7-4.8 0-7.3-3.4-2.5-3.4-2.5-10.6v-3.2q-3.7 8-10 12.6-6.4 4.7-13.9 4.7-6.5 0-10.3-3.6-3.7-3.5-3.7-9.4 0-6.7 5-11.3 5-4.6 13.6-7 7.5-2 15.6-2 2.3 0 3.3.2v-3q0-10-3.3-14.8-3.3-4.8-11-4.8-5 0-8.3 2.1-3.4 2.2-3.4 7 0 2.6 1.2 4.8 1.2 2.3 3.7 3.2-1.8 2.2-5.4 2.2-3.7 0-6-3-2.4-3-2.4-6.9 0-6.5 5.7-10 5.7-3.4 15.7-3.4 11.6 0 17 6 5.6 5.9 5.6 18.2v22.5q0 6 4 6 1 0 2-.7 1.2-.6 1.7-1.7zm-36.7 3.1q4.5 0 9.2-3.3 4.6-3.3 7.7-8.7 3-5.4 3.2-11.2l-2.6-.1q-4 0-8 .6-4 .6-6.8 1.7-5 1.8-7.7 5-2.9 3-2.9 7.4 0 3.7 2 6.1 1.9 2.5 6 2.5h-.1zm92.3-48v47.6q0 31.6-26.3 31.6-8 0-13.6-3-5.6-2.8-5.6-9.1 0-3.2 1.9-5.3 1.8-2.1 4.9-2.1 3 0 4.3 1.7-1.4.8-2.1 2.4-.7 1.5-.7 2.8 0 4.4 3.2 6.6 3.2 2.2 7.7 2.2 9.2 0 13.6-7 4.4-7 4.4-20.7 0-3.7.3-8.1-2.4 6.8-7.3 10.6-5 3.9-12.1 3.9-8.7 0-12.8-5.5-4.2-5.4-4.3-18.1v-21.8q0-7.7-1.4-12.1 2.4-2 5.2-2 2.3 0 3.7 1.3 1.4 1.4 1.4 3.7l.1 29.8q0 10.3 2.4 15 2.4 4.6 8 4.6 6.9 0 11.6-6.6 4.7-6.5 4.7-20.1 0-14.1-.2-18.4-.2-4.3-1.4-7.3 2.4-2 5.2-2 2.3 0 3.7 1.4 1.5 1.5 1.5 4zm58.4 38.6q1.6.5 1.6 2.6 0 1-.6 3-2.2 5-7.5 7.6-5.3 2.7-12.5 2.7-12.4 0-19.3-7.7-7-7.7-7-22 0-14 7-22.1 6.8-8.1 19.7-8.1 9.3 0 15 4.2 5.6 4.2 5.6 12 0 8.2-6.8 12.6-6.7 4.4-18.7 4.4-6.6 0-12.1-.8.6 11.3 5.6 16.3 5 5 13.1 5 6.2 0 10.7-2.5 4.5-2.5 6.2-7.2zm-19-40q-7.6 0-12 6.4-4.6 6.3-4.7 18.2l8.7.5q9 0 14.2-3.1 5.2-3.3 5.2-11 0-6-3.2-8.5-3.3-2.5-8.1-2.5h-.1zm116.3 41.6q0 8.2 1.4 12-2.3 2-5.2 2-2.3 0-3.7-1.3-1.5-1.3-1.5-3.6l-.1-34.6h-36.6v25.5q0 8.2 1.4 12-2.3 2-5.2 2-2.3 0-3.7-1.3-1.5-1.3-1.5-3.6l-.1-61q0-7.8-1.5-12 2.4-2 5.3-2 2.4 0 3.8 1.2 1.5 1.3 1.5 3.7v30h36.6v-21q0-7.7-1.5-12 2.4-2 5.3-2 2.3 0 3.8 1.3 1.5 1.3 1.5 3.7v61zm41.4 14.3q-12.1 0-19-8-6.7-7.8-6.7-22 0-14.1 6.8-22 6.8-8 18.9-8 12.2 0 19 8 6.8 7.9 6.8 22 0 14.2-6.8 22-6.8 8-19 8zm0-4q7.8 0 12-6.7 4.2-6.7 4.2-19.3 0-12.5-4.2-19.2-4.2-6.6-12-6.6-7.9 0-12 6.6-4.2 6.7-4.2 19.2 0 12.6 4.2 19.3 4.1 6.7 12 6.7zm86.5-10.3q.3 8.6 1.5 12-2.2 2-5.2 2-2.3 0-3.8-1.3-1.4-1.3-1.4-3.6v-30.3q-.2-9.7-2.8-14.4-2.6-4.8-9-4.8-3.9 0-7.5 2.7-3.6 2.7-6 8.6-2.4 5.8-2.4 14.9 0 14.5.3 18.9.2 4.3 1.3 7.4-2.4 2-5.2 2-2.3 0-3.8-1.5-1.4-1.4-1.4-4v-41.3q-.1-3.2-.9-4.5-.7-1.4-2.3-1.4-2.1 0-2.9 1.8-1.3-1.9-1.3-3.6 0-2.3 1.8-3.7 1.8-1.4 4.9-1.4 4.3 0 6.5 2.9 2.2 3 2.2 8.6v2.3q2.4-6.6 7.5-10.3 5-3.6 11.9-3.6 18 0 18 23.3v22.3zm58.8-1.6q1.7.5 1.7 2.6 0 1-.6 3-2.2 5-7.5 7.6-5.3 2.7-12.5 2.7-12.4 0-19.3-7.7-7-7.7-7-22 0-14 7-22.1 6.8-8.1 19.7-8.1 9.3 0 15 4.2 5.6 4.2 5.6 12 0 8.2-6.8 12.6-6.6 4.4-18.6 4.4-6.6 0-12.1-.8.6 11.3 5.6 16.3 5 5 13.1 5 6.2 0 10.7-2.5 4.5-2.5 6.1-7.2h-.1zm-18.8-40q-7.6 0-12.2 6.4-4.5 6.3-4.6 18.2l8.7.5q9 0 14.2-3.1 5.2-3.3 5.2-11 0-6-3.2-8.5-3.3-2.5-8.1-2.5zm79.2 1.4l.2 47.6q0 31.6-26.4 31.6-8.1 0-13.7-3-5.5-2.8-5.5-9.1 0-3.2 1.8-5.3 1.9-2.1 5-2.1 3 0 4.3 1.7-1.5.8-2.1 2.4-.7 1.5-.7 2.8 0 4.4 3.2 6.6 3.2 2.2 7.7 2.2 9.2 0 13.6-7 4.3-7 4.3-20.7 0-3.7.4-8.1-2.4 6.8-7.3 10.6-5 3.9-12.2 3.9-8.6 0-12.8-5.5-4.1-5.4-4.2-18.1v-21.8q0-7.7-1.5-12.1 2.5-2 5.3-2 2.3 0 3.7 1.3 1.4 1.4 1.4 3.7v29.8q0 10.3 2.5 15 2.4 4.6 8 4.6 6.9 0 11.6-6.6 4.7-6.5 4.7-20.1 0-14.1-.2-18.4-.3-4.3-1.4-7.3 2.4-2 5.2-2 2.2 0 3.7 1.4 1.4 1.5 1.4 4z" fill="#cc9c15"/><path d="M329.1 652.962q0-12.3 7.5-19.9 7.3-7.5 19.2-7.5 9.6 0 15.5 6.1 5.9 6 5.9 15.6 0 5.6-2 10.6-2.2 5.1-5.6 8.9-3.5 3.7-8 6.2-4.5 2.5-9.4 3.4v11.7q0 2-2.5 2-1.5 0-3-.7-1.4-.8-1.4-1.8v-46.3q0-1-.2-1.9l-.2-1q0-.6.7-1 .7-.5 1.7-.5 2.1 0 3.5 1.1 1.4 1.2 1.4 2.8v29q2-.2 4.2-1.1 2.3-1 4.8-2.8 2.5-1.9 4.5-4.3 2-2.5 3.3-6.2 1.4-3.7 1.4-8 0-2-.5-4.1-.5-2-1.7-4-1-2.1-2.7-3.6-1.6-1.5-4.1-2.5-2.5-.9-5.5-.9-5.2 0-9.1 1.6-4 1.6-6.3 4.5-2.3 2.8-3.4 6.4-1.2 3.5-1.2 7.7l.1 2.4.3 2 .5 1.8.4 1.4.6 1.2.5.9.5.5.3.5.2.1q1.3-.3 1.3 1.2 0 1-.7 2.6-.7 1.7-1.9 2.7-1.2 1.1-2.4.2-.8-.7-1.6-1.8-.9-1.1-2-3.2-1.3-2-2-5.2-.8-3.1-.8-6.8h-.1zm48.9 24.5q0-4.2.8-9.1.8-5 1.6-8l.8-2.8.3-.9q0-.6.3-1l.5-.7q.5-.4 1.3-.5 1-.2 2.3-.2 1.2 0 1.8.4.6.3.6 1l-.1 1.2-.5 1.3-.4 1-1.4 6q-.5 2-.8 5.2-.4 3.1-.4 6.6 0 3.6 1 5.5 1.2 2 3.1 2 2.5 0 4.5-3.6 1.9-3.4 2.8-8.4v-14.3q0-1.5-.5-2.4l-.4-1q0-.4.9-.7.9-.2 2-.2 2 0 3.4 1 1.3 1.2 1.3 2.8v22.6q0 4 2.3 4 4 0 6-9.5.2-1.3.8-2 .6-.7 1.3-.7 1 0 2 1.2 1 1.2 1 2.5v.6q-.7 2.5-1.6 4.6-1 2.2-2.4 4.4-1.5 2.2-3.8 3.5-2.2 1.3-4.9 1.3-2.9 0-4.8-1.8-2-1.7-2.5-4.5-3.6 6.4-8.8 6.4-4.4 0-7-3.5-2.4-3.5-2.4-9.3zm30.7-24.3q0-1.8 1.4-3 1.3-1 3-1 1.9 0 3.4 1 1.5 1.1 2.3 3.7 2.9.3 4.6.3h4.6q1 0 2.8 1.8 1.5 1.6 1.5 2.9v.3l-1 3.5q-1 3.3-2 8.1-1 4.9-1 8.8 0 2 1 3.3.9 1.4 2.6 1.4 4.4 0 6.3-9.5.3-1.3.9-2 .5-.7 1.2-.7 1.1 0 2.1 1.2 1 1.2 1 2.5v.6q-.7 2.5-1.7 4.6-.9 2.2-2.4 4.4-1.5 2.2-3.7 3.5-2.2 1.3-5 1.3-1.6 0-3.1-.5-1.5-.5-3-1.6-1.3-1.1-2.1-3.2-.8-2-.8-4.8 0-7.7 4.4-19.6h-7.7q-.3 10-2.2 16.3-.6 1.7-1.9 1.7l-.6-.1q-1.4-.4-2.2-2-.5-1-.3-2 1.2-4.2 1.4-15.5-3.8-2.2-3.8-5.7zm28.7 19.4q0-8.2 4.1-14 4.2-5.6 9.4-5.6 3.7 0 5.9 2.4 2.1 2.5 2.1 6.5 0 3.4-1.4 6.7-1.4 3.3-4.5 6.2-3 2.8-7.2 4 2.3 5.5 8.3 5.5 2.4 0 4.4-1 2-.9 3.2-2.6 1.2-1.7 2-3.5.7-1.8 1.2-4 .3-2 1.7-2.3h.8q1 0 1.9.6 1 1 1 2.2v.4q-.2 1.8-.8 3.7-.5 2-1.8 4.2-1.3 2.4-3 4.1-2 1.7-4.9 2.9-3 1.2-6.7 1.2-3 0-5.8-1.2-2.8-1.3-5-3.4-2.3-2.2-3.6-5.6-1.3-3.3-1.3-7.4zm7.3-.2v1.6q3.4-1.5 5.3-4.8 2-3.2 2-7.2 0-1.5-.5-2.3-.5-.8-1.3-.8-1.6 0-2.7 1.5-1.2 1.6-1.7 3.8-.7 2.3-1 4.5l-.1 3v.7zm38.1-21.4q0-12.4 7.4-19.9 7.4-7.5 19.3-7.5 10.1 0 16.1 5.4 6 5.4 6 14.7 0 13-11.4 19.1 4.2 1.2 6.7 4.7 2.6 3.5 2.6 8.9 0 6.6-4.4 11-4.5 4.3-11 4.3-4.3 0-7.3-1.3-3-1.3-4.7-3.8-1.7-2.5-2.4-5.7-.7-3.2-.7-7.5v-32.1q0-1-.2-1.9l-.2-1q0-.6.7-1 .7-.5 1.6-.5 2.2 0 3.6 1.1 1.4 1.2 1.4 2.8v33q0 6.2 2 9 2 2.9 6 2.9 3.8 0 6.2-2.6 2.5-2.6 2.5-6.5 0-2.8-1-5-1-2-2.8-3.2-1.7-1.1-3.7-1.6-2-.5-4.2-.5-.8 0-1.4-1.7-.5-1.2-.5-2.5l.1-.8q.2-1.6 1.4-1.7 1.1 0 2.5-.3 1.4-.2 3-.9 1.7-.6 3.2-1.8 1.5-1.2 2.8-2.8 1.3-1.7 2-4.2.8-2.5.8-5.6 0-2.6-.8-5-1-2.3-2.7-4.3-1.7-2-4.8-3.1-3-1.2-7-1.2-5.1 0-9 1.6-4 1.6-6.3 4.5-2.3 2.8-3.5 6.3-1.1 3.6-1.1 7.8v2.4l.4 2 .4 1.8.5 1.4.5 1.1 1 1.5.3.4.2.2q1.4-.3 1.4 1.2 0 1-.7 2.6-.7 1.6-2 2.7-1.1 1-2.3.2-.9-.8-1.7-1.8l-2-3.2q-1.2-2-2-5.2-.8-3.2-.8-6.8v-.1zm51.2 2.2q0-1.8 1.3-3 1.4-1 3.1-1 1.9 0 3.4 1 1.5 1.1 2.2 3.7 3 .3 4.7.3h4.6q1 0 2.8 1.8 1.5 1.6 1.5 2.9v.3l-1 3.5q-1 3.3-2 8.1-1 4.9-1 8.8 0 2 1 3.3.8 1.4 2.5 1.4 4.5 0 6.4-9.5.3-1.3.8-2 .6-.7 1.3-.7 1 0 2.1 1.2 1 1.2 1 2.5v.6q-.8 2.5-1.7 4.6-1 2.2-2.4 4.4-1.5 2.2-3.7 3.5-2.3 1.3-5 1.3-1.6 0-3.1-.5-1.6-.5-3-1.6-1.3-1.1-2.2-3.2-.8-2-.8-4.8 0-7.7 4.5-19.6h-7.8q-.2 10-2.2 16.3-.5 1.7-1.8 1.7l-.6-.1q-1.5-.4-2.2-2-.6-1-.3-2 1.2-4.2 1.4-15.5-3.8-2.2-3.8-5.7zm28.7 20.5q0-3.7.7-7.2.8-3.4 2-5.8 1-2.4 2.3-4.3 1.2-1.8 2.3-2.7 1.1-1 1.7-1 .8 0 1.6.8.7.8 1 1.8.3 1 .2 2-.2 1.2-1 1.7-1.9 2.7-2.6 4.6-1.5 3.9-1.5 9.6 0 5.3 1.8 8.2 1.8 3 4.6 3 3.3 0 5.2-3.5-3-2.6-4.7-6.7-1.7-4.2-1.7-9 0-4.5 2-7.4 1.8-3 5.2-3 3.1 0 5.3 4.3 2.3 4.2 2.3 10.6 0 5.2-1.3 9.6.8.2 1.8.2 2.7 0 4.3-1.8 1.6-1.8 2-4.6.2-1 1.8-1.4h.8q1.3 0 2.1 1 .5.6.5 1.7v1.2q-1 3.9-3.8 6.3-2.7 2.5-7 2.5-2.5 0-4.4-.6-3.6 6.4-10.6 6.4-6.4 0-9.6-4.7-3.3-4.7-3.3-11.8zm16.6-8.8q0 6 3.4 10.3.3-2.1.3-4 0-5.3-.5-8-.4-2.5-1.7-2.5-1.5 0-1.5 4.2zm16.6-9.6q0-.6.6-1 .7-.4 1.7-.4 2.2 0 3.4 1 1.3 1.2 1.3 2.8v4q4.3-8.7 10-8.7 2.1 0 3.6.7 1.5.9 2.3 2.2.8 1.4 1.1 2.9.4 1.4.4 3.1v18.4q0 4 2.3 4 4 0 5.9-9.5.2-1.3.8-2 .6-.7 1.3-.7 1 0 2.1 1.2 1 1.2 1 2.5v.6l-1.2 3.7q-.7 1.7-1.8 3.6-1 2-2.4 3.3-1.3 1.4-3.2 2.3-2 .9-4.2.9-3.4 0-5.4-2.4-2-2.4-2-6v-20l-.3-1.5q-.2-.7-.6-1.1-.3-.4-1-.4-1.3 0-3.2 2.1-1.9 2.2-3.5 5.7-1.6 3.5-2 6.8v15l-.5 1-.7.5q-.5.3-1.2.3-4.3 0-4.3-4v-28q0-1-.2-1.9l-.1-1zm32 19q.8-2.7 1.5-8.3.9-5.7.9-8.8 0-2.4 1.2-3.3 1.2-1 4-1 3.1 0 4.7 2.4 2.7 4.6 6 11.7 3.6-5.4 7-11.8 1.2-2.3 2.5-2.3 1.3 0 2.5 1.5 1.2 1.5 1.2 3 0 .9-.4 1.4l-10 14.3q3 6.2 4.8 8.9 2 2.7 4.3 2.7 3.8 0 5.8-10 .3-1.2.9-2 .5-.6 1.2-.6 1.1 0 2.1 1.2 1 1.2 1 2.5v.6q-3.6 13.8-11.8 13.8-4 0-6.8-2.5-2.8-2.6-5.6-8.6l-6 8.4q-1.7 2.7-4 2.7-1.6 0-3-.9-1.6-.8-1.6-2 0-.4.3-.7l.6-.5q.4-.2 1.2-1l1.8-1.7q4.3-5.2 8-10.3-3-6.5-6.4-12.4 0 3-1 8-1 5-2 8-.4 1.8-1.7 1.8l-.6-.1q-1.5-.4-2.3-2-.5-1-.2-2l-.1-.1zm55.2-25.3q0-4.3 2.2-8.7 2.2-4.4 5.7-7.8 3.4-3.4 8-5.5 4.5-2.1 9-2.1 5 0 8 3 3 3.2 3 8.4 0 3.5-1.8 7.1-1.8 3.6-4.5 6.2-2.6 2.6-5.5 4.2-3 1.7-5 1.7-2 0-3.5-1.8-1.4-1.7-1.4-3.4 0-.7.2-.8.2-.2.9 0l1.2.2q2.4 0 5.3-2.1 3-2 5.2-5.3 2.2-3.1 2.2-6 0-4.8-4.8-4.8-2.5 0-5.5 1.4-3 1.4-5.7 3.7-2.7 2.3-4.5 5.6-1.8 3.3-1.8 6.8 0 2.7 1.2 5 1.2 2.4 3.1 4.1 2 1.7 4.2 3.3 2.4 1.5 4.7 3.2 2.3 1.6 4.2 3.4 2 1.8 3.1 4.3 1.2 2.5 1.2 5.5 0 5.4-3.8 9.2-3.8 3.9-9.4 3.9-2.1 0-3.8-.4-1.8-.4-2.8-1-1-.6-1.7-1.3-.7-.6-1-1.1l-.2-.7q0-1.5 1.2-3.3 1.2-1.8 2.2-1.8.6 0 1 .8 2.1 2.1 5.1 2.1 2.8 0 4.5-1.6 1.7-1.7 1.7-4.6 0-2-1.2-4-1.1-1.7-3-3.2l-4.3-3q-2.3-1.4-4.6-3.1-2.3-1.8-4.2-3.9-2-2-3.1-5.1-1.2-3-1.2-6.7zm35.1 6.3q0-.6.7-1 .7-.4 1.7-.4 2.1 0 3.4 1 1.3 1.2 1.3 2.8v20.3q0 1.4.2 2.4.1 1 .6 2 .4 1 1.3 1.4 1 .5 2.3.5 4.4 0 4.4-6.3v-19.8q0-1-.2-1.9l-.1-1q0-.6.6-1 .7-.4 1.6-.4 2.2 0 3.5 1 1.3 1.2 1.3 2.8v20.3q.1 3.2 1 4.7 1 1.6 3.4 1.6 4.4 0 4.4-6.3v-19.8q0-1-.2-1.9l-.2-1q0-.6.7-1 .7-.4 1.7-.4 2.1 0 3.4 1 1.3 1.2 1.3 2.8v20.3q0 12.2-10.8 12.2-2.7 0-4.9-1.2-2.1-1.3-3.1-3-1 1.7-3.2 3-2.4 1.2-4.9 1.2-10.8 0-10.8-12.2v-19.8q0-1-.2-1.9l-.2-1zm43.3 17.3q0-8.2 4.2-14 4.1-5.6 9.4-5.6 3.7 0 5.8 2.4 2.2 2.5 2.2 6.5 0 3.4-1.4 6.7-1.5 3.3-4.5 6.2-3.1 2.8-7.2 4 2.3 5.5 8.2 5.5 2.5 0 4.4-1 2-.9 3.2-2.6 1.3-1.7 2-3.5.8-1.8 1.2-4 .4-2 1.8-2.3h.7q1 0 2 .6 1 1 1 2.2v.4l-.8 3.7q-.6 2-1.8 4.2-1.3 2.4-3.2 4.1-1.8 1.7-4.7 2.9-3 1.2-6.8 1.2-3 0-5.8-1.2-2.8-1.3-5-3.4-2.2-2.2-3.6-5.6-1.3-3.3-1.3-7.4zm7.3-.2v1.6q3.4-1.5 5.4-4.8 2-3.2 2-7.2 0-1.5-.5-2.3-.5-.8-1.4-.8-1.5 0-2.7 1.5-1.2 1.6-1.7 3.8-.6 2.3-.9 4.5l-.2 3v.7zm19 .2q0-8.2 4.2-14 4.1-5.6 9.4-5.6 3.7 0 5.8 2.4 2.2 2.5 2.2 6.5 0 3.4-1.4 6.7-1.5 3.3-4.5 6.2-3.1 2.8-7.2 4 2.3 5.5 8.2 5.5 2.5 0 4.4-1 2-.9 3.2-2.6 1.3-1.7 2-3.5.8-1.8 1.2-4 .4-2 1.8-2.3h.7q1 0 2 .6 1 1 1 2.2v.4l-.8 3.7q-.6 2-1.9 4.2-1.2 2.4-3 4.1-1.9 1.7-4.9 2.9-3 1.2-6.6 1.2-3 0-5.9-1.2-2.8-1.3-5-3.4-2.2-2.2-3.5-5.6-1.4-3.3-1.4-7.4zm7.3-.2v.8l.1.8q3.3-1.5 5.3-4.8 2-3.2 2-7.2 0-1.5-.5-2.3-.5-.8-1.4-.8-1.5 0-2.7 1.5-1.1 1.6-1.7 3.8-.6 2.3-.9 4.5l-.2 3v.7zm11.2-25.8q.3-.6 1-.6l8 .3v-15q0-1.5-.4-2.4l-.5-1q0-.3 1-.6.8-.3 1.9-.3 2.1 0 3.4 1.1 1.3 1.1 1.3 2.8v15.5q8.6 0 17.7-.4 1.1-1.2 1.4.5l.1 1q0 1.4-.6 3-.7 1.4-1.5 1.5-7.1.2-17 .2v28q0 4.1 3 4.1 4 0 5.9-9.5.2-1.3.8-2 .6-.7 1.3-.7 1 0 2.1 1.2 1 1.2 1 2.5v.6l-1.2 3.7q-.7 1.7-1.8 3.6-1 2-2.4 3.3-1.3 1.4-3.2 2.3-2 .9-4.1.9-3.9 0-6-2.4-2.2-2.4-2.2-7.5v-28.1l-6.1-.2q-1.7 0-2.7-2.2-.5-1.1-.5-2 0-.7.3-1.2zm24.6 8.7q0-.6.7-1 .7-.4 1.7-.4 2.1 0 3.4 1 1.3 1.2 1.3 2.8v4q4.2-8.7 10-8.7 2.1 0 3.6.7 1.5.9 2.3 2.2.8 1.4 1.1 2.9.3 1.4.3 3.1v18.4q0 4 2.3 4 4 0 6-9.5.2-1.3.8-2 .6-.7 1.3-.7 1 0 2 1.2 1 1.2 1 2.5v.6l-1.1 3.7q-.7 1.7-1.8 3.6-1.1 2-2.4 3.3-1.3 1.4-3.3 2.3-1.9.9-4 .9-3.5 0-5.5-2.4-2-2.4-2-6v-20l-.3-1.5q-.2-.7-.6-1.1-.4-.4-1-.4-1.3 0-3.2 2.1-2 2.2-3.5 5.7-1.7 3.5-2 6.8v15l-.5 1-.7.5q-.5.3-1.2.3-4.3 0-4.3-4v-28q0-1-.2-1.9l-.2-1zm31.2 17.3q0-8.2 4.2-14 4.1-5.6 9.4-5.6 3.7 0 5.8 2.4 2.2 2.5 2.2 6.5 0 3.4-1.4 6.7-1.5 3.3-4.5 6.2-3.1 2.8-7.2 4 2.3 5.5 8.2 5.5 2.5 0 4.4-1 2-.9 3.2-2.6 1.3-1.7 2-3.5.8-1.8 1.2-4 .4-2 1.8-2.3h.7q1 0 2 .6 1 1 1 2.2v.4l-.8 3.7q-.6 2-1.9 4.2-1.2 2.4-3 4.1-1.9 1.7-4.9 2.9-3 1.2-6.6 1.2-3 0-5.9-1.2-2.8-1.3-5-3.4-2.2-2.2-3.5-5.6-1.4-3.3-1.4-7.4zm7.3-.2v.8l.1.8q3.3-1.5 5.3-4.8 2-3.2 2-7.2 0-1.5-.5-2.3-.5-.8-1.4-.8-1.5 0-2.7 1.5-1.1 1.6-1.7 3.8-.6 2.3-.9 4.5l-.2 3v.7zm17 11.6q-.6-1.4-.6-2.5 0-1 .4-2 .3-.9 1-1.4.5-.5 1-.5.7 0 3.4 1.3 2.7 1.3 5.9 2.5 3.2 1.3 5 1.3 2-2.3 2-5.4 0-2-.5-3.8-.5-1.8-1.6-3.4-1-1.6-2-2.7l-2.3-2.5q-1.6 3.7-3.5 10.6-.5 1.7-1.9 1.9h-.3q-1.2 0-2.1-1-.9-.9-.9-2l.1-.6.9-3.3q.5-1.9 1-3.1l2.5-7.3q-1.5-2.2-1.5-4.1 0-2.2 2.8-4.6 2.9-2.4 4.7-2.4 1.6 0 2.4 1 .9 1.1.9 3 0 1-.5 2.4-.5 1.4-1.1 2.4l-.6 1.2 3.2 4.8 3.2 4.3q1.3 1.7 2.2 4.3 1 2.6 1 5.6 0 1.5-.4 3.1 5.4-1.1 7.2-6.3.9-2.4 2-2.4 1.1 0 2.2 1.3 1 1.2 1 2.2 0 1.3-1.2 3.4-1.3 2.1-2.8 3.4-4.7 3.9-11.9 4.3-3.6 3.2-8.7 3.2-2.6 0-5.4-1.2-2.9-1.2-4.3-2.6-1.2-1.1-1.9-2.4zm28.3 0q-.6-1.4-.6-2.5 0-1 .4-2 .3-.9.9-1.4.5-.5 1.1-.5.7 0 3.4 1.3 2.6 1.3 5.8 2.5 3.2 1.3 5.1 1.3 2-2.3 2-5.4 0-2-.6-3.8-.5-1.8-1.5-3.4-1-1.6-2-2.7l-2.3-2.5q-1.6 3.7-3.5 10.6-.5 1.7-2 1.9h-.2q-1.2 0-2.2-1-.8-.9-.8-2v-.6l1-3.3q.5-1.9 1-3.1l1.2-3.8q1-2.6 1.2-3.5-1.4-2.2-1.4-4.1 0-2.2 2.8-4.6 2.8-2.4 4.7-2.4 1.6 0 2.4 1 .8 1.1.8 3 0 1-.5 2.4l-1 2.4-.6 1.2q1.2 2.1 3.2 4.8l3.2 4.3q1.2 1.7 2.2 4.3 1 2.6 1 5.6 0 1.5-.5 3.1 5.5-1.1 7.3-6.3.9-2.4 2-2.4 1.1 0 2.2 1.3 1 1.2 1 2.2 0 1.3-1.2 3.4-1.3 2.1-2.9 3.4-4.7 3.9-11.8 4.3-3.6 3.2-8.7 3.2-2.6 0-5.5-1.2-2.8-1.2-4.3-2.6-1.2-1.1-1.8-2.4z" fill="#cb9f17"/><path d="M365-202.078v1h-10v1h-10v1h-7v1h-6v1h-6v1h-6v1h-5v1h-5v1h-4v1h-4v1h-4v1h-4v1h-4v1h-3v1h-3v1h-4v1h-3v1h-3v1h-3v1h-3v1h-3v1h-3v1h-2v1h-3v1h-2v1h-3v1h-3v1h-2v1h-3v1h-2v1h-2v1h-2v1h-2v1h-2v1h-3v1h-2v1h-2v1h-2v1h-2v1h-2v1h-2v1h-2v1h-2v1h-2v1h-1v1h-2v1h-2v1h-2v1h-2v1h-1v1h-2v1h-2v1h-1v1h-2v1h-2v1h-1v1h-2v1h-1v1h-2v1h-1v1h-2v1h-1v1h-2v1h-1v1h-2v1h-1v1h-1v1h-2v1h-1v1h-1v1h-2v1h-1v1h-1v1h-2v1h-1v1h-1v1h-1v1h-2v1h-1v1h-1v1h-1v1h-2v1h-1v1h-1v1h-1v1h-1v1h-2v1h-1v1h-1v1h-1v1h-1v1h-1v1h-1v1h-1v1h-1v1h-1v1h-1v1h-1v1h-2v1h-1v1h-1v1h-1v1h-1v1h-1v1h-1v2h-1v1h-1v1h-1v1h-1v1h-1v1h-1v1h-1v1h-1v1h-1v1h-1v1h-1v2h-1v1h-1v1h-1v1h-1v1h-1v2h-1v1h-1v1h-1v1h-1v2h-1v1h-1v1h-1v2h-1v1h-1v1h-1v1h-1v2h-1v1h-1v1h-1v2h-1v1h-1v2h-1v1h-1v2h-1v2h-1v1h-1v2h-1v1h-1v2h-1v1h-1v2h-1v1h-1v2h-1v2h-1v2h-1v2h-1v1h-1v2h-1v2h-1v2h-1v2h-1v2h-1v2h-1v1h-1v2h-1v3h-1v2h-1v2h-1v3h-1v2h-1v2h-1v3h-1v2h-1v2h-1v3h-1v3h-1v3h-1v2h-1v3h-1v3h-1v3h-1v3h-1v3h-1v4h-1v4h-1v4h-1v4h-1v4h-1v4h-1v5h-1v5h-1v6h-1v6h-1v6h-1v10h-1v10h-1v24h-1v16h1v23h1v9h1v9h1v9h1v7h1v6h1v6h1v6h1v5h1v5h1v4h1v4h1v1h-1v2h-1v2h-1v1h-1v2h-1v2h-1v1h-1v2h-1v2h-1v2h-1v1h-1v2h-1v2h-1v2h-1v1h-1v2h-1v2h-1v2h-1v2h-1v2h-1v2h-1v2h-1v2h-1v2h-1v2h-1v2h-1v2h-1v3h-1v2h-1v2h-1v3h-1v2h-1v2h-1v3h-1v2h-1v2h-1v3h-1v3h-1v3h-1v3h-1v3h-1v2h-1v3h-1v3h-1v4h-1v4h-1v3h-1v4H9v4H8v4H7v5H6v5H5v5H4v5H3v7H2v8H1v8H0v47h1v9h1v8h1v6h1v5h1v5h1v5h1v4h1v4h1v3h1v3h1v4h1v3h1v3h1v3h1v2h1v3h1v3h1v2h1v3h1v2h1v3h1v2h1v2h1v2h1v2h1v2h1v2h1v2h1v2h1v2h1v2h1v1h1v2h1v2h1v1h1v2h1v2h1v1h1v2h1v2h1v1h1v2h1v1h1v2h1v1h1v1h1v2h1v1h1v2h1v1h1v1h1v2h1v1h1v1h1v2h1v1h1v1h1v1h1v2h1v1h1v1h1v1h1v1h1v2h1v1h1v1h1v1h1v1h1v1h1v1h1v1h1v1h1v1h1v1h1v1h1v1h1v1h1v1h1v1h1v1h1v1h1v1h1v1h1v1h1v1h1v1h1v1h1v1h1v1h2v1h1v1h1v1h1v1h1v1h2v1h1v1h1v1h1v1h1v1h1v1h2v1h1v1h1v1h2v1h1v1h1v1h2v1h1v1h2v1h1v1h1v1h2v1h1v1h1v1h2v1h2v1h1v1h2v1h1v1h2v1h2v1h1v1h2v1h2v1h1v1h2v1h2v1h2v1h1v1h2v1h2v1h2v1h2v1h2v1h2v1h2v1h2v1h2v1h2v1h3v1h2v1h2v1h3v1h2v1h2v1h3v1h3v1h3v1h2v1h3v1h3v1h3v1h3v1h3v1h4v1h4v1h4v1h3v1h4v1h5v1h5v1h5v1h6v1h6v1h9v1h9v1h22v1h6v-1h22v-1h8v-1h8v-1h7v-1h5v-1h5v-1h5v-1h4v-1h4v-1h3v-1h4v-1h3v-1h3v-1h4v-1h3v-1h2v-1h3v-1h3v-1h2v-1h3v-1h2v-1h3v-1h2v-1h2v-1h2v-1h2v-1h2v-1h2v-1h2v-1h2v-1h2v-1h2v-1h2v-1h1v-1h2v-1h2v-1h1v-1h2v-1h1v-1h2v-1h2v-1h1v-1h2v-1h2v-1h1v-1h1v-1h2v-1h1v-1h1v-1h2v-1h1v-1h1v-1h2v-1h1v-1h1v-1h2v-1h1v-1h1v-1h2v-1h1v-1h1v-1h1v-1h1v-1h1v-1h1v-1h1v-1h1v-1h1v-1h1v-1h2v-1h1v-1h1v-1h1v-1h1v-1h1v-1h1v-1h1v-1h1v-1h1v-2h1v-1h1v-1h1v-1h1v-1h1v-1h1v-1h1v-1h1v-1h1v-1h1v-2h1v-1h1v-1h1v-1h1v-2h1v-1h1v-1h1v-2h1v-1h1v-1h1v-2h1v-1h1v-1h1v-2h1v-1h1v-1h1v-2h1v-2h1v-1h1v-2h1v-1h1v-2h1v-1h1v-2h1v-2h1v-1h1v-2h1v-1h1v-2h1v-2h1v-2h1v-2h1v-2h1v-2h1v-2h1v-1h1v-2h1v-2h1v-2h1v-2h1v-3h1v-2h1v-2h1v-3h1v-2h1v-2h1v-2h1v-3h1v-2h1v-3h1v-3h1v-3h1v-2h1v-3h1v-3h1v-3h1v-3h1v-3h1v-4h1v-3h1v-4h1v-4h1v-3h1v-4h1v-4h1v-5h1v-5h1v-4h1v-5h1v-5h1v-7h1v-6h1v-7h1v-7h1v-11h1v-11h1v-15h1v-60h-1v-5h-1v-3h-1v-3h-1v-2h-1v-1h-1v-2h-1v-1h-1v-2h-1v-1h-1v-1h-1v-1h-1v-1h-1v-1h-2v-1h-1v-1h-1v-1h-2v-1h-2v-1h-2v-1h-3v-1h-4v-1h-17v1h-3v1h-3v1h-2v1h-2v1h-2v1h-1v1h-2v1h-1v1h-1v1h-1v1h-1v1h-1v1h-1v2h-1v1h-1v2h-1v2h-1v2h-1v2h-1v4h-1v4h-1v51h-2v1h-2v1h-3v1h-3v1h-3v1h-3v1h-3v1h-3v1h-3v1h-3v1h-4v1h-3v1h-4v1h-3v1h-4v1h-4v1h-4v1h-4v1h-4v1h-4v1h-5v1h-5v1h-5v1h-5v1h-6v1h-7v1h-7v1h-9v1h-10v1h-19v1h-11v-1h-21v-1h-10v-1h-7v-1h-7v-1h-5v-1h-4v-1h-5v-1h-4v-1h-4v-1h-3v-1h-3v-1h-3v-1h-3v-1h-3v-1h-3v-1h-2v-1h-2v-1h-3v-1h-2v-1h-3v-1h-2v-1h-2v-1h-2v-1h-2v-1h-2v-1h-1v-1h-2v-1h-2v-1h-1v-1h-2v-1h-1v-1h-2v-1h-1v-1h-2v-1h-1v-1h-2v-1h-1v-1h-2v-1h-1v-1h-1v-1h-1v-1h-1v-1h-1v-1h-1v-1h-2v-1h-1v-1h-1v-1h-1v-1h-1v-1h-1v-1h-1v-1h-1v-1h-2v-1h-1v-1h-1v-1h-1v-1h-1v-1h-1v-1h-1v-1h-1v-2h-1v-1h-1v-1h-1v-1h-1v-1h-1v-2h-1v-1h-1v-1h-1v-1h-1v-1h-1v-2h-1v-1h-1v-1h-1v-1h-1v-2h-1v-1h-1v-1h-1v-2h-1v-1h-1v-2h-1v-1h-1v-2h-1v-1h-1v-2h-1v-2h-1v-1h-1v-2h-1v-1h-1v-2h-1v-2h-1v-2h-1v-2h-1v-1h-2v1h-1v1h-1v1h-1v1h-1v1h-1v1h-1v1h-1v1h-1v1h-1v2h-1v1h-1v2h-1v1h-1v1h-1v2h-1v1h-1v2h-1v2h-1v2h-1v1h-1v2h-1v2h-1v2h-1v2h-1v3h-1v2h-1v2h-1v3h-1v2h-1v3h-1v3h-1v3h-1v3h-1v3h-1v3h-1v3h-1v4h-1v3h-1v3h-1v2h1v1h1v2h1v1h1v1h1v1h1v2h1v1h1v1h1v1h1v1h1v1h1v1h1v2h1v1h1v1h1v1h1v1h1v1h1v1h1v1h1v1h1v1h1v1h1v1h1v1h1v1h1v1h1v1h1v1h1v1h1v1h1v1h2v1h1v1h1v1h1v1h1v1h1v1h1v1h1v1h2v1h1v1h1v1h2v1h1v1h1v1h2v1h1v1h1v1h2v1h1v1h1v1h2v1h1v1h1v1h2v1h2v1h1v1h2v1h1v1h2v1h2v1h1v1h2v1h2v1h1v1h2v1h2v1h2v1h2v1h2v1h2v1h2v1h2v1h2v1h3v1h2v1h2v1h3v1h2v1h3v1h3v1h2v1h3v1h3v1h3v1h3v1h4v1h3v1h4v1h3v1h4v1h5v1h4v1h5v1h6v1h6v1h7v1h9v1h10v1h22v1h1v-1h35v-1h11v-1h10v-1h8v-1h8v-1h6v-1h6v-1h6v-1h5v-1h5v-1h5v-1h4v-1h4v-1h5v-1h4v-1h4v-1h3v-1h4v-1h4v-1h4v-1h3v-1h2v2h-1v4h-1v3h-1v3h-1v3h-1v4h-1v3h-1v3h-1v3h-1v2h-1v3h-1v2h-1v3h-1v2h-1v3h-1v2h-1v3h-1v2h-1v2h-1v2h-1v2h-1v2h-1v2h-1v2h-1v2h-1v2h-1v2h-1v1h-1v2h-1v2h-1v1h-1v2h-1v1h-1v2h-1v1h-1v2h-1v1h-1v2h-1v1h-1v2h-1v1h-1v2h-1v1h-1v1h-1v1h-1v1h-1v1h-1v2h-1v1h-1v1h-1v1h-1v1h-1v2h-1v1h-1v1h-1v1h-1v1h-1v1h-1v1h-1v1h-1v1h-1v1h-1v1h-1v1h-2v1h-1v1h-1v1h-1v1h-1v1h-1v1h-1v1h-1v1h-2v1h-1v1h-1v1h-2v1h-1v1h-2v1h-1v1h-2v1h-1v1h-1v1h-2v1h-1v1h-2v1h-1v1h-2v1h-2v1h-2v1h-2v1h-1v1h-2v1h-2v1h-2v1h-2v1h-2v1h-3v1h-2v1h-3v1h-2v1h-3v1h-3v1h-3v1h-4v1h-3v1h-4v1h-4v1h-5v1h-5v1h-7v1h-9v1h-20v1h-1v-1h-18v-1h-9v-1h-7v-1h-5v-1h-5v-1h-6v-1h-3v-1h-4v-1h-4v-1h-3v-1h-4v-1h-3v-1h-2v-1h-3v-1h-3v-1h-3v-1h-2v-1h-3v-1h-2v-1h-2v-1h-3v-1h-2v-1h-2v-1h-2v-1h-2v-1h-2v-1h-2v-1h-2v-1h-2v-1h-2v-1h-2v-1h-1v-1h-2v-1h-2v-1h-1v-1h-2v-1h-2v-1h-1v-1h-2v-1h-1v-1h-2v-1h-1v-1h-2v-1h-1v-1h-1v-1h-2v-1h-1v-1h-1v-1h-2v-1h-1v-1h-1v-1h-2v-1h-1v-1h-1v-1h-1v-1h-1v-1h-1v-1h-2v-1h-1v-1h-1v-1h-1v-1h-1v-1h-1v-1h-1v-1h-1v-1h-1v-1h-1v-1h-1v-1h-1v-1h-1v-1h-1v-1h-1v-1h-1v-1h-1v-1h-1v-1h-1v-1h-1v-1h-1v-1h-1v-2h-1v-1h-1v-1h-1v-1h-1v-2h-1v-1h-1v-1h-1v-1h-1v-2h-1v-1h-1v-1h-1v-2h-1v-1h-1v-2h-1v-1h-1v-2h-1v-1h-1v-2h-1v-2h-1v-1h-1v-2h-1v-2h-1v-1h-1v-2h-1v-2h-1v-2h-1v-2h-1v-2h-1v-2h-1v-3h-1v-2h-1v-2h-1v-3h-1v-2h-1v-3h-1v-3h-1v-3h-1v-3h-1v-3h-1v-4h-1v-5h-1v-4h-1v-5h-1v-7h-1v-8h-1v-33h1v-8h1v-7h1v-6h1v-5h1v-4h1v-4h1v-5h1v-3h1v-3h1v-3h1v-3h1v-4h1v-3h1v-3h1v-2h1v-2h1v-3h1v-2h1v-3h1v-2h1v-3h1v-2h1v-2h1v-2h1v-2h1v-3h1v-2h1v-2h1v-2h1v-2h1v-2h1v-2h1v-1h1v-2h1v-2h1v-2h1v-2h1v-1h1v-2h1v-2h1v-1h1v-2h1v-2h1v-1h1v-2h1v-2h1v-1h1v-2h1v-1h1v-2h1v-2h1v-1h1v-2h1v-1h1v-2h1v-1h1v-1h1v-2h1v-1h1v-1h1v-2h1v-1h1v-2h1v-1h1v-1h1v-2h1v-1h1v-1h1v-2h1v-1h1v-2h1v-1h1v-1h1v-2h1v-1h1v-1h1v-1h1v-1h1v-1h1v-1h1v-1h1v-2h1v-1h1v-1h1v-1h1v-1h1v-1h1v-1h1v-1h1v-2h1v-1h1v-1h1v-1h1v-1h1v-1h1v-1h1v-1h1v-1h1v-1h1v-1h1v-1h2v-1h1v-1h1v-1h1v-1h1v-1h1v-1h1v-1h1v-1h1v-1h2v-1h1v-1h1v-1h1v-1h1v-1h1v-1h1v-1h2v-1h1v-1h2v-1h1v-1h2v-1h1v-1h1v-1h2v-1h1v-1h2v-1h1v-1h2v-1h1v-1h1v-1h2v-1h1v-1h2v-1h2v-1h2v-1h2v-1h2v-1h2v-1h2v-1h2v-1h1v-1h2v-1h2v-1h2v-1h2v-1h3v-1h3v-1h2v-1h3v-1h3v-1h3v-1h3v-1h2v-1h3v-1h4v-1h4v-1h4v-1h5v-1h4v-1h7v-1h7v-1h19v-1h9v1h18v1h11v1h6v1h6v1h6v1h6v1h5v1h4v1h4v1h3v1h4v1h4v1h4v1h3v1h4v1h3v1h2v1h3v1h3v1h3v1h3v1h3v1h2v1h3v1h3v1h2v1h3v1h2v1h2v1h3v1h2v1h2v1h3v1h2v1h2v1h3v1h2v1h2v1h2v1h2v1h2v1h2v1h2v1h2v1h2v1h2v1h2v1h2v1h2v1h2v1h2v1h2v1h2v1h1v1h2v1h2v1h2v1h1v1h2v1h2v1h2v1h1v1h2v1h2v1h2v1h2v1h1v1h2v1h1v1h2v1h2v1h1v1h2v1h1v1h2v1h2v1h1v1h2v1h1v1h2v1h2v1h1v1h2v1h1v1h2v1h1v1h2v1h1v1h2v1h1v1h1v1h2v1h1v1h2v1h1v1h2v1h1v1h2v1h1v1h2v1h1v1h1v1h2v1h1v1h1v1h2v1h1v1h1v1h2v1h1v1h2v1h1v1h1v1h2v1h1v1h1v1h2v1h1v1h1v1h1v1h2v1h1v1h1v1h2v1h1v1h1v1h2v1h1v1h1v1h1v1h2v1h1v1h1v1h1v1h2v1h1v1h1v1h1v1h1v1h2v1h1v1h1v1h1v1h1v1h2v1h1v1h1v1h1v1h1v1h2v1h1v1h1v1h1v1h1v1h1v1h1v1h2v1h1v1h1v1h1v1h1v1h1v1h1v1h2v1h1v1h1v1h1v1h1v1h1v1h1v1h1v1h1v1h1v1h2v1h1v1h1v1h1v1h1v1h1v2h-1v1h-1v1h-1v1h-1v1h-1v1h-1v2h-1v1h-1v1h-1v1h-1v1h-1v1h-1v1h-1v2h-1v1h-1v1h-1v1h-1v1h-1v1h-1v1h-1v2h-1v1h-1v1h-1v2h-1v1h-1v1h-1v2h-1v1h-1v1h-1v2h-1v1h-1v1h-1v2h-1v1h-1v2h-1v1h-1v1h-1v2h-1v1h-1v2h-1v1h-1v2h-1v2h-1v1h-1v2h-1v2h-1v2h-1v1h-1v2h-1v2h-1v1h-1v2h-1v2h-1v2h-1v2h-1v2h-1v3h-1v2h-1v2h-1v2h-1v3h-1v2h-1v2h-1v2h-1v3h-1v3h-1v4h-1v3h-1v3h-1v3h-1v3h-1v3h-1v5h-1v5h-1v5h-1v5h-1v7h-1v11h-1v24h-1v5h1v12h1v8h1v4h1v5h1v4h1v3h1v3h1v2h1v3h1v3h1v2h1v2h1v2h1v2h1v2h1v1h1v2h1v1h1v2h1v1h1v2h1v1h1v1h1v1h1v2h1v1h1v1h1v1h1v1h1v1h1v1h1v1h1v1h1v1h1v1h1v1h1v1h1v1h1v1h2v1h1v1h1v1h2v1h1v1h1v4h-1v2h-1v3h-1v2h-1v3h-1v2h-1v2h-1v2h-1v2h-1v2h-1v1h-1v2h-1v2h-1v2h-1v2h-1v1h-1v1h-1v1h-1v2h-1v1h-1v1h-1v2h-1v1h-1v1h-1v2h-1v1h-1v1h-1v1h-1v1h-1v1h-1v1h-1v1h-1v1h-1v1h-1v1h-1v1h-1v1h-1v1h-1v1h-1v1h-1v1h-2v1h-1v1h-1v1h-1v1h-1v1h-2v1h-1v1h-1v1h-2v1h-1v1h-1v1h-2v1h-1v1h-2v1h-1v1h-1v1h-2v1h-2v1h-1v1h-2v1h-2v1h-1v1h-2v1h-2v1h-1v1h-2v1h-2v1h-2v1h-2v1h-2v1h-1v1h-1v1h-1v1h-1v1h-1v2h-1v1h-1v2h-1v4h-1v11h1v3h1v2h1v1h1v1h1v2h1v1h2v1h1v1h2v1h1v1h3v1h15v-1h2v-1h2v-1h2v-1h2v-1h1v-1h2v-1h2v-1h2v-1h2v-1h1v-1h2v-1h1v-1h2v-1h2v-1h1v-1h2v-1h1v-1h2v-1h1v-1h2v-1h1v-1h1v-1h2v-1h1v-1h2v-1h1v-1h1v-1h2v-1h1v-1h1v-1h1v-1h1v-1h2v-1h1v-1h1v-1h1v-1h1v-1h1v-1h2v-1h1v-1h1v-1h1v-1h1v-1h1v-1h1v-1h1v-1h1v-1h1v-1h1v-2h1v-1h1v-1h1v-1h1v-1h1v-1h1v-1h1v-1h1v-2h1v-1h1v-1h1v-2h1v-1h1v-1h1v-1h1v-2h1v-1h1v-1h1v-2h1v-1h1v-2h1v-2h1v-2h1v-1h1v-2h1v-2h1v-2h1v-1h1v-2h1v-2h1v-2h1v-2h1v-3h1v-2h1v-2h1v-3h1v-2h1v-3h1v-3h2v1h9v1h13v1h5v-1h11v-1h10v-1h3v2h1v4h1v2h1v2h1v3h1v2h1v3h1v2h1v2h1v2h1v2h1v1h1v2h1v2h1v2h1v1h1v2h1v2h1v1h1v2h1v2h1v1h1v1h1v1h1v2h1v1h1v1h1v2h1v1h1v1h1v2h1v1h1v1h1v1h1v1h1v1h1v1h1v1h1v1h1v1h1v2h1v1h1v1h1v1h1v1h1v1h1v1h1v1h1v1h2v1h1v1h1v1h1v1h1v1h2v1h1v1h1v1h1v1h1v1h1v1h2v1h1v1h1v1h2v1h1v1h2v1h1v1h1v1h2v1h1v1h2v1h1v1h2v1h1v1h2v1h2v1h1v1h2v1h2v1h1v1h2v1h2v1h2v1h1v1h2v1h2v1h2v1h2v1h15v-1h3v-1h1v-1h2v-1h1v-1h2v-1h1v-1h1v-2h1v-1h1v-2h1v-3h1v-11h-1v-4h-1v-2h-1v-1h-1v-2h-1v-1h-1v-1h-1v-1h-1v-1h-1v-1h-2v-1h-2v-1h-2v-1h-2v-1h-1v-1h-2v-1h-2v-1h-2v-1h-1v-1h-2v-1h-2v-1h-1v-1h-2v-1h-2v-1h-1v-1h-1v-1h-2v-1h-1v-1h-2v-1h-1v-1h-1v-1h-2v-1h-1v-1h-1v-1h-2v-1h-1v-1h-1v-1h-1v-1h-1v-1h-1v-1h-2v-1h-1v-1h-1v-1h-1v-1h-1v-1h-1v-1h-1v-1h-1v-1h-1v-1h-1v-1h-1v-1h-1v-1h-1v-1h-1v-1h-1v-1h-1v-2h-1v-1h-1v-1h-1v-2h-1v-1h-1v-1h-1v-2h-1v-1h-1v-1h-1v-2h-1v-1h-1v-2h-1v-2h-1v-2h-1v-1h-1v-2h-1v-2h-1v-2h-1v-2h-1v-2h-1v-3h-1v-2h-1v-3h-1v-3h-1v-3h1v-1h1v-1h1v-1h2v-1h1v-1h1v-1h2v-1h1v-1h1v-1h1v-1h1v-1h1v-1h1v-1h1v-1h1v-1h1v-1h1v-1h1v-1h1v-1h1v-2h1v-1h1v-1h1v-1h1v-1h1v-2h1v-1h1v-2h1v-2h1v-1h1v-2h1v-1h1v-2h1v-3h1v-2h1v-2h1v-2h1v-3h1v-3h1v-3h1v-3h1v-4h1v-5h1v-6h1v-11h1v-18h-1v-10h-1v-11h-1v-5h-1v-5h-1v-5h-1v-5h-1v-5h-1v-5h-1v-3h-1v-3h-1v-3h-1v-3h-1v-3h-1v-3h-1v-3h-1v-4h-1v-2h-1v-2h-1v-3h-1v-2h-1v-2h-1v-3h-1v-2h-1v-2h-1v-2h-1v-3h-1v-2h-1v-2h-1v-2h-1v-1h-1v-2h-1v-2h-1v-2h-1v-2h-1v-2h-1v-1h-1v-2h-1v-2h-1v-2h-1v-1h-1v-2h-1v-1h-1v-2h-1v-1h-1v-2h-1v-1h-1v-2h-1v-2h-1v-1h-1v-2h-1v-1h-1v-2h-1v-1h-1v-1h-1v-2h-1v-1h-1v-1h-1v-2h-1v-1h-1v-1h-1v-1h-1v-2h-1v-1h-1v-1h-1v-2h-1v-1h-1v-1h-1v-1h-1v-1h-1v-2h-1v-1h-1v-1h-1v-1h-1v-1h-1v-2h-1v-1h-1v-1h1v-2h1v-1h1v-1h1v-1h1v-2h1v-1h1v-1h1v-1h1v-2h1v-1h1v-1h1v-1h1v-1h1v-1h2v-1h1v-1h1v-1h1v-1h1v-1h1v-1h1v-1h2v-1h1v-1h1v-1h1v-1h1v-1h1v-1h2v-1h1v-1h1v-1h1v-1h1v-1h1v-1h2v-1h1v-1h1v-1h1v-1h1v-1h2v-1h1v-1h1v-1h1v-1h2v-1h1v-1h1v-1h1v-1h1v-1h2v-1h1v-1h1v-1h2v-1h1v-1h1v-1h1v-1h2v-1h1v-1h1v-1h2v-1h1v-1h1v-1h1v-1h2v-1h1v-1h1v-1h2v-1h1v-1h1v-1h2v-1h1v-1h2v-1h1v-1h1v-1h2v-1h1v-1h1v-1h2v-1h1v-1h2v-1h1v-1h1v-1h2v-1h1v-1h2v-1h1v-1h2v-1h1v-1h2v-1h1v-1h1v-1h2v-1h1v-1h2v-1h1v-1h2v-1h1v-1h2v-1h2v-1h1v-1h2v-1h1v-1h2v-1h1v-1h2v-1h1v-1h2v-1h2v-1h1v-1h2v-1h2v-1h1v-1h2v-1h2v-1h1v-1h2v-1h2v-1h2v-1h1v-1h2v-1h2v-1h1v-1h2v-1h2v-1h2v-1h2v-1h2v-1h2v-1h1v-1h2v-1h2v-1h2v-1h2v-1h2v-1h2v-1h2v-1h2v-1h2v-1h2v-1h2v-1h2v-1h2v-1h2v-1h3v-1h2v-1h2v-1h2v-1h2v-1h2v-1h3v-1h2v-1h3v-1h2v-1h3v-1h3v-1h2v-1h3v-1h2v-1h3v-1h2v-1h4v-1h3v-1h3v-1h3v-1h3v-1h3v-1h3v-1h3v-1h4v-1h4v-1h4v-1h5v-1h4v-1h4v-1h4v-1h7v-1h7v-1h7v-1h7v-1h22v-1h10v1h17v1h8v1h6v1h4v1h5v1h4v1h4v1h4v1h3v1h2v1h3v1h3v1h3v1h3v1h2v1h3v1h3v1h2v1h2v1h2v1h2v1h2v1h1v1h2v1h2v1h2v1h2v1h2v1h2v1h2v1h1v1h2v1h1v1h2v1h1v1h1v1h2v1h1v1h2v1h1v1h2v1h1v1h1v1h2v1h1v1h2v1h1v1h1v1h1v1h1v1h1v1h2v1h1v1h1v1h1v1h1v1h1v1h1v1h1v1h1v1h2v1h1v1h1v1h1v1h1v1h1v1h1v1h1v1h1v1h1v1h1v1h1v1h1v2h1v1h1v1h1v1h1v1h1v1h1v1h1v1h1v1h1v2h1v1h1v1h1v1h1v1h1v1h1v1h1v2h1v1h1v1h1v2h1v1h1v1h1v2h1v1h1v2h1v1h1v1h1v2h1v1h1v1h1v2h1v1h1v2h1v1h1v1h1v2h1v1h1v2h1v1h1v2h1v2h1v1h1v2h1v1h1v2h1v2h1v1h1v2h1v1h1v2h1v2h1v1h1v2h1v2h1v2h1v2h1v1h1v2h1v2h1v2h1v2h1v2h1v2h1v2h1v2h1v2h1v2h1v3h1v2h1v3h1v2h1v3h1v2h1v2h1v3h1v2h1v3h1v3h1v3h1v4h1v3h1v3h1v3h1v4h1v5h1v4h1v5h1v5h1v8h1v8h1v34h-1v7h-1v7h-1v6h-1v4h-1v4h-1v4h-1v3h-1v3h-1v3h-1v3h-1v3h-1v2h-1v3h-1v2h-1v3h-1v2h-1v2h-1v2h-1v2h-1v2h-1v2h-1v2h-1v1h-1v2h-1v2h-1v1h-1v2h-1v2h-1v1h-1v2h-1v1h-1v2h-1v1h-1v2h-1v1h-1v1h-1v2h-1v1h-1v1h-1v2h-1v1h-1v1h-1v1h-1v2h-1v1h-1v1h-1v1h-1v1h-1v1h-1v1h-1v1h-1v2h-1v1h-2v1h-1v1h-1v1h-1v1h-1v1h-1v1h-1v1h-1v1h-1v1h-1v1h-1v1h-1v1h-1v1h-2v1h-1v1h-1v1h-1v1h-1v1h-2v1h-1v1h-1v1h-2v1h-1v1h-1v1h-2v1h-1v1h-1v1h-2v1h-1v1h-2v1h-1v1h-2v1h-1v1h-2v1h-2v1h-1v1h-2v1h-2v1h-1v1h-2v1h-2v1h-2v1h-2v1h-2v1h-2v1h-2v1h-2v1h-2v1h-2v1h-3v1h-2v1h-2v1h-3v1h-2v1h-3v1h-3v1h-3v1h-2v1h-3v1h-4v1h-3v1h-4v1h-4v1h-3v1h-6v1h-5v1h-5v1h-7v1h-9v1h-18v1h-1v-1h-20v-1h-9v-1h-7v-1h-5v-1h-5v-1h-4v-1h-4v-1h-3v-1h-4v-1h-3v-1h-3v-1h-2v-1h-3v-1h-3v-1h-2v-1h-2v-1h-3v-1h-2v-1h-2v-1h-2v-1h-2v-1h-1v-1h-2v-1h-2v-1h-2v-1h-2v-1h-1v-1h-2v-1h-1v-1h-2v-1h-1v-1h-1v-1h-2v-1h-1v-1h-2v-1h-1v-1h-2v-1h-1v-1h-1v-1h-2v-1h-1v-1h-1v-1h-1v-1h-1v-1h-1v-1h-1v-1h-1v-1h-1v-1h-2v-1h-1v-1h-1v-1h-1v-1h-1v-1h-1v-1h-1v-1h-1v-1h-1v-1h-1v-2h-1v-1h-1v-1h-1v-1h-1v-1h-1v-1h-1v-2h-1v-1h-1v-1h-1v-1h-1v-1h-1v-1h-1v-2h-1v-1h-1v-2h-1v-1h-1v-2h-1v-1h-1v-2h-1v-1h-1v-2h-1v-1h-1v-2h-1v-1h-1v-2h-1v-2h-1v-2h-1v-2h-1v-1h-1v-2h-1v-2h-1v-2h-1v-2h-1v-2h-1v-2h-1v-2h-1v-2h-1v-3h-1v-2h-1v-3h-1v-2h-1v-3h-1v-2h-1v-3h-1v-3h-1v-2h-1v-3h-1v-3h-1v-4h-1v-3h-1v-3h-1v-4h-1v-4h-1v-1h2v1h4v1h3v1h4v1h4v1h3v1h4v1h4v1h5v1h4v1h5v1h5v1h5v1h5v1h5v1h6v1h7v1h7v1h8v1h10v1h11v1h35v1h2v-1h21v-1h10v-1h9v-1h7v-1h6v-1h6v-1h5v-1h4v-1h5v-1h4v-1h4v-1h3v-1h3v-1h4v-1h3v-1h3v-1h3v-1h3v-1h2v-1h3v-1h3v-1h2v-1h3v-1h2v-1h2v-1h3v-1h2v-1h2v-1h2v-1h2v-1h2v-1h2v-1h2v-1h2v-1h2v-1h1v-1h2v-1h2v-1h1v-1h2v-1h2v-1h1v-1h2v-1h2v-1h1v-1h2v-1h1v-1h1v-1h2v-1h1v-1h1v-1h2v-1h1v-1h1v-1h2v-1h1v-1h1v-1h2v-1h1v-1h1v-1h2v-1h1v-1h1v-1h1v-1h1v-1h1v-1h1v-1h2v-1h1v-1h1v-1h1v-1h1v-1h1v-1h1v-1h1v-1h1v-1h1v-1h1v-1h1v-1h1v-1h1v-1h1v-1h1v-1h1v-1h1v-1h1v-1h1v-1h1v-2h1v-1h1v-1h1v-1h1v-1h1v-1h1v-1h1v-1h1v-2h1v-1h1v-1h1v-2h1v-1h1v-2h-1v-3h-1v-3h-1v-3h-1v-4h-1v-3h-1v-2h-1v-3h-1v-3h-1v-3h-1v-2h-1v-3h-1v-3h-1v-2h-1v-2h-1v-2h-1v-2h-1v-3h-1v-1h-1v-2h-1v-2h-1v-2h-1v-2h-1v-1h-1v-2h-1v-1h-1v-2h-1v-1h-1v-2h-1v-1h-1v-2h-1v-1h-1v-1h-1v-2h-1v-1h-1v-1h-1v-1h-1v-1h-1v-1h-1v-1h-2v2h-1v1h-1v2h-1v2h-1v2h-1v1h-1v2h-1v1h-1v2h-1v2h-1v1h-1v2h-1v1h-1v2h-1v1h-1v2h-1v1h-1v2h-1v1h-1v1h-1v1h-1v1h-1v2h-1v1h-1v1h-1v1h-1v1h-1v2h-1v1h-1v1h-1v1h-1v2h-1v1h-1v1h-1v1h-1v1h-1v1h-1v1h-1v1h-1v1h-1v1h-2v1h-1v1h-1v1h-1v1h-1v1h-1v1h-1v1h-2v1h-1v1h-1v1h-1v1h-1v1h-1v1h-1v1h-2v1h-1v1h-2v1h-1v1h-2v1h-1v1h-2v1h-1v1h-2v1h-1v1h-2v1h-1v1h-2v1h-2v1h-2v1h-2v1h-2v1h-2v1h-3v1h-2v1h-2v1h-3v1h-2v1h-3v1h-3v1h-3v1h-3v1h-3v1h-3v1h-4v1h-4v1h-5v1h-4v1h-5v1h-7v1h-7v1h-10v1h-21v1h-11v-1h-19v-1h-10v-1h-9v-1h-7v-1h-7v-1h-5v-1h-6v-1h-5v-1h-5v-1h-5v-1h-4v-1h-4v-1h-4v-1h-4v-1h-4v-1h-4v-1h-3v-1h-4v-1h-3v-1h-3v-1h-4v-1h-3v-1h-3v-1h-3v-1h-3v-1h-3v-1h-3v-1h-2v-1h-3v-1h-2v-52h-1v-4h-1v-3h-1v-2h-1v-2h-1v-2h-1v-2h-1v-1h-1v-2h-1v-1h-1v-1h-1v-1h-1v-1h-1v-1h-1v-1h-2v-1h-1v-1h-2v-1h-2v-1h-2v-1h-3v-1h-3v-1h-17v1h-4v1h-3v1h-2v1h-2v1h-2v1h-1v1h-1v1h-2v1h-1v1h-1v1h-1v1h-1v1h-1v2h-1v1h-1v2h-1v1h-1v2h-1v3h-1v3h-1v5h-1v59h1v15h1v12h1v10h1v7h1v7h1v7h1v7h1v5h1v4h1v5h1v5h1v5h1v4h1v4h1v3h1v4h1v4h1v3h1v4h1v3h1v3h1v3h1v3h1v2h1v3h1v3h1v3h1v3h1v2h1v2h1v3h1v2h1v2h1v3h1v2h1v2h1v3h1v2h1v2h1v2h1v1h1v2h1v2h1v2h1v2h1v2h1v2h1v2h1v2h1v1h1v2h1v1h1v2h1v2h1v1h1v2h1v1h1v2h1v1h1v2h1v2h1v1h1v1h1v2h1v1h1v1h1v2h1v1h1v1h1v2h1v1h1v1h1v1h1v2h1v1h1v1h1v2h1v1h1v1h1v1h1v1h1v1h1v1h1v1h1v1h1v1h1v1h1v2h1v1h1v1h1v1h1v1h1v1h1v1h1v1h1v1h2v1h1v1h1v1h1v1h1v1h1v1h1v1h1v1h1v1h1v1h2v1h1v1h1v1h1v1h2v1h1v1h1v1h2v1h1v1h1v1h2v1h1v1h1v1h2v1h1v1h2v1h1v1h2v1h1v1h2v1h2v1h1v1h2v1h1v1h2v1h2v1h1v1h2v1h2v1h2v1h2v1h2v1h2v1h2v1h2v1h2v1h2v1h2v1h3v1h2v1h3v1h2v1h3v1h3v1h2v1h3v1h4v1h3v1h3v1h4v1h3v1h4v1h4v1h5v1h5v1h5v1h7v1h8v1h8v1h22v1h6v-1h22v-1h9v-1h9v-1h6v-1h6v-1h5v-1h5v-1h5v-1h4v-1h3v-1h4v-1h4v-1h4v-1h3v-1h3v-1h3v-1h3v-1h3v-1h3v-1h2v-1h3v-1h3v-1h2v-1h2v-1h3v-1h2v-1h2v-1h3v-1h2v-1h2v-1h2v-1h2v-1h2v-1h2v-1h2v-1h2v-1h2v-1h2v-1h2v-1h1v-1h2v-1h2v-1h1v-1h2v-1h2v-1h1v-1h2v-1h2v-1h1v-1h2v-1h1v-1h2v-1h2v-1h1v-1h1v-1h2v-1h1v-1h1v-1h2v-1h1v-1h2v-1h1v-1h1v-1h2v-1h1v-1h1v-1h2v-1h1v-1h1v-1h1v-1h1v-1h2v-1h1v-1h1v-1h1v-1h1v-1h1v-1h2v-1h1v-1h1v-1h1v-1h1v-1h1v-1h1v-1h1v-1h1v-1h1v-1h1v-1h1v-1h1v-1h1v-1h1v-1h1v-1h1v-1h1v-1h1v-1h1v-1h1v-1h1v-1h1v-1h1v-1h1v-1h1v-2h1v-1h1v-1h1v-1h1v-1h1v-2h1v-1h1v-1h1v-1h1v-1h1v-2h1v-1h1v-2h1v-1h1v-1h1v-2h1v-1h1v-2h1v-1h1v-1h1v-2h1v-1h1v-2h1v-1h1v-2h1v-2h1v-1h1v-2h1v-2h1v-1h1v-2h1v-2h1v-1h1v-2h1v-2h1v-2h1v-2h1v-2h1v-2h1v-2h1v-2h1v-2h1v-2h1v-2h1v-3h1v-3h1v-2h1v-3h1v-2h1v-3h1v-3h1v-3h1v-3h1v-3h1v-4h1v-3h1v-4h1v-4h1v-5h1v-5h1v-5h1v-5h1v-9h1v-9h1v-47h-1v-8h-1v-9h-1v-7h-1v-5h-1v-5h-1v-5h-1v-5h-1v-4h-1v-3h-1v-4h-1v-3h-1v-4h-1v-4h-1v-3h-1v-3h-1v-3h-1v-2h-1v-3h-1v-3h-1v-3h-1v-3h-1v-2h-1v-3h-1v-2h-1v-2h-1v-2h-1v-3h-1v-2h-1v-2h-1v-3h-1v-2h-1v-2h-1v-2h-1v-2h-1v-2h-1v-2h-1v-2h-1v-2h-1v-2h-1v-2h-1v-2h-1v-2h-1v-2h-1v-1h-1v-2h-1v-2h-1v-1h-1v-2h-1v-2h-1v-2h-1v-1h-1v-2h-1v-2h-1v-1h-1v-2h-1v-7h1v-4h1v-5h1v-5h1v-5h1v-7h1v-6h1v-6h1v-9h1v-9h1v-10h1v-22h1v-19h-1v-22h-1v-10h-1v-10h-1v-6h-1v-6h-1v-6h-1v-6h-1v-5h-1v-4h-1v-3h-1v-4h-1v-4h-1v-4h-1v-4h-1v-3h-1v-3h-1v-3h-1v-3h-1v-3h-1v-3h-1v-3h-1v-3h-1v-2h-1v-2h-1v-3h-1v-2h-1v-2h-1v-2h-1v-3h-1v-2h-1v-2h-1v-3h-1v-2h-1v-2h-1v-1h-1v-2h-1v-2h-1v-2h-1v-2h-1v-2h-1v-2h-1v-1h-1v-2h-1v-2h-1v-2h-1v-1h-1v-2h-1v-1h-1v-2h-1v-1h-1v-2h-1v-2h-1v-1h-1v-2h-1v-1h-1v-2h-1v-1h-1v-2h-1v-1h-1v-1h-1v-2h-1v-1h-1v-1h-1v-2h-1v-1h-1v-1h-1v-1h-1v-2h-1v-1h-1v-1h-1v-2h-1v-1h-1v-1h-1v-1h-1v-1h-1v-2h-1v-1h-1v-1h-1v-1h-1v-1h-1v-1h-1v-1h-1v-1h-1v-1h-1v-1h-1v-1h-1v-1h-1v-2h-1v-1h-1v-1h-1v-1h-1v-1h-1v-1h-1v-1h-1v-1h-2v-1h-1v-1h-1v-1h-1v-1h-1v-1h-1v-1h-1v-1h-1v-1h-1v-1h-1v-1h-1v-1h-1v-1h-2v-1h-1v-1h-1v-1h-1v-1h-2v-1h-1v-1h-1v-1h-1v-1h-2v-1h-1v-1h-1v-1h-1v-1h-2v-1h-1v-1h-1v-1h-1v-1h-2v-1h-1v-1h-2v-1h-1v-1h-1v-1h-2v-1h-1v-1h-2v-1h-1v-1h-2v-1h-1v-1h-2v-1h-1v-1h-2v-1h-1v-1h-2v-1h-2v-1h-1v-1h-2v-1h-1v-1h-2v-1h-2v-1h-2v-1h-2v-1h-2v-1h-1v-1h-2v-1h-2v-1h-2v-1h-2v-1h-2v-1h-2v-1h-2v-1h-2v-1h-2v-1h-2v-1h-3v-1h-2v-1h-2v-1h-2v-1h-2v-1h-3v-1h-2v-1h-3v-1h-3v-1h-2v-1h-3v-1h-2v-1h-3v-1h-2v-1h-4v-1h-3v-1h-3v-1h-3v-1h-4v-1h-3v-1h-3v-1h-4v-1h-4v-1h-4v-1h-4v-1h-4v-1h-5v-1h-5v-1h-6v-1h-6v-1h-6v-1h-7v-1h-10v-1h-10v-1h-56v1h-13v1h-9v1h-8v1h-6v1h-6v1h-5v1h-6v1h-4v1h-4v1h-5v1h-4v1h-3v1h-4v1h-3v1h-4v1h-3v1h-3v1h-3v1h-3v1h-3v1h-3v1h-2v1h-3v1h-2v1h-3v1h-2v1h-3v1h-2v1h-2v1h-2v1h-2v1h-3v1h-2v1h-2v1h-2v1h-2v1h-2v1h-2v1h-2v1h-2v1h-1v1h-2v1h-2v1h-2v1h-2v1h-1v1h-2v1h-2v1h-1v1h-2v1h-2v1h-1v1h-2v1h-2v1h-1v1h-2v1h-1v1h-2v1h-1v1h-2v1h-1v1h-2v1h-1v1h-2v1h-1v1h-2v1h-1v1h-1v1h-2v1h-1v1h-2v1h-1v1h-1v1h-2v1h-1v1h-1v1h-2v1h-1v1h-2v1h-1v1h-1v1h-1v1h-2v1h-1v1h-1v1h-2v-2h-1v-1h-1v-1h-1v-2h-1v-1h-1v-1h-1v-2h-1v-1h-1v-1h-1v-2h-1v-1h-1v-1h-1v-2h-1v-1h-1v-1h-1v-1h-1v-2h-1v-1h-1v-1h-1v-1h-1v-2h-1v-1h-1v-1h-1v-1h-1v-1h-1v-2h-1v-1h-1v-1h-1v-1h-1v-1h-1v-1h-1v-1h-1v-2h-1v-1h-1v-1h-1v-1h-1v-1h-1v-1h-1v-1h-1v-1h-1v-1h-1v-1h-1v-1h-1v-1h-1v-1h-1v-1h-1v-1h-1v-1h-1v-1h-1v-1h-1v-1h-1v-1h-1v-1h-1v-1h-1v-1h-1v-1h-1v-1h-1v-1h-1v-1h-1v-1h-1v-1h-1v-1h-1v-1h-1v-1h-2v-1h-1v-1h-1v-1h-1v-1h-1v-1h-1v-1h-2v-1h-1v-1h-1v-1h-1v-1h-3v1h-2v1h-1v1h-1v1h-1v1h-2v1h-1v1h-1v1h-1v1h-1v1h-1v1h-1v1h-2v1h-1v1h-1v1h-1v1h-1v1h-1v1h-2v1h-1v1h-1v1h-1v1h-1v1h-1v1h-1v1h-1v1h-1v1h-1v1h-1v1h-1v1h-1v1h-1v1h-1v1h-1v1h-1v1h-1v1h-1v1h-1v1h-1v1h-2v1h-1v1h-1v2h-1v1h-1v1h-1v1h-1v1h-1v1h-1v1h-1v1h-1v1h-1v1h-1v1h-1v2h-1v1h-1v1h-1v1h-1v1h-1v1h-1v1h-1v1h-1v2h-1v1h-1v1h-1v1h-1v1h-1v2h-1v1h-1v1h-1v1h-1v2h-1v1h-1v1h-1v1h-1v2h-1v1h-1v1h-2v-1h-1v-1h-1v-1h-2v-1h-1v-1h-1v-1h-2v-1h-1v-1h-1v-1h-2v-1h-1v-1h-2v-1h-1v-1h-1v-1h-2v-1h-1v-1h-1v-1h-2v-1h-1v-1h-2v-1h-1v-1h-2v-1h-1v-1h-2v-1h-1v-1h-2v-1h-1v-1h-2v-1h-1v-1h-2v-1h-1v-1h-2v-1h-2v-1h-1v-1h-2v-1h-2v-1h-1v-1h-2v-1h-2v-1h-1v-1h-2v-1h-2v-1h-2v-1h-2v-1h-1v-1h-2v-1h-2v-1h-2v-1h-2v-1h-2v-1h-2v-1h-2v-1h-2v-1h-3v-1h-2v-1h-2v-1h-2v-1h-2v-1h-3v-1h-2v-1h-3v-1h-2v-1h-3v-1h-2v-1h-3v-1h-3v-1h-3v-1h-3v-1h-3v-1h-3v-1h-4v-1h-3v-1h-4v-1h-3v-1h-4v-1h-5v-1h-4v-1h-4v-1h-5v-1h-6v-1h-6v-1h-6v-1h-8v-1h-9v-1h-13v-1h-56zm9 76v-1h33v1h14v1h8v1h8v1h7v1h5v1h4v1h5v1h5v1h4v1h4v1h3v1h4v1h4v1h3v1h3v1h3v1h3v1h3v1h3v1h2v1h3v1h3v1h2v1h3v1h2v1h2v1h2v1h3v1h2v1h2v1h2v1h2v1h2v1h2v1h2v1h2v1h2v1h2v1h2v1h2v1h2v1h1v1h2v1h1v1h2v1h2v1h1v1h2v1h1v1h2v1h2v1h1v1h2v1h1v1h1v1h2v1h1v1h1v1h2v1h1v1h1v1h2v1h1v1h1v1h2v1h1v1h1v1h1v1h1v1h1v1h2v1h1v1h1v1h1v1h1v3h-1v2h-1v2h-1v3h-1v3h-1v3h-1v3h-1v3h-1v2h-1v3h-1v4h-1v4h-1v3h-1v4h-1v4h-1v4h-1v4h-1v5h-1v6h-1v6h-1v7h-1v9h-1v16h-1v20h1v19h1v8h1v9h1v6h1v6h1v5h1v5h1v5h1v4h1v4h1v4h1v4h1v4h1v2h-2v-1h-1v-1h-2v-1h-1v-1h-2v-1h-2v-1h-2v-1h-1v-1h-2v-1h-2v-1h-1v-1h-2v-1h-2v-1h-1v-1h-2v-1h-2v-1h-2v-1h-1v-1h-2v-1h-2v-1h-2v-1h-2v-1h-2v-1h-1v-1h-2v-1h-2v-1h-2v-1h-2v-1h-2v-1h-2v-1h-1v-1h-2v-1h-2v-1h-2v-1h-3v-1h-2v-1h-2v-1h-2v-1h-2v-1h-2v-1h-2v-1h-2v-1h-2v-1h-2v-1h-2v-1h-3v-1h-2v-1h-2v-1h-3v-1h-2v-1h-2v-1h-3v-1h-2v-1h-3v-1h-2v-1h-3v-1h-2v-1h-3v-1h-2v-1h-3v-1h-2v-1h-3v-1h-3v-1h-3v-1h-3v-1h-4v-1h-3v-1h-3v-1h-3v-1h-3v-1h-3v-1h-3v-1h-4v-1h-4v-1h-4v-1h-5v-1h-4v-1h-4v-1h-4v-1h-4v-1h-7v-1h-6v-1h-6v-1h-7v-1h-6v-1h-12v-1h-14v-1h-23v1h-13v1h-13v1h-7v1h-6v1h-5v1h-6v1h-4v1h-4v1h-4v1h-4v1h-4v1h-3v1h-4v1h-2v1h-3v1h-3v1h-3v1h-3v1h-3v1h-2v1h-3v1h-2v1h-2v1h-2v1h-3v1h-2v1h-2v1h-2v1h-2v1h-2v1h-2v1h-2v1h-2v1h-2v1h-1v1h-2v1h-2v1h-2v1h-2v1h-1v1h-2v1h-2v1h-1v1h-2v1h-1v1h-2v1h-1v1h-2v1h-1v1h-2v1h-1v1h-2v1h-1v1h-2v1h-1v1h-1v1h-2v1h-1v1h-1v1h-1v1h-2v1h-1v1h-1v1h-1v1h-2v1h-1v1h-1v1h-2v1h-1v1h-1v1h-1v1h-1v1h-1v1h-1v1h-2v1h-1v1h-1v1h-1v1h-1v1h-1v1h-1v1h-1v1h-1v1h-1v1h-1v-5h-1v-28h1v-17h1v-8h1v-9h1v-5h1v-5h1v-5h1v-5h1v-4h1v-4h1v-3h1v-4h1v-3h1v-3h1v-3h1v-3h1v-2h1v-3h1v-3h1v-2h1v-3h1v-2h1v-2h1v-2h1v-2h1v-2h1v-2h1v-2h1v-2h1v-2h1v-2h1v-2h1v-1h1v-2h1v-2h1v-2h1v-1h1v-2h1v-1h1v-2h1v-1h1v-2h1v-1h1v-2h1v-1h1v-2h1v-1h1v-2h1v-1h1v-1h1v-1h1v-2h1v-1h1v-1h1v-2h1v-1h1v-1h1v-1h1v-1h1v-1h1v-1h1v-2h1v-1h1v-1h1v-1h1v-1h1v-1h1v-1h1v-1h1v-1h1v-1h1v-1h1v-1h1v-1h1v-1h1v-1h1v-1h1v-1h1v-1h1v-1h1v-1h1v-1h2v-1h1v-1h1v-1h1v-1h1v-1h1v-1h2v-1h1v-1h1v-1h1v-1h2v-1h1v-1h1v-1h2v-1h1v-1h1v-1h2v-1h1v-1h2v-1h1v-1h1v-1h2v-1h1v-1h2v-1h1v-1h2v-1h2v-1h1v-1h2v-1h1v-1h2v-1h2v-1h2v-1h2v-1h2v-1h1v-1h2v-1h2v-1h2v-1h2v-1h2v-1h2v-1h2v-1h3v-1h2v-1h2v-1h3v-1h2v-1h2v-1h2v-1h3v-1h2v-1h3v-1h3v-1h3v-1h3v-1h3v-1h3v-1h4v-1h3v-1h3v-1h5v-1h4v-1h5v-1h4v-1h5v-1h6v-1h8v-1h8v-1h13zm644 0v-1h34v1h12v1h8v1h8v1h6v1h5v1h4v1h5v1h4v1h5v1h3v1h3v1h4v1h3v1h3v1h3v1h3v1h3v1h3v1h2v1h3v1h2v1h2v1h3v1h2v1h2v1h2v1h3v1h2v1h2v1h2v1h2v1h2v1h2v1h2v1h2v1h1v1h2v1h2v1h2v1h2v1h1v1h2v1h2v1h1v1h2v1h1v1h2v1h1v1h2v1h1v1h2v1h1v1h1v1h2v1h1v1h2v1h1v1h1v1h1v1h2v1h1v1h1v1h1v1h2v1h1v1h1v1h1v1h1v1h1v1h2v1h1v1h1v1h1v1h1v1h1v1h1v1h1v1h1v1h1v1h1v1h1v1h1v1h1v1h1v1h1v1h1v1h1v1h1v1h1v1h1v1h1v2h1v1h1v1h1v1h1v1h1v1h1v2h1v1h1v1h1v2h1v1h1v1h1v1h1v2h1v1h1v2h1v1h1v1h1v2h1v1h1v2h1v1h1v2h1v1h1v2h1v2h1v2h1v1h1v2h1v2h1v2h1v1h1v2h1v3h1v2h1v2h1v2h1v2h1v2h1v2h1v3h1v2h1v3h1v3h1v2h1v3h1v2h1v4h1v3h1v4h1v3h1v4h1v4h1v5h1v4h1v5h1v6h1v8h1v8h1v17h1v30h-1v4h-1v-1h-1v-1h-1v-1h-1v-1h-1v-1h-1v-1h-1v-1h-1v-1h-1v-1h-1v-1h-2v-1h-1v-1h-1v-1h-1v-1h-1v-1h-1v-1h-1v-1h-2v-1h-1v-1h-1v-1h-1v-1h-2v-1h-1v-1h-1v-1h-2v-1h-1v-1h-1v-1h-1v-1h-2v-1h-1v-1h-1v-1h-2v-1h-1v-1h-2v-1h-1v-1h-2v-1h-1v-1h-2v-1h-1v-1h-2v-1h-1v-1h-2v-1h-1v-1h-2v-1h-1v-1h-2v-1h-2v-1h-2v-1h-2v-1h-1v-1h-2v-1h-2v-1h-2v-1h-2v-1h-1v-1h-3v-1h-2v-1h-2v-1h-2v-1h-2v-1h-3v-1h-2v-1h-2v-1h-2v-1h-3v-1h-2v-1h-3v-1h-3v-1h-3v-1h-3v-1h-3v-1h-2v-1h-4v-1h-3v-1h-4v-1h-4v-1h-4v-1h-4v-1h-4v-1h-6v-1h-5v-1h-6v-1h-7v-1h-13v-1h-12v-1h-23v1h-15v1h-11v1h-7v1h-7v1h-6v1h-7v1h-6v1h-4v1h-4v1h-4v1h-4v1h-5v1h-4v1h-4v1h-4v1h-3v1h-3v1h-3v1h-3v1h-3v1h-3v1h-4v1h-3v1h-3v1h-3v1h-3v1h-2v1h-3v1h-2v1h-3v1h-2v1h-3v1h-2v1h-3v1h-2v1h-3v1h-2v1h-3v1h-2v1h-2v1h-2v1h-2v1h-3v1h-2v1h-2v1h-2v1h-2v1h-2v1h-2v1h-2v1h-2v1h-3v1h-2v1h-2v1h-2v1h-1v1h-2v1h-2v1h-2v1h-2v1h-2v1h-2v1h-1v1h-2v1h-2v1h-2v1h-2v1h-2v1h-2v1h-1v1h-2v1h-2v1h-2v1h-1v1h-2v1h-2v1h-1v1h-2v1h-2v1h-1v1h-2v1h-2v1h-1v1h-2v1h-1v-4h1v-5h1v-5h1v-4h1v-5h1v-6h1v-7h1v-8h1v-8h1v-17h1v-25h-1v-17h-1v-8h-1v-7h-1v-7h-1v-5h-1v-5h-1v-4h-1v-5h-1v-4h-1v-4h-1v-4h-1v-3h-1v-3h-1v-3h-1v-4h-1v-3h-1v-3h-1v-3h-1v-2h-1v-3h-1v-3h-1v-2h-1v-3h-1v-2h-1v-3h1v-1h1v-1h1v-1h1v-1h1v-1h2v-1h1v-1h1v-1h1v-1h1v-1h1v-1h1v-1h2v-1h1v-1h1v-1h2v-1h1v-1h1v-1h2v-1h1v-1h1v-1h2v-1h1v-1h1v-1h2v-1h2v-1h1v-1h2v-1h1v-1h2v-1h1v-1h2v-1h2v-1h1v-1h2v-1h2v-1h2v-1h1v-1h2v-1h2v-1h2v-1h2v-1h2v-1h2v-1h2v-1h2v-1h2v-1h2v-1h2v-1h3v-1h2v-1h2v-1h2v-1h3v-1h2v-1h3v-1h3v-1h3v-1h2v-1h3v-1h3v-1h3v-1h3v-1h4v-1h3v-1h4v-1h3v-1h4v-1h4v-1h5v-1h5v-1h4v-1h5v-1h7v-1h8v-1h8v-1h14zm-305 49v-1h2v1h1v1h1v1h1v1h1v1h1v1h1v1h1v1h1v1h1v1h1v1h1v2h1v1h1v1h1v1h1v1h1v1h1v2h1v1h1v1h1v1h1v1h1v2h1v1h1v1h1v2h1v1h1v1h1v2h1v1h1v2h1v1h1v2h1v1h1v2h1v2h1v1h1v2h1v2h1v1h1v2h1v2h1v2h1v1h-1v-1h-7v-1h-7v-1h-11v-1h-43v1h-9v1h-9v1h-4v-1h1v-1h1v-2h1v-2h1v-1h1v-2h1v-1h1v-2h1v-2h1v-1h1v-1h1v-2h1v-1h1v-1h1v-2h1v-1h1v-2h1v-1h1v-1h1v-2h1v-1h1v-1h1v-1h1v-1h1v-1h1v-2h1v-1h1v-1h1v-1h1v-1h1v-1h1v-1h1v-1h1v-1h1v-1h1v-1h1v-1h1v-1h1v-1h1v-1h1v-1h1v-1h1v-1h1v-1h1v-1h1v-1h1zm-14 123v-1h40v1h9v1h8v1h5v1h6v1h4v1h5v1h3v1h1v9h1v16h-1v9h-1v10h-1v5h-4v-1h-5v-1h-5v-1h-6v-1h-6v-1h-9v-1h-15v-1h-22v1h-13v1h-9v1h-7v1h-7v1h-5v1h-5v1h-5v1h-4v1h-1v-2h-1v-6h-1v-6h-1v-7h-1v-16h-1v-12h1v-1h4v-1h4v-1h4v-1h5v-1h5v-1h6v-1h7v-1h6v-1h12zm10 119v-1h32v1h11v1h3v1h-1v2h-1v2h-1v1h-1v2h-1v2h-1v1h-1v2h-1v1h-1v2h-1v2h-1v1h-1v2h-1v2h-1v1h-1v2h-1v2h-1v1h-1v2h-1v1h-1v1h-1v2h-1v1h-1v1h-1v2h-1v1h-1v1h-1v2h-1v1h-1v1h-1v2h-1v1h-1v1h-1v2h-1v1h-1v1h-1v2h-1v1h-1v1h-1v1h-1v1h-1v1h-1v-1h-1v-1h-1v-1h-1v-2h-1v-1h-1v-1h-1v-1h-1v-2h-1v-1h-1v-1h-1v-1h-1v-2h-1v-1h-1v-1h-1v-2h-1v-1h-1v-2h-1v-1h-1v-1h-1v-2h-1v-1h-1v-2h-1v-1h-1v-2h-1v-1h-1v-2h-1v-1h-1v-2h-1v-2h-1v-1h-1v-2h-1v-2h-1v-1h-1v-2h-1v-2h-1v-2h-1v-1h-1v-2h-1v-2h-1v-1h6v-1h7v-1h8v-1h14zm3 242v-1h3v1h1v1h1v1h1v1h1v1h1v1h1v1h1v2h1v1h1v1h1v1h1v1h1v1h1v2h1v1h1v1h1v2h1v1h1v1h1v2h1v1h1v2h1v2h1v1h1v2h1v2h1v1h1v2h1v2h1v3h1v2h1v2h1v2h1v2h1v3h1v4h1v3h1v4h1v3h1v5h1v8h1v19h-1v4h-1v4h-1v3h-1v2h-1v2h-1v1h-1v2h-1v1h-1v2h-1v1h-1v1h-1v1h-1v1h-1v1h-1v1h-1v1h-1v1h-2v1h-1v1h-2v1h-2v1h-2v1h-3v1h-3v1h-5v1h-13v-1h-4v-1h-4v-1h-2v-1h-2v-1h-3v-1h-1v-1h-1v-1h-2v-1h-1v-1h-1v-1h-1v-1h-1v-1h-1v-1h-1v-1h-1v-1h-1v-1h-1v-2h-1v-2h-1v-1h-1v-2h-1v-3h-1v-3h-1v-3h-1v-5h-1v-22h1v-8h1v-4h1v-4h1v-4h1v-2h1v-3h1v-3h1v-2h1v-2h1v-2h1v-2h1v-2h1v-2h1v-2h1v-2h1v-1h1v-2h1v-1h1v-2h1v-1h1v-2h1v-1h1v-1h1v-1h1v-2h1v-1h1v-1h1v-1h1v-1h1v-2h1v-1h1v-1h1v-1h1v-1h1v-1h1v-1h1v-1h1v-1h1v-1h1v-1h1v-1" fill="url(#A)" transform="matrix(.24204 0 0 -.24204 467.5465 429.97472)"/></svg>